<?xml version="1.0" encoding="utf-8" standalone="no"?>
<!DOCTYPE svg PUBLIC "-//W3C//DTD SVG 1.1//EN"
  "http://www.w3.org/Graphics/SVG/1.1/DTD/svg11.dtd">
<svg xmlns:xlink="http://www.w3.org/1999/xlink" width="360pt" height="360pt" viewBox="0 0 360 360" xmlns="http://www.w3.org/2000/svg" version="1.1">
 <metadata>
  <rdf:RDF xmlns:dc="http://purl.org/dc/elements/1.1/" xmlns:cc="http://creativecommons.org/ns#" xmlns:rdf="http://www.w3.org/1999/02/22-rdf-syntax-ns#">
   <cc:Work>
    <dc:type rdf:resource="http://purl.org/dc/dcmitype/StillImage"/>
    <dc:date>2023-11-14T14:14:13.171033</dc:date>
    <dc:format>image/svg+xml</dc:format>
    <dc:creator>
     <cc:Agent>
      <dc:title>Matplotlib v3.7.2, https://matplotlib.org/</dc:title>
     </cc:Agent>
    </dc:creator>
   </cc:Work>
  </rdf:RDF>
 </metadata>
 <defs>
  <style type="text/css">*{stroke-linejoin: round; stroke-linecap: butt}</style>
 </defs>
 <g id="figure_1">
  <g id="patch_1">
   <path d="M 0 360 
L 360 360 
L 360 0 
L 0 0 
z
" style="fill: #ffffff"/>
  </g>
  <g id="axes_1">
   <g id="patch_2">
    <path d="M 45 320.4 
L 324 320.4 
L 324 43.2 
L 45 43.2 
z
" style="fill: #ffffff"/>
   </g>
   <g id="matplotlib.axis_1">
    <g id="xtick_1">
     <g id="line2d_1">
      <defs>
       <path id="m50a396ab1d" d="M 0 0 
L 0 12 
" style="stroke: #262626; stroke-width: 2.5"/>
      </defs>
      <g>
       <use xlink:href="#m50a396ab1d" x="84.582645" y="320.4" style="fill: #262626; stroke: #262626; stroke-width: 2.5"/>
      </g>
     </g>
     <g id="text_1">
      <text style="fill: #262626; font: 22px 'Arial', 'DejaVu Sans', 'Liberation Sans', 'Bitstream Vera Sans', sans-serif; text-anchor: middle" x="84.582645" y="352.616562" transform="rotate(-0 84.582645 352.616562)">5</text>
     </g>
    </g>
    <g id="xtick_2">
     <g id="line2d_2">
      <g>
       <use xlink:href="#m50a396ab1d" x="161.442149" y="320.4" style="fill: #262626; stroke: #262626; stroke-width: 2.5"/>
      </g>
     </g>
     <g id="text_2">
      <text style="fill: #262626; font: 22px 'Arial', 'DejaVu Sans', 'Liberation Sans', 'Bitstream Vera Sans', sans-serif; text-anchor: middle" x="161.442149" y="352.616562" transform="rotate(-0 161.442149 352.616562)">10</text>
     </g>
    </g>
    <g id="xtick_3">
     <g id="line2d_3">
      <g>
       <use xlink:href="#m50a396ab1d" x="238.301653" y="320.4" style="fill: #262626; stroke: #262626; stroke-width: 2.5"/>
      </g>
     </g>
     <g id="text_3">
      <text style="fill: #262626; font: 22px 'Arial', 'DejaVu Sans', 'Liberation Sans', 'Bitstream Vera Sans', sans-serif; text-anchor: middle" x="238.301653" y="352.616562" transform="rotate(-0 238.301653 352.616562)">15</text>
     </g>
    </g>
    <g id="xtick_4">
     <g id="line2d_4">
      <g>
       <use xlink:href="#m50a396ab1d" x="315.161157" y="320.4" style="fill: #262626; stroke: #262626; stroke-width: 2.5"/>
      </g>
     </g>
     <g id="text_4">
      <text style="fill: #262626; font: 22px 'Arial', 'DejaVu Sans', 'Liberation Sans', 'Bitstream Vera Sans', sans-serif; text-anchor: middle" x="315.161157" y="352.616562" transform="rotate(-0 315.161157 352.616562)">20</text>
     </g>
    </g>
    <g id="text_5">
     <text style="fill: #262626; font: 24px 'Arial', 'DejaVu Sans', 'Liberation Sans', 'Bitstream Vera Sans', sans-serif; text-anchor: middle" x="184.5" y="379.428125" transform="rotate(-0 184.5 379.428125)">Frequency (Hz)</text>
    </g>
   </g>
   <g id="matplotlib.axis_2">
    <g id="ytick_1">
     <g id="line2d_5">
      <defs>
       <path id="me4223208f3" d="M 0 0 
L -12 0 
" style="stroke: #262626; stroke-width: 2.5"/>
      </defs>
      <g>
       <use xlink:href="#me4223208f3" x="45" y="299.198329" style="fill: #262626; stroke: #262626; stroke-width: 2.5"/>
      </g>
     </g>
     <g id="text_6">
      <text style="fill: #262626; font: 22px 'Arial', 'DejaVu Sans', 'Liberation Sans', 'Bitstream Vera Sans', sans-serif; text-anchor: end" x="29.5" y="307.55661" transform="rotate(-0 29.5 307.55661)">400</text>
     </g>
    </g>
    <g id="ytick_2">
     <g id="line2d_6">
      <g>
       <use xlink:href="#me4223208f3" x="45" y="250.672928" style="fill: #262626; stroke: #262626; stroke-width: 2.5"/>
      </g>
     </g>
     <g id="text_7">
      <text style="fill: #262626; font: 22px 'Arial', 'DejaVu Sans', 'Liberation Sans', 'Bitstream Vera Sans', sans-serif; text-anchor: end" x="29.5" y="259.031209" transform="rotate(-0 29.5 259.031209)">600</text>
     </g>
    </g>
    <g id="ytick_3">
     <g id="line2d_7">
      <g>
       <use xlink:href="#me4223208f3" x="45" y="202.147527" style="fill: #262626; stroke: #262626; stroke-width: 2.5"/>
      </g>
     </g>
     <g id="text_8">
      <text style="fill: #262626; font: 22px 'Arial', 'DejaVu Sans', 'Liberation Sans', 'Bitstream Vera Sans', sans-serif; text-anchor: end" x="29.5" y="210.505808" transform="rotate(-0 29.5 210.505808)">800</text>
     </g>
    </g>
    <g id="ytick_4">
     <g id="line2d_8">
      <g>
       <use xlink:href="#me4223208f3" x="45" y="153.622126" style="fill: #262626; stroke: #262626; stroke-width: 2.5"/>
      </g>
     </g>
     <g id="text_9">
      <text style="fill: #262626; font: 22px 'Arial', 'DejaVu Sans', 'Liberation Sans', 'Bitstream Vera Sans', sans-serif; text-anchor: end" x="29.5" y="161.980407" transform="rotate(-0 29.5 161.980407)">1000</text>
     </g>
    </g>
    <g id="ytick_5">
     <g id="line2d_9">
      <g>
       <use xlink:href="#me4223208f3" x="45" y="105.096725" style="fill: #262626; stroke: #262626; stroke-width: 2.5"/>
      </g>
     </g>
     <g id="text_10">
      <text style="fill: #262626; font: 22px 'Arial', 'DejaVu Sans', 'Liberation Sans', 'Bitstream Vera Sans', sans-serif; text-anchor: end" x="29.5" y="113.455006" transform="rotate(-0 29.5 113.455006)">1200</text>
     </g>
    </g>
    <g id="ytick_6">
     <g id="line2d_10">
      <g>
       <use xlink:href="#me4223208f3" x="45" y="56.571324" style="fill: #262626; stroke: #262626; stroke-width: 2.5"/>
      </g>
     </g>
     <g id="text_11">
      <text style="fill: #262626; font: 22px 'Arial', 'DejaVu Sans', 'Liberation Sans', 'Bitstream Vera Sans', sans-serif; text-anchor: end" x="29.5" y="64.929605" transform="rotate(-0 29.5 64.929605)">1400</text>
     </g>
    </g>
    <g id="text_12">
     <text style="fill: #262626; font: 24px 'Arial', 'DejaVu Sans', 'Liberation Sans', 'Bitstream Vera Sans', sans-serif; text-anchor: middle" x="-35.48125" y="181.8" transform="rotate(-90 -35.48125 181.8)">Power (a.u.)</text>
    </g>
   </g>
   <g id="PolyCollection_1">
    <defs>
     <path id="m6dfc8b3342" d="M 57.681818 -198.306985 
L 57.681818 -139.672104 
L 61.524793 -130.317164 
L 65.367769 -126.947552 
L 69.210744 -122.442548 
L 73.053719 -117.868146 
L 76.896694 -117.959173 
L 80.739669 -114.541004 
L 84.582645 -111.836124 
L 88.42562 -112.465764 
L 92.268595 -112.152134 
L 96.11157 -114.961221 
L 99.954545 -117.36175 
L 103.797521 -120.317366 
L 107.640496 -122.725471 
L 111.483471 -129.049356 
L 115.326446 -134.638988 
L 119.169421 -145.178724 
L 123.012397 -154.017501 
L 126.855372 -160.845643 
L 130.698347 -174.064996 
L 134.541322 -181.089262 
L 138.384298 -190.041791 
L 142.227273 -196.720576 
L 146.070248 -197.582559 
L 149.913223 -193.932498 
L 153.756198 -200.086818 
L 157.599174 -195.794633 
L 161.442149 -193.313775 
L 165.285124 -182.819653 
L 169.128099 -176.550769 
L 172.971074 -169.468563 
L 176.81405 -161.7504 
L 180.657025 -150.900332 
L 184.5 -141.370591 
L 188.342975 -133.764896 
L 192.18595 -123.865423 
L 196.028926 -120.918245 
L 199.871901 -111.203175 
L 203.714876 -107.39748 
L 207.557851 -104.721847 
L 211.400826 -100.780502 
L 215.243802 -97.830227 
L 219.086777 -96.418315 
L 222.929752 -93.066192 
L 226.772727 -91.900536 
L 230.615702 -92.269115 
L 234.458678 -89.468217 
L 238.301653 -89.351396 
L 242.144628 -87.747319 
L 245.987603 -87.65421 
L 249.830579 -85.52104 
L 253.673554 -85.913322 
L 257.516529 -85.089166 
L 261.359504 -81.109548 
L 265.202479 -80.584305 
L 269.045455 -78.73552 
L 272.88843 -75.737978 
L 276.731405 -73.368051 
L 280.57438 -71.731891 
L 284.417355 -68.782434 
L 288.260331 -63.735667 
L 292.103306 -63.766739 
L 295.946281 -60.099077 
L 299.789256 -58.632633 
L 303.632231 -56.587798 
L 307.475207 -53.021581 
L 311.318182 -52.2 
L 311.318182 -80.021448 
L 311.318182 -80.021448 
L 307.475207 -83.344099 
L 303.632231 -86.411438 
L 299.789256 -88.996875 
L 295.946281 -93.290536 
L 292.103306 -96.473155 
L 288.260331 -100.714298 
L 284.417355 -102.938548 
L 280.57438 -106.349151 
L 276.731405 -112.722689 
L 272.88843 -117.084388 
L 269.045455 -119.179883 
L 265.202479 -120.140481 
L 261.359504 -124.180856 
L 257.516529 -124.895174 
L 253.673554 -126.16853 
L 249.830579 -129.134094 
L 245.987603 -127.96391 
L 242.144628 -130.381063 
L 238.301653 -130.662032 
L 234.458678 -132.843665 
L 230.615702 -136.00623 
L 226.772727 -138.421154 
L 222.929752 -135.991182 
L 219.086777 -139.348078 
L 215.243802 -141.52612 
L 211.400826 -145.226792 
L 207.557851 -149.251995 
L 203.714876 -154.892672 
L 199.871901 -161.526718 
L 196.028926 -167.194269 
L 192.18595 -182.040723 
L 188.342975 -193.980351 
L 184.5 -205.334125 
L 180.657025 -218.306818 
L 176.81405 -231.793193 
L 172.971074 -239.091678 
L 169.128099 -251.045956 
L 165.285124 -260.036698 
L 161.442149 -273.824832 
L 157.599174 -278.37 
L 153.756198 -282.96384 
L 149.913223 -292.115997 
L 146.070248 -294.924864 
L 142.227273 -303.445239 
L 138.384298 -302.366476 
L 134.541322 -304.2 
L 130.698347 -290.475608 
L 126.855372 -281.990046 
L 123.012397 -273.596056 
L 119.169421 -258.207438 
L 115.326446 -238.810803 
L 111.483471 -225.429115 
L 107.640496 -208.738947 
L 103.797521 -198.293827 
L 99.954545 -190.268329 
L 96.11157 -179.409535 
L 92.268595 -170.262485 
L 88.42562 -164.099405 
L 84.582645 -161.795092 
L 80.739669 -162.861703 
L 76.896694 -163.745129 
L 73.053719 -168.533885 
L 69.210744 -171.479083 
L 65.367769 -176.959361 
L 61.524793 -185.491775 
L 57.681818 -198.306985 
z
" style="stroke: #4c72b0; stroke-opacity: 0.2; stroke-width: 2"/>
    </defs>
    <g clip-path="url(#pe8623e6eb5)">
     <use xlink:href="#m6dfc8b3342" x="0" y="360" style="fill: #4c72b0; fill-opacity: 0.2; stroke: #4c72b0; stroke-opacity: 0.2; stroke-width: 2"/>
    </g>
   </g>
   <g id="PolyCollection_2">
    <defs>
     <path id="mc498a24509" d="M 57.681818 -217.238231 
L 57.681818 -143.342476 
L 61.524793 -134.370724 
L 65.367769 -124.57403 
L 69.210744 -120.301009 
L 73.053719 -116.001191 
L 76.896694 -113.516409 
L 80.739669 -110.621803 
L 84.582645 -107.213328 
L 88.42562 -105.097692 
L 92.268595 -102.991507 
L 96.11157 -104.796323 
L 99.954545 -105.048144 
L 103.797521 -104.371672 
L 107.640496 -110.919469 
L 111.483471 -110.124172 
L 115.326446 -119.380602 
L 119.169421 -122.112407 
L 123.012397 -130.346988 
L 126.855372 -138.513747 
L 130.698347 -147.061669 
L 134.541322 -152.292417 
L 138.384298 -157.745747 
L 142.227273 -171.72763 
L 146.070248 -176.86457 
L 149.913223 -185.407659 
L 153.756198 -187.045709 
L 157.599174 -190.536498 
L 161.442149 -188.488043 
L 165.285124 -183.411279 
L 169.128099 -180.606375 
L 172.971074 -171.432054 
L 176.81405 -163.373828 
L 180.657025 -155.802669 
L 184.5 -145.750909 
L 188.342975 -135.095937 
L 192.18595 -129.48793 
L 196.028926 -122.761214 
L 199.871901 -113.675334 
L 203.714876 -112.380183 
L 207.557851 -107.240797 
L 211.400826 -105.1627 
L 215.243802 -104.175173 
L 219.086777 -100.609148 
L 222.929752 -97.677635 
L 226.772727 -96.758806 
L 230.615702 -96.32375 
L 234.458678 -94.926838 
L 238.301653 -94.304296 
L 242.144628 -95.432421 
L 245.987603 -93.12224 
L 249.830579 -92.679427 
L 253.673554 -93.120861 
L 257.516529 -92.803818 
L 261.359504 -90.252965 
L 265.202479 -90.690471 
L 269.045455 -85.767947 
L 272.88843 -84.250224 
L 276.731405 -80.410712 
L 280.57438 -77.303212 
L 284.417355 -75.623316 
L 288.260331 -70.229537 
L 292.103306 -69.556389 
L 295.946281 -66.535593 
L 299.789256 -64.986556 
L 303.632231 -63.858369 
L 307.475207 -60.275446 
L 311.318182 -56.833969 
L 311.318182 -93.360291 
L 311.318182 -93.360291 
L 307.475207 -98.587089 
L 303.632231 -100.673388 
L 299.789256 -105.573284 
L 295.946281 -109.479969 
L 292.103306 -114.571065 
L 288.260331 -117.48611 
L 284.417355 -121.072509 
L 280.57438 -127.110385 
L 276.731405 -130.711295 
L 272.88843 -138.300754 
L 269.045455 -140.402885 
L 265.202479 -145.286334 
L 261.359504 -145.171274 
L 257.516529 -148.343845 
L 253.673554 -149.146102 
L 249.830579 -146.614648 
L 245.987603 -146.843272 
L 242.144628 -148.18259 
L 238.301653 -150.723202 
L 234.458678 -150.131124 
L 230.615702 -149.627195 
L 226.772727 -152.328804 
L 222.929752 -153.542723 
L 219.086777 -154.492593 
L 215.243802 -157.123222 
L 211.400826 -165.061214 
L 207.557851 -167.04514 
L 203.714876 -172.136808 
L 199.871901 -179.644591 
L 196.028926 -187.670355 
L 192.18595 -196.533297 
L 188.342975 -208.567761 
L 184.5 -219.881807 
L 180.657025 -233.833875 
L 176.81405 -243.627806 
L 172.971074 -258.237575 
L 169.128099 -271.434285 
L 165.285124 -279.345078 
L 161.442149 -288.487301 
L 157.599174 -292.919574 
L 153.756198 -297.137175 
L 149.913223 -291.825808 
L 146.070248 -283.605743 
L 142.227273 -278.423405 
L 138.384298 -270.375842 
L 134.541322 -254.772576 
L 130.698347 -240.305972 
L 126.855372 -225.588525 
L 123.012397 -209.033257 
L 119.169421 -194.643979 
L 115.326446 -179.348078 
L 111.483471 -166.5242 
L 107.640496 -163.189352 
L 103.797521 -160.259332 
L 99.954545 -155.746738 
L 96.11157 -156.795612 
L 92.268595 -156.21151 
L 88.42562 -159.353013 
L 84.582645 -164.693275 
L 80.739669 -166.204093 
L 76.896694 -173.117807 
L 73.053719 -177.623326 
L 69.210744 -182.772262 
L 65.367769 -193.032123 
L 61.524793 -202.841445 
L 57.681818 -217.238231 
z
" style="stroke: #dd8452; stroke-opacity: 0.2; stroke-width: 2"/>
    </defs>
    <g clip-path="url(#pe8623e6eb5)">
     <use xlink:href="#mc498a24509" x="0" y="360" style="fill: #dd8452; fill-opacity: 0.2; stroke: #dd8452; stroke-opacity: 0.2; stroke-width: 2"/>
    </g>
   </g>
   <g id="line2d_11">
    <path d="M 57.681818 191.78661 
L 61.524793 201.016213 
L 65.367769 208.388505 
L 69.210744 213.568939 
L 73.053719 217.583654 
L 76.896694 220.419556 
L 80.739669 222.295299 
L 84.582645 222.872093 
L 88.42562 222.059858 
L 92.268595 219.294502 
L 96.11157 215.718743 
L 99.954545 211.04662 
L 103.797521 205.43754 
L 107.640496 197.846844 
L 111.483471 188.548551 
L 115.326446 177.603035 
L 119.169421 164.082905 
L 123.012397 152.757914 
L 126.855372 141.868195 
L 130.698347 132.205544 
L 134.541322 122.963275 
L 138.384298 116.069736 
L 142.227273 112.931458 
L 146.070248 113.682404 
L 149.913223 116.052958 
L 153.756198 119.317828 
L 157.599174 122.78153 
L 161.442149 129.292959 
L 165.285124 137.348952 
L 169.128099 146.699582 
L 172.971074 155.771265 
L 176.81405 166.066268 
L 180.657025 176.455122 
L 184.5 187.354141 
L 188.342975 197.766618 
L 192.18595 207.621093 
L 196.028926 215.967784 
L 199.871901 223.062071 
L 203.714876 229.312659 
L 207.557851 233.940328 
L 211.400826 237.582128 
L 215.243802 240.226606 
L 219.086777 242.766825 
L 222.929752 244.784472 
L 226.772727 246.625017 
L 230.615702 248.05662 
L 234.458678 249.326627 
L 238.301653 250.491397 
L 242.144628 251.633213 
L 245.987603 253.148333 
L 249.830579 253.977694 
L 253.673554 254.613849 
L 257.516529 256.149608 
L 261.359504 258.175792 
L 265.202479 260.384384 
L 269.045455 262.850554 
L 272.88843 265.448574 
L 276.731405 268.479451 
L 280.57438 272.299235 
L 284.417355 275.332537 
L 288.260331 278.130817 
L 292.103306 281.120154 
L 295.946281 283.948033 
L 299.789256 286.793341 
L 303.632231 289.629634 
L 307.475207 292.319579 
L 311.318182 294.980229 
" clip-path="url(#pe8623e6eb5)" style="fill: none; stroke: #4c72b0; stroke-width: 3; stroke-linecap: round"/>
   </g>
   <g id="line2d_12">
    <path d="M 57.681818 180.810587 
L 61.524793 192.216858 
L 65.367769 200.483 
L 69.210744 207.72658 
L 73.053719 213.232651 
L 76.896694 218.185967 
L 80.739669 221.845948 
L 84.582645 224.907787 
L 88.42562 227.328661 
L 92.268595 228.987475 
L 96.11157 229.796403 
L 99.954545 229.806773 
L 103.797521 228.172963 
L 107.640496 225.212199 
L 111.483471 220.289022 
L 115.326446 212.772116 
L 119.169421 203.130221 
L 123.012397 192.099908 
L 126.855372 181.019969 
L 130.698347 168.990978 
L 134.541322 156.91278 
L 138.384298 145.49684 
L 142.227273 135.680259 
L 146.070248 128.745162 
L 149.913223 123.572101 
L 153.756198 120.747466 
L 157.599174 120.41727 
L 161.442149 122.939774 
L 165.285124 128.116689 
L 169.128099 135.815672 
L 172.971074 145.676281 
L 176.81405 156.190322 
L 180.657025 167.686865 
L 184.5 178.203357 
L 188.342975 188.449688 
L 192.18595 198.09226 
L 196.028926 206.105478 
L 199.871901 212.804116 
L 203.714876 218.559143 
L 207.557851 223.378365 
L 211.400826 227.029425 
L 215.243802 229.888315 
L 219.086777 232.432787 
L 222.929752 234.478407 
L 226.772727 236.211964 
L 230.615702 237.729094 
L 234.458678 238.648707 
L 238.301653 239.294435 
L 242.144628 239.973589 
L 245.987603 240.320695 
L 249.830579 240.108733 
L 253.673554 239.667401 
L 257.516529 240.649027 
L 261.359504 242.393192 
L 265.202479 244.452187 
L 269.045455 246.983913 
L 272.88843 249.989436 
L 276.731405 253.522613 
L 280.57438 258.460068 
L 284.417355 261.94129 
L 288.260331 265.156095 
L 292.103306 268.486661 
L 295.946281 271.645388 
L 299.789256 275.065465 
L 303.632231 278.451685 
L 307.475207 281.641029 
L 311.318182 284.724465 
" clip-path="url(#pe8623e6eb5)" style="fill: none; stroke: #dd8452; stroke-width: 3; stroke-linecap: round"/>
   </g>
   <g id="line2d_13"/>
   <g id="line2d_14"/>
   <g id="patch_3">
    <path d="M 45 320.4 
L 45 43.2 
" style="fill: none; stroke: #262626; stroke-width: 2.5; stroke-linejoin: miter; stroke-linecap: square"/>
   </g>
   <g id="patch_4">
    <path d="M 45 320.4 
L 324 320.4 
" style="fill: none; stroke: #262626; stroke-width: 2.5; stroke-linejoin: miter; stroke-linecap: square"/>
   </g>
   <g id="legend_1">
    <g id="patch_5">
     <path d="M 182.962813 159.61125 
L 308.6 159.61125 
Q 313 159.61125 313 155.21125 
L 313 58.6 
Q 313 54.2 308.6 54.2 
L 182.962813 54.2 
Q 178.562813 54.2 178.562813 58.6 
L 178.562813 155.21125 
Q 178.562813 159.61125 182.962813 159.61125 
z
" style="fill: #ffffff; opacity: 0.8; stroke: #cccccc; stroke-width: 2; stroke-linejoin: miter"/>
    </g>
    <g id="text_13">
     <text style="fill: #262626; font: 24px 'Arial', 'DejaVu Sans', 'Liberation Sans', 'Bitstream Vera Sans', sans-serif; text-anchor: start" x="200.638906" y="81.23625" transform="rotate(-0 200.638906 81.23625)">tinnitus</text>
    </g>
    <g id="line2d_15">
     <path d="M 187.362813 106.244062 
L 209.362813 106.244062 
L 231.362813 106.244062 
" style="fill: none; stroke: #4c72b0; stroke-width: 3; stroke-linecap: round"/>
    </g>
    <g id="text_14">
     <text style="fill: #262626; font: 22px 'Arial', 'DejaVu Sans', 'Liberation Sans', 'Bitstream Vera Sans', sans-serif; text-anchor: start" x="248.962813" y="113.944062" transform="rotate(-0 248.962813 113.944062)">False</text>
    </g>
    <g id="line2d_16">
     <path d="M 187.362813 138.535937 
L 209.362813 138.535937 
L 231.362813 138.535937 
" style="fill: none; stroke: #dd8452; stroke-width: 3; stroke-linecap: round"/>
    </g>
    <g id="text_15">
     <text style="fill: #262626; font: 22px 'Arial', 'DejaVu Sans', 'Liberation Sans', 'Bitstream Vera Sans', sans-serif; text-anchor: start" x="248.962813" y="146.235937" transform="rotate(-0 248.962813 146.235937)">True</text>
    </g>
   </g>
  </g>
 </g>
 <defs>
  <clipPath id="pe8623e6eb5">
   <rect x="45" y="43.2" width="279" height="277.2"/>
  </clipPath>
 </defs>
</svg>
