<?xml version="1.0" encoding="utf-8" standalone="no"?>
<!DOCTYPE svg PUBLIC "-//W3C//DTD SVG 1.1//EN"
  "http://www.w3.org/Graphics/SVG/1.1/DTD/svg11.dtd">
<svg xmlns:xlink="http://www.w3.org/1999/xlink" width="576pt" height="288pt" viewBox="0 0 576 288" xmlns="http://www.w3.org/2000/svg" version="1.1">
 <metadata>
  <rdf:RDF xmlns:dc="http://purl.org/dc/elements/1.1/" xmlns:cc="http://creativecommons.org/ns#" xmlns:rdf="http://www.w3.org/1999/02/22-rdf-syntax-ns#">
   <cc:Work>
    <dc:type rdf:resource="http://purl.org/dc/dcmitype/StillImage"/>
    <dc:date>2023-10-03T10:02:46.824464</dc:date>
    <dc:format>image/svg+xml</dc:format>
    <dc:creator>
     <cc:Agent>
      <dc:title>Matplotlib v3.8.0, https://matplotlib.org/</dc:title>
     </cc:Agent>
    </dc:creator>
   </cc:Work>
  </rdf:RDF>
 </metadata>
 <defs>
  <style type="text/css">*{stroke-linejoin: round; stroke-linecap: butt}</style>
 </defs>
 <g id="figure_1">
  <g id="patch_1">
   <path d="M 0 288 
L 576 288 
L 576 0 
L 0 0 
z
" style="fill: #ffffff"/>
  </g>
  <g id="axes_1">
   <g id="patch_2">
    <path d="M 72 256.32 
L 518.4 256.32 
L 518.4 34.56 
L 72 34.56 
z
" style="fill: #ffffff"/>
   </g>
   <g id="matplotlib.axis_1">
    <g id="xtick_1">
     <g id="line2d_1">
      <defs>
       <path id="m1755b0a445" d="M 0 0 
L 0 12 
" style="stroke: #262626; stroke-width: 2.5"/>
      </defs>
      <g>
       <use xlink:href="#m1755b0a445" x="72" y="256.32" style="fill: #262626; stroke: #262626; stroke-width: 2.5"/>
      </g>
     </g>
     <g id="text_1">
      <text style="fill: #262626; font: 22px 'Arial', 'DejaVu Sans', 'Liberation Sans', 'Bitstream Vera Sans', sans-serif; text-anchor: middle" x="72" y="287.567187" transform="rotate(-0 72 287.567187)">0</text>
     </g>
    </g>
    <g id="xtick_2">
     <g id="line2d_2">
      <g>
       <use xlink:href="#m1755b0a445" x="171.2" y="256.32" style="fill: #262626; stroke: #262626; stroke-width: 2.5"/>
      </g>
     </g>
     <g id="text_2">
      <text style="fill: #262626; font: 22px 'Arial', 'DejaVu Sans', 'Liberation Sans', 'Bitstream Vera Sans', sans-serif; text-anchor: middle" x="171.2" y="287.567187" transform="rotate(-0 171.2 287.567187)">10</text>
     </g>
    </g>
    <g id="xtick_3">
     <g id="line2d_3">
      <g>
       <use xlink:href="#m1755b0a445" x="270.4" y="256.32" style="fill: #262626; stroke: #262626; stroke-width: 2.5"/>
      </g>
     </g>
     <g id="text_3">
      <text style="fill: #262626; font: 22px 'Arial', 'DejaVu Sans', 'Liberation Sans', 'Bitstream Vera Sans', sans-serif; text-anchor: middle" x="270.4" y="287.567187" transform="rotate(-0 270.4 287.567187)">20</text>
     </g>
    </g>
    <g id="xtick_4">
     <g id="line2d_4">
      <g>
       <use xlink:href="#m1755b0a445" x="369.6" y="256.32" style="fill: #262626; stroke: #262626; stroke-width: 2.5"/>
      </g>
     </g>
     <g id="text_4">
      <text style="fill: #262626; font: 22px 'Arial', 'DejaVu Sans', 'Liberation Sans', 'Bitstream Vera Sans', sans-serif; text-anchor: middle" x="369.6" y="287.567187" transform="rotate(-0 369.6 287.567187)">30</text>
     </g>
    </g>
    <g id="xtick_5">
     <g id="line2d_5">
      <g>
       <use xlink:href="#m1755b0a445" x="468.8" y="256.32" style="fill: #262626; stroke: #262626; stroke-width: 2.5"/>
      </g>
     </g>
     <g id="text_5">
      <text style="fill: #262626; font: 22px 'Arial', 'DejaVu Sans', 'Liberation Sans', 'Bitstream Vera Sans', sans-serif; text-anchor: middle" x="468.8" y="287.567187" transform="rotate(-0 468.8 287.567187)">40</text>
     </g>
    </g>
    <g id="text_6">
     <text style="fill: #262626; font: 24px 'Arial', 'DejaVu Sans', 'Liberation Sans', 'Bitstream Vera Sans', sans-serif; text-anchor: middle" x="295.2" y="313.410937" transform="rotate(-0 295.2 313.410937)">Frequency (Hz)</text>
    </g>
   </g>
   <g id="matplotlib.axis_2">
    <g id="ytick_1">
     <g id="line2d_6">
      <defs>
       <path id="m98317bab6d" d="M 0 0 
L -12 0 
" style="stroke: #262626; stroke-width: 2.5"/>
      </defs>
      <g>
       <use xlink:href="#m98317bab6d" x="72" y="256.32" style="fill: #262626; stroke: #262626; stroke-width: 2.5"/>
      </g>
     </g>
     <g id="text_7">
      <text style="fill: #262626; font: 22px 'Arial', 'DejaVu Sans', 'Liberation Sans', 'Bitstream Vera Sans', sans-serif; text-anchor: end" x="56.5" y="264.193594" transform="rotate(-0 56.5 264.193594)">0</text>
     </g>
    </g>
    <g id="ytick_2">
     <g id="line2d_7">
      <g>
       <use xlink:href="#m98317bab6d" x="72" y="182.4" style="fill: #262626; stroke: #262626; stroke-width: 2.5"/>
      </g>
     </g>
     <g id="text_8">
      <text style="fill: #262626; font: 22px 'Arial', 'DejaVu Sans', 'Liberation Sans', 'Bitstream Vera Sans', sans-serif; text-anchor: end" x="56.5" y="190.273594" transform="rotate(-0 56.5 190.273594)">2000</text>
     </g>
    </g>
    <g id="ytick_3">
     <g id="line2d_8">
      <g>
       <use xlink:href="#m98317bab6d" x="72" y="108.48" style="fill: #262626; stroke: #262626; stroke-width: 2.5"/>
      </g>
     </g>
     <g id="text_9">
      <text style="fill: #262626; font: 22px 'Arial', 'DejaVu Sans', 'Liberation Sans', 'Bitstream Vera Sans', sans-serif; text-anchor: end" x="56.5" y="116.353594" transform="rotate(-0 56.5 116.353594)">4000</text>
     </g>
    </g>
    <g id="ytick_4">
     <g id="line2d_9">
      <g>
       <use xlink:href="#m98317bab6d" x="72" y="34.56" style="fill: #262626; stroke: #262626; stroke-width: 2.5"/>
      </g>
     </g>
     <g id="text_10">
      <text style="fill: #262626; font: 22px 'Arial', 'DejaVu Sans', 'Liberation Sans', 'Bitstream Vera Sans', sans-serif; text-anchor: end" x="56.5" y="42.433594" transform="rotate(-0 56.5 42.433594)">6000</text>
     </g>
    </g>
    <g id="text_11">
     <text style="fill: #262626; font: 24px 'Arial', 'DejaVu Sans', 'Liberation Sans', 'Bitstream Vera Sans', sans-serif; text-anchor: middle" x="-1.20625" y="145.44" transform="rotate(-90 -1.20625 145.44)">Count</text>
    </g>
   </g>
   <g id="patch_3">
    <path d="M 81.92 256.32 
L 96.466562 256.32 
L 96.466562 144.29424 
L 81.92 144.29424 
z
" clip-path="url(#p4f0cf9bb4b)" style="fill: #4c72b0; stroke: #4c72b0; stroke-width: 2; stroke-linejoin: miter"/>
   </g>
   <g id="patch_4">
    <path d="M 96.466562 256.32 
L 111.013123 256.32 
L 111.013123 199.84512 
L 96.466562 199.84512 
z
" clip-path="url(#p4f0cf9bb4b)" style="fill: #4c72b0; stroke: #4c72b0; stroke-width: 2; stroke-linejoin: miter"/>
   </g>
   <g id="patch_5">
    <path d="M 111.013123 256.32 
L 125.559685 256.32 
L 125.559685 177.55824 
L 111.013123 177.55824 
z
" clip-path="url(#p4f0cf9bb4b)" style="fill: #4c72b0; stroke: #4c72b0; stroke-width: 2; stroke-linejoin: miter"/>
   </g>
   <g id="patch_6">
    <path d="M 125.559685 256.32 
L 140.106247 256.32 
L 140.106247 149.54256 
L 125.559685 149.54256 
z
" clip-path="url(#p4f0cf9bb4b)" style="fill: #4c72b0; stroke: #4c72b0; stroke-width: 2; stroke-linejoin: miter"/>
   </g>
   <g id="patch_7">
    <path d="M 140.106247 256.32 
L 154.652809 256.32 
L 154.652809 127.66224 
L 140.106247 127.66224 
z
" clip-path="url(#p4f0cf9bb4b)" style="fill: #4c72b0; stroke: #4c72b0; stroke-width: 2; stroke-linejoin: miter"/>
   </g>
   <g id="patch_8">
    <path d="M 154.652809 256.32 
L 169.19937 256.32 
L 169.19937 73.14624 
L 154.652809 73.14624 
z
" clip-path="url(#p4f0cf9bb4b)" style="fill: #4c72b0; stroke: #4c72b0; stroke-width: 2; stroke-linejoin: miter"/>
   </g>
   <g id="patch_9">
    <path d="M 169.19937 256.32 
L 183.745932 256.32 
L 183.745932 101.6424 
L 169.19937 101.6424 
z
" clip-path="url(#p4f0cf9bb4b)" style="fill: #4c72b0; stroke: #4c72b0; stroke-width: 2; stroke-linejoin: miter"/>
   </g>
   <g id="patch_10">
    <path d="M 183.745932 256.32 
L 198.292494 256.32 
L 198.292494 150.50352 
L 183.745932 150.50352 
z
" clip-path="url(#p4f0cf9bb4b)" style="fill: #4c72b0; stroke: #4c72b0; stroke-width: 2; stroke-linejoin: miter"/>
   </g>
   <g id="patch_11">
    <path d="M 198.292494 256.32 
L 212.839056 256.32 
L 212.839056 183.02832 
L 198.292494 183.02832 
z
" clip-path="url(#p4f0cf9bb4b)" style="fill: #4c72b0; stroke: #4c72b0; stroke-width: 2; stroke-linejoin: miter"/>
   </g>
   <g id="patch_12">
    <path d="M 212.839056 256.32 
L 227.385617 256.32 
L 227.385617 182.14128 
L 212.839056 182.14128 
z
" clip-path="url(#p4f0cf9bb4b)" style="fill: #4c72b0; stroke: #4c72b0; stroke-width: 2; stroke-linejoin: miter"/>
   </g>
   <g id="patch_13">
    <path d="M 227.385617 256.32 
L 241.932179 256.32 
L 241.932179 76.65744 
L 227.385617 76.65744 
z
" clip-path="url(#p4f0cf9bb4b)" style="fill: #4c72b0; stroke: #4c72b0; stroke-width: 2; stroke-linejoin: miter"/>
   </g>
   <g id="patch_14">
    <path d="M 241.932179 256.32 
L 256.478741 256.32 
L 256.478741 162.18288 
L 241.932179 162.18288 
z
" clip-path="url(#p4f0cf9bb4b)" style="fill: #4c72b0; stroke: #4c72b0; stroke-width: 2; stroke-linejoin: miter"/>
   </g>
   <g id="patch_15">
    <path d="M 256.478741 256.32 
L 271.025303 256.32 
L 271.025303 207.05232 
L 256.478741 207.05232 
z
" clip-path="url(#p4f0cf9bb4b)" style="fill: #4c72b0; stroke: #4c72b0; stroke-width: 2; stroke-linejoin: miter"/>
   </g>
   <g id="patch_16">
    <path d="M 271.025303 256.32 
L 285.571864 256.32 
L 285.571864 215.92272 
L 271.025303 215.92272 
z
" clip-path="url(#p4f0cf9bb4b)" style="fill: #4c72b0; stroke: #4c72b0; stroke-width: 2; stroke-linejoin: miter"/>
   </g>
   <g id="patch_17">
    <path d="M 285.571864 256.32 
L 300.118426 256.32 
L 300.118426 224.49744 
L 285.571864 224.49744 
z
" clip-path="url(#p4f0cf9bb4b)" style="fill: #4c72b0; stroke: #4c72b0; stroke-width: 2; stroke-linejoin: miter"/>
   </g>
   <g id="patch_18">
    <path d="M 300.118426 256.32 
L 314.664988 256.32 
L 314.664988 222.05808 
L 300.118426 222.05808 
z
" clip-path="url(#p4f0cf9bb4b)" style="fill: #4c72b0; stroke: #4c72b0; stroke-width: 2; stroke-linejoin: miter"/>
   </g>
   <g id="patch_19">
    <path d="M 314.664988 256.32 
L 329.211549 256.32 
L 329.211549 231.26112 
L 314.664988 231.26112 
z
" clip-path="url(#p4f0cf9bb4b)" style="fill: #4c72b0; stroke: #4c72b0; stroke-width: 2; stroke-linejoin: miter"/>
   </g>
   <g id="patch_20">
    <path d="M 329.211549 256.32 
L 343.758111 256.32 
L 343.758111 236.25072 
L 329.211549 236.25072 
z
" clip-path="url(#p4f0cf9bb4b)" style="fill: #4c72b0; stroke: #4c72b0; stroke-width: 2; stroke-linejoin: miter"/>
   </g>
   <g id="patch_21">
    <path d="M 343.758111 256.32 
L 358.304673 256.32 
L 358.304673 241.27728 
L 343.758111 241.27728 
z
" clip-path="url(#p4f0cf9bb4b)" style="fill: #4c72b0; stroke: #4c72b0; stroke-width: 2; stroke-linejoin: miter"/>
   </g>
   <g id="patch_22">
    <path d="M 358.304673 256.32 
L 372.851235 256.32 
L 372.851235 225.86496 
L 358.304673 225.86496 
z
" clip-path="url(#p4f0cf9bb4b)" style="fill: #4c72b0; stroke: #4c72b0; stroke-width: 2; stroke-linejoin: miter"/>
   </g>
   <g id="patch_23">
    <path d="M 372.851235 256.32 
L 387.397796 256.32 
L 387.397796 169.02048 
L 372.851235 169.02048 
z
" clip-path="url(#p4f0cf9bb4b)" style="fill: #4c72b0; stroke: #4c72b0; stroke-width: 2; stroke-linejoin: miter"/>
   </g>
   <g id="patch_24">
    <path d="M 387.397796 256.32 
L 401.944358 256.32 
L 401.944358 199.29072 
L 387.397796 199.29072 
z
" clip-path="url(#p4f0cf9bb4b)" style="fill: #4c72b0; stroke: #4c72b0; stroke-width: 2; stroke-linejoin: miter"/>
   </g>
   <g id="patch_25">
    <path d="M 401.944358 256.32 
L 416.49092 256.32 
L 416.49092 220.76448 
L 401.944358 220.76448 
z
" clip-path="url(#p4f0cf9bb4b)" style="fill: #4c72b0; stroke: #4c72b0; stroke-width: 2; stroke-linejoin: miter"/>
   </g>
   <g id="patch_26">
    <path d="M 416.49092 256.32 
L 431.037482 256.32 
L 431.037482 244.93632 
L 416.49092 244.93632 
z
" clip-path="url(#p4f0cf9bb4b)" style="fill: #4c72b0; stroke: #4c72b0; stroke-width: 2; stroke-linejoin: miter"/>
   </g>
   <g id="patch_27">
    <path d="M 431.037482 256.32 
L 445.584043 256.32 
L 445.584043 246.3408 
L 431.037482 246.3408 
z
" clip-path="url(#p4f0cf9bb4b)" style="fill: #4c72b0; stroke: #4c72b0; stroke-width: 2; stroke-linejoin: miter"/>
   </g>
   <g id="patch_28">
    <path d="M 445.584043 256.32 
L 460.130605 256.32 
L 460.130605 253.69584 
L 445.584043 253.69584 
z
" clip-path="url(#p4f0cf9bb4b)" style="fill: #4c72b0; stroke: #4c72b0; stroke-width: 2; stroke-linejoin: miter"/>
   </g>
   <g id="patch_29">
    <path d="M 460.130605 256.32 
L 474.677167 256.32 
L 474.677167 254.13936 
L 460.130605 254.13936 
z
" clip-path="url(#p4f0cf9bb4b)" style="fill: #4c72b0; stroke: #4c72b0; stroke-width: 2; stroke-linejoin: miter"/>
   </g>
   <g id="patch_30">
    <path d="M 474.677167 256.32 
L 489.223729 256.32 
L 489.223729 253.99152 
L 474.677167 253.99152 
z
" clip-path="url(#p4f0cf9bb4b)" style="fill: #4c72b0; stroke: #4c72b0; stroke-width: 2; stroke-linejoin: miter"/>
   </g>
   <g id="patch_31">
    <path d="M 489.223729 256.32 
L 503.77029 256.32 
L 503.77029 253.84368 
L 489.223729 253.84368 
z
" clip-path="url(#p4f0cf9bb4b)" style="fill: #4c72b0; stroke: #4c72b0; stroke-width: 2; stroke-linejoin: miter"/>
   </g>
   <g id="patch_32">
    <path d="M 503.77029 256.32 
L 518.316852 256.32 
L 518.316852 253.28928 
L 503.77029 253.28928 
z
" clip-path="url(#p4f0cf9bb4b)" style="fill: #4c72b0; stroke: #4c72b0; stroke-width: 2; stroke-linejoin: miter"/>
   </g>
   <g id="patch_33">
    <path d="M 72 256.32 
L 72 34.56 
" style="fill: none; stroke: #262626; stroke-width: 2.5; stroke-linejoin: miter; stroke-linecap: square"/>
   </g>
   <g id="patch_34">
    <path d="M 72 256.32 
L 518.4 256.32 
" style="fill: none; stroke: #262626; stroke-width: 2.5; stroke-linejoin: miter; stroke-linecap: square"/>
   </g>
  </g>
 </g>
 <defs>
  <clipPath id="p4f0cf9bb4b">
   <rect x="72" y="34.56" width="446.4" height="221.76"/>
  </clipPath>
 </defs>
</svg>
