<?xml version="1.0" encoding="utf-8" standalone="no"?>
<!DOCTYPE svg PUBLIC "-//W3C//DTD SVG 1.1//EN"
  "http://www.w3.org/Graphics/SVG/1.1/DTD/svg11.dtd">
<svg xmlns:xlink="http://www.w3.org/1999/xlink" width="576pt" height="288pt" viewBox="0 0 576 288" xmlns="http://www.w3.org/2000/svg" version="1.1">
 <metadata>
  <rdf:RDF xmlns:dc="http://purl.org/dc/elements/1.1/" xmlns:cc="http://creativecommons.org/ns#" xmlns:rdf="http://www.w3.org/1999/02/22-rdf-syntax-ns#">
   <cc:Work>
    <dc:type rdf:resource="http://purl.org/dc/dcmitype/StillImage"/>
    <dc:date>2023-11-06T10:12:54.427739</dc:date>
    <dc:format>image/svg+xml</dc:format>
    <dc:creator>
     <cc:Agent>
      <dc:title>Matplotlib v3.8.0, https://matplotlib.org/</dc:title>
     </cc:Agent>
    </dc:creator>
   </cc:Work>
  </rdf:RDF>
 </metadata>
 <defs>
  <style type="text/css">*{stroke-linejoin: round; stroke-linecap: butt}</style>
 </defs>
 <g id="figure_1">
  <g id="patch_1">
   <path d="M 0 288 
L 576 288 
L 576 0 
L 0 0 
z
" style="fill: #ffffff"/>
  </g>
  <g id="axes_1">
   <g id="patch_2">
    <path d="M 72 256.32 
L 518.4 256.32 
L 518.4 34.56 
L 72 34.56 
z
" style="fill: #ffffff"/>
   </g>
   <g id="matplotlib.axis_1">
    <g id="xtick_1">
     <g id="line2d_1">
      <defs>
       <path id="mc03f7d525b" d="M 0 0 
L 0 12 
" style="stroke: #262626; stroke-width: 2.5"/>
      </defs>
      <g>
       <use xlink:href="#mc03f7d525b" x="72" y="256.32" style="fill: #262626; stroke: #262626; stroke-width: 2.5"/>
      </g>
     </g>
     <g id="text_1">
      <text style="fill: #262626; font: 22px 'Arial', 'DejaVu Sans', 'Liberation Sans', 'Bitstream Vera Sans', sans-serif; text-anchor: middle" x="72" y="287.567187" transform="rotate(-0 72 287.567187)">0</text>
     </g>
    </g>
    <g id="xtick_2">
     <g id="line2d_2">
      <g>
       <use xlink:href="#mc03f7d525b" x="171.2" y="256.32" style="fill: #262626; stroke: #262626; stroke-width: 2.5"/>
      </g>
     </g>
     <g id="text_2">
      <text style="fill: #262626; font: 22px 'Arial', 'DejaVu Sans', 'Liberation Sans', 'Bitstream Vera Sans', sans-serif; text-anchor: middle" x="171.2" y="287.567187" transform="rotate(-0 171.2 287.567187)">10</text>
     </g>
    </g>
    <g id="xtick_3">
     <g id="line2d_3">
      <g>
       <use xlink:href="#mc03f7d525b" x="270.4" y="256.32" style="fill: #262626; stroke: #262626; stroke-width: 2.5"/>
      </g>
     </g>
     <g id="text_3">
      <text style="fill: #262626; font: 22px 'Arial', 'DejaVu Sans', 'Liberation Sans', 'Bitstream Vera Sans', sans-serif; text-anchor: middle" x="270.4" y="287.567187" transform="rotate(-0 270.4 287.567187)">20</text>
     </g>
    </g>
    <g id="xtick_4">
     <g id="line2d_4">
      <g>
       <use xlink:href="#mc03f7d525b" x="369.6" y="256.32" style="fill: #262626; stroke: #262626; stroke-width: 2.5"/>
      </g>
     </g>
     <g id="text_4">
      <text style="fill: #262626; font: 22px 'Arial', 'DejaVu Sans', 'Liberation Sans', 'Bitstream Vera Sans', sans-serif; text-anchor: middle" x="369.6" y="287.567187" transform="rotate(-0 369.6 287.567187)">30</text>
     </g>
    </g>
    <g id="xtick_5">
     <g id="line2d_5">
      <g>
       <use xlink:href="#mc03f7d525b" x="468.8" y="256.32" style="fill: #262626; stroke: #262626; stroke-width: 2.5"/>
      </g>
     </g>
     <g id="text_5">
      <text style="fill: #262626; font: 22px 'Arial', 'DejaVu Sans', 'Liberation Sans', 'Bitstream Vera Sans', sans-serif; text-anchor: middle" x="468.8" y="287.567187" transform="rotate(-0 468.8 287.567187)">40</text>
     </g>
    </g>
    <g id="text_6">
     <text style="fill: #262626; font: 24px 'Arial', 'DejaVu Sans', 'Liberation Sans', 'Bitstream Vera Sans', sans-serif; text-anchor: middle" x="295.2" y="313.410937" transform="rotate(-0 295.2 313.410937)">Frequency (Hz)</text>
    </g>
   </g>
   <g id="matplotlib.axis_2">
    <g id="ytick_1">
     <g id="line2d_6">
      <defs>
       <path id="m09bfaf123a" d="M 0 0 
L -12 0 
" style="stroke: #262626; stroke-width: 2.5"/>
      </defs>
      <g>
       <use xlink:href="#m09bfaf123a" x="72" y="256.32" style="fill: #262626; stroke: #262626; stroke-width: 2.5"/>
      </g>
     </g>
     <g id="text_7">
      <text style="fill: #262626; font: 22px 'Arial', 'DejaVu Sans', 'Liberation Sans', 'Bitstream Vera Sans', sans-serif; text-anchor: end" x="56.5" y="264.193594" transform="rotate(-0 56.5 264.193594)">0</text>
     </g>
    </g>
    <g id="ytick_2">
     <g id="line2d_7">
      <g>
       <use xlink:href="#m09bfaf123a" x="72" y="183.215119" style="fill: #262626; stroke: #262626; stroke-width: 2.5"/>
      </g>
     </g>
     <g id="text_8">
      <text style="fill: #262626; font: 22px 'Arial', 'DejaVu Sans', 'Liberation Sans', 'Bitstream Vera Sans', sans-serif; text-anchor: end" x="56.5" y="191.088713" transform="rotate(-0 56.5 191.088713)">2000</text>
     </g>
    </g>
    <g id="ytick_3">
     <g id="line2d_8">
      <g>
       <use xlink:href="#m09bfaf123a" x="72" y="110.110239" style="fill: #262626; stroke: #262626; stroke-width: 2.5"/>
      </g>
     </g>
     <g id="text_9">
      <text style="fill: #262626; font: 22px 'Arial', 'DejaVu Sans', 'Liberation Sans', 'Bitstream Vera Sans', sans-serif; text-anchor: end" x="56.5" y="117.983833" transform="rotate(-0 56.5 117.983833)">4000</text>
     </g>
    </g>
    <g id="ytick_4">
     <g id="line2d_9">
      <g>
       <use xlink:href="#m09bfaf123a" x="72" y="37.005358" style="fill: #262626; stroke: #262626; stroke-width: 2.5"/>
      </g>
     </g>
     <g id="text_10">
      <text style="fill: #262626; font: 22px 'Arial', 'DejaVu Sans', 'Liberation Sans', 'Bitstream Vera Sans', sans-serif; text-anchor: end" x="56.5" y="44.878952" transform="rotate(-0 56.5 44.878952)">6000</text>
     </g>
    </g>
    <g id="text_11">
     <text style="fill: #262626; font: 24px 'Arial', 'DejaVu Sans', 'Liberation Sans', 'Bitstream Vera Sans', sans-serif; text-anchor: middle" x="-1.20625" y="145.44" transform="rotate(-90 -1.20625 145.44)">Count</text>
    </g>
   </g>
   <g id="patch_3">
    <path d="M 81.92 256.32 
L 96.456145 256.32 
L 96.456145 242.174206 
L 81.92 242.174206 
z
" clip-path="url(#p6b8d0f8f52)" style="fill: #4c72b0; stroke: #4c72b0; stroke-width: 2; stroke-linejoin: miter"/>
   </g>
   <g id="patch_4">
    <path d="M 96.456145 256.32 
L 110.99229 256.32 
L 110.99229 247.218442 
L 96.456145 247.218442 
z
" clip-path="url(#p6b8d0f8f52)" style="fill: #4c72b0; stroke: #4c72b0; stroke-width: 2; stroke-linejoin: miter"/>
   </g>
   <g id="patch_5">
    <path d="M 110.99229 256.32 
L 125.528435 256.32 
L 125.528435 231.245026 
L 110.99229 231.245026 
z
" clip-path="url(#p6b8d0f8f52)" style="fill: #4c72b0; stroke: #4c72b0; stroke-width: 2; stroke-linejoin: miter"/>
   </g>
   <g id="patch_6">
    <path d="M 125.528435 256.32 
L 140.064579 256.32 
L 140.064579 205.767975 
L 125.528435 205.767975 
z
" clip-path="url(#p6b8d0f8f52)" style="fill: #4c72b0; stroke: #4c72b0; stroke-width: 2; stroke-linejoin: miter"/>
   </g>
   <g id="patch_7">
    <path d="M 140.064579 256.32 
L 154.600724 256.32 
L 154.600724 163.769221 
L 140.064579 163.769221 
z
" clip-path="url(#p6b8d0f8f52)" style="fill: #4c72b0; stroke: #4c72b0; stroke-width: 2; stroke-linejoin: miter"/>
   </g>
   <g id="patch_8">
    <path d="M 154.600724 256.32 
L 169.136869 256.32 
L 169.136869 45.12 
L 154.600724 45.12 
z
" clip-path="url(#p6b8d0f8f52)" style="fill: #4c72b0; stroke: #4c72b0; stroke-width: 2; stroke-linejoin: miter"/>
   </g>
   <g id="patch_9">
    <path d="M 169.136869 256.32 
L 183.673014 256.32 
L 183.673014 45.12 
L 169.136869 45.12 
z
" clip-path="url(#p6b8d0f8f52)" style="fill: #4c72b0; stroke: #4c72b0; stroke-width: 2; stroke-linejoin: miter"/>
   </g>
   <g id="patch_10">
    <path d="M 183.673014 256.32 
L 198.209159 256.32 
L 198.209159 157.153229 
L 183.673014 157.153229 
z
" clip-path="url(#p6b8d0f8f52)" style="fill: #4c72b0; stroke: #4c72b0; stroke-width: 2; stroke-linejoin: miter"/>
   </g>
   <g id="patch_11">
    <path d="M 198.209159 256.32 
L 212.745304 256.32 
L 212.745304 202.149283 
L 198.209159 202.149283 
z
" clip-path="url(#p6b8d0f8f52)" style="fill: #4c72b0; stroke: #4c72b0; stroke-width: 2; stroke-linejoin: miter"/>
   </g>
   <g id="patch_12">
    <path d="M 212.745304 256.32 
L 227.281449 256.32 
L 227.281449 162.087809 
L 212.745304 162.087809 
z
" clip-path="url(#p6b8d0f8f52)" style="fill: #4c72b0; stroke: #4c72b0; stroke-width: 2; stroke-linejoin: miter"/>
   </g>
   <g id="patch_13">
    <path d="M 227.281449 256.32 
L 241.817594 256.32 
L 241.817594 209.642534 
L 227.281449 209.642534 
z
" clip-path="url(#p6b8d0f8f52)" style="fill: #4c72b0; stroke: #4c72b0; stroke-width: 2; stroke-linejoin: miter"/>
   </g>
   <g id="patch_14">
    <path d="M 241.817594 256.32 
L 256.353738 256.32 
L 256.353738 133.174829 
L 241.817594 133.174829 
z
" clip-path="url(#p6b8d0f8f52)" style="fill: #4c72b0; stroke: #4c72b0; stroke-width: 2; stroke-linejoin: miter"/>
   </g>
   <g id="patch_15">
    <path d="M 256.353738 256.32 
L 270.889883 256.32 
L 270.889883 175.246687 
L 256.353738 175.246687 
z
" clip-path="url(#p6b8d0f8f52)" style="fill: #4c72b0; stroke: #4c72b0; stroke-width: 2; stroke-linejoin: miter"/>
   </g>
   <g id="patch_16">
    <path d="M 270.889883 256.32 
L 285.426028 256.32 
L 285.426028 210.044611 
L 270.889883 210.044611 
z
" clip-path="url(#p6b8d0f8f52)" style="fill: #4c72b0; stroke: #4c72b0; stroke-width: 2; stroke-linejoin: miter"/>
   </g>
   <g id="patch_17">
    <path d="M 285.426028 256.32 
L 299.962173 256.32 
L 299.962173 222.728307 
L 285.426028 222.728307 
z
" clip-path="url(#p6b8d0f8f52)" style="fill: #4c72b0; stroke: #4c72b0; stroke-width: 2; stroke-linejoin: miter"/>
   </g>
   <g id="patch_18">
    <path d="M 299.962173 256.32 
L 314.498318 256.32 
L 314.498318 220.644818 
L 299.962173 220.644818 
z
" clip-path="url(#p6b8d0f8f52)" style="fill: #4c72b0; stroke: #4c72b0; stroke-width: 2; stroke-linejoin: miter"/>
   </g>
   <g id="patch_19">
    <path d="M 314.498318 256.32 
L 329.034463 256.32 
L 329.034463 229.161537 
L 314.498318 229.161537 
z
" clip-path="url(#p6b8d0f8f52)" style="fill: #4c72b0; stroke: #4c72b0; stroke-width: 2; stroke-linejoin: miter"/>
   </g>
   <g id="patch_20">
    <path d="M 329.034463 256.32 
L 343.570608 256.32 
L 343.570608 239.323115 
L 329.034463 239.323115 
z
" clip-path="url(#p6b8d0f8f52)" style="fill: #4c72b0; stroke: #4c72b0; stroke-width: 2; stroke-linejoin: miter"/>
   </g>
   <g id="patch_21">
    <path d="M 343.570608 256.32 
L 358.106753 256.32 
L 358.106753 244.477009 
L 343.570608 244.477009 
z
" clip-path="url(#p6b8d0f8f52)" style="fill: #4c72b0; stroke: #4c72b0; stroke-width: 2; stroke-linejoin: miter"/>
   </g>
   <g id="patch_22">
    <path d="M 358.106753 256.32 
L 372.642897 256.32 
L 372.642897 237.824465 
L 358.106753 237.824465 
z
" clip-path="url(#p6b8d0f8f52)" style="fill: #4c72b0; stroke: #4c72b0; stroke-width: 2; stroke-linejoin: miter"/>
   </g>
   <g id="patch_23">
    <path d="M 372.642897 256.32 
L 387.179042 256.32 
L 387.179042 210.33703 
L 372.642897 210.33703 
z
" clip-path="url(#p6b8d0f8f52)" style="fill: #4c72b0; stroke: #4c72b0; stroke-width: 2; stroke-linejoin: miter"/>
   </g>
   <g id="patch_24">
    <path d="M 387.179042 256.32 
L 401.715187 256.32 
L 401.715187 223.824881 
L 387.179042 223.824881 
z
" clip-path="url(#p6b8d0f8f52)" style="fill: #4c72b0; stroke: #4c72b0; stroke-width: 2; stroke-linejoin: miter"/>
   </g>
   <g id="patch_25">
    <path d="M 401.715187 256.32 
L 416.251332 256.32 
L 416.251332 239.140353 
L 401.715187 239.140353 
z
" clip-path="url(#p6b8d0f8f52)" style="fill: #4c72b0; stroke: #4c72b0; stroke-width: 2; stroke-linejoin: miter"/>
   </g>
   <g id="patch_26">
    <path d="M 416.251332 256.32 
L 430.787477 256.32 
L 430.787477 247.072233 
L 416.251332 247.072233 
z
" clip-path="url(#p6b8d0f8f52)" style="fill: #4c72b0; stroke: #4c72b0; stroke-width: 2; stroke-linejoin: miter"/>
   </g>
   <g id="patch_27">
    <path d="M 430.787477 256.32 
L 445.323622 256.32 
L 445.323622 250.398505 
L 430.787477 250.398505 
z
" clip-path="url(#p6b8d0f8f52)" style="fill: #4c72b0; stroke: #4c72b0; stroke-width: 2; stroke-linejoin: miter"/>
   </g>
   <g id="patch_28">
    <path d="M 445.323622 256.32 
L 459.859767 256.32 
L 459.859767 254.82135 
L 445.323622 254.82135 
z
" clip-path="url(#p6b8d0f8f52)" style="fill: #4c72b0; stroke: #4c72b0; stroke-width: 2; stroke-linejoin: miter"/>
   </g>
   <g id="patch_29">
    <path d="M 459.859767 256.32 
L 474.395911 256.32 
L 474.395911 255.771713 
L 459.859767 255.771713 
z
" clip-path="url(#p6b8d0f8f52)" style="fill: #4c72b0; stroke: #4c72b0; stroke-width: 2; stroke-linejoin: miter"/>
   </g>
   <g id="patch_30">
    <path d="M 474.395911 256.32 
L 488.932056 256.32 
L 488.932056 255.735161 
L 474.395911 255.735161 
z
" clip-path="url(#p6b8d0f8f52)" style="fill: #4c72b0; stroke: #4c72b0; stroke-width: 2; stroke-linejoin: miter"/>
   </g>
   <g id="patch_31">
    <path d="M 488.932056 256.32 
L 503.468201 256.32 
L 503.468201 255.662056 
L 488.932056 255.662056 
z
" clip-path="url(#p6b8d0f8f52)" style="fill: #4c72b0; stroke: #4c72b0; stroke-width: 2; stroke-linejoin: miter"/>
   </g>
   <g id="patch_32">
    <path d="M 503.468201 256.32 
L 518.004346 256.32 
L 518.004346 255.333084 
L 503.468201 255.333084 
z
" clip-path="url(#p6b8d0f8f52)" style="fill: #4c72b0; stroke: #4c72b0; stroke-width: 2; stroke-linejoin: miter"/>
   </g>
   <g id="patch_33">
    <path d="M 72 256.32 
L 72 34.56 
" style="fill: none; stroke: #262626; stroke-width: 2.5; stroke-linejoin: miter; stroke-linecap: square"/>
   </g>
   <g id="patch_34">
    <path d="M 72 256.32 
L 518.4 256.32 
" style="fill: none; stroke: #262626; stroke-width: 2.5; stroke-linejoin: miter; stroke-linecap: square"/>
   </g>
  </g>
 </g>
 <defs>
  <clipPath id="p6b8d0f8f52">
   <rect x="72" y="34.56" width="446.4" height="221.76"/>
  </clipPath>
 </defs>
</svg>
