<?xml version="1.0" encoding="utf-8" standalone="no"?>
<!DOCTYPE svg PUBLIC "-//W3C//DTD SVG 1.1//EN"
  "http://www.w3.org/Graphics/SVG/1.1/DTD/svg11.dtd">
<svg xmlns:xlink="http://www.w3.org/1999/xlink" width="576pt" height="288pt" viewBox="0 0 576 288" xmlns="http://www.w3.org/2000/svg" version="1.1">
 <metadata>
  <rdf:RDF xmlns:dc="http://purl.org/dc/elements/1.1/" xmlns:cc="http://creativecommons.org/ns#" xmlns:rdf="http://www.w3.org/1999/02/22-rdf-syntax-ns#">
   <cc:Work>
    <dc:type rdf:resource="http://purl.org/dc/dcmitype/StillImage"/>
    <dc:date>2023-10-13T13:33:13.184871</dc:date>
    <dc:format>image/svg+xml</dc:format>
    <dc:creator>
     <cc:Agent>
      <dc:title>Matplotlib v3.8.0, https://matplotlib.org/</dc:title>
     </cc:Agent>
    </dc:creator>
   </cc:Work>
  </rdf:RDF>
 </metadata>
 <defs>
  <style type="text/css">*{stroke-linejoin: round; stroke-linecap: butt}</style>
 </defs>
 <g id="figure_1">
  <g id="patch_1">
   <path d="M 0 288 
L 576 288 
L 576 0 
L 0 0 
z
" style="fill: #ffffff"/>
  </g>
  <g id="axes_1">
   <g id="patch_2">
    <path d="M 72 256.32 
L 518.4 256.32 
L 518.4 34.56 
L 72 34.56 
z
" style="fill: #ffffff"/>
   </g>
   <g id="matplotlib.axis_1">
    <g id="xtick_1">
     <g id="line2d_1">
      <defs>
       <path id="m52d9dbb19d" d="M 0 0 
L 0 12 
" style="stroke: #262626; stroke-width: 2.5"/>
      </defs>
      <g>
       <use xlink:href="#m52d9dbb19d" x="72" y="256.32" style="fill: #262626; stroke: #262626; stroke-width: 2.5"/>
      </g>
     </g>
     <g id="text_1">
      <text style="fill: #262626; font: 22px 'Arial', 'DejaVu Sans', 'Liberation Sans', 'Bitstream Vera Sans', sans-serif; text-anchor: middle" x="72" y="287.567187" transform="rotate(-0 72 287.567187)">0</text>
     </g>
    </g>
    <g id="xtick_2">
     <g id="line2d_2">
      <g>
       <use xlink:href="#m52d9dbb19d" x="171.2" y="256.32" style="fill: #262626; stroke: #262626; stroke-width: 2.5"/>
      </g>
     </g>
     <g id="text_2">
      <text style="fill: #262626; font: 22px 'Arial', 'DejaVu Sans', 'Liberation Sans', 'Bitstream Vera Sans', sans-serif; text-anchor: middle" x="171.2" y="287.567187" transform="rotate(-0 171.2 287.567187)">10</text>
     </g>
    </g>
    <g id="xtick_3">
     <g id="line2d_3">
      <g>
       <use xlink:href="#m52d9dbb19d" x="270.4" y="256.32" style="fill: #262626; stroke: #262626; stroke-width: 2.5"/>
      </g>
     </g>
     <g id="text_3">
      <text style="fill: #262626; font: 22px 'Arial', 'DejaVu Sans', 'Liberation Sans', 'Bitstream Vera Sans', sans-serif; text-anchor: middle" x="270.4" y="287.567187" transform="rotate(-0 270.4 287.567187)">20</text>
     </g>
    </g>
    <g id="xtick_4">
     <g id="line2d_4">
      <g>
       <use xlink:href="#m52d9dbb19d" x="369.6" y="256.32" style="fill: #262626; stroke: #262626; stroke-width: 2.5"/>
      </g>
     </g>
     <g id="text_4">
      <text style="fill: #262626; font: 22px 'Arial', 'DejaVu Sans', 'Liberation Sans', 'Bitstream Vera Sans', sans-serif; text-anchor: middle" x="369.6" y="287.567187" transform="rotate(-0 369.6 287.567187)">30</text>
     </g>
    </g>
    <g id="xtick_5">
     <g id="line2d_5">
      <g>
       <use xlink:href="#m52d9dbb19d" x="468.8" y="256.32" style="fill: #262626; stroke: #262626; stroke-width: 2.5"/>
      </g>
     </g>
     <g id="text_5">
      <text style="fill: #262626; font: 22px 'Arial', 'DejaVu Sans', 'Liberation Sans', 'Bitstream Vera Sans', sans-serif; text-anchor: middle" x="468.8" y="287.567187" transform="rotate(-0 468.8 287.567187)">40</text>
     </g>
    </g>
    <g id="text_6">
     <text style="fill: #262626; font: 24px 'Arial', 'DejaVu Sans', 'Liberation Sans', 'Bitstream Vera Sans', sans-serif; text-anchor: middle" x="295.2" y="313.410937" transform="rotate(-0 295.2 313.410937)">Frequency (Hz)</text>
    </g>
   </g>
   <g id="matplotlib.axis_2">
    <g id="ytick_1">
     <g id="line2d_6">
      <defs>
       <path id="me59b8d74ad" d="M 0 0 
L -12 0 
" style="stroke: #262626; stroke-width: 2.5"/>
      </defs>
      <g>
       <use xlink:href="#me59b8d74ad" x="72" y="256.32" style="fill: #262626; stroke: #262626; stroke-width: 2.5"/>
      </g>
     </g>
     <g id="text_7">
      <text style="fill: #262626; font: 22px 'Arial', 'DejaVu Sans', 'Liberation Sans', 'Bitstream Vera Sans', sans-serif; text-anchor: end" x="56.5" y="264.193594" transform="rotate(-0 56.5 264.193594)">0</text>
     </g>
    </g>
    <g id="ytick_2">
     <g id="line2d_7">
      <g>
       <use xlink:href="#me59b8d74ad" x="72" y="182.83357" style="fill: #262626; stroke: #262626; stroke-width: 2.5"/>
      </g>
     </g>
     <g id="text_8">
      <text style="fill: #262626; font: 22px 'Arial', 'DejaVu Sans', 'Liberation Sans', 'Bitstream Vera Sans', sans-serif; text-anchor: end" x="56.5" y="190.707164" transform="rotate(-0 56.5 190.707164)">1000</text>
     </g>
    </g>
    <g id="ytick_3">
     <g id="line2d_8">
      <g>
       <use xlink:href="#me59b8d74ad" x="72" y="109.34714" style="fill: #262626; stroke: #262626; stroke-width: 2.5"/>
      </g>
     </g>
     <g id="text_9">
      <text style="fill: #262626; font: 22px 'Arial', 'DejaVu Sans', 'Liberation Sans', 'Bitstream Vera Sans', sans-serif; text-anchor: end" x="56.5" y="117.220734" transform="rotate(-0 56.5 117.220734)">2000</text>
     </g>
    </g>
    <g id="ytick_4">
     <g id="line2d_9">
      <g>
       <use xlink:href="#me59b8d74ad" x="72" y="35.86071" style="fill: #262626; stroke: #262626; stroke-width: 2.5"/>
      </g>
     </g>
     <g id="text_10">
      <text style="fill: #262626; font: 22px 'Arial', 'DejaVu Sans', 'Liberation Sans', 'Bitstream Vera Sans', sans-serif; text-anchor: end" x="56.5" y="43.734304" transform="rotate(-0 56.5 43.734304)">3000</text>
     </g>
    </g>
    <g id="text_11">
     <text style="fill: #262626; font: 24px 'Arial', 'DejaVu Sans', 'Liberation Sans', 'Bitstream Vera Sans', sans-serif; text-anchor: middle" x="-1.20625" y="145.44" transform="rotate(-90 -1.20625 145.44)">Count</text>
    </g>
   </g>
   <g id="patch_3">
    <path d="M 81.92 256.32 
L 96.291873 256.32 
L 96.291873 186.875324 
L 81.92 186.875324 
z
" clip-path="url(#p30227fd5f0)" style="fill: #4c72b0; stroke: #4c72b0; stroke-width: 2; stroke-linejoin: miter"/>
   </g>
   <g id="patch_4">
    <path d="M 96.291873 256.32 
L 110.663745 256.32 
L 110.663745 205.908309 
L 96.291873 205.908309 
z
" clip-path="url(#p30227fd5f0)" style="fill: #4c72b0; stroke: #4c72b0; stroke-width: 2; stroke-linejoin: miter"/>
   </g>
   <g id="patch_5">
    <path d="M 110.663745 256.32 
L 125.035618 256.32 
L 125.035618 193.783048 
L 110.663745 193.783048 
z
" clip-path="url(#p30227fd5f0)" style="fill: #4c72b0; stroke: #4c72b0; stroke-width: 2; stroke-linejoin: miter"/>
   </g>
   <g id="patch_6">
    <path d="M 125.035618 256.32 
L 139.407491 256.32 
L 139.407491 187.757161 
L 125.035618 187.757161 
z
" clip-path="url(#p30227fd5f0)" style="fill: #4c72b0; stroke: #4c72b0; stroke-width: 2; stroke-linejoin: miter"/>
   </g>
   <g id="patch_7">
    <path d="M 139.407491 256.32 
L 153.779363 256.32 
L 153.779363 142.783466 
L 139.407491 142.783466 
z
" clip-path="url(#p30227fd5f0)" style="fill: #4c72b0; stroke: #4c72b0; stroke-width: 2; stroke-linejoin: miter"/>
   </g>
   <g id="patch_8">
    <path d="M 153.779363 256.32 
L 168.151236 256.32 
L 168.151236 45.12 
L 153.779363 45.12 
z
" clip-path="url(#p30227fd5f0)" style="fill: #4c72b0; stroke: #4c72b0; stroke-width: 2; stroke-linejoin: miter"/>
   </g>
   <g id="patch_9">
    <path d="M 168.151236 256.32 
L 182.523109 256.32 
L 182.523109 95.97261 
L 168.151236 95.97261 
z
" clip-path="url(#p30227fd5f0)" style="fill: #4c72b0; stroke: #4c72b0; stroke-width: 2; stroke-linejoin: miter"/>
   </g>
   <g id="patch_10">
    <path d="M 182.523109 256.32 
L 196.894981 256.32 
L 196.894981 171.590146 
L 182.523109 171.590146 
z
" clip-path="url(#p30227fd5f0)" style="fill: #4c72b0; stroke: #4c72b0; stroke-width: 2; stroke-linejoin: miter"/>
   </g>
   <g id="patch_11">
    <path d="M 196.894981 256.32 
L 211.266854 256.32 
L 211.266854 215.241086 
L 196.894981 215.241086 
z
" clip-path="url(#p30227fd5f0)" style="fill: #4c72b0; stroke: #4c72b0; stroke-width: 2; stroke-linejoin: miter"/>
   </g>
   <g id="patch_12">
    <path d="M 211.266854 256.32 
L 225.638726 256.32 
L 225.638726 191.431482 
L 211.266854 191.431482 
z
" clip-path="url(#p30227fd5f0)" style="fill: #4c72b0; stroke: #4c72b0; stroke-width: 2; stroke-linejoin: miter"/>
   </g>
   <g id="patch_13">
    <path d="M 225.638726 256.32 
L 240.010599 256.32 
L 240.010599 226.631482 
L 225.638726 226.631482 
z
" clip-path="url(#p30227fd5f0)" style="fill: #4c72b0; stroke: #4c72b0; stroke-width: 2; stroke-linejoin: miter"/>
   </g>
   <g id="patch_14">
    <path d="M 240.010599 256.32 
L 254.382472 256.32 
L 254.382472 154.467808 
L 240.010599 154.467808 
z
" clip-path="url(#p30227fd5f0)" style="fill: #4c72b0; stroke: #4c72b0; stroke-width: 2; stroke-linejoin: miter"/>
   </g>
   <g id="patch_15">
    <path d="M 254.382472 256.32 
L 268.754344 256.32 
L 268.754344 224.20643 
L 254.382472 224.20643 
z
" clip-path="url(#p30227fd5f0)" style="fill: #4c72b0; stroke: #4c72b0; stroke-width: 2; stroke-linejoin: miter"/>
   </g>
   <g id="patch_16">
    <path d="M 268.754344 256.32 
L 283.126217 256.32 
L 283.126217 236.258205 
L 268.754344 236.258205 
z
" clip-path="url(#p30227fd5f0)" style="fill: #4c72b0; stroke: #4c72b0; stroke-width: 2; stroke-linejoin: miter"/>
   </g>
   <g id="patch_17">
    <path d="M 283.126217 256.32 
L 297.49809 256.32 
L 297.49809 239.418121 
L 283.126217 239.418121 
z
" clip-path="url(#p30227fd5f0)" style="fill: #4c72b0; stroke: #4c72b0; stroke-width: 2; stroke-linejoin: miter"/>
   </g>
   <g id="patch_18">
    <path d="M 297.49809 256.32 
L 311.869962 256.32 
L 311.869962 232.510397 
L 297.49809 232.510397 
z
" clip-path="url(#p30227fd5f0)" style="fill: #4c72b0; stroke: #4c72b0; stroke-width: 2; stroke-linejoin: miter"/>
   </g>
   <g id="patch_19">
    <path d="M 311.869962 256.32 
L 326.241835 256.32 
L 326.241835 234.200585 
L 311.869962 234.200585 
z
" clip-path="url(#p30227fd5f0)" style="fill: #4c72b0; stroke: #4c72b0; stroke-width: 2; stroke-linejoin: miter"/>
   </g>
   <g id="patch_20">
    <path d="M 326.241835 256.32 
L 340.613708 256.32 
L 340.613708 240.66739 
L 326.241835 240.66739 
z
" clip-path="url(#p30227fd5f0)" style="fill: #4c72b0; stroke: #4c72b0; stroke-width: 2; stroke-linejoin: miter"/>
   </g>
   <g id="patch_21">
    <path d="M 340.613708 256.32 
L 354.98558 256.32 
L 354.98558 243.386388 
L 340.613708 243.386388 
z
" clip-path="url(#p30227fd5f0)" style="fill: #4c72b0; stroke: #4c72b0; stroke-width: 2; stroke-linejoin: miter"/>
   </g>
   <g id="patch_22">
    <path d="M 354.98558 256.32 
L 369.357453 256.32 
L 369.357453 250.882004 
L 354.98558 250.882004 
z
" clip-path="url(#p30227fd5f0)" style="fill: #4c72b0; stroke: #4c72b0; stroke-width: 2; stroke-linejoin: miter"/>
   </g>
   <g id="patch_23">
    <path d="M 369.357453 256.32 
L 383.729326 256.32 
L 383.729326 237.654447 
L 369.357453 237.654447 
z
" clip-path="url(#p30227fd5f0)" style="fill: #4c72b0; stroke: #4c72b0; stroke-width: 2; stroke-linejoin: miter"/>
   </g>
   <g id="patch_24">
    <path d="M 383.729326 256.32 
L 398.101198 256.32 
L 398.101198 245.370522 
L 383.729326 245.370522 
z
" clip-path="url(#p30227fd5f0)" style="fill: #4c72b0; stroke: #4c72b0; stroke-width: 2; stroke-linejoin: miter"/>
   </g>
   <g id="patch_25">
    <path d="M 398.101198 256.32 
L 412.473071 256.32 
L 412.473071 250.294113 
L 398.101198 250.294113 
z
" clip-path="url(#p30227fd5f0)" style="fill: #4c72b0; stroke: #4c72b0; stroke-width: 2; stroke-linejoin: miter"/>
   </g>
   <g id="patch_26">
    <path d="M 412.473071 256.32 
L 426.844944 256.32 
L 426.844944 253.821461 
L 412.473071 253.821461 
z
" clip-path="url(#p30227fd5f0)" style="fill: #4c72b0; stroke: #4c72b0; stroke-width: 2; stroke-linejoin: miter"/>
   </g>
   <g id="patch_27">
    <path d="M 426.844944 256.32 
L 441.216816 256.32 
L 441.216816 250.735031 
L 426.844944 250.735031 
z
" clip-path="url(#p30227fd5f0)" style="fill: #4c72b0; stroke: #4c72b0; stroke-width: 2; stroke-linejoin: miter"/>
   </g>
   <g id="patch_28">
    <path d="M 441.216816 256.32 
L 455.588689 256.32 
L 455.588689 255.732109 
L 441.216816 255.732109 
z
" clip-path="url(#p30227fd5f0)" style="fill: #4c72b0; stroke: #4c72b0; stroke-width: 2; stroke-linejoin: miter"/>
   </g>
   <g id="patch_29">
    <path d="M 455.588689 256.32 
L 469.960561 256.32 
L 469.960561 256.099541 
L 455.588689 256.099541 
z
" clip-path="url(#p30227fd5f0)" style="fill: #4c72b0; stroke: #4c72b0; stroke-width: 2; stroke-linejoin: miter"/>
   </g>
   <g id="patch_30">
    <path d="M 469.960561 256.32 
L 484.332434 256.32 
L 484.332434 256.173027 
L 469.960561 256.173027 
z
" clip-path="url(#p30227fd5f0)" style="fill: #4c72b0; stroke: #4c72b0; stroke-width: 2; stroke-linejoin: miter"/>
   </g>
   <g id="patch_31">
    <path d="M 484.332434 256.32 
L 498.704307 256.32 
L 498.704307 256.173027 
L 484.332434 256.173027 
z
" clip-path="url(#p30227fd5f0)" style="fill: #4c72b0; stroke: #4c72b0; stroke-width: 2; stroke-linejoin: miter"/>
   </g>
   <g id="patch_32">
    <path d="M 498.704307 256.32 
L 513.076179 256.32 
L 513.076179 256.173027 
L 498.704307 256.173027 
z
" clip-path="url(#p30227fd5f0)" style="fill: #4c72b0; stroke: #4c72b0; stroke-width: 2; stroke-linejoin: miter"/>
   </g>
   <g id="patch_33">
    <path d="M 72 256.32 
L 72 34.56 
" style="fill: none; stroke: #262626; stroke-width: 2.5; stroke-linejoin: miter; stroke-linecap: square"/>
   </g>
   <g id="patch_34">
    <path d="M 72 256.32 
L 518.4 256.32 
" style="fill: none; stroke: #262626; stroke-width: 2.5; stroke-linejoin: miter; stroke-linecap: square"/>
   </g>
  </g>
 </g>
 <defs>
  <clipPath id="p30227fd5f0">
   <rect x="72" y="34.56" width="446.4" height="221.76"/>
  </clipPath>
 </defs>
</svg>
