<?xml version="1.0" encoding="utf-8" standalone="no"?>
<!DOCTYPE svg PUBLIC "-//W3C//DTD SVG 1.1//EN"
  "http://www.w3.org/Graphics/SVG/1.1/DTD/svg11.dtd">
<svg xmlns:xlink="http://www.w3.org/1999/xlink" width="576pt" height="288pt" viewBox="0 0 576 288" xmlns="http://www.w3.org/2000/svg" version="1.1">
 <metadata>
  <rdf:RDF xmlns:dc="http://purl.org/dc/elements/1.1/" xmlns:cc="http://creativecommons.org/ns#" xmlns:rdf="http://www.w3.org/1999/02/22-rdf-syntax-ns#">
   <cc:Work>
    <dc:type rdf:resource="http://purl.org/dc/dcmitype/StillImage"/>
    <dc:date>2023-10-03T10:02:44.113322</dc:date>
    <dc:format>image/svg+xml</dc:format>
    <dc:creator>
     <cc:Agent>
      <dc:title>Matplotlib v3.8.0, https://matplotlib.org/</dc:title>
     </cc:Agent>
    </dc:creator>
   </cc:Work>
  </rdf:RDF>
 </metadata>
 <defs>
  <style type="text/css">*{stroke-linejoin: round; stroke-linecap: butt}</style>
 </defs>
 <g id="figure_1">
  <g id="patch_1">
   <path d="M 0 288 
L 576 288 
L 576 0 
L 0 0 
z
" style="fill: #ffffff"/>
  </g>
  <g id="axes_1">
   <g id="patch_2">
    <path d="M 72 256.32 
L 518.4 256.32 
L 518.4 34.56 
L 72 34.56 
z
" style="fill: #ffffff"/>
   </g>
   <g id="matplotlib.axis_1">
    <g id="xtick_1">
     <g id="line2d_1">
      <defs>
       <path id="md7e1fea00b" d="M 0 0 
L 0 12 
" style="stroke: #262626; stroke-width: 2.5"/>
      </defs>
      <g>
       <use xlink:href="#md7e1fea00b" x="72" y="256.32" style="fill: #262626; stroke: #262626; stroke-width: 2.5"/>
      </g>
     </g>
     <g id="text_1">
      <text style="fill: #262626; font: 22px 'Arial', 'DejaVu Sans', 'Liberation Sans', 'Bitstream Vera Sans', sans-serif; text-anchor: middle" x="72" y="287.567187" transform="rotate(-0 72 287.567187)">0</text>
     </g>
    </g>
    <g id="xtick_2">
     <g id="line2d_2">
      <g>
       <use xlink:href="#md7e1fea00b" x="171.2" y="256.32" style="fill: #262626; stroke: #262626; stroke-width: 2.5"/>
      </g>
     </g>
     <g id="text_2">
      <text style="fill: #262626; font: 22px 'Arial', 'DejaVu Sans', 'Liberation Sans', 'Bitstream Vera Sans', sans-serif; text-anchor: middle" x="171.2" y="287.567187" transform="rotate(-0 171.2 287.567187)">10</text>
     </g>
    </g>
    <g id="xtick_3">
     <g id="line2d_3">
      <g>
       <use xlink:href="#md7e1fea00b" x="270.4" y="256.32" style="fill: #262626; stroke: #262626; stroke-width: 2.5"/>
      </g>
     </g>
     <g id="text_3">
      <text style="fill: #262626; font: 22px 'Arial', 'DejaVu Sans', 'Liberation Sans', 'Bitstream Vera Sans', sans-serif; text-anchor: middle" x="270.4" y="287.567187" transform="rotate(-0 270.4 287.567187)">20</text>
     </g>
    </g>
    <g id="xtick_4">
     <g id="line2d_4">
      <g>
       <use xlink:href="#md7e1fea00b" x="369.6" y="256.32" style="fill: #262626; stroke: #262626; stroke-width: 2.5"/>
      </g>
     </g>
     <g id="text_4">
      <text style="fill: #262626; font: 22px 'Arial', 'DejaVu Sans', 'Liberation Sans', 'Bitstream Vera Sans', sans-serif; text-anchor: middle" x="369.6" y="287.567187" transform="rotate(-0 369.6 287.567187)">30</text>
     </g>
    </g>
    <g id="xtick_5">
     <g id="line2d_5">
      <g>
       <use xlink:href="#md7e1fea00b" x="468.8" y="256.32" style="fill: #262626; stroke: #262626; stroke-width: 2.5"/>
      </g>
     </g>
     <g id="text_5">
      <text style="fill: #262626; font: 22px 'Arial', 'DejaVu Sans', 'Liberation Sans', 'Bitstream Vera Sans', sans-serif; text-anchor: middle" x="468.8" y="287.567187" transform="rotate(-0 468.8 287.567187)">40</text>
     </g>
    </g>
    <g id="text_6">
     <text style="fill: #262626; font: 24px 'Arial', 'DejaVu Sans', 'Liberation Sans', 'Bitstream Vera Sans', sans-serif; text-anchor: middle" x="295.2" y="313.410937" transform="rotate(-0 295.2 313.410937)">Frequency (Hz)</text>
    </g>
   </g>
   <g id="matplotlib.axis_2">
    <g id="ytick_1">
     <g id="line2d_6">
      <defs>
       <path id="m30890d86ea" d="M 0 0 
L -12 0 
" style="stroke: #262626; stroke-width: 2.5"/>
      </defs>
      <g>
       <use xlink:href="#m30890d86ea" x="72" y="256.32" style="fill: #262626; stroke: #262626; stroke-width: 2.5"/>
      </g>
     </g>
     <g id="text_7">
      <text style="fill: #262626; font: 22px 'Arial', 'DejaVu Sans', 'Liberation Sans', 'Bitstream Vera Sans', sans-serif; text-anchor: end" x="56.5" y="264.193594" transform="rotate(-0 56.5 264.193594)">0</text>
     </g>
    </g>
    <g id="ytick_2">
     <g id="line2d_7">
      <g>
       <use xlink:href="#m30890d86ea" x="72" y="182.4" style="fill: #262626; stroke: #262626; stroke-width: 2.5"/>
      </g>
     </g>
     <g id="text_8">
      <text style="fill: #262626; font: 22px 'Arial', 'DejaVu Sans', 'Liberation Sans', 'Bitstream Vera Sans', sans-serif; text-anchor: end" x="56.5" y="190.273594" transform="rotate(-0 56.5 190.273594)">2000</text>
     </g>
    </g>
    <g id="ytick_3">
     <g id="line2d_8">
      <g>
       <use xlink:href="#m30890d86ea" x="72" y="108.48" style="fill: #262626; stroke: #262626; stroke-width: 2.5"/>
      </g>
     </g>
     <g id="text_9">
      <text style="fill: #262626; font: 22px 'Arial', 'DejaVu Sans', 'Liberation Sans', 'Bitstream Vera Sans', sans-serif; text-anchor: end" x="56.5" y="116.353594" transform="rotate(-0 56.5 116.353594)">4000</text>
     </g>
    </g>
    <g id="ytick_4">
     <g id="line2d_9">
      <g>
       <use xlink:href="#m30890d86ea" x="72" y="34.56" style="fill: #262626; stroke: #262626; stroke-width: 2.5"/>
      </g>
     </g>
     <g id="text_10">
      <text style="fill: #262626; font: 22px 'Arial', 'DejaVu Sans', 'Liberation Sans', 'Bitstream Vera Sans', sans-serif; text-anchor: end" x="56.5" y="42.433594" transform="rotate(-0 56.5 42.433594)">6000</text>
     </g>
    </g>
    <g id="text_11">
     <text style="fill: #262626; font: 24px 'Arial', 'DejaVu Sans', 'Liberation Sans', 'Bitstream Vera Sans', sans-serif; text-anchor: middle" x="-1.20625" y="145.44" transform="rotate(-90 -1.20625 145.44)">Count</text>
    </g>
   </g>
   <g id="patch_3">
    <path d="M 81.92 256.32 
L 96.460853 256.32 
L 96.460853 137.97408 
L 81.92 137.97408 
z
" clip-path="url(#p55c73af25b)" style="fill: #dd8452; stroke: #dd8452; stroke-width: 2; stroke-linejoin: miter"/>
   </g>
   <g id="patch_4">
    <path d="M 96.460853 256.32 
L 111.001707 256.32 
L 111.001707 194.55984 
L 96.460853 194.55984 
z
" clip-path="url(#p55c73af25b)" style="fill: #dd8452; stroke: #dd8452; stroke-width: 2; stroke-linejoin: miter"/>
   </g>
   <g id="patch_5">
    <path d="M 111.001707 256.32 
L 125.54256 256.32 
L 125.54256 183.39792 
L 111.001707 183.39792 
z
" clip-path="url(#p55c73af25b)" style="fill: #dd8452; stroke: #dd8452; stroke-width: 2; stroke-linejoin: miter"/>
   </g>
   <g id="patch_6">
    <path d="M 125.54256 256.32 
L 140.083413 256.32 
L 140.083413 144.84864 
L 125.54256 144.84864 
z
" clip-path="url(#p55c73af25b)" style="fill: #dd8452; stroke: #dd8452; stroke-width: 2; stroke-linejoin: miter"/>
   </g>
   <g id="patch_7">
    <path d="M 140.083413 256.32 
L 154.624267 256.32 
L 154.624267 145.55088 
L 140.083413 145.55088 
z
" clip-path="url(#p55c73af25b)" style="fill: #dd8452; stroke: #dd8452; stroke-width: 2; stroke-linejoin: miter"/>
   </g>
   <g id="patch_8">
    <path d="M 154.624267 256.32 
L 169.16512 256.32 
L 169.16512 120.08544 
L 154.624267 120.08544 
z
" clip-path="url(#p55c73af25b)" style="fill: #dd8452; stroke: #dd8452; stroke-width: 2; stroke-linejoin: miter"/>
   </g>
   <g id="patch_9">
    <path d="M 169.16512 256.32 
L 183.705973 256.32 
L 183.705973 95.87664 
L 169.16512 95.87664 
z
" clip-path="url(#p55c73af25b)" style="fill: #dd8452; stroke: #dd8452; stroke-width: 2; stroke-linejoin: miter"/>
   </g>
   <g id="patch_10">
    <path d="M 183.705973 256.32 
L 198.246827 256.32 
L 198.246827 146.06832 
L 183.705973 146.06832 
z
" clip-path="url(#p55c73af25b)" style="fill: #dd8452; stroke: #dd8452; stroke-width: 2; stroke-linejoin: miter"/>
   </g>
   <g id="patch_11">
    <path d="M 198.246827 256.32 
L 212.78768 256.32 
L 212.78768 193.8576 
L 198.246827 193.8576 
z
" clip-path="url(#p55c73af25b)" style="fill: #dd8452; stroke: #dd8452; stroke-width: 2; stroke-linejoin: miter"/>
   </g>
   <g id="patch_12">
    <path d="M 212.78768 256.32 
L 227.328534 256.32 
L 227.328534 195.8904 
L 212.78768 195.8904 
z
" clip-path="url(#p55c73af25b)" style="fill: #dd8452; stroke: #dd8452; stroke-width: 2; stroke-linejoin: miter"/>
   </g>
   <g id="patch_13">
    <path d="M 227.328534 256.32 
L 241.869387 256.32 
L 241.869387 51.192 
L 227.328534 51.192 
z
" clip-path="url(#p55c73af25b)" style="fill: #dd8452; stroke: #dd8452; stroke-width: 2; stroke-linejoin: miter"/>
   </g>
   <g id="patch_14">
    <path d="M 241.869387 256.32 
L 256.41024 256.32 
L 256.41024 172.30992 
L 241.869387 172.30992 
z
" clip-path="url(#p55c73af25b)" style="fill: #dd8452; stroke: #dd8452; stroke-width: 2; stroke-linejoin: miter"/>
   </g>
   <g id="patch_15">
    <path d="M 256.41024 256.32 
L 270.951094 256.32 
L 270.951094 206.20224 
L 256.41024 206.20224 
z
" clip-path="url(#p55c73af25b)" style="fill: #dd8452; stroke: #dd8452; stroke-width: 2; stroke-linejoin: miter"/>
   </g>
   <g id="patch_16">
    <path d="M 270.951094 256.32 
L 285.491947 256.32 
L 285.491947 222.05808 
L 270.951094 222.05808 
z
" clip-path="url(#p55c73af25b)" style="fill: #dd8452; stroke: #dd8452; stroke-width: 2; stroke-linejoin: miter"/>
   </g>
   <g id="patch_17">
    <path d="M 285.491947 256.32 
L 300.0328 256.32 
L 300.0328 226.12368 
L 285.491947 226.12368 
z
" clip-path="url(#p55c73af25b)" style="fill: #dd8452; stroke: #dd8452; stroke-width: 2; stroke-linejoin: miter"/>
   </g>
   <g id="patch_18">
    <path d="M 300.0328 256.32 
L 314.573654 256.32 
L 314.573654 237.84 
L 300.0328 237.84 
z
" clip-path="url(#p55c73af25b)" style="fill: #dd8452; stroke: #dd8452; stroke-width: 2; stroke-linejoin: miter"/>
   </g>
   <g id="patch_19">
    <path d="M 314.573654 256.32 
L 329.114507 256.32 
L 329.114507 240.46416 
L 314.573654 240.46416 
z
" clip-path="url(#p55c73af25b)" style="fill: #dd8452; stroke: #dd8452; stroke-width: 2; stroke-linejoin: miter"/>
   </g>
   <g id="patch_20">
    <path d="M 329.114507 256.32 
L 343.65536 256.32 
L 343.65536 247.74528 
L 329.114507 247.74528 
z
" clip-path="url(#p55c73af25b)" style="fill: #dd8452; stroke: #dd8452; stroke-width: 2; stroke-linejoin: miter"/>
   </g>
   <g id="patch_21">
    <path d="M 343.65536 256.32 
L 358.196214 256.32 
L 358.196214 250.18464 
L 343.65536 250.18464 
z
" clip-path="url(#p55c73af25b)" style="fill: #dd8452; stroke: #dd8452; stroke-width: 2; stroke-linejoin: miter"/>
   </g>
   <g id="patch_22">
    <path d="M 358.196214 256.32 
L 372.737067 256.32 
L 372.737067 234.77232 
L 358.196214 234.77232 
z
" clip-path="url(#p55c73af25b)" style="fill: #dd8452; stroke: #dd8452; stroke-width: 2; stroke-linejoin: miter"/>
   </g>
   <g id="patch_23">
    <path d="M 372.737067 256.32 
L 387.27792 256.32 
L 387.27792 185.50464 
L 372.737067 185.50464 
z
" clip-path="url(#p55c73af25b)" style="fill: #dd8452; stroke: #dd8452; stroke-width: 2; stroke-linejoin: miter"/>
   </g>
   <g id="patch_24">
    <path d="M 387.27792 256.32 
L 401.818774 256.32 
L 401.818774 205.94352 
L 387.27792 205.94352 
z
" clip-path="url(#p55c73af25b)" style="fill: #dd8452; stroke: #dd8452; stroke-width: 2; stroke-linejoin: miter"/>
   </g>
   <g id="patch_25">
    <path d="M 401.818774 256.32 
L 416.359627 256.32 
L 416.359627 222.39072 
L 401.818774 222.39072 
z
" clip-path="url(#p55c73af25b)" style="fill: #dd8452; stroke: #dd8452; stroke-width: 2; stroke-linejoin: miter"/>
   </g>
   <g id="patch_26">
    <path d="M 416.359627 256.32 
L 430.90048 256.32 
L 430.90048 246.00816 
L 416.359627 246.00816 
z
" clip-path="url(#p55c73af25b)" style="fill: #dd8452; stroke: #dd8452; stroke-width: 2; stroke-linejoin: miter"/>
   </g>
   <g id="patch_27">
    <path d="M 430.90048 256.32 
L 445.441334 256.32 
L 445.441334 253.03056 
L 430.90048 253.03056 
z
" clip-path="url(#p55c73af25b)" style="fill: #dd8452; stroke: #dd8452; stroke-width: 2; stroke-linejoin: miter"/>
   </g>
   <g id="patch_28">
    <path d="M 445.441334 256.32 
L 459.982187 256.32 
L 459.982187 255.10032 
L 445.441334 255.10032 
z
" clip-path="url(#p55c73af25b)" style="fill: #dd8452; stroke: #dd8452; stroke-width: 2; stroke-linejoin: miter"/>
   </g>
   <g id="patch_29">
    <path d="M 459.982187 256.32 
L 474.52304 256.32 
L 474.52304 255.35904 
L 459.982187 255.35904 
z
" clip-path="url(#p55c73af25b)" style="fill: #dd8452; stroke: #dd8452; stroke-width: 2; stroke-linejoin: miter"/>
   </g>
   <g id="patch_30">
    <path d="M 474.52304 256.32 
L 489.063894 256.32 
L 489.063894 254.50896 
L 474.52304 254.50896 
z
" clip-path="url(#p55c73af25b)" style="fill: #dd8452; stroke: #dd8452; stroke-width: 2; stroke-linejoin: miter"/>
   </g>
   <g id="patch_31">
    <path d="M 489.063894 256.32 
L 503.604747 256.32 
L 503.604747 255.06336 
L 489.063894 255.06336 
z
" clip-path="url(#p55c73af25b)" style="fill: #dd8452; stroke: #dd8452; stroke-width: 2; stroke-linejoin: miter"/>
   </g>
   <g id="patch_32">
    <path d="M 503.604747 256.32 
L 518.145601 256.32 
L 518.145601 254.69376 
L 503.604747 254.69376 
z
" clip-path="url(#p55c73af25b)" style="fill: #dd8452; stroke: #dd8452; stroke-width: 2; stroke-linejoin: miter"/>
   </g>
   <g id="patch_33">
    <path d="M 72 256.32 
L 72 34.56 
" style="fill: none; stroke: #262626; stroke-width: 2.5; stroke-linejoin: miter; stroke-linecap: square"/>
   </g>
   <g id="patch_34">
    <path d="M 72 256.32 
L 518.4 256.32 
" style="fill: none; stroke: #262626; stroke-width: 2.5; stroke-linejoin: miter; stroke-linecap: square"/>
   </g>
  </g>
 </g>
 <defs>
  <clipPath id="p55c73af25b">
   <rect x="72" y="34.56" width="446.4" height="221.76"/>
  </clipPath>
 </defs>
</svg>
