<?xml version="1.0" encoding="utf-8" standalone="no"?>
<!DOCTYPE svg PUBLIC "-//W3C//DTD SVG 1.1//EN"
  "http://www.w3.org/Graphics/SVG/1.1/DTD/svg11.dtd">
<svg xmlns:xlink="http://www.w3.org/1999/xlink" width="576pt" height="288pt" viewBox="0 0 576 288" xmlns="http://www.w3.org/2000/svg" version="1.1">
 <metadata>
  <rdf:RDF xmlns:dc="http://purl.org/dc/elements/1.1/" xmlns:cc="http://creativecommons.org/ns#" xmlns:rdf="http://www.w3.org/1999/02/22-rdf-syntax-ns#">
   <cc:Work>
    <dc:type rdf:resource="http://purl.org/dc/dcmitype/StillImage"/>
    <dc:date>2023-10-04T15:28:11.483944</dc:date>
    <dc:format>image/svg+xml</dc:format>
    <dc:creator>
     <cc:Agent>
      <dc:title>Matplotlib v3.8.0, https://matplotlib.org/</dc:title>
     </cc:Agent>
    </dc:creator>
   </cc:Work>
  </rdf:RDF>
 </metadata>
 <defs>
  <style type="text/css">*{stroke-linejoin: round; stroke-linecap: butt}</style>
 </defs>
 <g id="figure_1">
  <g id="patch_1">
   <path d="M 0 288 
L 576 288 
L 576 0 
L 0 0 
z
" style="fill: #ffffff"/>
  </g>
  <g id="axes_1">
   <g id="patch_2">
    <path d="M 72 256.32 
L 518.4 256.32 
L 518.4 34.56 
L 72 34.56 
z
" style="fill: #ffffff"/>
   </g>
   <g id="matplotlib.axis_1">
    <g id="xtick_1">
     <g id="line2d_1">
      <defs>
       <path id="m07cf72fee2" d="M 0 0 
L 0 12 
" style="stroke: #262626; stroke-width: 2.5"/>
      </defs>
      <g>
       <use xlink:href="#m07cf72fee2" x="72" y="256.32" style="fill: #262626; stroke: #262626; stroke-width: 2.5"/>
      </g>
     </g>
     <g id="text_1">
      <text style="fill: #262626; font: 22px 'Arial', 'DejaVu Sans', 'Liberation Sans', 'Bitstream Vera Sans', sans-serif; text-anchor: middle" x="72" y="287.567187" transform="rotate(-0 72 287.567187)">0</text>
     </g>
    </g>
    <g id="xtick_2">
     <g id="line2d_2">
      <g>
       <use xlink:href="#m07cf72fee2" x="171.2" y="256.32" style="fill: #262626; stroke: #262626; stroke-width: 2.5"/>
      </g>
     </g>
     <g id="text_2">
      <text style="fill: #262626; font: 22px 'Arial', 'DejaVu Sans', 'Liberation Sans', 'Bitstream Vera Sans', sans-serif; text-anchor: middle" x="171.2" y="287.567187" transform="rotate(-0 171.2 287.567187)">10</text>
     </g>
    </g>
    <g id="xtick_3">
     <g id="line2d_3">
      <g>
       <use xlink:href="#m07cf72fee2" x="270.4" y="256.32" style="fill: #262626; stroke: #262626; stroke-width: 2.5"/>
      </g>
     </g>
     <g id="text_3">
      <text style="fill: #262626; font: 22px 'Arial', 'DejaVu Sans', 'Liberation Sans', 'Bitstream Vera Sans', sans-serif; text-anchor: middle" x="270.4" y="287.567187" transform="rotate(-0 270.4 287.567187)">20</text>
     </g>
    </g>
    <g id="xtick_4">
     <g id="line2d_4">
      <g>
       <use xlink:href="#m07cf72fee2" x="369.6" y="256.32" style="fill: #262626; stroke: #262626; stroke-width: 2.5"/>
      </g>
     </g>
     <g id="text_4">
      <text style="fill: #262626; font: 22px 'Arial', 'DejaVu Sans', 'Liberation Sans', 'Bitstream Vera Sans', sans-serif; text-anchor: middle" x="369.6" y="287.567187" transform="rotate(-0 369.6 287.567187)">30</text>
     </g>
    </g>
    <g id="xtick_5">
     <g id="line2d_5">
      <g>
       <use xlink:href="#m07cf72fee2" x="468.8" y="256.32" style="fill: #262626; stroke: #262626; stroke-width: 2.5"/>
      </g>
     </g>
     <g id="text_5">
      <text style="fill: #262626; font: 22px 'Arial', 'DejaVu Sans', 'Liberation Sans', 'Bitstream Vera Sans', sans-serif; text-anchor: middle" x="468.8" y="287.567187" transform="rotate(-0 468.8 287.567187)">40</text>
     </g>
    </g>
    <g id="text_6">
     <text style="fill: #262626; font: 24px 'Arial', 'DejaVu Sans', 'Liberation Sans', 'Bitstream Vera Sans', sans-serif; text-anchor: middle" x="295.2" y="313.410937" transform="rotate(-0 295.2 313.410937)">Frequency (Hz)</text>
    </g>
   </g>
   <g id="matplotlib.axis_2">
    <g id="ytick_1">
     <g id="line2d_6">
      <defs>
       <path id="mfaa1f241e3" d="M 0 0 
L -12 0 
" style="stroke: #262626; stroke-width: 2.5"/>
      </defs>
      <g>
       <use xlink:href="#mfaa1f241e3" x="72" y="256.32" style="fill: #262626; stroke: #262626; stroke-width: 2.5"/>
      </g>
     </g>
     <g id="text_7">
      <text style="fill: #262626; font: 22px 'Arial', 'DejaVu Sans', 'Liberation Sans', 'Bitstream Vera Sans', sans-serif; text-anchor: end" x="56.5" y="264.193594" transform="rotate(-0 56.5 264.193594)">0</text>
     </g>
    </g>
    <g id="ytick_2">
     <g id="line2d_7">
      <g>
       <use xlink:href="#mfaa1f241e3" x="72" y="186.501818" style="fill: #262626; stroke: #262626; stroke-width: 2.5"/>
      </g>
     </g>
     <g id="text_8">
      <text style="fill: #262626; font: 22px 'Arial', 'DejaVu Sans', 'Liberation Sans', 'Bitstream Vera Sans', sans-serif; text-anchor: end" x="56.5" y="194.375412" transform="rotate(-0 56.5 194.375412)">1000</text>
     </g>
    </g>
    <g id="ytick_3">
     <g id="line2d_8">
      <g>
       <use xlink:href="#mfaa1f241e3" x="72" y="116.683636" style="fill: #262626; stroke: #262626; stroke-width: 2.5"/>
      </g>
     </g>
     <g id="text_9">
      <text style="fill: #262626; font: 22px 'Arial', 'DejaVu Sans', 'Liberation Sans', 'Bitstream Vera Sans', sans-serif; text-anchor: end" x="56.5" y="124.55723" transform="rotate(-0 56.5 124.55723)">2000</text>
     </g>
    </g>
    <g id="ytick_4">
     <g id="line2d_9">
      <g>
       <use xlink:href="#mfaa1f241e3" x="72" y="46.865455" style="fill: #262626; stroke: #262626; stroke-width: 2.5"/>
      </g>
     </g>
     <g id="text_10">
      <text style="fill: #262626; font: 22px 'Arial', 'DejaVu Sans', 'Liberation Sans', 'Bitstream Vera Sans', sans-serif; text-anchor: end" x="56.5" y="54.739048" transform="rotate(-0 56.5 54.739048)">3000</text>
     </g>
    </g>
    <g id="text_11">
     <text style="fill: #262626; font: 24px 'Arial', 'DejaVu Sans', 'Liberation Sans', 'Bitstream Vera Sans', sans-serif; text-anchor: middle" x="-1.20625" y="145.44" transform="rotate(-90 -1.20625 145.44)">Count</text>
    </g>
   </g>
   <g id="patch_3">
    <path d="M 81.92 256.32 
L 96.386244 256.32 
L 96.386244 200.954182 
L 81.92 200.954182 
z
" clip-path="url(#p010a87a288)" style="fill: #dd8452; stroke: #dd8452; stroke-width: 2; stroke-linejoin: miter"/>
   </g>
   <g id="patch_4">
    <path d="M 96.386244 256.32 
L 110.852488 256.32 
L 110.852488 184.267636 
L 96.386244 184.267636 
z
" clip-path="url(#p010a87a288)" style="fill: #dd8452; stroke: #dd8452; stroke-width: 2; stroke-linejoin: miter"/>
   </g>
   <g id="patch_5">
    <path d="M 110.852488 256.32 
L 125.318731 256.32 
L 125.318731 183.848727 
L 110.852488 183.848727 
z
" clip-path="url(#p010a87a288)" style="fill: #dd8452; stroke: #dd8452; stroke-width: 2; stroke-linejoin: miter"/>
   </g>
   <g id="patch_6">
    <path d="M 125.318731 256.32 
L 139.784975 256.32 
L 139.784975 150.545455 
L 125.318731 150.545455 
z
" clip-path="url(#p010a87a288)" style="fill: #dd8452; stroke: #dd8452; stroke-width: 2; stroke-linejoin: miter"/>
   </g>
   <g id="patch_7">
    <path d="M 139.784975 256.32 
L 154.251219 256.32 
L 154.251219 157.597091 
L 139.784975 157.597091 
z
" clip-path="url(#p010a87a288)" style="fill: #dd8452; stroke: #dd8452; stroke-width: 2; stroke-linejoin: miter"/>
   </g>
   <g id="patch_8">
    <path d="M 154.251219 256.32 
L 168.717463 256.32 
L 168.717463 87.220364 
L 154.251219 87.220364 
z
" clip-path="url(#p010a87a288)" style="fill: #dd8452; stroke: #dd8452; stroke-width: 2; stroke-linejoin: miter"/>
   </g>
   <g id="patch_9">
    <path d="M 168.717463 256.32 
L 183.183707 256.32 
L 183.183707 45.12 
L 168.717463 45.12 
z
" clip-path="url(#p010a87a288)" style="fill: #dd8452; stroke: #dd8452; stroke-width: 2; stroke-linejoin: miter"/>
   </g>
   <g id="patch_10">
    <path d="M 183.183707 256.32 
L 197.649951 256.32 
L 197.649951 109.003636 
L 183.183707 109.003636 
z
" clip-path="url(#p010a87a288)" style="fill: #dd8452; stroke: #dd8452; stroke-width: 2; stroke-linejoin: miter"/>
   </g>
   <g id="patch_11">
    <path d="M 197.649951 256.32 
L 212.116194 256.32 
L 212.116194 183.220364 
L 197.649951 183.220364 
z
" clip-path="url(#p010a87a288)" style="fill: #dd8452; stroke: #dd8452; stroke-width: 2; stroke-linejoin: miter"/>
   </g>
   <g id="patch_12">
    <path d="M 212.116194 256.32 
L 226.582438 256.32 
L 226.582438 173.515636 
L 212.116194 173.515636 
z
" clip-path="url(#p010a87a288)" style="fill: #dd8452; stroke: #dd8452; stroke-width: 2; stroke-linejoin: miter"/>
   </g>
   <g id="patch_13">
    <path d="M 226.582438 256.32 
L 241.048682 256.32 
L 241.048682 215.616 
L 226.582438 215.616 
z
" clip-path="url(#p010a87a288)" style="fill: #dd8452; stroke: #dd8452; stroke-width: 2; stroke-linejoin: miter"/>
   </g>
   <g id="patch_14">
    <path d="M 241.048682 256.32 
L 255.514926 256.32 
L 255.514926 110.888727 
L 241.048682 110.888727 
z
" clip-path="url(#p010a87a288)" style="fill: #dd8452; stroke: #dd8452; stroke-width: 2; stroke-linejoin: miter"/>
   </g>
   <g id="patch_15">
    <path d="M 255.514926 256.32 
L 269.98117 256.32 
L 269.98117 188.596364 
L 255.514926 188.596364 
z
" clip-path="url(#p010a87a288)" style="fill: #dd8452; stroke: #dd8452; stroke-width: 2; stroke-linejoin: miter"/>
   </g>
   <g id="patch_16">
    <path d="M 269.98117 256.32 
L 284.447414 256.32 
L 284.447414 212.404364 
L 269.98117 212.404364 
z
" clip-path="url(#p010a87a288)" style="fill: #dd8452; stroke: #dd8452; stroke-width: 2; stroke-linejoin: miter"/>
   </g>
   <g id="patch_17">
    <path d="M 284.447414 256.32 
L 298.913657 256.32 
L 298.913657 219.595636 
L 284.447414 219.595636 
z
" clip-path="url(#p010a87a288)" style="fill: #dd8452; stroke: #dd8452; stroke-width: 2; stroke-linejoin: miter"/>
   </g>
   <g id="patch_18">
    <path d="M 298.913657 256.32 
L 313.379901 256.32 
L 313.379901 229.230545 
L 298.913657 229.230545 
z
" clip-path="url(#p010a87a288)" style="fill: #dd8452; stroke: #dd8452; stroke-width: 2; stroke-linejoin: miter"/>
   </g>
   <g id="patch_19">
    <path d="M 313.379901 256.32 
L 327.846145 256.32 
L 327.846145 237.678545 
L 313.379901 237.678545 
z
" clip-path="url(#p010a87a288)" style="fill: #dd8452; stroke: #dd8452; stroke-width: 2; stroke-linejoin: miter"/>
   </g>
   <g id="patch_20">
    <path d="M 327.846145 256.32 
L 342.312389 256.32 
L 342.312389 241.239273 
L 327.846145 241.239273 
z
" clip-path="url(#p010a87a288)" style="fill: #dd8452; stroke: #dd8452; stroke-width: 2; stroke-linejoin: miter"/>
   </g>
   <g id="patch_21">
    <path d="M 342.312389 256.32 
L 356.778633 256.32 
L 356.778633 249.477818 
L 342.312389 249.477818 
z
" clip-path="url(#p010a87a288)" style="fill: #dd8452; stroke: #dd8452; stroke-width: 2; stroke-linejoin: miter"/>
   </g>
   <g id="patch_22">
    <path d="M 356.778633 256.32 
L 371.244877 256.32 
L 371.244877 245.149091 
L 356.778633 245.149091 
z
" clip-path="url(#p010a87a288)" style="fill: #dd8452; stroke: #dd8452; stroke-width: 2; stroke-linejoin: miter"/>
   </g>
   <g id="patch_23">
    <path d="M 371.244877 256.32 
L 385.71112 256.32 
L 385.71112 181.614545 
L 371.244877 181.614545 
z
" clip-path="url(#p010a87a288)" style="fill: #dd8452; stroke: #dd8452; stroke-width: 2; stroke-linejoin: miter"/>
   </g>
   <g id="patch_24">
    <path d="M 385.71112 256.32 
L 400.177364 256.32 
L 400.177364 197.882182 
L 385.71112 197.882182 
z
" clip-path="url(#p010a87a288)" style="fill: #dd8452; stroke: #dd8452; stroke-width: 2; stroke-linejoin: miter"/>
   </g>
   <g id="patch_25">
    <path d="M 400.177364 256.32 
L 414.643608 256.32 
L 414.643608 215.406545 
L 400.177364 215.406545 
z
" clip-path="url(#p010a87a288)" style="fill: #dd8452; stroke: #dd8452; stroke-width: 2; stroke-linejoin: miter"/>
   </g>
   <g id="patch_26">
    <path d="M 414.643608 256.32 
L 429.109852 256.32 
L 429.109852 243.333818 
L 414.643608 243.333818 
z
" clip-path="url(#p010a87a288)" style="fill: #dd8452; stroke: #dd8452; stroke-width: 2; stroke-linejoin: miter"/>
   </g>
   <g id="patch_27">
    <path d="M 429.109852 256.32 
L 443.576096 256.32 
L 443.576096 253.597091 
L 429.109852 253.597091 
z
" clip-path="url(#p010a87a288)" style="fill: #dd8452; stroke: #dd8452; stroke-width: 2; stroke-linejoin: miter"/>
   </g>
   <g id="patch_28">
    <path d="M 443.576096 256.32 
L 458.042339 256.32 
L 458.042339 254.993455 
L 443.576096 254.993455 
z
" clip-path="url(#p010a87a288)" style="fill: #dd8452; stroke: #dd8452; stroke-width: 2; stroke-linejoin: miter"/>
   </g>
   <g id="patch_29">
    <path d="M 458.042339 256.32 
L 472.508583 256.32 
L 472.508583 255.621818 
L 458.042339 255.621818 
z
" clip-path="url(#p010a87a288)" style="fill: #dd8452; stroke: #dd8452; stroke-width: 2; stroke-linejoin: miter"/>
   </g>
   <g id="patch_30">
    <path d="M 472.508583 256.32 
L 486.974827 256.32 
L 486.974827 255.482182 
L 472.508583 255.482182 
z
" clip-path="url(#p010a87a288)" style="fill: #dd8452; stroke: #dd8452; stroke-width: 2; stroke-linejoin: miter"/>
   </g>
   <g id="patch_31">
    <path d="M 486.974827 256.32 
L 501.441071 256.32 
L 501.441071 255.552 
L 486.974827 255.552 
z
" clip-path="url(#p010a87a288)" style="fill: #dd8452; stroke: #dd8452; stroke-width: 2; stroke-linejoin: miter"/>
   </g>
   <g id="patch_32">
    <path d="M 501.441071 256.32 
L 515.907315 256.32 
L 515.907315 255.342545 
L 501.441071 255.342545 
z
" clip-path="url(#p010a87a288)" style="fill: #dd8452; stroke: #dd8452; stroke-width: 2; stroke-linejoin: miter"/>
   </g>
   <g id="patch_33">
    <path d="M 72 256.32 
L 72 34.56 
" style="fill: none; stroke: #262626; stroke-width: 2.5; stroke-linejoin: miter; stroke-linecap: square"/>
   </g>
   <g id="patch_34">
    <path d="M 72 256.32 
L 518.4 256.32 
" style="fill: none; stroke: #262626; stroke-width: 2.5; stroke-linejoin: miter; stroke-linecap: square"/>
   </g>
  </g>
 </g>
 <defs>
  <clipPath id="p010a87a288">
   <rect x="72" y="34.56" width="446.4" height="221.76"/>
  </clipPath>
 </defs>
</svg>
