<?xml version="1.0" encoding="utf-8" standalone="no"?>
<!DOCTYPE svg PUBLIC "-//W3C//DTD SVG 1.1//EN"
  "http://www.w3.org/Graphics/SVG/1.1/DTD/svg11.dtd">
<svg xmlns:xlink="http://www.w3.org/1999/xlink" width="576pt" height="288pt" viewBox="0 0 576 288" xmlns="http://www.w3.org/2000/svg" version="1.1">
 <metadata>
  <rdf:RDF xmlns:dc="http://purl.org/dc/elements/1.1/" xmlns:cc="http://creativecommons.org/ns#" xmlns:rdf="http://www.w3.org/1999/02/22-rdf-syntax-ns#">
   <cc:Work>
    <dc:type rdf:resource="http://purl.org/dc/dcmitype/StillImage"/>
    <dc:date>2023-11-14T17:30:47.494427</dc:date>
    <dc:format>image/svg+xml</dc:format>
    <dc:creator>
     <cc:Agent>
      <dc:title>Matplotlib v3.7.2, https://matplotlib.org/</dc:title>
     </cc:Agent>
    </dc:creator>
   </cc:Work>
  </rdf:RDF>
 </metadata>
 <defs>
  <style type="text/css">*{stroke-linejoin: round; stroke-linecap: butt}</style>
 </defs>
 <g id="figure_1">
  <g id="patch_1">
   <path d="M 0 288 
L 576 288 
L 576 0 
L 0 0 
z
" style="fill: #ffffff"/>
  </g>
  <g id="axes_1">
   <g id="patch_2">
    <path d="M 104.19 197.94 
L 278.12231 197.94 
L 278.12231 50.64 
L 104.19 50.64 
z
" style="fill: #ffffff"/>
   </g>
   <g id="matplotlib.axis_1">
    <g id="xtick_1">
     <g id="line2d_1">
      <defs>
       <path id="m8be96acdf7" d="M 0 0 
L 0 12 
" style="stroke: #262626; stroke-width: 2.5"/>
      </defs>
      <g>
       <use xlink:href="#m8be96acdf7" x="111.095253" y="197.94" style="fill: #262626; stroke: #262626; stroke-width: 2.5"/>
      </g>
     </g>
     <g id="text_1">
      <text style="fill: #262626; font: 22px 'Arial', 'DejaVu Sans', 'Liberation Sans', 'Bitstream Vera Sans', sans-serif; text-anchor: middle" x="111.095253" y="230.156563" transform="rotate(-0 111.095253 230.156563)">0</text>
     </g>
    </g>
    <g id="xtick_2">
     <g id="line2d_2">
      <g>
       <use xlink:href="#m8be96acdf7" x="211.17138" y="197.94" style="fill: #262626; stroke: #262626; stroke-width: 2.5"/>
      </g>
     </g>
     <g id="text_2">
      <text style="fill: #262626; font: 22px 'Arial', 'DejaVu Sans', 'Liberation Sans', 'Bitstream Vera Sans', sans-serif; text-anchor: middle" x="211.17138" y="230.156563" transform="rotate(-0 211.17138 230.156563)">25</text>
     </g>
    </g>
    <g id="text_3">
     <text style="fill: #262626; font: 24px 'Arial', 'DejaVu Sans', 'Liberation Sans', 'Bitstream Vera Sans', sans-serif; text-anchor: middle" x="191.156155" y="256.968125" transform="rotate(-0 191.156155 256.968125)">Frequency (Hz)</text>
    </g>
   </g>
   <g id="matplotlib.axis_2">
    <g id="ytick_1">
     <g id="line2d_3">
      <defs>
       <path id="m19d8e73ad0" d="M 0 0 
L -12 0 
" style="stroke: #262626; stroke-width: 2.5"/>
      </defs>
      <g>
       <use xlink:href="#m19d8e73ad0" x="104.19" y="169.651674" style="fill: #262626; stroke: #262626; stroke-width: 2.5"/>
      </g>
     </g>
     <g id="text_4">
      <text style="fill: #262626; font: 22px 'Arial', 'DejaVu Sans', 'Liberation Sans', 'Bitstream Vera Sans', sans-serif; text-anchor: end" x="88.69" y="178.009955" transform="rotate(-0 88.69 178.009955)">0.50</text>
     </g>
    </g>
    <g id="ytick_2">
     <g id="line2d_4">
      <g>
       <use xlink:href="#m19d8e73ad0" x="104.19" y="110.251996" style="fill: #262626; stroke: #262626; stroke-width: 2.5"/>
      </g>
     </g>
     <g id="text_5">
      <text style="fill: #262626; font: 22px 'Arial', 'DejaVu Sans', 'Liberation Sans', 'Bitstream Vera Sans', sans-serif; text-anchor: end" x="88.69" y="118.610277" transform="rotate(-0 88.69 118.610277)">0.75</text>
     </g>
    </g>
    <g id="ytick_3">
     <g id="line2d_5">
      <g>
       <use xlink:href="#m19d8e73ad0" x="104.19" y="50.852318" style="fill: #262626; stroke: #262626; stroke-width: 2.5"/>
      </g>
     </g>
     <g id="text_6">
      <text style="fill: #262626; font: 22px 'Arial', 'DejaVu Sans', 'Liberation Sans', 'Bitstream Vera Sans', sans-serif; text-anchor: end" x="88.69" y="59.210599" transform="rotate(-0 88.69 59.210599)">1.00</text>
     </g>
    </g>
    <g id="text_7">
     <text style="fill: #262626; font: 24px 'Arial', 'DejaVu Sans', 'Liberation Sans', 'Bitstream Vera Sans', sans-serif; text-anchor: middle" x="30.714375" y="124.29" transform="rotate(-90 30.714375 124.29)">Dissimilarity</text>
    </g>
   </g>
   <g id="line2d_6">
    <path d="M 112.096014 58.459183 
L 115.098298 59.366932 
L 116.099059 59.214549 
L 118.100582 57.335455 
L 119.101343 57.370815 
L 120.102104 58.252198 
L 121.102866 59.899028 
L 123.104388 64.474128 
L 125.105911 72.864477 
L 127.107433 78.28294 
L 128.108195 81.297988 
L 130.109717 89.437227 
L 131.110478 92.705173 
L 132.11124 95.388511 
L 133.112001 99.63646 
L 134.112762 104.669802 
L 135.113523 107.98853 
L 136.114285 110.01293 
L 137.115046 112.795737 
L 138.115807 116.494386 
L 139.116569 121.804894 
L 140.11733 125.966465 
L 142.118852 132.367451 
L 144.120375 138.910667 
L 145.121136 141.575958 
L 147.122659 145.996598 
L 149.124181 151.736153 
L 151.125704 158.469611 
L 152.126465 161.216845 
L 154.127988 165.891914 
L 157.130272 173.806226 
L 159.131794 180.111024 
L 160.132555 182.751374 
L 162.134078 187.071174 
L 163.134839 188.659411 
L 164.1356 189.677601 
L 165.136362 190.313489 
L 166.137123 190.686606 
L 167.137884 190.837626 
L 169.139407 190.403874 
L 172.141691 189.310372 
L 173.142452 188.976308 
L 174.143213 188.506502 
L 175.143975 188.173288 
L 176.144736 187.199484 
L 177.145497 184.686643 
L 178.146258 183.661751 
L 179.14702 185.480039 
L 180.147781 187.741805 
L 181.148542 188.630809 
L 182.149303 188.975286 
L 184.150826 189.107484 
L 187.15311 189.434867 
L 188.153871 189.657031 
L 189.154632 189.723318 
L 191.156155 189.39994 
L 193.157677 189.067585 
L 195.1592 188.948154 
L 196.159961 188.936553 
L 198.161484 188.556296 
L 205.166813 189.884204 
L 207.168335 190.500302 
L 209.169858 190.607532 
L 210.170619 190.62584 
L 212.172142 190.950401 
L 216.175187 191.183744 
L 217.175948 190.974286 
L 220.178232 189.520131 
L 222.179755 188.160198 
L 225.182038 185.741775 
L 226.1828 184.66303 
L 228.184322 182.210455 
L 230.185845 179.924687 
L 232.187367 176.880177 
L 234.18889 173.382986 
L 236.190412 169.104387 
L 237.191174 166.975441 
L 239.192696 161.952702 
L 245.197264 145.386924 
L 252.202593 125.0893 
L 260.208683 105.074968 
L 263.210967 97.801846 
L 265.212489 93.23928 
L 266.213251 90.230544 
L 268.214773 85.607944 
L 269.215534 83.596014 
L 270.216296 81.880684 
L 270.216296 81.880684 
" clip-path="url(#p914f31af8d)" style="fill: none; stroke: #1f77b4; stroke-width: 3; stroke-linecap: round"/>
   </g>
   <g id="line2d_7">
    <path d="M 112.096014 59.367504 
L 114.097537 59.692582 
L 115.098298 60.135133 
L 116.099059 59.697999 
L 117.09982 58.749101 
L 118.100582 58.353486 
L 119.101343 58.704016 
L 120.102104 59.593919 
L 125.105911 71.483767 
L 127.107433 80.835345 
L 128.108195 84.261007 
L 129.108956 86.724924 
L 133.112001 98.673458 
L 134.112762 102.317296 
L 135.113523 107.545432 
L 138.115807 125.200963 
L 139.116569 130.544452 
L 140.11733 134.070565 
L 141.118091 136.909962 
L 142.118852 138.819367 
L 144.120375 141.244375 
L 146.121897 146.060651 
L 147.122659 147.508879 
L 148.12342 149.244636 
L 149.124181 151.508781 
L 151.125704 156.988933 
L 152.126465 160.438592 
L 154.127988 168.776991 
L 155.128749 171.925164 
L 156.12951 174.294867 
L 157.130272 175.930564 
L 159.131794 178.62073 
L 161.133317 180.556145 
L 163.134839 182.381318 
L 165.136362 184.707888 
L 167.137884 186.64282 
L 170.140168 189.313246 
L 171.140929 190.078294 
L 172.141691 190.654254 
L 173.142452 191.061378 
L 174.143213 191.244545 
L 175.143975 191.233654 
L 176.144736 190.844889 
L 177.145497 189.397034 
L 178.146258 188.40496 
L 179.14702 189.706639 
L 180.147781 190.728037 
L 181.148542 190.868067 
L 187.15311 190.016539 
L 188.153871 189.816778 
L 190.155394 189.167638 
L 191.156155 188.986515 
L 193.157677 188.815026 
L 195.1592 188.386484 
L 197.160723 188.454869 
L 200.163006 188.836847 
L 203.16529 188.622325 
L 204.166052 188.886287 
L 205.166813 188.884906 
L 206.167574 188.464492 
L 207.168335 187.832246 
L 208.169097 187.599926 
L 209.169858 187.565199 
L 211.17138 186.783921 
L 215.174426 184.934659 
L 218.176709 182.747978 
L 220.178232 180.869585 
L 221.178993 179.849862 
L 222.179755 178.670266 
L 225.182038 174.089859 
L 227.183561 170.71121 
L 229.185083 167.26405 
L 230.185845 165.221472 
L 231.186606 162.843679 
L 232.187367 160.846111 
L 233.188129 159.241222 
L 235.189651 155.105768 
L 237.191174 150.0684 
L 242.19498 137.076472 
L 245.197264 128.769055 
L 247.198786 123.716046 
L 249.200309 117.879732 
L 257.206399 96.182919 
L 258.20716 93.851747 
L 259.207922 91.843206 
L 260.208683 90.084753 
L 263.210967 84.086814 
L 267.214012 78.809887 
L 269.215534 76.263912 
L 270.216296 75.102456 
L 270.216296 75.102456 
" clip-path="url(#p914f31af8d)" style="fill: none; stroke: #ff7f0e; stroke-width: 3; stroke-linecap: round"/>
   </g>
   <g id="patch_3">
    <path d="M 104.19 197.94 
L 104.19 50.64 
" style="fill: none; stroke: #262626; stroke-width: 2.5; stroke-linejoin: miter; stroke-linecap: square"/>
   </g>
   <g id="patch_4">
    <path d="M 278.12231 197.94 
L 278.12231 50.64 
" style="fill: none; stroke: #262626; stroke-width: 2.5; stroke-linejoin: miter; stroke-linecap: square"/>
   </g>
   <g id="patch_5">
    <path d="M 104.19 197.94 
L 278.12231 197.94 
" style="fill: none; stroke: #262626; stroke-width: 2.5; stroke-linejoin: miter; stroke-linecap: square"/>
   </g>
   <g id="patch_6">
    <path d="M 104.19 50.64 
L 278.12231 50.64 
" style="fill: none; stroke: #262626; stroke-width: 2.5; stroke-linejoin: miter; stroke-linecap: square"/>
   </g>
   <g id="text_8">
    <text style="fill: #262626; font: 24px 'Arial', 'DejaVu Sans', 'Liberation Sans', 'Bitstream Vera Sans', sans-serif; text-anchor: middle" x="191.156155" y="44.64" transform="rotate(-0 191.156155 44.64)">Periodic Spectrum</text>
   </g>
  </g>
  <g id="axes_2">
   <g id="patch_7">
    <path d="M 360.536655 197.94 
L 534.468965 197.94 
L 534.468965 50.64 
L 360.536655 50.64 
z
" style="fill: #ffffff"/>
   </g>
   <g id="matplotlib.axis_3">
    <g id="xtick_3">
     <g id="line2d_8">
      <g>
       <use xlink:href="#m8be96acdf7" x="368.03827" y="197.94" style="fill: #262626; stroke: #262626; stroke-width: 2.5"/>
      </g>
     </g>
     <g id="text_9">
      <text style="fill: #262626; font: 22px 'Arial', 'DejaVu Sans', 'Liberation Sans', 'Bitstream Vera Sans', sans-serif; text-anchor: middle" x="368.03827" y="230.156563" transform="rotate(-0 368.03827 230.156563)">0</text>
     </g>
    </g>
    <g id="xtick_4">
     <g id="line2d_9">
      <g>
       <use xlink:href="#m8be96acdf7" x="529.798149" y="197.94" style="fill: #262626; stroke: #262626; stroke-width: 2.5"/>
      </g>
     </g>
     <g id="text_10">
      <text style="fill: #262626; font: 22px 'Arial', 'DejaVu Sans', 'Liberation Sans', 'Bitstream Vera Sans', sans-serif; text-anchor: middle" x="529.798149" y="230.156563" transform="rotate(-0 529.798149 230.156563)">100</text>
     </g>
    </g>
    <g id="text_11">
     <text style="fill: #262626; font: 24px 'Arial', 'DejaVu Sans', 'Liberation Sans', 'Bitstream Vera Sans', sans-serif; text-anchor: middle" x="447.50281" y="256.968125" transform="rotate(-0 447.50281 256.968125)">Frequency (Hz)</text>
    </g>
   </g>
   <g id="matplotlib.axis_4">
    <g id="ytick_4">
     <g id="line2d_10">
      <g>
       <use xlink:href="#m19d8e73ad0" x="360.536655" y="140.353791" style="fill: #262626; stroke: #262626; stroke-width: 2.5"/>
      </g>
     </g>
     <g id="text_12">
      <text style="fill: #262626; font: 22px 'Arial', 'DejaVu Sans', 'Liberation Sans', 'Bitstream Vera Sans', sans-serif; text-anchor: end" x="345.036655" y="148.712072" transform="rotate(-0 345.036655 148.712072)">0.6</text>
     </g>
    </g>
    <g id="ytick_5">
     <g id="line2d_11">
      <g>
       <use xlink:href="#m19d8e73ad0" x="360.536655" y="66.096922" style="fill: #262626; stroke: #262626; stroke-width: 2.5"/>
      </g>
     </g>
     <g id="text_13">
      <text style="fill: #262626; font: 22px 'Arial', 'DejaVu Sans', 'Liberation Sans', 'Bitstream Vera Sans', sans-serif; text-anchor: end" x="345.036655" y="74.455203" transform="rotate(-0 345.036655 74.455203)">0.8</text>
     </g>
    </g>
   </g>
   <g id="line2d_12">
    <path d="M 368.44267 181.58534 
L 368.847069 186.625703 
L 369.251469 188.964775 
L 369.655869 190.218349 
L 370.060268 190.886592 
L 370.464668 191.189832 
L 370.869068 191.244545 
L 371.273467 191.119768 
L 372.082267 190.494694 
L 372.891066 189.529131 
L 374.104265 187.677748 
L 375.721864 184.750838 
L 378.148262 179.838 
L 384.214258 166.778589 
L 389.067054 156.65425 
L 393.111051 148.75868 
L 396.750648 142.128185 
L 400.390246 135.949742 
L 404.029843 130.206809 
L 407.66944 124.874685 
L 411.309038 119.925262 
L 414.948635 115.329665 
L 418.588232 111.059734 
L 422.632229 106.664986 
L 426.676226 102.605701 
L 430.720223 98.851249 
L 435.16862 95.040633 
L 439.617016 91.532916 
L 444.065413 88.299238 
L 448.918209 85.054261 
L 453.771006 82.076029 
L 459.028202 79.121109 
L 464.285398 76.420973 
L 469.946994 73.769705 
L 475.608589 71.358192 
L 481.674585 69.01374 
L 488.14498 66.758061 
L 495.019775 64.609401 
L 502.298969 62.582635 
L 509.982564 60.689425 
L 518.070558 58.938414 
L 526.562951 57.335455 
L 526.562951 57.335455 
" clip-path="url(#pf507bd1f2d)" style="fill: none; stroke: #1f77b4; stroke-width: 3; stroke-linecap: round"/>
   </g>
   <g id="line2d_13">
    <path d="M 368.44267 170.555185 
L 368.847069 173.279628 
L 369.251469 174.294753 
L 369.655869 174.629009 
L 370.060268 174.593675 
L 370.464668 174.324851 
L 371.273467 173.346977 
L 372.486667 171.244285 
L 374.104265 167.862064 
L 382.596659 149.260855 
L 385.831857 143.006945 
L 389.067054 137.245775 
L 392.302252 131.929816 
L 395.537449 127.017644 
L 398.772647 122.472717 
L 402.412244 117.757921 
L 406.051841 113.424621 
L 409.691439 109.435601 
L 413.331036 105.757833 
L 417.375033 102.000967 
L 421.41903 98.556877 
L 425.463027 95.39455 
L 429.911424 92.209049 
L 434.35982 89.299964 
L 439.212617 86.409363 
L 444.065413 83.783849 
L 449.322609 81.207437 
L 454.579805 78.880658 
L 460.241401 76.624429 
L 466.307396 74.463112 
L 472.373392 72.537402 
L 478.843787 70.713684 
L 485.718582 69.006515 
L 492.997776 67.426767 
L 500.681371 65.981846 
L 509.173764 64.615973 
L 518.070558 63.409669 
L 526.562951 62.442726 
L 526.562951 62.442726 
" clip-path="url(#pf507bd1f2d)" style="fill: none; stroke: #ff7f0e; stroke-width: 3; stroke-linecap: round"/>
   </g>
   <g id="patch_8">
    <path d="M 360.536655 197.94 
L 360.536655 50.64 
" style="fill: none; stroke: #262626; stroke-width: 2.5; stroke-linejoin: miter; stroke-linecap: square"/>
   </g>
   <g id="patch_9">
    <path d="M 534.468965 197.94 
L 534.468965 50.64 
" style="fill: none; stroke: #262626; stroke-width: 2.5; stroke-linejoin: miter; stroke-linecap: square"/>
   </g>
   <g id="patch_10">
    <path d="M 360.536655 197.94 
L 534.468965 197.94 
" style="fill: none; stroke: #262626; stroke-width: 2.5; stroke-linejoin: miter; stroke-linecap: square"/>
   </g>
   <g id="patch_11">
    <path d="M 360.536655 50.64 
L 534.468965 50.64 
" style="fill: none; stroke: #262626; stroke-width: 2.5; stroke-linejoin: miter; stroke-linecap: square"/>
   </g>
   <g id="text_14">
    <text style="fill: #262626; font: 24px 'Arial', 'DejaVu Sans', 'Liberation Sans', 'Bitstream Vera Sans', sans-serif; text-anchor: middle" x="447.50281" y="44.64" transform="rotate(-0 447.50281 44.64)">Aperiodic Spectrum</text>
   </g>
   <g id="legend_1">
    <g id="patch_12">
     <path d="M 375.936655 186.94 
L 529.097905 186.94 
Q 533.497905 186.94 533.497905 182.54 
L 533.497905 120.15625 
Q 533.497905 115.75625 529.097905 115.75625 
L 375.936655 115.75625 
Q 371.536655 115.75625 371.536655 120.15625 
L 371.536655 182.54 
Q 371.536655 186.94 375.936655 186.94 
z
" style="fill: #ffffff; opacity: 0.8; stroke: #cccccc; stroke-width: 2; stroke-linejoin: miter"/>
    </g>
    <g id="line2d_14">
     <path d="M 380.336655 133.572812 
L 402.336655 133.572812 
L 424.336655 133.572812 
" style="fill: none; stroke: #1f77b4; stroke-width: 3; stroke-linecap: round"/>
    </g>
    <g id="text_15">
     <text style="fill: #262626; font: 22px 'Arial', 'DejaVu Sans', 'Liberation Sans', 'Bitstream Vera Sans', sans-serif; text-anchor: start" x="441.936655" y="141.272812" transform="rotate(-0 441.936655 141.272812)">control</text>
    </g>
    <g id="line2d_15">
     <path d="M 380.336655 165.864688 
L 402.336655 165.864688 
L 424.336655 165.864688 
" style="fill: none; stroke: #ff7f0e; stroke-width: 3; stroke-linecap: round"/>
    </g>
    <g id="text_16">
     <text style="fill: #262626; font: 22px 'Arial', 'DejaVu Sans', 'Liberation Sans', 'Bitstream Vera Sans', sans-serif; text-anchor: start" x="441.936655" y="173.564687" transform="rotate(-0 441.936655 173.564687)">tinnitus</text>
    </g>
   </g>
  </g>
 </g>
 <defs>
  <clipPath id="p914f31af8d">
   <rect x="104.19" y="50.64" width="173.93231" height="147.3"/>
  </clipPath>
  <clipPath id="pf507bd1f2d">
   <rect x="360.536655" y="50.64" width="173.93231" height="147.3"/>
  </clipPath>
 </defs>
</svg>
