<?xml version="1.0" encoding="utf-8" standalone="no"?>
<!DOCTYPE svg PUBLIC "-//W3C//DTD SVG 1.1//EN"
  "http://www.w3.org/Graphics/SVG/1.1/DTD/svg11.dtd">
<svg xmlns:xlink="http://www.w3.org/1999/xlink" width="1152pt" height="576pt" viewBox="0 0 1152 576" xmlns="http://www.w3.org/2000/svg" version="1.1">
 <metadata>
  <rdf:RDF xmlns:dc="http://purl.org/dc/elements/1.1/" xmlns:cc="http://creativecommons.org/ns#" xmlns:rdf="http://www.w3.org/1999/02/22-rdf-syntax-ns#">
   <cc:Work>
    <dc:type rdf:resource="http://purl.org/dc/dcmitype/StillImage"/>
    <dc:date>2023-11-16T13:58:02.677289</dc:date>
    <dc:format>image/svg+xml</dc:format>
    <dc:creator>
     <cc:Agent>
      <dc:title>Matplotlib v3.7.2, https://matplotlib.org/</dc:title>
     </cc:Agent>
    </dc:creator>
   </cc:Work>
  </rdf:RDF>
 </metadata>
 <defs>
  <style type="text/css">*{stroke-linejoin: round; stroke-linecap: butt}</style>
 </defs>
 <g id="figure_1">
  <g id="patch_1">
   <path d="M 0 576 
L 1152 576 
L 1152 0 
L 0 0 
z
" style="fill: #ffffff"/>
  </g>
  <g id="axes_1">
   <g id="patch_2">
    <path d="M 104.19 485.94 
L 571.838965 485.94 
L 571.838965 50.64 
L 104.19 50.64 
z
" style="fill: #ffffff"/>
   </g>
   <g id="matplotlib.axis_1">
    <g id="xtick_1">
     <g id="line2d_1">
      <defs>
       <path id="mcfe7835bfb" d="M 0 0 
L 0 12 
" style="stroke: #262626; stroke-width: 2.5"/>
      </defs>
      <g>
       <use xlink:href="#mcfe7835bfb" x="123.05837" y="485.94" style="fill: #262626; stroke: #262626; stroke-width: 2.5"/>
      </g>
     </g>
     <g id="text_1">
      <text style="fill: #262626; font: 22px 'Arial', 'DejaVu Sans', 'Liberation Sans', 'Bitstream Vera Sans', sans-serif; text-anchor: middle" x="123.05837" y="518.156562" transform="rotate(-0 123.05837 518.156562)">0</text>
     </g>
    </g>
    <g id="xtick_2">
     <g id="line2d_2">
      <g>
       <use xlink:href="#mcfe7835bfb" x="218.59442" y="485.94" style="fill: #262626; stroke: #262626; stroke-width: 2.5"/>
      </g>
     </g>
     <g id="text_2">
      <text style="fill: #262626; font: 22px 'Arial', 'DejaVu Sans', 'Liberation Sans', 'Bitstream Vera Sans', sans-serif; text-anchor: middle" x="218.59442" y="518.156562" transform="rotate(-0 218.59442 518.156562)">10</text>
     </g>
    </g>
    <g id="xtick_3">
     <g id="line2d_3">
      <g>
       <use xlink:href="#mcfe7835bfb" x="314.13047" y="485.94" style="fill: #262626; stroke: #262626; stroke-width: 2.5"/>
      </g>
     </g>
     <g id="text_3">
      <text style="fill: #262626; font: 22px 'Arial', 'DejaVu Sans', 'Liberation Sans', 'Bitstream Vera Sans', sans-serif; text-anchor: middle" x="314.13047" y="518.156562" transform="rotate(-0 314.13047 518.156562)">20</text>
     </g>
    </g>
    <g id="xtick_4">
     <g id="line2d_4">
      <g>
       <use xlink:href="#mcfe7835bfb" x="409.66652" y="485.94" style="fill: #262626; stroke: #262626; stroke-width: 2.5"/>
      </g>
     </g>
     <g id="text_4">
      <text style="fill: #262626; font: 22px 'Arial', 'DejaVu Sans', 'Liberation Sans', 'Bitstream Vera Sans', sans-serif; text-anchor: middle" x="409.66652" y="518.156562" transform="rotate(-0 409.66652 518.156562)">30</text>
     </g>
    </g>
    <g id="xtick_5">
     <g id="line2d_5">
      <g>
       <use xlink:href="#mcfe7835bfb" x="505.20257" y="485.94" style="fill: #262626; stroke: #262626; stroke-width: 2.5"/>
      </g>
     </g>
     <g id="text_5">
      <text style="fill: #262626; font: 22px 'Arial', 'DejaVu Sans', 'Liberation Sans', 'Bitstream Vera Sans', sans-serif; text-anchor: middle" x="505.20257" y="518.156562" transform="rotate(-0 505.20257 518.156562)">40</text>
     </g>
    </g>
    <g id="text_6">
     <text style="fill: #262626; font: 24px 'Arial', 'DejaVu Sans', 'Liberation Sans', 'Bitstream Vera Sans', sans-serif; text-anchor: middle" x="338.014483" y="544.968125" transform="rotate(-0 338.014483 544.968125)">Frequency (Hz)</text>
    </g>
   </g>
   <g id="matplotlib.axis_2">
    <g id="ytick_1">
     <g id="line2d_6">
      <defs>
       <path id="me815764d6a" d="M 0 0 
L -12 0 
" style="stroke: #262626; stroke-width: 2.5"/>
      </defs>
      <g>
       <use xlink:href="#me815764d6a" x="104.19" y="436.582788" style="fill: #262626; stroke: #262626; stroke-width: 2.5"/>
      </g>
     </g>
     <g id="text_7">
      <text style="fill: #262626; font: 22px 'Arial', 'DejaVu Sans', 'Liberation Sans', 'Bitstream Vera Sans', sans-serif; text-anchor: end" x="88.69" y="444.941069" transform="rotate(-0 88.69 444.941069)">0.4</text>
     </g>
    </g>
    <g id="ytick_2">
     <g id="line2d_7">
      <g>
       <use xlink:href="#me815764d6a" x="104.19" y="377.231648" style="fill: #262626; stroke: #262626; stroke-width: 2.5"/>
      </g>
     </g>
     <g id="text_8">
      <text style="fill: #262626; font: 22px 'Arial', 'DejaVu Sans', 'Liberation Sans', 'Bitstream Vera Sans', sans-serif; text-anchor: end" x="88.69" y="385.589929" transform="rotate(-0 88.69 385.589929)">0.5</text>
     </g>
    </g>
    <g id="ytick_3">
     <g id="line2d_8">
      <g>
       <use xlink:href="#me815764d6a" x="104.19" y="317.880508" style="fill: #262626; stroke: #262626; stroke-width: 2.5"/>
      </g>
     </g>
     <g id="text_9">
      <text style="fill: #262626; font: 22px 'Arial', 'DejaVu Sans', 'Liberation Sans', 'Bitstream Vera Sans', sans-serif; text-anchor: end" x="88.69" y="326.238789" transform="rotate(-0 88.69 326.238789)">0.6</text>
     </g>
    </g>
    <g id="ytick_4">
     <g id="line2d_9">
      <g>
       <use xlink:href="#me815764d6a" x="104.19" y="258.529367" style="fill: #262626; stroke: #262626; stroke-width: 2.5"/>
      </g>
     </g>
     <g id="text_10">
      <text style="fill: #262626; font: 22px 'Arial', 'DejaVu Sans', 'Liberation Sans', 'Bitstream Vera Sans', sans-serif; text-anchor: end" x="88.69" y="266.887648" transform="rotate(-0 88.69 266.887648)">0.7</text>
     </g>
    </g>
    <g id="ytick_5">
     <g id="line2d_10">
      <g>
       <use xlink:href="#me815764d6a" x="104.19" y="199.178227" style="fill: #262626; stroke: #262626; stroke-width: 2.5"/>
      </g>
     </g>
     <g id="text_11">
      <text style="fill: #262626; font: 22px 'Arial', 'DejaVu Sans', 'Liberation Sans', 'Bitstream Vera Sans', sans-serif; text-anchor: end" x="88.69" y="207.536508" transform="rotate(-0 88.69 207.536508)">0.8</text>
     </g>
    </g>
    <g id="ytick_6">
     <g id="line2d_11">
      <g>
       <use xlink:href="#me815764d6a" x="104.19" y="139.827086" style="fill: #262626; stroke: #262626; stroke-width: 2.5"/>
      </g>
     </g>
     <g id="text_12">
      <text style="fill: #262626; font: 22px 'Arial', 'DejaVu Sans', 'Liberation Sans', 'Bitstream Vera Sans', sans-serif; text-anchor: end" x="88.69" y="148.185368" transform="rotate(-0 88.69 148.185368)">0.9</text>
     </g>
    </g>
    <g id="ytick_7">
     <g id="line2d_12">
      <g>
       <use xlink:href="#me815764d6a" x="104.19" y="80.475946" style="fill: #262626; stroke: #262626; stroke-width: 2.5"/>
      </g>
     </g>
     <g id="text_13">
      <text style="fill: #262626; font: 22px 'Arial', 'DejaVu Sans', 'Liberation Sans', 'Bitstream Vera Sans', sans-serif; text-anchor: end" x="88.69" y="88.834227" transform="rotate(-0 88.69 88.834227)">1.0</text>
     </g>
    </g>
    <g id="text_14">
     <text style="fill: #262626; font: 24px 'Arial', 'DejaVu Sans', 'Liberation Sans', 'Bitstream Vera Sans', sans-serif; text-anchor: middle" x="44.711875" y="268.29" transform="rotate(-90 44.711875 268.29)">Dissimilarity (1 - r)</text>
    </g>
   </g>
   <g id="PolyCollection_1">
    <defs>
     <path id="mbb4d8718d0" d="M 125.446771 -502.797748 
L 125.446771 -445.70944 
L 127.835172 -445.900904 
L 130.223574 -445.623028 
L 132.611975 -444.362879 
L 135.000376 -445.162814 
L 137.388777 -447.928528 
L 139.777179 -448.922081 
L 142.16558 -447.521856 
L 144.553981 -444.843937 
L 146.942382 -438.200155 
L 149.330784 -432.684541 
L 151.719185 -425.783325 
L 154.107586 -420.233642 
L 156.495987 -413.338584 
L 158.884389 -401.537922 
L 161.27279 -388.226342 
L 163.661191 -378.503028 
L 166.049592 -371.124024 
L 168.437994 -362.46066 
L 170.826395 -353.545859 
L 173.214796 -345.403766 
L 175.603197 -337.170946 
L 177.991599 -327.684106 
L 180.38 -314.139168 
L 182.768401 -299.095624 
L 185.156802 -284.429162 
L 187.545204 -271.468939 
L 189.933605 -259.322994 
L 192.322006 -251.296246 
L 194.710407 -244.890461 
L 197.098809 -240.920667 
L 199.48721 -237.724681 
L 201.875611 -234.648644 
L 204.264013 -227.363808 
L 206.652414 -219.579751 
L 209.040815 -213.944725 
L 211.429216 -207.862714 
L 213.817618 -201.329356 
L 216.206019 -194.684574 
L 218.59442 -188.791393 
L 220.982821 -181.39843 
L 223.371223 -171.481765 
L 225.759624 -161.815503 
L 228.148025 -154.450137 
L 230.536426 -149.068144 
L 232.924828 -145.325624 
L 235.313229 -142.124248 
L 237.70163 -139.050437 
L 240.090031 -136.645368 
L 242.478433 -134.48903 
L 244.866834 -132.39728 
L 247.255235 -130.441949 
L 249.643636 -127.768458 
L 252.032038 -125.144485 
L 254.420439 -122.614813 
L 256.80884 -120.576544 
L 259.197241 -118.482367 
L 261.585643 -116.516921 
L 263.974044 -114.722413 
L 266.362445 -113.194066 
L 268.750846 -112.21282 
L 271.139248 -111.632072 
L 273.527649 -111.468749 
L 275.91605 -111.604326 
L 278.304451 -112.278415 
L 280.692853 -114.511469 
L 283.081254 -116.013363 
L 285.469655 -113.911448 
L 287.858056 -112.514619 
L 290.246458 -112.381454 
L 292.634859 -112.717971 
L 295.02326 -113.067399 
L 297.411661 -113.389994 
L 299.800063 -113.962025 
L 302.188464 -114.588322 
L 304.576865 -115.14105 
L 306.965266 -116.00522 
L 309.353668 -117.298061 
L 311.742069 -118.509037 
L 314.13047 -119.442957 
L 316.518871 -120.124078 
L 318.907273 -120.839439 
L 321.295674 -121.746474 
L 323.684075 -122.375812 
L 326.072476 -122.498829 
L 328.460878 -122.451933 
L 330.849279 -122.156781 
L 333.23768 -121.639261 
L 335.626081 -121.269664 
L 338.014483 -121.280191 
L 340.402884 -121.399283 
L 342.791285 -121.034081 
L 345.179686 -120.048885 
L 347.568088 -119.709756 
L 349.956489 -120.389435 
L 352.34489 -121.666756 
L 354.733291 -121.976909 
L 357.121693 -121.796643 
L 359.510094 -122.462384 
L 361.898495 -123.276001 
L 364.286896 -124.106817 
L 366.675298 -124.947622 
L 369.063699 -125.693022 
L 371.4521 -127.003744 
L 373.840501 -128.698899 
L 376.228903 -130.093426 
L 378.617304 -132.087867 
L 381.005705 -134.233688 
L 383.394106 -136.524489 
L 385.782508 -138.906496 
L 388.170909 -141.750196 
L 390.55931 -145.389856 
L 392.947711 -149.341544 
L 395.336113 -153.068047 
L 397.724514 -157.081565 
L 400.112915 -161.493564 
L 402.501317 -165.701492 
L 404.889718 -170.009129 
L 407.278119 -175.040182 
L 409.66652 -180.979387 
L 412.054922 -186.049824 
L 414.443323 -190.090168 
L 416.831724 -194.998287 
L 419.220125 -200.380408 
L 421.608527 -206.388466 
L 423.996928 -212.896213 
L 426.385329 -219.21314 
L 428.77373 -225.6278 
L 431.162132 -232.146079 
L 433.550533 -238.707022 
L 435.938934 -245.382932 
L 438.327335 -252.395382 
L 440.715737 -259.667905 
L 443.104138 -266.424555 
L 445.492539 -272.497503 
L 447.88094 -279.185679 
L 450.269342 -286.807445 
L 452.657743 -293.974092 
L 455.046144 -300.926329 
L 457.434545 -308.17766 
L 459.822947 -315.39064 
L 462.211348 -322.303501 
L 464.599749 -328.907429 
L 466.98815 -335.478791 
L 469.376552 -342.48166 
L 471.764953 -349.003536 
L 474.153354 -355.067691 
L 476.541755 -360.499166 
L 478.930157 -365.321927 
L 481.318558 -370.809129 
L 483.706959 -376.380736 
L 486.09536 -381.315915 
L 488.483762 -385.05951 
L 490.872163 -388.536093 
L 493.260564 -392.105341 
L 495.648965 -395.834672 
L 498.037367 -399.451404 
L 500.425768 -402.776767 
L 502.814169 -405.892371 
L 505.20257 -409.000756 
L 507.590972 -412.116396 
L 509.979373 -415.019579 
L 512.367774 -417.692508 
L 514.756175 -420.062619 
L 517.144577 -422.17172 
L 519.532978 -424.757219 
L 521.921379 -426.449832 
L 524.30978 -427.595546 
L 526.698182 -428.54932 
L 529.086583 -429.802953 
L 531.474984 -431.60431 
L 533.863385 -433.904321 
L 536.251787 -435.503908 
L 538.640188 -436.814767 
L 541.028589 -437.835017 
L 543.41699 -438.816651 
L 545.805392 -440.328026 
L 548.193793 -441.282199 
L 550.582194 -441.229921 
L 550.582194 -494.234364 
L 550.582194 -494.234364 
L 548.193793 -493.801224 
L 545.805392 -493.011379 
L 543.41699 -492.025243 
L 541.028589 -491.122231 
L 538.640188 -490.245797 
L 536.251787 -489.138221 
L 533.863385 -487.779557 
L 531.474984 -486.093135 
L 529.086583 -484.60827 
L 526.698182 -483.292692 
L 524.30978 -482.398263 
L 521.921379 -481.329039 
L 519.532978 -479.772034 
L 517.144577 -477.62159 
L 514.756175 -475.978147 
L 512.367774 -473.963651 
L 509.979373 -471.643039 
L 507.590972 -469.115093 
L 505.20257 -466.539021 
L 502.814169 -464.004558 
L 500.425768 -461.317593 
L 498.037367 -458.500923 
L 495.648965 -455.540029 
L 493.260564 -452.481372 
L 490.872163 -449.541756 
L 488.483762 -446.727409 
L 486.09536 -443.694825 
L 483.706959 -439.422414 
L 481.318558 -434.497938 
L 478.930157 -429.721917 
L 476.541755 -425.758935 
L 474.153354 -421.155155 
L 471.764953 -415.572077 
L 469.376552 -409.199918 
L 466.98815 -402.129877 
L 464.599749 -395.637514 
L 462.211348 -389.347893 
L 459.822947 -382.808643 
L 457.434545 -375.935244 
L 455.046144 -368.960868 
L 452.657743 -362.198044 
L 450.269342 -355.230349 
L 447.88094 -347.828176 
L 445.492539 -341.247538 
L 443.104138 -335.346087 
L 440.715737 -328.875816 
L 438.327335 -321.798327 
L 435.938934 -314.888285 
L 433.550533 -308.365524 
L 431.162132 -301.961775 
L 428.77373 -295.530612 
L 426.385329 -289.009972 
L 423.996928 -282.475807 
L 421.608527 -275.87563 
L 419.220125 -269.826752 
L 416.831724 -264.395757 
L 414.443323 -259.456424 
L 412.054922 -255.478505 
L 409.66652 -250.569047 
L 407.278119 -244.629093 
L 404.889718 -239.455876 
L 402.501317 -235.021951 
L 400.112915 -230.750234 
L 397.724514 -226.35937 
L 395.336113 -222.295589 
L 392.947711 -218.469578 
L 390.55931 -214.445176 
L 388.170909 -210.726175 
L 385.782508 -207.675124 
L 383.394106 -204.961358 
L 381.005705 -202.417074 
L 378.617304 -200.012272 
L 376.228903 -197.777402 
L 373.840501 -196.163887 
L 371.4521 -194.174443 
L 369.063699 -192.510071 
L 366.675298 -191.43826 
L 364.286896 -190.124284 
L 361.898495 -188.674538 
L 359.510094 -187.362474 
L 357.121693 -186.257424 
L 354.733291 -185.906625 
L 352.34489 -185.058781 
L 349.956489 -183.179802 
L 347.568088 -181.760725 
L 345.179686 -181.414884 
L 342.791285 -181.746973 
L 340.402884 -181.586916 
L 338.014483 -180.964195 
L 335.626081 -180.429719 
L 333.23768 -180.46341 
L 330.849279 -180.840508 
L 328.460878 -181.142494 
L 326.072476 -181.387888 
L 323.684075 -181.554993 
L 321.295674 -181.327214 
L 318.907273 -180.950253 
L 316.518871 -181.087179 
L 314.13047 -181.493277 
L 311.742069 -181.524128 
L 309.353668 -181.199164 
L 306.965266 -180.787112 
L 304.576865 -180.653694 
L 302.188464 -180.621471 
L 299.800063 -180.236242 
L 297.411661 -179.758506 
L 295.02326 -179.599004 
L 292.634859 -179.456054 
L 290.246458 -179.167179 
L 287.858056 -179.737159 
L 285.469655 -183.446256 
L 283.081254 -187.849389 
L 280.692853 -184.396519 
L 278.304451 -179.396644 
L 275.91605 -178.127246 
L 273.527649 -178.205742 
L 271.139248 -178.953358 
L 268.750846 -180.401765 
L 266.362445 -182.294019 
L 263.974044 -184.585376 
L 261.585643 -186.989381 
L 259.197241 -189.479771 
L 256.80884 -192.075448 
L 254.420439 -194.473003 
L 252.032038 -197.183012 
L 249.643636 -200.20385 
L 247.255235 -203.518083 
L 244.866834 -206.184447 
L 242.478433 -208.590737 
L 240.090031 -210.956966 
L 237.70163 -213.688382 
L 235.313229 -217.192335 
L 232.924828 -220.840487 
L 230.536426 -225.266745 
L 228.148025 -231.72304 
L 225.759624 -240.086523 
L 223.371223 -250.757719 
L 220.982821 -262.164752 
L 218.59442 -272.006129 
L 216.206019 -280.022891 
L 213.817618 -286.834724 
L 211.429216 -291.602078 
L 209.040815 -294.184521 
L 206.652414 -295.784771 
L 204.264013 -299.739158 
L 201.875611 -304.800428 
L 199.48721 -307.48449 
L 197.098809 -310.666908 
L 194.710407 -316.249279 
L 192.322006 -324.038622 
L 189.933605 -333.633097 
L 187.545204 -348.182299 
L 185.156802 -363.302031 
L 182.768401 -378.555126 
L 180.38 -393.697877 
L 177.991599 -406.266695 
L 175.603197 -414.978511 
L 173.214796 -421.032711 
L 170.826395 -427.22991 
L 168.437994 -434.327214 
L 166.049592 -440.717716 
L 163.661191 -445.656439 
L 161.27279 -453.06005 
L 158.884389 -464.261735 
L 156.495987 -474.681295 
L 154.107586 -480.9989 
L 151.719185 -485.464301 
L 149.330784 -492.565242 
L 146.942382 -497.507698 
L 144.553981 -502.577825 
L 142.16558 -504.342489 
L 139.777179 -504.665259 
L 137.388777 -503.670656 
L 135.000376 -501.69254 
L 132.611975 -500.308874 
L 130.223574 -501.259701 
L 127.835172 -501.871067 
L 125.446771 -502.797748 
z
" style="stroke: #ffffff; stroke-opacity: 0.5; stroke-width: 2"/>
    </defs>
    <g clip-path="url(#pb06c278bde)">
     <use xlink:href="#mbb4d8718d0" x="0" y="576" style="fill: #1f77b4; fill-opacity: 0.5; stroke: #ffffff; stroke-opacity: 0.5; stroke-width: 2"/>
    </g>
   </g>
   <g id="PolyCollection_2">
    <defs>
     <path id="m1b230a0693" d="M 125.446771 -503.035288 
L 125.446771 -450.008917 
L 127.835172 -449.376397 
L 130.223574 -448.509511 
L 132.611975 -447.844078 
L 135.000376 -448.161241 
L 137.388777 -450.709218 
L 139.777179 -453.472189 
L 142.16558 -452.884377 
L 144.553981 -450.002981 
L 146.942382 -444.909978 
L 149.330784 -438.488398 
L 151.719185 -432.149725 
L 154.107586 -420.857417 
L 156.495987 -409.943521 
L 158.884389 -403.065149 
L 161.27279 -395.418217 
L 163.661191 -387.410302 
L 166.049592 -376.963474 
L 168.437994 -365.923417 
L 170.826395 -357.325222 
L 173.214796 -349.986215 
L 175.603197 -338.486212 
L 177.991599 -324.798112 
L 180.38 -315.689203 
L 182.768401 -309.237835 
L 185.156802 -301.03481 
L 187.545204 -291.004138 
L 189.933605 -277.226829 
L 192.322006 -265.704518 
L 194.710407 -256.078239 
L 197.098809 -247.851654 
L 199.48721 -239.142879 
L 201.875611 -230.366493 
L 204.264013 -223.288293 
L 206.652414 -217.721873 
L 209.040815 -212.151633 
L 211.429216 -205.830731 
L 213.817618 -199.114476 
L 216.206019 -191.588601 
L 218.59442 -183.745468 
L 220.982821 -176.927754 
L 223.371223 -171.393924 
L 225.759624 -165.695282 
L 228.148025 -159.649597 
L 230.536426 -153.598326 
L 232.924828 -147.74785 
L 235.313229 -140.256355 
L 237.70163 -132.724526 
L 240.090031 -126.715382 
L 242.478433 -121.679369 
L 244.866834 -117.111079 
L 247.255235 -113.675106 
L 249.643636 -111.623949 
L 252.032038 -110.466434 
L 254.420439 -109.901329 
L 256.80884 -109.846364 
L 259.197241 -110.522837 
L 261.585643 -111.429082 
L 263.974044 -112.621982 
L 266.362445 -113.878893 
L 268.750846 -114.645925 
L 271.139248 -115.521278 
L 273.527649 -116.649933 
L 275.91605 -117.324936 
L 278.304451 -118.683276 
L 280.692853 -122.216994 
L 283.081254 -123.806702 
L 285.469655 -121.000095 
L 287.858056 -118.340338 
L 290.246458 -117.248004 
L 292.634859 -116.7585 
L 295.02326 -116.626801 
L 297.411661 -116.778426 
L 299.800063 -116.787529 
L 302.188464 -116.806036 
L 304.576865 -116.845579 
L 306.965266 -116.719202 
L 309.353668 -116.815384 
L 311.742069 -117.31078 
L 314.13047 -117.976895 
L 316.518871 -118.677855 
L 318.907273 -119.305298 
L 321.295674 -119.857522 
L 323.684075 -120.028768 
L 326.072476 -120.24349 
L 328.460878 -120.996772 
L 330.849279 -121.600943 
L 333.23768 -121.335279 
L 335.626081 -120.832112 
L 338.014483 -120.575527 
L 340.402884 -120.386701 
L 342.791285 -120.206751 
L 345.179686 -120.057027 
L 347.568088 -119.438363 
L 349.956489 -118.868346 
L 352.34489 -118.444923 
L 354.733291 -118.310069 
L 357.121693 -118.231285 
L 359.510094 -118.256699 
L 361.898495 -118.218672 
L 364.286896 -118.200956 
L 366.675298 -118.321744 
L 369.063699 -118.669779 
L 371.4521 -118.809528 
L 373.840501 -118.942736 
L 376.228903 -119.493041 
L 378.617304 -120.256753 
L 381.005705 -121.433409 
L 383.394106 -122.935808 
L 385.782508 -124.733665 
L 388.170909 -126.495388 
L 390.55931 -128.497542 
L 392.947711 -130.317579 
L 395.336113 -132.270605 
L 397.724514 -134.85216 
L 400.112915 -137.838123 
L 402.501317 -140.589502 
L 404.889718 -143.068205 
L 407.278119 -145.932236 
L 409.66652 -149.392783 
L 412.054922 -153.213074 
L 414.443323 -157.212849 
L 416.831724 -161.537647 
L 419.220125 -166.443695 
L 421.608527 -171.978291 
L 423.996928 -177.098527 
L 426.385329 -183.002408 
L 428.77373 -189.215103 
L 431.162132 -195.880619 
L 433.550533 -202.311158 
L 435.938934 -208.82788 
L 438.327335 -215.438347 
L 440.715737 -222.763803 
L 443.104138 -229.322771 
L 445.492539 -236.518756 
L 447.88094 -243.484343 
L 450.269342 -250.474065 
L 452.657743 -257.718551 
L 455.046144 -265.22063 
L 457.434545 -271.86836 
L 459.822947 -278.992862 
L 462.211348 -285.191769 
L 464.599749 -291.600406 
L 466.98815 -298.056686 
L 469.376552 -304.399116 
L 471.764953 -310.772247 
L 474.153354 -316.880389 
L 476.541755 -323.108521 
L 478.930157 -329.417151 
L 481.318558 -335.783618 
L 483.706959 -342.083126 
L 486.09536 -348.224156 
L 488.483762 -354.231998 
L 490.872163 -360.43005 
L 493.260564 -368.280731 
L 495.648965 -374.49262 
L 498.037367 -380.227916 
L 500.425768 -385.486448 
L 502.814169 -389.994086 
L 505.20257 -393.940628 
L 507.590972 -397.423282 
L 509.979373 -401.615346 
L 512.367774 -405.67965 
L 514.756175 -409.616494 
L 517.144577 -413.419593 
L 519.532978 -417.182975 
L 521.921379 -420.945799 
L 524.30978 -424.884428 
L 526.698182 -428.219809 
L 529.086583 -430.750412 
L 531.474984 -432.899112 
L 533.863385 -435.098104 
L 536.251787 -437.083621 
L 538.640188 -438.784992 
L 541.028589 -440.168954 
L 543.41699 -441.301347 
L 545.805392 -442.361096 
L 548.193793 -443.244227 
L 550.582194 -444.095494 
L 550.582194 -495.230629 
L 550.582194 -495.230629 
L 548.193793 -494.433498 
L 545.805392 -493.607592 
L 543.41699 -492.689131 
L 541.028589 -491.670103 
L 538.640188 -490.382605 
L 536.251787 -488.783774 
L 533.863385 -486.901579 
L 531.474984 -484.886509 
L 529.086583 -482.782623 
L 526.698182 -480.323179 
L 524.30978 -477.168798 
L 521.921379 -473.618202 
L 519.532978 -470.274541 
L 517.144577 -466.968442 
L 514.756175 -463.537783 
L 512.367774 -459.910807 
L 509.979373 -456.19601 
L 507.590972 -452.447946 
L 505.20257 -449.514103 
L 502.814169 -446.04783 
L 500.425768 -441.986817 
L 498.037367 -437.194967 
L 495.648965 -431.924372 
L 493.260564 -426.050337 
L 490.872163 -418.870868 
L 488.483762 -413.592804 
L 486.09536 -408.285376 
L 483.706959 -402.693626 
L 481.318558 -396.784662 
L 478.930157 -390.761339 
L 476.541755 -384.814824 
L 474.153354 -378.970597 
L 471.764953 -373.280252 
L 469.376552 -367.090194 
L 466.98815 -360.679562 
L 464.599749 -354.236953 
L 462.211348 -347.671181 
L 459.822947 -341.210931 
L 457.434545 -333.92482 
L 455.046144 -327.085793 
L 452.657743 -319.300066 
L 450.269342 -311.754539 
L 447.88094 -304.286247 
L 445.492539 -296.888033 
L 443.104138 -289.492964 
L 440.715737 -282.729457 
L 438.327335 -274.877394 
L 435.938934 -267.763143 
L 433.550533 -260.641842 
L 431.162132 -253.77081 
L 428.77373 -246.824773 
L 426.385329 -240.280563 
L 423.996928 -233.838926 
L 421.608527 -228.3191 
L 419.220125 -222.574135 
L 416.831724 -217.377963 
L 414.443323 -212.660592 
L 412.054922 -208.227025 
L 409.66652 -204.02863 
L 407.278119 -200.297479 
L 404.889718 -197.12352 
L 402.501317 -194.211171 
L 400.112915 -191.051137 
L 397.724514 -187.687677 
L 395.336113 -184.875907 
L 392.947711 -182.720891 
L 390.55931 -180.689085 
L 388.170909 -178.55682 
L 385.782508 -176.786376 
L 383.394106 -175.316984 
L 381.005705 -174.56097 
L 378.617304 -173.178439 
L 376.228903 -171.495406 
L 373.840501 -170.997403 
L 371.4521 -171.802529 
L 369.063699 -172.302928 
L 366.675298 -172.602737 
L 364.286896 -172.928385 
L 361.898495 -173.607048 
L 359.510094 -174.501005 
L 357.121693 -174.620152 
L 354.733291 -174.591226 
L 352.34489 -174.942876 
L 349.956489 -175.804829 
L 347.568088 -177.02409 
L 345.179686 -178.167676 
L 342.791285 -178.630964 
L 340.402884 -179.037774 
L 338.014483 -179.492216 
L 335.626081 -180.029713 
L 333.23768 -180.885322 
L 330.849279 -181.49464 
L 328.460878 -181.248132 
L 326.072476 -180.950847 
L 323.684075 -181.105434 
L 321.295674 -181.224731 
L 318.907273 -181.225555 
L 316.518871 -181.192777 
L 314.13047 -180.88641 
L 311.742069 -180.551092 
L 309.353668 -180.428681 
L 306.965266 -180.856164 
L 304.576865 -181.841257 
L 302.188464 -182.576225 
L 299.800063 -183.031912 
L 297.411661 -183.555672 
L 295.02326 -183.778169 
L 292.634859 -184.248254 
L 290.246458 -185.484107 
L 287.858056 -188.836171 
L 285.469655 -197.477564 
L 283.081254 -203.753269 
L 280.692853 -200.22045 
L 278.304451 -191.199315 
L 275.91605 -187.690506 
L 273.527649 -186.69694 
L 271.139248 -185.473923 
L 268.750846 -184.675873 
L 266.362445 -184.176291 
L 263.974044 -183.225931 
L 261.585643 -182.423912 
L 259.197241 -181.969436 
L 256.80884 -181.842028 
L 254.420439 -182.544328 
L 252.032038 -183.847382 
L 249.643636 -185.87038 
L 247.255235 -188.909482 
L 244.866834 -193.410833 
L 242.478433 -199.112654 
L 240.090031 -205.389733 
L 237.70163 -212.567869 
L 235.313229 -220.933432 
L 232.924828 -229.022242 
L 230.536426 -235.850853 
L 228.148025 -243.288747 
L 225.759624 -250.596818 
L 223.371223 -257.080886 
L 220.982821 -262.737963 
L 218.59442 -269.65274 
L 216.206019 -278.587428 
L 213.817618 -287.930648 
L 211.429216 -296.32496 
L 209.040815 -303.56925 
L 206.652414 -309.337375 
L 204.264013 -314.514023 
L 201.875611 -320.750424 
L 199.48721 -328.390523 
L 197.098809 -335.957104 
L 194.710407 -342.767316 
L 192.322006 -350.096092 
L 189.933605 -359.369383 
L 187.545204 -372.125102 
L 185.156802 -380.576003 
L 182.768401 -386.281326 
L 180.38 -389.947395 
L 177.991599 -397.418354 
L 175.603197 -408.874716 
L 173.214796 -418.596661 
L 170.826395 -424.665011 
L 168.437994 -432.39138 
L 166.049592 -442.204831 
L 163.661191 -451.556177 
L 161.27279 -458.605332 
L 158.884389 -465.068425 
L 156.495987 -471.139793 
L 154.107586 -480.394137 
L 151.719185 -490.860562 
L 149.330784 -496.377682 
L 146.942382 -500.935518 
L 144.553981 -504.047902 
L 142.16558 -505.573636 
L 139.777179 -505.188682 
L 137.388777 -503.081513 
L 135.000376 -501.112895 
L 132.611975 -500.657319 
L 130.223574 -501.05387 
L 127.835172 -501.976399 
L 125.446771 -503.035288 
z
" style="stroke: #ffffff; stroke-opacity: 0.5; stroke-width: 2"/>
    </defs>
    <g clip-path="url(#pb06c278bde)">
     <use xlink:href="#m1b230a0693" x="0" y="576" style="fill: #ff7f0e; fill-opacity: 0.5; stroke: #ffffff; stroke-opacity: 0.5; stroke-width: 2"/>
    </g>
   </g>
   <g id="line2d_13">
    <path d="M 125.446771 101.746406 
L 130.223574 102.558636 
L 132.611975 103.664123 
L 135.000376 102.572323 
L 137.388777 100.200408 
L 139.777179 99.20633 
L 142.16558 100.067828 
L 144.553981 102.289119 
L 146.942382 108.146074 
L 149.330784 113.375108 
L 151.719185 120.376187 
L 154.107586 125.383729 
L 156.495987 131.99006 
L 158.884389 143.100171 
L 161.27279 155.356804 
L 163.661191 163.920266 
L 166.049592 170.07913 
L 168.437994 177.606063 
L 170.826395 185.612116 
L 175.603197 199.925272 
L 177.991599 209.0246 
L 180.38 222.081478 
L 185.156802 252.134404 
L 187.545204 266.174381 
L 189.933605 279.521954 
L 192.322006 288.332566 
L 194.710407 295.43013 
L 197.098809 300.206212 
L 199.48721 303.395415 
L 201.875611 306.275464 
L 206.652414 318.317739 
L 209.040815 321.935377 
L 211.429216 326.267604 
L 213.817618 331.91796 
L 218.59442 345.601239 
L 220.982821 354.218409 
L 225.759624 375.048987 
L 228.148025 382.913412 
L 230.536426 388.832556 
L 232.924828 392.916944 
L 237.70163 399.630591 
L 240.090031 402.198833 
L 247.255235 409.019984 
L 252.032038 414.836252 
L 254.420439 417.456092 
L 263.974044 426.346105 
L 266.362445 428.255958 
L 268.750846 429.692707 
L 271.139248 430.707285 
L 273.527649 431.162755 
L 275.91605 431.134214 
L 278.304451 430.162471 
L 280.692853 426.546006 
L 283.081254 424.068624 
L 285.469655 427.321148 
L 287.858056 429.874111 
L 290.246458 430.225683 
L 295.02326 429.666799 
L 297.411661 429.42575 
L 302.188464 428.395104 
L 304.576865 428.102628 
L 306.965266 427.603834 
L 311.742069 425.983418 
L 314.13047 425.531883 
L 316.518871 425.394372 
L 318.907273 425.105154 
L 321.295674 424.463156 
L 323.684075 424.034597 
L 326.072476 424.056642 
L 328.460878 424.202787 
L 330.849279 424.501355 
L 333.23768 424.948665 
L 335.626081 425.150308 
L 340.402884 424.506901 
L 342.791285 424.609473 
L 345.179686 425.268115 
L 347.568088 425.264759 
L 349.956489 424.215381 
L 352.34489 422.637231 
L 354.733291 422.058233 
L 357.121693 421.972967 
L 359.510094 421.087571 
L 369.063699 416.898454 
L 371.4521 415.410906 
L 373.840501 413.568607 
L 376.228903 412.064586 
L 378.617304 409.949931 
L 383.394106 405.257076 
L 385.782508 402.70919 
L 388.170909 399.761815 
L 390.55931 396.082484 
L 397.724514 384.279533 
L 404.889718 371.267497 
L 407.278119 366.165362 
L 409.66652 360.225783 
L 412.054922 355.235835 
L 414.443323 351.226704 
L 416.831724 346.302978 
L 419.220125 340.89642 
L 421.608527 334.867952 
L 431.162132 308.946073 
L 435.938934 295.864391 
L 443.104138 275.114679 
L 445.492539 269.12748 
L 447.88094 262.493073 
L 450.269342 254.981103 
L 459.822947 226.900358 
L 464.599749 213.727529 
L 466.98815 207.195666 
L 469.376552 200.159211 
L 471.764953 193.712194 
L 474.153354 187.888577 
L 476.541755 182.87095 
L 478.930157 178.478078 
L 483.706959 168.098425 
L 486.09536 163.49463 
L 488.483762 160.10654 
L 493.260564 153.706644 
L 498.037367 147.023836 
L 502.814169 141.051535 
L 509.979373 132.668691 
L 512.367774 130.171921 
L 514.756175 127.979617 
L 517.144577 126.103345 
L 519.532978 123.735373 
L 521.921379 122.110564 
L 524.30978 121.003095 
L 526.698182 120.078994 
L 529.086583 118.794388 
L 531.474984 117.151277 
L 533.863385 115.158061 
L 536.251787 113.678936 
L 538.640188 112.469718 
L 543.41699 110.579053 
L 545.805392 109.330298 
L 548.193793 108.458289 
L 550.582194 108.267858 
L 550.582194 108.267858 
" clip-path="url(#pb06c278bde)" style="fill: none; stroke: #1f77b4; stroke-width: 3; stroke-linecap: round"/>
   </g>
   <g id="line2d_14">
    <path d="M 125.446771 99.477898 
L 130.223574 101.21831 
L 132.611975 101.749302 
L 135.000376 101.362932 
L 137.388777 99.104635 
L 139.777179 96.669564 
L 142.16558 96.770993 
L 144.553981 98.974559 
L 146.942382 103.077252 
L 149.330784 108.56696 
L 151.719185 114.494857 
L 154.107586 125.374223 
L 156.495987 135.458343 
L 158.884389 141.933213 
L 161.27279 148.988225 
L 163.661191 156.51676 
L 166.049592 166.415848 
L 168.437994 176.842602 
L 170.826395 185.004883 
L 173.214796 191.708562 
L 175.603197 202.319536 
L 177.991599 214.891767 
L 180.38 223.181701 
L 182.768401 228.24042 
L 185.156802 235.194593 
L 187.545204 244.43538 
L 189.933605 257.701894 
L 192.322006 268.099695 
L 194.710407 276.577222 
L 197.098809 284.095621 
L 201.875611 300.441542 
L 204.264013 307.098842 
L 206.652414 312.470376 
L 209.040815 318.139559 
L 211.429216 324.922154 
L 213.817618 332.477438 
L 218.59442 349.300896 
L 220.982821 356.167141 
L 223.371223 361.762595 
L 225.759624 367.85395 
L 232.924828 387.614954 
L 237.70163 403.353803 
L 240.090031 409.947442 
L 242.478433 415.603989 
L 244.866834 420.739044 
L 247.255235 424.707706 
L 249.643636 427.252836 
L 252.032038 428.843092 
L 254.420439 429.777172 
L 256.80884 430.155804 
L 259.197241 429.753863 
L 261.585643 429.073503 
L 266.362445 426.972408 
L 268.750846 426.339101 
L 271.139248 425.502399 
L 273.527649 424.326563 
L 275.91605 423.492279 
L 278.304451 421.058704 
L 280.692853 414.781278 
L 283.081254 412.220015 
L 285.469655 416.76117 
L 287.858056 422.411745 
L 290.246458 424.633944 
L 292.634859 425.496623 
L 295.02326 425.797515 
L 297.411661 425.832951 
L 304.576865 426.656582 
L 306.965266 427.212317 
L 309.353668 427.377967 
L 311.742069 427.069064 
L 316.518871 426.064684 
L 321.295674 425.458874 
L 326.072476 425.402831 
L 330.849279 424.452209 
L 333.23768 424.889699 
L 335.626081 425.569087 
L 340.402884 426.287763 
L 345.179686 426.887649 
L 349.956489 428.663413 
L 352.34489 429.3061 
L 354.733291 429.549353 
L 359.510094 429.621148 
L 361.898495 430.08714 
L 364.286896 430.435329 
L 366.675298 430.53776 
L 369.063699 430.513647 
L 371.4521 430.693971 
L 373.840501 431.02993 
L 376.228903 430.505776 
L 383.394106 426.873604 
L 388.170909 423.473896 
L 392.947711 419.480765 
L 395.336113 417.426744 
L 397.724514 414.730081 
L 400.112915 411.55537 
L 402.501317 408.599664 
L 404.889718 405.904138 
L 407.278119 402.885143 
L 409.66652 399.289294 
L 414.443323 391.063279 
L 416.831724 386.542195 
L 419.220125 381.491085 
L 421.608527 375.851304 
L 423.996928 370.531274 
L 428.77373 357.980062 
L 438.327335 330.842129 
L 440.715737 323.25337 
L 443.104138 316.592133 
L 457.434545 273.10341 
L 459.822947 265.898104 
L 466.98815 246.631876 
L 471.764953 233.97375 
L 476.541755 222.038328 
L 486.09536 197.745234 
L 490.872163 186.349541 
L 493.260564 178.834466 
L 495.648965 172.791504 
L 498.037367 167.288558 
L 500.425768 162.263368 
L 502.814169 157.979042 
L 505.20257 154.272634 
L 507.590972 151.064386 
L 512.367774 143.204771 
L 517.144577 135.805983 
L 521.921379 128.718 
L 524.30978 124.973387 
L 526.698182 121.728506 
L 529.086583 119.233482 
L 533.863385 115.000158 
L 536.251787 113.066303 
L 538.640188 111.416202 
L 541.028589 110.080471 
L 545.805392 108.015656 
L 550.582194 106.336938 
L 550.582194 106.336938 
" clip-path="url(#pb06c278bde)" style="fill: none; stroke: #ff7f0e; stroke-width: 3; stroke-linecap: round"/>
   </g>
   <g id="patch_3">
    <path d="M 104.19 485.94 
L 104.19 50.64 
" style="fill: none; stroke: #262626; stroke-width: 2.5; stroke-linejoin: miter; stroke-linecap: square"/>
   </g>
   <g id="patch_4">
    <path d="M 571.838965 485.94 
L 571.838965 50.64 
" style="fill: none; stroke: #262626; stroke-width: 2.5; stroke-linejoin: miter; stroke-linecap: square"/>
   </g>
   <g id="patch_5">
    <path d="M 104.19 485.94 
L 571.838965 485.94 
" style="fill: none; stroke: #262626; stroke-width: 2.5; stroke-linejoin: miter; stroke-linecap: square"/>
   </g>
   <g id="patch_6">
    <path d="M 104.19 50.64 
L 571.838965 50.64 
" style="fill: none; stroke: #262626; stroke-width: 2.5; stroke-linejoin: miter; stroke-linecap: square"/>
   </g>
   <g id="text_15">
    <text style="fill: #262626; font: 24px 'Arial', 'DejaVu Sans', 'Liberation Sans', 'Bitstream Vera Sans', sans-serif; text-anchor: middle" x="338.014483" y="44.64" transform="rotate(-0 338.014483 44.64)">Periodic Spectrum</text>
   </g>
  </g>
  <g id="axes_2">
   <g id="patch_7">
    <path d="M 648.268965 485.94 
L 1115.917931 485.94 
L 1115.917931 50.64 
L 648.268965 50.64 
z
" style="fill: #ffffff"/>
   </g>
   <g id="matplotlib.axis_3">
    <g id="xtick_6">
     <g id="line2d_15">
      <g>
       <use xlink:href="#mcfe7835bfb" x="668.438434" y="485.94" style="fill: #262626; stroke: #262626; stroke-width: 2.5"/>
      </g>
     </g>
     <g id="text_16">
      <text style="fill: #262626; font: 22px 'Arial', 'DejaVu Sans', 'Liberation Sans', 'Bitstream Vera Sans', sans-serif; text-anchor: middle" x="668.438434" y="518.156562" transform="rotate(-0 668.438434 518.156562)">0</text>
     </g>
    </g>
    <g id="xtick_7">
     <g id="line2d_16">
      <g>
       <use xlink:href="#mcfe7835bfb" x="755.422663" y="485.94" style="fill: #262626; stroke: #262626; stroke-width: 2.5"/>
      </g>
     </g>
     <g id="text_17">
      <text style="fill: #262626; font: 22px 'Arial', 'DejaVu Sans', 'Liberation Sans', 'Bitstream Vera Sans', sans-serif; text-anchor: middle" x="755.422663" y="518.156562" transform="rotate(-0 755.422663 518.156562)">20</text>
     </g>
    </g>
    <g id="xtick_8">
     <g id="line2d_17">
      <g>
       <use xlink:href="#mcfe7835bfb" x="842.406893" y="485.94" style="fill: #262626; stroke: #262626; stroke-width: 2.5"/>
      </g>
     </g>
     <g id="text_18">
      <text style="fill: #262626; font: 22px 'Arial', 'DejaVu Sans', 'Liberation Sans', 'Bitstream Vera Sans', sans-serif; text-anchor: middle" x="842.406893" y="518.156562" transform="rotate(-0 842.406893 518.156562)">40</text>
     </g>
    </g>
    <g id="xtick_9">
     <g id="line2d_18">
      <g>
       <use xlink:href="#mcfe7835bfb" x="929.391123" y="485.94" style="fill: #262626; stroke: #262626; stroke-width: 2.5"/>
      </g>
     </g>
     <g id="text_19">
      <text style="fill: #262626; font: 22px 'Arial', 'DejaVu Sans', 'Liberation Sans', 'Bitstream Vera Sans', sans-serif; text-anchor: middle" x="929.391123" y="518.156562" transform="rotate(-0 929.391123 518.156562)">60</text>
     </g>
    </g>
    <g id="xtick_10">
     <g id="line2d_19">
      <g>
       <use xlink:href="#mcfe7835bfb" x="1016.375353" y="485.94" style="fill: #262626; stroke: #262626; stroke-width: 2.5"/>
      </g>
     </g>
     <g id="text_20">
      <text style="fill: #262626; font: 22px 'Arial', 'DejaVu Sans', 'Liberation Sans', 'Bitstream Vera Sans', sans-serif; text-anchor: middle" x="1016.375353" y="518.156562" transform="rotate(-0 1016.375353 518.156562)">80</text>
     </g>
    </g>
    <g id="xtick_11">
     <g id="line2d_20">
      <g>
       <use xlink:href="#mcfe7835bfb" x="1103.359583" y="485.94" style="fill: #262626; stroke: #262626; stroke-width: 2.5"/>
      </g>
     </g>
     <g id="text_21">
      <text style="fill: #262626; font: 22px 'Arial', 'DejaVu Sans', 'Liberation Sans', 'Bitstream Vera Sans', sans-serif; text-anchor: middle" x="1103.359583" y="518.156562" transform="rotate(-0 1103.359583 518.156562)">100</text>
     </g>
    </g>
    <g id="text_22">
     <text style="fill: #262626; font: 24px 'Arial', 'DejaVu Sans', 'Liberation Sans', 'Bitstream Vera Sans', sans-serif; text-anchor: middle" x="882.093448" y="544.968125" transform="rotate(-0 882.093448 544.968125)">Frequency (Hz)</text>
    </g>
   </g>
   <g id="matplotlib.axis_4">
    <g id="ytick_8">
     <g id="line2d_21">
      <g>
       <use xlink:href="#me815764d6a" x="648.268965" y="476.680191" style="fill: #262626; stroke: #262626; stroke-width: 2.5"/>
      </g>
     </g>
     <g id="text_23">
      <text style="fill: #262626; font: 22px 'Arial', 'DejaVu Sans', 'Liberation Sans', 'Bitstream Vera Sans', sans-serif; text-anchor: end" x="632.768965" y="485.038473" transform="rotate(-0 632.768965 485.038473)">0.4</text>
     </g>
    </g>
    <g id="ytick_9">
     <g id="line2d_22">
      <g>
       <use xlink:href="#me815764d6a" x="648.268965" y="393.932756" style="fill: #262626; stroke: #262626; stroke-width: 2.5"/>
      </g>
     </g>
     <g id="text_24">
      <text style="fill: #262626; font: 22px 'Arial', 'DejaVu Sans', 'Liberation Sans', 'Bitstream Vera Sans', sans-serif; text-anchor: end" x="632.768965" y="402.291038" transform="rotate(-0 632.768965 402.291038)">0.5</text>
     </g>
    </g>
    <g id="ytick_10">
     <g id="line2d_23">
      <g>
       <use xlink:href="#me815764d6a" x="648.268965" y="311.185322" style="fill: #262626; stroke: #262626; stroke-width: 2.5"/>
      </g>
     </g>
     <g id="text_25">
      <text style="fill: #262626; font: 22px 'Arial', 'DejaVu Sans', 'Liberation Sans', 'Bitstream Vera Sans', sans-serif; text-anchor: end" x="632.768965" y="319.543603" transform="rotate(-0 632.768965 319.543603)">0.6</text>
     </g>
    </g>
    <g id="ytick_11">
     <g id="line2d_24">
      <g>
       <use xlink:href="#me815764d6a" x="648.268965" y="228.437887" style="fill: #262626; stroke: #262626; stroke-width: 2.5"/>
      </g>
     </g>
     <g id="text_26">
      <text style="fill: #262626; font: 22px 'Arial', 'DejaVu Sans', 'Liberation Sans', 'Bitstream Vera Sans', sans-serif; text-anchor: end" x="632.768965" y="236.796168" transform="rotate(-0 632.768965 236.796168)">0.7</text>
     </g>
    </g>
    <g id="ytick_12">
     <g id="line2d_25">
      <g>
       <use xlink:href="#me815764d6a" x="648.268965" y="145.690452" style="fill: #262626; stroke: #262626; stroke-width: 2.5"/>
      </g>
     </g>
     <g id="text_27">
      <text style="fill: #262626; font: 22px 'Arial', 'DejaVu Sans', 'Liberation Sans', 'Bitstream Vera Sans', sans-serif; text-anchor: end" x="632.768965" y="154.048733" transform="rotate(-0 632.768965 154.048733)">0.8</text>
     </g>
    </g>
    <g id="ytick_13">
     <g id="line2d_26">
      <g>
       <use xlink:href="#me815764d6a" x="648.268965" y="62.943017" style="fill: #262626; stroke: #262626; stroke-width: 2.5"/>
      </g>
     </g>
     <g id="text_28">
      <text style="fill: #262626; font: 22px 'Arial', 'DejaVu Sans', 'Liberation Sans', 'Bitstream Vera Sans', sans-serif; text-anchor: end" x="632.768965" y="71.301298" transform="rotate(-0 632.768965 71.301298)">0.9</text>
     </g>
    </g>
   </g>
   <g id="PolyCollection_3">
    <defs>
     <path id="mbbd2d0495e" d="M 669.525737 -249.422063 
L 669.525737 -145.590063 
L 670.613039 -140.040883 
L 671.700342 -138.124739 
L 672.787645 -137.625704 
L 673.874948 -137.884709 
L 674.962251 -138.617758 
L 676.049554 -139.675894 
L 677.136857 -140.970259 
L 678.224159 -142.442694 
L 679.311462 -144.052378 
L 680.398765 -145.769101 
L 681.486068 -147.569597 
L 682.573371 -149.43541 
L 683.660674 -151.351579 
L 684.747977 -153.305791 
L 685.83528 -155.287798 
L 686.922582 -157.289013 
L 688.009885 -159.302203 
L 689.097188 -161.321263 
L 690.184491 -163.341036 
L 691.271794 -165.357175 
L 692.359097 -167.366028 
L 693.4464 -169.364541 
L 694.533703 -171.350182 
L 695.621005 -173.320874 
L 696.708308 -175.274937 
L 697.795611 -177.211039 
L 698.882914 -179.128146 
L 699.970217 -181.025485 
L 701.05752 -182.902508 
L 702.144823 -184.758854 
L 703.232126 -186.594323 
L 704.319428 -188.408843 
L 705.406731 -190.202453 
L 706.494034 -191.975273 
L 707.581337 -193.727494 
L 708.66864 -195.459353 
L 709.755943 -197.171128 
L 710.843246 -198.863119 
L 711.930549 -200.535645 
L 713.017851 -202.189033 
L 714.105154 -203.823614 
L 715.192457 -205.439719 
L 716.27976 -207.037673 
L 717.367063 -208.617798 
L 718.454366 -210.180406 
L 719.541669 -211.7258 
L 720.628972 -213.254276 
L 721.716274 -214.766117 
L 722.803577 -216.261601 
L 723.89088 -217.740993 
L 724.978183 -219.204552 
L 726.065486 -220.652527 
L 727.152789 -222.08516 
L 728.240092 -223.502686 
L 729.327394 -224.905331 
L 730.414697 -226.293318 
L 731.502 -227.666859 
L 732.589303 -229.026166 
L 733.676606 -230.371441 
L 734.763909 -231.702883 
L 735.851212 -233.020687 
L 736.938515 -234.325042 
L 738.025817 -235.616134 
L 739.11312 -236.894144 
L 740.200423 -238.159252 
L 741.287726 -239.411631 
L 742.375029 -240.651452 
L 743.462332 -241.878883 
L 744.549635 -243.09409 
L 745.636938 -244.297233 
L 746.72424 -245.488472 
L 747.811543 -246.667963 
L 748.898846 -247.83586 
L 749.986149 -248.992313 
L 751.073452 -250.13747 
L 752.160755 -251.271478 
L 753.248058 -252.39448 
L 754.335361 -253.506616 
L 755.422663 -254.608026 
L 756.509966 -255.698846 
L 757.597269 -256.77921 
L 758.684572 -257.849251 
L 759.771875 -258.909097 
L 760.859178 -259.958879 
L 761.946481 -260.99872 
L 763.033784 -262.028745 
L 764.121086 -263.049076 
L 765.208389 -264.059832 
L 766.295692 -265.061133 
L 767.382995 -266.053093 
L 768.470298 -267.035828 
L 769.557601 -268.009449 
L 770.644904 -268.974068 
L 771.732207 -269.929794 
L 772.819509 -270.876734 
L 773.906812 -271.814993 
L 774.994115 -272.744676 
L 776.081418 -273.665885 
L 777.168721 -274.57872 
L 778.256024 -275.483282 
L 779.343327 -276.379666 
L 780.430629 -277.267971 
L 781.517932 -278.14829 
L 782.605235 -279.020717 
L 783.692538 -279.885342 
L 784.779841 -280.742257 
L 785.867144 -281.591551 
L 786.954447 -282.433311 
L 788.04175 -283.267623 
L 789.129052 -284.094573 
L 790.216355 -284.914243 
L 791.303658 -285.726716 
L 792.390961 -286.532074 
L 793.478264 -287.330395 
L 794.565567 -288.121759 
L 795.65287 -288.906244 
L 796.740173 -289.683925 
L 797.827475 -290.454877 
L 798.914778 -291.219175 
L 800.002081 -291.976892 
L 801.089384 -292.728099 
L 802.176687 -293.472867 
L 803.26399 -294.211265 
L 804.351293 -294.943364 
L 805.438596 -295.669229 
L 806.525898 -296.388928 
L 807.613201 -297.102526 
L 808.700504 -297.810088 
L 809.787807 -298.511679 
L 810.87511 -299.20736 
L 811.962413 -299.897193 
L 813.049716 -300.581241 
L 814.137019 -301.259562 
L 815.224321 -301.932216 
L 816.311624 -302.599262 
L 817.398927 -303.260757 
L 818.48623 -303.916758 
L 819.573533 -304.567321 
L 820.660836 -305.212501 
L 821.748139 -305.852353 
L 822.835441 -306.48693 
L 823.922744 -307.116285 
L 825.010047 -307.74047 
L 826.09735 -308.359537 
L 827.184653 -308.973536 
L 828.271956 -309.582518 
L 829.359259 -310.186531 
L 830.446562 -310.785626 
L 831.533864 -311.379848 
L 832.621167 -311.969246 
L 833.70847 -312.553867 
L 834.795773 -313.133757 
L 835.883076 -313.70896 
L 836.970379 -314.279523 
L 838.057682 -314.845489 
L 839.144985 -315.406901 
L 840.232287 -315.963804 
L 841.31959 -316.516239 
L 842.406893 -317.064249 
L 843.494196 -317.607875 
L 844.581499 -318.147158 
L 845.668802 -318.682137 
L 846.756105 -319.212854 
L 847.843408 -319.739348 
L 848.93071 -320.261657 
L 850.018013 -320.779819 
L 851.105316 -321.293873 
L 852.192619 -321.803856 
L 853.279922 -322.309804 
L 854.367225 -322.811755 
L 855.454528 -323.309745 
L 856.541831 -323.803808 
L 857.629133 -324.29398 
L 858.716436 -324.780296 
L 859.803739 -325.262791 
L 860.891042 -325.741497 
L 861.978345 -326.216448 
L 863.065648 -326.687679 
L 864.152951 -327.15522 
L 865.240254 -327.619105 
L 866.327556 -328.079365 
L 867.414859 -328.536032 
L 868.502162 -328.989137 
L 869.589465 -329.438711 
L 870.676768 -329.884785 
L 871.764071 -330.327388 
L 872.851374 -330.76655 
L 873.938676 -331.202301 
L 875.025979 -331.63467 
L 876.113282 -332.063685 
L 877.200585 -332.489375 
L 878.287888 -332.911769 
L 879.375191 -333.330893 
L 880.462494 -333.746776 
L 881.549797 -334.159445 
L 882.637099 -334.568926 
L 883.724402 -334.975246 
L 884.811705 -335.378432 
L 885.899008 -335.778509 
L 886.986311 -336.175504 
L 888.073614 -336.569442 
L 889.160917 -336.960347 
L 890.24822 -337.348246 
L 891.335522 -337.733163 
L 892.422825 -338.115122 
L 893.510128 -338.494147 
L 894.597431 -338.870262 
L 895.684734 -339.243492 
L 896.772037 -339.613859 
L 897.85934 -339.981387 
L 898.946643 -340.346099 
L 900.033945 -340.708017 
L 901.121248 -341.067164 
L 902.208551 -341.423562 
L 903.295854 -341.777234 
L 904.383157 -342.128201 
L 905.47046 -342.476484 
L 906.557763 -342.822107 
L 907.645066 -343.165088 
L 908.732368 -343.50545 
L 909.819671 -343.843214 
L 910.906974 -344.178399 
L 911.994277 -344.511027 
L 913.08158 -344.841118 
L 914.168883 -345.168691 
L 915.256186 -345.493767 
L 916.343489 -345.816364 
L 917.430791 -346.136504 
L 918.518094 -346.454204 
L 919.605397 -346.769484 
L 920.6927 -347.082364 
L 921.780003 -347.39286 
L 922.867306 -347.700994 
L 923.954609 -348.006781 
L 925.041911 -348.310242 
L 926.129214 -348.611394 
L 927.216517 -348.910254 
L 928.30382 -349.206842 
L 929.391123 -349.501173 
L 930.478426 -349.793266 
L 931.565729 -350.083139 
L 932.653032 -350.370807 
L 933.740334 -350.656288 
L 934.827637 -350.939599 
L 935.91494 -351.220757 
L 937.002243 -351.499778 
L 938.089546 -351.776678 
L 939.176849 -352.051474 
L 940.264152 -352.324181 
L 941.351455 -352.594816 
L 942.438757 -352.863395 
L 943.52606 -353.129933 
L 944.613363 -353.394446 
L 945.700666 -353.656949 
L 946.787969 -353.917457 
L 947.875272 -354.175986 
L 948.962575 -354.432551 
L 950.049878 -354.687166 
L 951.13718 -354.939846 
L 952.224483 -355.190606 
L 953.311786 -355.43946 
L 954.399089 -355.686423 
L 955.486392 -355.93151 
L 956.573695 -356.174733 
L 957.660998 -356.416107 
L 958.748301 -356.655647 
L 959.835603 -356.893365 
L 960.922906 -357.129276 
L 962.010209 -357.363394 
L 963.097512 -357.59573 
L 964.184815 -357.8263 
L 965.272118 -358.055115 
L 966.359421 -358.28219 
L 967.446724 -358.507538 
L 968.534026 -358.73117 
L 969.621329 -358.9531 
L 970.708632 -359.173341 
L 971.795935 -359.391905 
L 972.883238 -359.608805 
L 973.970541 -359.824052 
L 975.057844 -360.037661 
L 976.145146 -360.249641 
L 977.232449 -360.460006 
L 978.319752 -360.668768 
L 979.407055 -360.875938 
L 980.494358 -361.081529 
L 981.581661 -361.285551 
L 982.668964 -361.488017 
L 983.756267 -361.688938 
L 984.843569 -361.888325 
L 985.930872 -362.08619 
L 987.018175 -362.282543 
L 988.105478 -362.477397 
L 989.192781 -362.670762 
L 990.280084 -362.862649 
L 991.367387 -363.053069 
L 992.45469 -363.242033 
L 993.541992 -363.429551 
L 994.629295 -363.615633 
L 995.716598 -363.800292 
L 996.803901 -363.983536 
L 997.891204 -364.165377 
L 998.978507 -364.345824 
L 1000.06581 -364.524888 
L 1001.153113 -364.702578 
L 1002.240415 -364.878906 
L 1003.327718 -365.05388 
L 1004.415021 -365.227511 
L 1005.502324 -365.399809 
L 1006.589627 -365.570782 
L 1007.67693 -365.740441 
L 1008.764233 -365.908796 
L 1009.851536 -366.075855 
L 1010.938838 -366.241629 
L 1012.026141 -366.406126 
L 1013.113444 -366.569356 
L 1014.200747 -366.731328 
L 1015.28805 -366.892051 
L 1016.375353 -367.051534 
L 1017.462656 -367.209786 
L 1018.549959 -367.366816 
L 1019.637261 -367.522633 
L 1020.724564 -367.677245 
L 1021.811867 -367.830662 
L 1022.89917 -367.982891 
L 1023.986473 -368.133942 
L 1025.073776 -368.283822 
L 1026.161079 -368.432541 
L 1027.248381 -368.580107 
L 1028.335684 -368.726527 
L 1029.422987 -368.871811 
L 1030.51029 -369.015965 
L 1031.597593 -369.158999 
L 1032.684896 -369.300921 
L 1033.772199 -369.441738 
L 1034.859502 -369.581458 
L 1035.946804 -369.720089 
L 1037.034107 -369.857639 
L 1038.12141 -369.994115 
L 1039.208713 -370.129526 
L 1040.296016 -370.263878 
L 1041.383319 -370.39718 
L 1042.470622 -370.529439 
L 1043.557925 -370.660661 
L 1044.645227 -370.790856 
L 1045.73253 -370.920029 
L 1046.819833 -371.048189 
L 1047.907136 -371.175342 
L 1048.994439 -371.301495 
L 1050.081742 -371.426656 
L 1051.169045 -371.550831 
L 1052.256348 -371.674028 
L 1053.34365 -371.796253 
L 1054.430953 -371.917514 
L 1055.518256 -372.037817 
L 1056.605559 -372.157169 
L 1057.692862 -372.275576 
L 1058.780165 -372.393046 
L 1059.867468 -372.509584 
L 1060.954771 -372.625198 
L 1062.042073 -372.739893 
L 1063.129376 -372.853677 
L 1064.216679 -372.966556 
L 1065.303982 -373.078536 
L 1066.391285 -373.189623 
L 1067.478588 -373.299823 
L 1068.565891 -373.409144 
L 1069.653193 -373.51759 
L 1070.740496 -373.625169 
L 1071.827799 -373.731886 
L 1072.915102 -373.837747 
L 1074.002405 -373.942758 
L 1075.089708 -374.046925 
L 1076.177011 -374.150254 
L 1077.264314 -374.252751 
L 1078.351616 -374.354421 
L 1079.438919 -374.455271 
L 1080.526222 -374.555306 
L 1081.613525 -374.654531 
L 1082.700828 -374.752953 
L 1083.788131 -374.850576 
L 1084.875434 -374.947407 
L 1085.962737 -375.04345 
L 1087.050039 -375.138712 
L 1088.137342 -375.233198 
L 1089.224645 -375.326913 
L 1090.311948 -375.419862 
L 1091.399251 -375.51205 
L 1092.486554 -375.603484 
L 1093.573857 -375.694168 
L 1094.66116 -375.784107 
L 1094.66116 -501.122434 
L 1094.66116 -501.122434 
L 1093.573857 -501.023637 
L 1092.486554 -500.924005 
L 1091.399251 -500.823532 
L 1090.311948 -500.722213 
L 1089.224645 -500.620043 
L 1088.137342 -500.517014 
L 1087.050039 -500.413122 
L 1085.962737 -500.30836 
L 1084.875434 -500.202723 
L 1083.788131 -500.096204 
L 1082.700828 -499.988797 
L 1081.613525 -499.880496 
L 1080.526222 -499.771295 
L 1079.438919 -499.661188 
L 1078.351616 -499.550168 
L 1077.264314 -499.438229 
L 1076.177011 -499.325365 
L 1075.089708 -499.211569 
L 1074.002405 -499.096835 
L 1072.915102 -498.981157 
L 1071.827799 -498.864527 
L 1070.740496 -498.746939 
L 1069.653193 -498.628386 
L 1068.565891 -498.508863 
L 1067.478588 -498.388361 
L 1066.391285 -498.266874 
L 1065.303982 -498.144396 
L 1064.216679 -498.020919 
L 1063.129376 -497.896436 
L 1062.042073 -497.77094 
L 1060.954771 -497.644424 
L 1059.867468 -497.516881 
L 1058.780165 -497.388304 
L 1057.692862 -497.258686 
L 1056.605559 -497.128018 
L 1055.518256 -496.996295 
L 1054.430953 -496.863507 
L 1053.34365 -496.729649 
L 1052.256348 -496.594711 
L 1051.169045 -496.458688 
L 1050.081742 -496.32157 
L 1048.994439 -496.18335 
L 1047.907136 -496.04402 
L 1046.819833 -495.903573 
L 1045.73253 -495.762001 
L 1044.645227 -495.619295 
L 1043.557925 -495.475447 
L 1042.470622 -495.33045 
L 1041.383319 -495.184295 
L 1040.296016 -495.036974 
L 1039.208713 -494.888478 
L 1038.12141 -494.738799 
L 1037.034107 -494.587929 
L 1035.946804 -494.43586 
L 1034.859502 -494.282581 
L 1033.772199 -494.128086 
L 1032.684896 -493.972365 
L 1031.597593 -493.815409 
L 1030.51029 -493.657209 
L 1029.422987 -493.497757 
L 1028.335684 -493.337044 
L 1027.248381 -493.17506 
L 1026.161079 -493.011796 
L 1025.073776 -492.847242 
L 1023.986473 -492.681391 
L 1022.89917 -492.514232 
L 1021.811867 -492.345755 
L 1020.724564 -492.175951 
L 1019.637261 -492.004811 
L 1018.549959 -491.832325 
L 1017.462656 -491.658483 
L 1016.375353 -491.483275 
L 1015.28805 -491.30669 
L 1014.200747 -491.12872 
L 1013.113444 -490.949354 
L 1012.026141 -490.768582 
L 1010.938838 -490.586393 
L 1009.851536 -490.402777 
L 1008.764233 -490.217724 
L 1007.67693 -490.031223 
L 1006.589627 -489.843263 
L 1005.502324 -489.653833 
L 1004.415021 -489.462924 
L 1003.327718 -489.270523 
L 1002.240415 -489.07662 
L 1001.153113 -488.881204 
L 1000.06581 -488.684263 
L 998.978507 -488.485787 
L 997.891204 -488.285763 
L 996.803901 -488.084181 
L 995.716598 -487.881028 
L 994.629295 -487.676294 
L 993.541992 -487.469965 
L 992.45469 -487.262031 
L 991.367387 -487.05248 
L 990.280084 -486.841298 
L 989.192781 -486.628475 
L 988.105478 -486.413998 
L 987.018175 -486.197853 
L 985.930872 -485.98003 
L 984.843569 -485.760515 
L 983.756267 -485.539295 
L 982.668964 -485.316358 
L 981.581661 -485.09169 
L 980.494358 -484.865279 
L 979.407055 -484.637111 
L 978.319752 -484.407173 
L 977.232449 -484.175452 
L 976.145146 -483.941934 
L 975.057844 -483.706605 
L 973.970541 -483.469451 
L 972.883238 -483.230459 
L 971.795935 -482.989615 
L 970.708632 -482.746904 
L 969.621329 -482.502313 
L 968.534026 -482.255826 
L 967.446724 -482.007429 
L 966.359421 -481.757107 
L 965.272118 -481.504847 
L 964.184815 -481.250632 
L 963.097512 -480.994447 
L 962.010209 -480.736278 
L 960.922906 -480.476109 
L 959.835603 -480.213924 
L 958.748301 -479.949708 
L 957.660998 -479.683445 
L 956.573695 -479.41512 
L 955.486392 -479.144715 
L 954.399089 -478.872215 
L 953.311786 -478.597604 
L 952.224483 -478.320864 
L 951.13718 -478.041979 
L 950.049878 -477.760933 
L 948.962575 -477.477708 
L 947.875272 -477.192287 
L 946.787969 -476.904653 
L 945.700666 -476.614789 
L 944.613363 -476.322676 
L 943.52606 -476.028296 
L 942.438757 -475.731633 
L 941.351455 -475.432667 
L 940.264152 -475.13138 
L 939.176849 -474.827754 
L 938.089546 -474.52177 
L 937.002243 -474.21341 
L 935.91494 -473.902653 
L 934.827637 -473.589481 
L 933.740334 -473.273875 
L 932.653032 -472.955814 
L 931.565729 -472.63528 
L 930.478426 -472.312251 
L 929.391123 -471.986708 
L 928.30382 -471.65863 
L 927.216517 -471.327997 
L 926.129214 -470.994788 
L 925.041911 -470.658981 
L 923.954609 -470.320556 
L 922.867306 -469.979492 
L 921.780003 -469.635765 
L 920.6927 -469.289356 
L 919.605397 -468.94024 
L 918.518094 -468.588397 
L 917.430791 -468.233803 
L 916.343489 -467.876436 
L 915.256186 -467.516273 
L 914.168883 -467.153291 
L 913.08158 -466.787465 
L 911.994277 -466.418772 
L 910.906974 -466.047189 
L 909.819671 -465.672691 
L 908.732368 -465.295253 
L 907.645066 -464.914851 
L 906.557763 -464.53146 
L 905.47046 -464.145054 
L 904.383157 -463.755609 
L 903.295854 -463.363097 
L 902.208551 -462.967494 
L 901.121248 -462.568772 
L 900.033945 -462.166906 
L 898.946643 -461.761867 
L 897.85934 -461.35363 
L 896.772037 -460.942166 
L 895.684734 -460.527448 
L 894.597431 -460.109447 
L 893.510128 -459.688136 
L 892.422825 -459.263485 
L 891.335522 -458.835466 
L 890.24822 -458.404049 
L 889.160917 -457.969204 
L 888.073614 -457.530902 
L 886.986311 -457.089112 
L 885.899008 -456.643804 
L 884.811705 -456.194947 
L 883.724402 -455.742509 
L 882.637099 -455.286459 
L 881.549797 -454.826764 
L 880.462494 -454.363392 
L 879.375191 -453.896312 
L 878.287888 -453.425488 
L 877.200585 -452.950889 
L 876.113282 -452.47248 
L 875.025979 -451.990226 
L 873.938676 -451.504094 
L 872.851374 -451.014049 
L 871.764071 -450.520054 
L 870.676768 -450.022074 
L 869.589465 -449.520074 
L 868.502162 -449.014015 
L 867.414859 -448.503862 
L 866.327556 -447.989576 
L 865.240254 -447.471121 
L 864.152951 -446.948457 
L 863.065648 -446.421545 
L 861.978345 -445.890347 
L 860.891042 -445.354823 
L 859.803739 -444.814933 
L 858.716436 -444.270636 
L 857.629133 -443.721891 
L 856.541831 -443.168656 
L 855.454528 -442.61089 
L 854.367225 -442.04855 
L 853.279922 -441.481593 
L 852.192619 -440.909975 
L 851.105316 -440.333653 
L 850.018013 -439.752582 
L 848.93071 -439.166716 
L 847.843408 -438.57601 
L 846.756105 -437.980419 
L 845.668802 -437.379894 
L 844.581499 -436.77439 
L 843.494196 -436.163859 
L 842.406893 -435.548251 
L 841.31959 -434.927518 
L 840.232287 -434.301611 
L 839.144985 -433.670479 
L 838.057682 -433.034072 
L 836.970379 -432.392338 
L 835.883076 -431.745226 
L 834.795773 -431.092683 
L 833.70847 -430.434655 
L 832.621167 -429.77109 
L 831.533864 -429.101933 
L 830.446562 -428.427128 
L 829.359259 -427.74662 
L 828.271956 -427.060353 
L 827.184653 -426.368269 
L 826.09735 -425.670311 
L 825.010047 -424.96642 
L 823.922744 -424.256537 
L 822.835441 -423.540602 
L 821.748139 -422.818556 
L 820.660836 -422.090336 
L 819.573533 -421.35588 
L 818.48623 -420.615127 
L 817.398927 -419.868011 
L 816.311624 -419.11447 
L 815.224321 -418.354438 
L 814.137019 -417.587849 
L 813.049716 -416.814636 
L 811.962413 -416.034733 
L 810.87511 -415.248072 
L 809.787807 -414.454582 
L 808.700504 -413.654195 
L 807.613201 -412.84684 
L 806.525898 -412.032446 
L 805.438596 -411.210939 
L 804.351293 -410.382247 
L 803.26399 -409.546296 
L 802.176687 -408.703011 
L 801.089384 -407.852317 
L 800.002081 -406.994136 
L 798.914778 -406.128391 
L 797.827475 -405.255003 
L 796.740173 -404.373894 
L 795.65287 -403.484982 
L 794.565567 -402.588187 
L 793.478264 -401.683426 
L 792.390961 -400.770616 
L 791.303658 -399.849673 
L 790.216355 -398.920512 
L 789.129052 -397.983047 
L 788.04175 -397.03719 
L 786.954447 -396.082853 
L 785.867144 -395.119948 
L 784.779841 -394.148384 
L 783.692538 -393.16807 
L 782.605235 -392.178914 
L 781.517932 -391.180822 
L 780.430629 -390.173701 
L 779.343327 -389.157454 
L 778.256024 -388.131986 
L 777.168721 -387.097198 
L 776.081418 -386.052993 
L 774.994115 -384.999269 
L 773.906812 -383.935928 
L 772.819509 -382.862866 
L 771.732207 -381.779981 
L 770.644904 -380.687168 
L 769.557601 -379.584322 
L 768.470298 -378.471336 
L 767.382995 -377.348104 
L 766.295692 -376.214516 
L 765.208389 -375.070462 
L 764.121086 -373.915832 
L 763.033784 -372.750512 
L 761.946481 -371.574391 
L 760.859178 -370.387353 
L 759.771875 -369.189283 
L 758.684572 -367.980064 
L 757.597269 -366.759578 
L 756.509966 -365.527706 
L 755.422663 -364.284328 
L 754.335361 -363.029322 
L 753.248058 -361.762566 
L 752.160755 -360.483937 
L 751.073452 -359.193309 
L 749.986149 -357.890557 
L 748.898846 -356.575555 
L 747.811543 -355.248174 
L 746.72424 -353.908285 
L 745.636938 -352.555759 
L 744.549635 -351.190465 
L 743.462332 -349.81227 
L 742.375029 -348.421042 
L 741.287726 -347.016648 
L 740.200423 -345.598953 
L 739.11312 -344.167822 
L 738.025817 -342.723118 
L 736.938515 -341.264705 
L 735.851212 -339.792446 
L 734.763909 -338.306202 
L 733.676606 -336.805835 
L 732.589303 -335.291205 
L 731.502 -333.762174 
L 730.414697 -332.218601 
L 729.327394 -330.660346 
L 728.240092 -329.087269 
L 727.152789 -327.49923 
L 726.065486 -325.896087 
L 724.978183 -324.2777 
L 723.89088 -322.643929 
L 722.803577 -320.994634 
L 721.716274 -319.329675 
L 720.628972 -317.648913 
L 719.541669 -315.952211 
L 718.454366 -314.239431 
L 717.367063 -312.510439 
L 716.27976 -310.7651 
L 715.192457 -309.003286 
L 714.105154 -307.224869 
L 713.017851 -305.429727 
L 711.930549 -303.617747 
L 710.843246 -301.788821 
L 709.755943 -299.942855 
L 708.66864 -298.079771 
L 707.581337 -296.199508 
L 706.494034 -294.302036 
L 705.406731 -292.387354 
L 704.319428 -290.45551 
L 703.232126 -288.506606 
L 702.144823 -286.540817 
L 701.05752 -284.558409 
L 699.970217 -282.559761 
L 698.882914 -280.545396 
L 697.795611 -278.516007 
L 696.708308 -276.472503 
L 695.621005 -274.416046 
L 694.533703 -272.34811 
L 693.4464 -270.270533 
L 692.359097 -268.185589 
L 691.271794 -266.096065 
L 690.184491 -264.00535 
L 689.097188 -261.917539 
L 688.009885 -259.837553 
L 686.922582 -257.771288 
L 685.83528 -255.725786 
L 684.747977 -253.709457 
L 683.660674 -251.732361 
L 682.573371 -249.80657 
L 681.486068 -247.946681 
L 680.398765 -246.170514 
L 679.311462 -244.500156 
L 678.224159 -242.963549 
L 677.136857 -241.597037 
L 676.049554 -240.449663 
L 674.962251 -239.590915 
L 673.874948 -239.125793 
L 672.787645 -239.227388 
L 671.700342 -240.218362 
L 670.613039 -242.827152 
L 669.525737 -249.422063 
z
" style="stroke: #ffffff; stroke-opacity: 0.5; stroke-width: 2"/>
    </defs>
    <g clip-path="url(#p854858fed9)">
     <use xlink:href="#mbbd2d0495e" x="0" y="576" style="fill: #1f77b4; fill-opacity: 0.5; stroke: #ffffff; stroke-opacity: 0.5; stroke-width: 2"/>
    </g>
   </g>
   <g id="PolyCollection_4">
    <defs>
     <path id="m1178854b1a" d="M 669.525737 -217.23125 
L 669.525737 -128.599824 
L 670.613039 -118.419401 
L 671.700342 -113.825034 
L 672.787645 -111.458489 
L 673.874948 -110.283849 
L 674.962251 -109.846364 
L 676.049554 -109.906457 
L 677.136857 -110.322607 
L 678.224159 -111.004334 
L 679.311462 -111.890337 
L 680.398765 -112.937198 
L 681.486068 -114.11308 
L 682.573371 -115.393969 
L 683.660674 -116.761325 
L 684.747977 -118.20056 
L 685.83528 -119.699997 
L 686.922582 -121.250154 
L 688.009885 -122.843237 
L 689.097188 -124.47276 
L 690.184491 -126.133273 
L 691.271794 -127.820151 
L 692.359097 -129.529434 
L 693.4464 -131.257707 
L 694.533703 -133.001995 
L 695.621005 -134.759697 
L 696.708308 -136.528518 
L 697.795611 -138.306421 
L 698.882914 -140.091591 
L 699.970217 -141.882399 
L 701.05752 -143.677381 
L 702.144823 -145.475209 
L 703.232126 -147.274681 
L 704.319428 -149.074702 
L 705.406731 -150.874271 
L 706.494034 -152.672475 
L 707.581337 -154.468474 
L 708.66864 -156.261498 
L 709.755943 -158.050841 
L 710.843246 -159.83585 
L 711.930549 -161.615927 
L 713.017851 -163.390519 
L 714.105154 -165.159118 
L 715.192457 -166.921254 
L 716.27976 -168.676497 
L 717.367063 -170.424448 
L 718.454366 -172.164743 
L 719.541669 -173.897044 
L 720.628972 -175.621043 
L 721.716274 -177.336457 
L 722.803577 -179.043025 
L 723.89088 -180.740512 
L 724.978183 -182.428699 
L 726.065486 -184.107389 
L 727.152789 -185.776404 
L 728.240092 -187.43558 
L 729.327394 -189.084771 
L 730.414697 -190.723844 
L 731.502 -192.352682 
L 732.589303 -193.971178 
L 733.676606 -195.579241 
L 734.763909 -197.176787 
L 735.851212 -198.763747 
L 736.938515 -200.340057 
L 738.025817 -201.905668 
L 739.11312 -203.460535 
L 740.200423 -205.004623 
L 741.287726 -206.537906 
L 742.375029 -208.060364 
L 743.462332 -209.571983 
L 744.549635 -211.072757 
L 745.636938 -212.562684 
L 746.72424 -214.04177 
L 747.811543 -215.510025 
L 748.898846 -216.967464 
L 749.986149 -218.414106 
L 751.073452 -219.849975 
L 752.160755 -221.275099 
L 753.248058 -222.68951 
L 754.335361 -224.093244 
L 755.422663 -225.486338 
L 756.509966 -226.868835 
L 757.597269 -228.240779 
L 758.684572 -229.602217 
L 759.771875 -230.9532 
L 760.859178 -232.293779 
L 761.946481 -233.624008 
L 763.033784 -234.943943 
L 764.121086 -236.253643 
L 765.208389 -237.553168 
L 766.295692 -238.842578 
L 767.382995 -240.121936 
L 768.470298 -241.391307 
L 769.557601 -242.650755 
L 770.644904 -243.900347 
L 771.732207 -245.14015 
L 772.819509 -246.370233 
L 773.906812 -247.590664 
L 774.994115 -248.801513 
L 776.081418 -250.002851 
L 777.168721 -251.194747 
L 778.256024 -252.377274 
L 779.343327 -253.550504 
L 780.430629 -254.714507 
L 781.517932 -255.869357 
L 782.605235 -257.015126 
L 783.692538 -258.151887 
L 784.779841 -259.279712 
L 785.867144 -260.398674 
L 786.954447 -261.508847 
L 788.04175 -262.610302 
L 789.129052 -263.703112 
L 790.216355 -264.787351 
L 791.303658 -265.86309 
L 792.390961 -266.930402 
L 793.478264 -267.989358 
L 794.565567 -269.040031 
L 795.65287 -270.082492 
L 796.740173 -271.116811 
L 797.827475 -272.143061 
L 798.914778 -273.16131 
L 800.002081 -274.17163 
L 801.089384 -275.17409 
L 802.176687 -276.168759 
L 803.26399 -277.155706 
L 804.351293 -278.134999 
L 805.438596 -279.106707 
L 806.525898 -280.070896 
L 807.613201 -281.027635 
L 808.700504 -281.976989 
L 809.787807 -282.919024 
L 810.87511 -283.853805 
L 811.962413 -284.781399 
L 813.049716 -285.701868 
L 814.137019 -286.615278 
L 815.224321 -287.521691 
L 816.311624 -288.42117 
L 817.398927 -289.313777 
L 818.48623 -290.199575 
L 819.573533 -291.078624 
L 820.660836 -291.950984 
L 821.748139 -292.816717 
L 822.835441 -293.675882 
L 823.922744 -294.528536 
L 825.010047 -295.37474 
L 826.09735 -296.21455 
L 827.184653 -297.048024 
L 828.271956 -297.875219 
L 829.359259 -298.69619 
L 830.446562 -299.510994 
L 831.533864 -300.319685 
L 832.621167 -301.122318 
L 833.70847 -301.918948 
L 834.795773 -302.709626 
L 835.883076 -303.494407 
L 836.970379 -304.273342 
L 838.057682 -305.046484 
L 839.144985 -305.813883 
L 840.232287 -306.575591 
L 841.31959 -307.331657 
L 842.406893 -308.082132 
L 843.494196 -308.827064 
L 844.581499 -309.566503 
L 845.668802 -310.300495 
L 846.756105 -311.02909 
L 847.843408 -311.752335 
L 848.93071 -312.470275 
L 850.018013 -313.182957 
L 851.105316 -313.890427 
L 852.192619 -314.59273 
L 853.279922 -315.289911 
L 854.367225 -315.982014 
L 855.454528 -316.669083 
L 856.541831 -317.351161 
L 857.629133 -318.028291 
L 858.716436 -318.700515 
L 859.803739 -319.367877 
L 860.891042 -320.030416 
L 861.978345 -320.688174 
L 863.065648 -321.341193 
L 864.152951 -321.989511 
L 865.240254 -322.63317 
L 866.327556 -323.272207 
L 867.414859 -323.906663 
L 868.502162 -324.536576 
L 869.589465 -325.161984 
L 870.676768 -325.782925 
L 871.764071 -326.399436 
L 872.851374 -327.011554 
L 873.938676 -327.619316 
L 875.025979 -328.222758 
L 876.113282 -328.821916 
L 877.200585 -329.416825 
L 878.287888 -330.00752 
L 879.375191 -330.594036 
L 880.462494 -331.176408 
L 881.549797 -331.754669 
L 882.637099 -332.328854 
L 883.724402 -332.898994 
L 884.811705 -333.465125 
L 885.899008 -334.027276 
L 886.986311 -334.585483 
L 888.073614 -335.139775 
L 889.160917 -335.690185 
L 890.24822 -336.236745 
L 891.335522 -336.779484 
L 892.422825 -337.318434 
L 893.510128 -337.853625 
L 894.597431 -338.385088 
L 895.684734 -338.912851 
L 896.772037 -339.436944 
L 897.85934 -339.957397 
L 898.946643 -340.474238 
L 900.033945 -340.987496 
L 901.121248 -341.497199 
L 902.208551 -342.003375 
L 903.295854 -342.506052 
L 904.383157 -343.005257 
L 905.47046 -343.501017 
L 906.557763 -343.99336 
L 907.645066 -344.482311 
L 908.732368 -344.967897 
L 909.819671 -345.450145 
L 910.906974 -345.92908 
L 911.994277 -346.404727 
L 913.08158 -346.877113 
L 914.168883 -347.346261 
L 915.256186 -347.812197 
L 916.343489 -348.274946 
L 917.430791 -348.734532 
L 918.518094 -349.190978 
L 919.605397 -349.64431 
L 920.6927 -350.09455 
L 921.780003 -350.541721 
L 922.867306 -350.985848 
L 923.954609 -351.426953 
L 925.041911 -351.865058 
L 926.129214 -352.300187 
L 927.216517 -352.732362 
L 928.30382 -353.161604 
L 929.391123 -353.587937 
L 930.478426 -354.01138 
L 931.565729 -354.431956 
L 932.653032 -354.849687 
L 933.740334 -355.264592 
L 934.827637 -355.676694 
L 935.91494 -356.086013 
L 937.002243 -356.492568 
L 938.089546 -356.896382 
L 939.176849 -357.297473 
L 940.264152 -357.695862 
L 941.351455 -358.091568 
L 942.438757 -358.484611 
L 943.52606 -358.875011 
L 944.613363 -359.262786 
L 945.700666 -359.647955 
L 946.787969 -360.030539 
L 947.875272 -360.410554 
L 948.962575 -360.78802 
L 950.049878 -361.162955 
L 951.13718 -361.535377 
L 952.224483 -361.905305 
L 953.311786 -362.272755 
L 954.399089 -362.637746 
L 955.486392 -363.000296 
L 956.573695 -363.360421 
L 957.660998 -363.71814 
L 958.748301 -364.073468 
L 959.835603 -364.426423 
L 960.922906 -364.777022 
L 962.010209 -365.125281 
L 963.097512 -365.471217 
L 964.184815 -365.814846 
L 965.272118 -366.156185 
L 966.359421 -366.495249 
L 967.446724 -366.832054 
L 968.534026 -367.166616 
L 969.621329 -367.498951 
L 970.708632 -367.829074 
L 971.795935 -368.157001 
L 972.883238 -368.482747 
L 973.970541 -368.806326 
L 975.057844 -369.127755 
L 976.145146 -369.447047 
L 977.232449 -369.764217 
L 978.319752 -370.079281 
L 979.407055 -370.392252 
L 980.494358 -370.703145 
L 981.581661 -371.011974 
L 982.668964 -371.318753 
L 983.756267 -371.623496 
L 984.843569 -371.926217 
L 985.930872 -372.22693 
L 987.018175 -372.525649 
L 988.105478 -372.822387 
L 989.192781 -373.117156 
L 990.280084 -373.409972 
L 991.367387 -373.700846 
L 992.45469 -373.989793 
L 993.541992 -374.276824 
L 994.629295 -374.561953 
L 995.716598 -374.845192 
L 996.803901 -375.126555 
L 997.891204 -375.406054 
L 998.978507 -375.6837 
L 1000.06581 -375.959508 
L 1001.153113 -376.233488 
L 1002.240415 -376.505653 
L 1003.327718 -376.776014 
L 1004.415021 -377.044585 
L 1005.502324 -377.311377 
L 1006.589627 -377.576402 
L 1007.67693 -377.83967 
L 1008.764233 -378.101195 
L 1009.851536 -378.360986 
L 1010.938838 -378.619057 
L 1012.026141 -378.875417 
L 1013.113444 -379.130079 
L 1014.200747 -379.383053 
L 1015.28805 -379.63435 
L 1016.375353 -379.883982 
L 1017.462656 -380.131959 
L 1018.549959 -380.378292 
L 1019.637261 -380.622992 
L 1020.724564 -380.866069 
L 1021.811867 -381.107534 
L 1022.89917 -381.347397 
L 1023.986473 -381.585668 
L 1025.073776 -381.822359 
L 1026.161079 -382.057479 
L 1027.248381 -382.291038 
L 1028.335684 -382.523046 
L 1029.422987 -382.753514 
L 1030.51029 -382.982451 
L 1031.597593 -383.209866 
L 1032.684896 -383.435771 
L 1033.772199 -383.660174 
L 1034.859502 -383.883085 
L 1035.946804 -384.104514 
L 1037.034107 -384.324469 
L 1038.12141 -384.542961 
L 1039.208713 -384.759999 
L 1040.296016 -384.975592 
L 1041.383319 -385.189749 
L 1042.470622 -385.402479 
L 1043.557925 -385.613791 
L 1044.645227 -385.823695 
L 1045.73253 -386.032199 
L 1046.819833 -386.239311 
L 1047.907136 -386.445042 
L 1048.994439 -386.649399 
L 1050.081742 -386.852391 
L 1051.169045 -387.054027 
L 1052.256348 -387.254315 
L 1053.34365 -387.453264 
L 1054.430953 -387.650881 
L 1055.518256 -387.847176 
L 1056.605559 -388.042157 
L 1057.692862 -388.235832 
L 1058.780165 -388.428209 
L 1059.867468 -388.619295 
L 1060.954771 -388.8091 
L 1062.042073 -388.997631 
L 1063.129376 -389.184897 
L 1064.216679 -389.370904 
L 1065.303982 -389.55566 
L 1066.391285 -389.739174 
L 1067.478588 -389.921454 
L 1068.565891 -390.102506 
L 1069.653193 -390.282338 
L 1070.740496 -390.460959 
L 1071.827799 -390.638374 
L 1072.915102 -390.814593 
L 1074.002405 -390.989621 
L 1075.089708 -391.163467 
L 1076.177011 -391.336138 
L 1077.264314 -391.507641 
L 1078.351616 -391.677983 
L 1079.438919 -391.847171 
L 1080.526222 -392.015213 
L 1081.613525 -392.182114 
L 1082.700828 -392.347883 
L 1083.788131 -392.512527 
L 1084.875434 -392.676051 
L 1085.962737 -392.838463 
L 1087.050039 -392.99977 
L 1088.137342 -393.159978 
L 1089.224645 -393.319094 
L 1090.311948 -393.477125 
L 1091.399251 -393.634077 
L 1092.486554 -393.789957 
L 1093.573857 -393.944772 
L 1094.66116 -394.098527 
L 1094.66116 -505.573636 
L 1094.66116 -505.573636 
L 1093.573857 -505.409603 
L 1092.486554 -505.244469 
L 1091.399251 -505.078229 
L 1090.311948 -504.910874 
L 1089.224645 -504.7424 
L 1088.137342 -504.572798 
L 1087.050039 -504.402061 
L 1085.962737 -504.230184 
L 1084.875434 -504.057159 
L 1083.788131 -503.882978 
L 1082.700828 -503.707636 
L 1081.613525 -503.531124 
L 1080.526222 -503.353436 
L 1079.438919 -503.174564 
L 1078.351616 -502.994501 
L 1077.264314 -502.81324 
L 1076.177011 -502.630774 
L 1075.089708 -502.447094 
L 1074.002405 -502.262193 
L 1072.915102 -502.076065 
L 1071.827799 -501.888701 
L 1070.740496 -501.700093 
L 1069.653193 -501.510234 
L 1068.565891 -501.319116 
L 1067.478588 -501.126732 
L 1066.391285 -500.933073 
L 1065.303982 -500.738131 
L 1064.216679 -500.541899 
L 1063.129376 -500.344368 
L 1062.042073 -500.14553 
L 1060.954771 -499.945377 
L 1059.867468 -499.743901 
L 1058.780165 -499.541093 
L 1057.692862 -499.336946 
L 1056.605559 -499.13145 
L 1055.518256 -498.924597 
L 1054.430953 -498.716378 
L 1053.34365 -498.506785 
L 1052.256348 -498.29581 
L 1051.169045 -498.083442 
L 1050.081742 -497.869675 
L 1048.994439 -497.654498 
L 1047.907136 -497.437902 
L 1046.819833 -497.219879 
L 1045.73253 -497.000419 
L 1044.645227 -496.779514 
L 1043.557925 -496.557153 
L 1042.470622 -496.333329 
L 1041.383319 -496.10803 
L 1040.296016 -495.881248 
L 1039.208713 -495.652973 
L 1038.12141 -495.423196 
L 1037.034107 -495.191906 
L 1035.946804 -494.959094 
L 1034.859502 -494.724751 
L 1033.772199 -494.488865 
L 1032.684896 -494.251428 
L 1031.597593 -494.012428 
L 1030.51029 -493.771857 
L 1029.422987 -493.529702 
L 1028.335684 -493.285955 
L 1027.248381 -493.040605 
L 1026.161079 -492.793641 
L 1025.073776 -492.545052 
L 1023.986473 -492.294828 
L 1022.89917 -492.042958 
L 1021.811867 -491.789431 
L 1020.724564 -491.534236 
L 1019.637261 -491.277362 
L 1018.549959 -491.018798 
L 1017.462656 -490.758532 
L 1016.375353 -490.496554 
L 1015.28805 -490.232852 
L 1014.200747 -489.967414 
L 1013.113444 -489.700228 
L 1012.026141 -489.431284 
L 1010.938838 -489.160568 
L 1009.851536 -488.888069 
L 1008.764233 -488.613776 
L 1007.67693 -488.337675 
L 1006.589627 -488.059755 
L 1005.502324 -487.780003 
L 1004.415021 -487.498408 
L 1003.327718 -487.214955 
L 1002.240415 -486.929633 
L 1001.153113 -486.642428 
L 1000.06581 -486.353328 
L 998.978507 -486.062321 
L 997.891204 -485.769391 
L 996.803901 -485.474528 
L 995.716598 -485.177716 
L 994.629295 -484.878943 
L 993.541992 -484.578195 
L 992.45469 -484.275458 
L 991.367387 -483.970718 
L 990.280084 -483.663962 
L 989.192781 -483.355175 
L 988.105478 -483.044343 
L 987.018175 -482.731452 
L 985.930872 -482.416487 
L 984.843569 -482.099433 
L 983.756267 -481.780277 
L 982.668964 -481.459002 
L 981.581661 -481.135594 
L 980.494358 -480.810038 
L 979.407055 -480.482319 
L 978.319752 -480.15242 
L 977.232449 -479.820327 
L 976.145146 -479.486024 
L 975.057844 -479.149494 
L 973.970541 -478.810722 
L 972.883238 -478.469692 
L 971.795935 -478.126387 
L 970.708632 -477.780791 
L 969.621329 -477.432887 
L 968.534026 -477.082658 
L 967.446724 -476.730087 
L 966.359421 -476.375158 
L 965.272118 -476.017852 
L 964.184815 -475.658154 
L 963.097512 -475.296044 
L 962.010209 -474.931505 
L 960.922906 -474.564519 
L 959.835603 -474.195068 
L 958.748301 -473.823133 
L 957.660998 -473.448697 
L 956.573695 -473.071741 
L 955.486392 -472.692245 
L 954.399089 -472.31019 
L 953.311786 -471.925558 
L 952.224483 -471.538329 
L 951.13718 -471.148483 
L 950.049878 -470.756001 
L 948.962575 -470.360862 
L 947.875272 -469.963046 
L 946.787969 -469.562533 
L 945.700666 -469.159302 
L 944.613363 -468.753333 
L 943.52606 -468.344604 
L 942.438757 -467.933094 
L 941.351455 -467.518782 
L 940.264152 -467.101646 
L 939.176849 -466.681664 
L 938.089546 -466.258813 
L 937.002243 -465.833073 
L 935.91494 -465.404419 
L 934.827637 -464.972829 
L 933.740334 -464.538281 
L 932.653032 -464.10075 
L 931.565729 -463.660213 
L 930.478426 -463.216647 
L 929.391123 -462.770027 
L 928.30382 -462.320329 
L 927.216517 -461.867528 
L 926.129214 -461.411601 
L 925.041911 -460.952521 
L 923.954609 -460.490263 
L 922.867306 -460.024802 
L 921.780003 -459.556111 
L 920.6927 -459.084165 
L 919.605397 -458.608938 
L 918.518094 -458.130401 
L 917.430791 -457.648529 
L 916.343489 -457.163295 
L 915.256186 -456.674669 
L 914.168883 -456.182626 
L 913.08158 -455.687135 
L 911.994277 -455.188169 
L 910.906974 -454.6857 
L 909.819671 -454.179697 
L 908.732368 -453.670131 
L 907.645066 -453.156974 
L 906.557763 -452.640193 
L 905.47046 -452.119759 
L 904.383157 -451.595642 
L 903.295854 -451.06781 
L 902.208551 -450.536231 
L 901.121248 -450.000873 
L 900.033945 -449.461705 
L 898.946643 -448.918694 
L 897.85934 -448.371807 
L 896.772037 -447.821011 
L 895.684734 -447.266271 
L 894.597431 -446.707555 
L 893.510128 -446.144826 
L 892.422825 -445.578051 
L 891.335522 -445.007195 
L 890.24822 -444.432221 
L 889.160917 -443.853094 
L 888.073614 -443.269776 
L 886.986311 -442.682232 
L 885.899008 -442.090424 
L 884.811705 -441.494314 
L 883.724402 -440.893863 
L 882.637099 -440.289034 
L 881.549797 -439.679787 
L 880.462494 -439.066083 
L 879.375191 -438.447881 
L 878.287888 -437.825142 
L 877.200585 -437.197823 
L 876.113282 -436.565884 
L 875.025979 -435.929283 
L 873.938676 -435.287978 
L 872.851374 -434.641924 
L 871.764071 -433.99108 
L 870.676768 -433.335401 
L 869.589465 -432.674843 
L 868.502162 -432.00936 
L 867.414859 -431.338907 
L 866.327556 -430.663439 
L 865.240254 -429.982908 
L 864.152951 -429.297267 
L 863.065648 -428.606469 
L 861.978345 -427.910465 
L 860.891042 -427.209206 
L 859.803739 -426.502644 
L 858.716436 -425.790727 
L 857.629133 -425.073406 
L 856.541831 -424.350629 
L 855.454528 -423.622343 
L 854.367225 -422.888498 
L 853.279922 -422.149039 
L 852.192619 -421.403913 
L 851.105316 -420.653065 
L 850.018013 -419.89644 
L 848.93071 -419.133983 
L 847.843408 -418.365638 
L 846.756105 -417.591346 
L 845.668802 -416.811051 
L 844.581499 -416.024694 
L 843.494196 -415.232216 
L 842.406893 -414.433557 
L 841.31959 -413.628657 
L 840.232287 -412.817454 
L 839.144985 -411.999886 
L 838.057682 -411.175891 
L 836.970379 -410.345405 
L 835.883076 -409.508363 
L 834.795773 -408.664702 
L 833.70847 -407.814355 
L 832.621167 -406.957255 
L 831.533864 -406.093336 
L 830.446562 -405.222529 
L 829.359259 -404.344765 
L 828.271956 -403.459975 
L 827.184653 -402.568088 
L 826.09735 -401.669033 
L 825.010047 -400.762737 
L 823.922744 -399.849129 
L 822.835441 -398.928134 
L 821.748139 -397.999677 
L 820.660836 -397.063683 
L 819.573533 -396.120076 
L 818.48623 -395.168778 
L 817.398927 -394.209712 
L 816.311624 -393.242798 
L 815.224321 -392.267958 
L 814.137019 -391.28511 
L 813.049716 -390.294173 
L 811.962413 -389.295065 
L 810.87511 -388.287702 
L 809.787807 -387.272 
L 808.700504 -386.247875 
L 807.613201 -385.215241 
L 806.525898 -384.174011 
L 805.438596 -383.124097 
L 804.351293 -382.065412 
L 803.26399 -380.997866 
L 802.176687 -379.921368 
L 801.089384 -378.835828 
L 800.002081 -377.741154 
L 798.914778 -376.637254 
L 797.827475 -375.524033 
L 796.740173 -374.401398 
L 795.65287 -373.269254 
L 794.565567 -372.127504 
L 793.478264 -370.976053 
L 792.390961 -369.814801 
L 791.303658 -368.643652 
L 790.216355 -367.462507 
L 789.129052 -366.271265 
L 788.04175 -365.069826 
L 786.954447 -363.85809 
L 785.867144 -362.635954 
L 784.779841 -361.403317 
L 783.692538 -360.160075 
L 782.605235 -358.906125 
L 781.517932 -357.641362 
L 780.430629 -356.365684 
L 779.343327 -355.078983 
L 778.256024 -353.781156 
L 777.168721 -352.472097 
L 776.081418 -351.151699 
L 774.994115 -349.819856 
L 773.906812 -348.476462 
L 772.819509 -347.12141 
L 771.732207 -345.754594 
L 770.644904 -344.375906 
L 769.557601 -342.98524 
L 768.470298 -341.582491 
L 767.382995 -340.167551 
L 766.295692 -338.740314 
L 765.208389 -337.300676 
L 764.121086 -335.848531 
L 763.033784 -334.383775 
L 761.946481 -332.906304 
L 760.859178 -331.416017 
L 759.771875 -329.912811 
L 758.684572 -328.396587 
L 757.597269 -326.867246 
L 756.509966 -325.32469 
L 755.422663 -323.768824 
L 754.335361 -322.199555 
L 753.248058 -320.616791 
L 752.160755 -319.020444 
L 751.073452 -317.410427 
L 749.986149 -315.786659 
L 748.898846 -314.149058 
L 747.811543 -312.497551 
L 746.72424 -310.832064 
L 745.636938 -309.152532 
L 744.549635 -307.458891 
L 743.462332 -305.751086 
L 742.375029 -304.029066 
L 741.287726 -302.292787 
L 740.200423 -300.542212 
L 739.11312 -298.777313 
L 738.025817 -296.99807 
L 736.938515 -295.204474 
L 735.851212 -293.396523 
L 734.763909 -291.574232 
L 733.676606 -289.737623 
L 732.589303 -287.886737 
L 731.502 -286.021626 
L 730.414697 -284.142362 
L 729.327394 -282.249034 
L 728.240092 -280.341751 
L 727.152789 -278.420644 
L 726.065486 -276.485868 
L 724.978183 -274.537606 
L 723.89088 -272.576069 
L 722.803577 -270.601497 
L 721.716274 -268.61417 
L 720.628972 -266.614401 
L 719.541669 -264.602548 
L 718.454366 -262.579012 
L 717.367063 -260.544243 
L 716.27976 -258.498747 
L 715.192457 -256.443088 
L 714.105154 -254.377892 
L 713.017851 -252.303857 
L 711.930549 -250.221754 
L 710.843246 -248.132437 
L 709.755943 -246.036849 
L 708.66864 -243.936028 
L 707.581337 -241.831116 
L 706.494034 -239.723366 
L 705.406731 -237.614154 
L 704.319428 -235.504984 
L 703.232126 -233.397504 
L 702.144823 -231.29351 
L 701.05752 -229.194966 
L 699.970217 -227.104014 
L 698.882914 -225.022988 
L 697.795611 -222.954437 
L 696.708308 -220.901145 
L 695.621005 -218.866156 
L 694.533703 -216.852809 
L 693.4464 -214.864773 
L 692.359097 -212.906103 
L 691.271794 -210.981303 
L 690.184491 -209.095406 
L 689.097188 -207.254082 
L 688.009885 -205.463779 
L 686.922582 -203.731903 
L 685.83528 -202.067061 
L 684.747977 -200.479388 
L 683.660674 -198.980981 
L 682.573371 -197.586505 
L 681.486068 -196.314045 
L 680.398765 -195.186324 
L 679.311462 -194.232501 
L 678.224159 -193.490932 
L 677.136857 -193.013556 
L 676.049554 -192.873245 
L 674.962251 -193.1769 
L 673.874948 -194.09071 
L 672.787645 -195.894261 
L 671.700342 -199.11485 
L 670.613039 -204.945931 
L 669.525737 -217.23125 
z
" style="stroke: #ffffff; stroke-opacity: 0.5; stroke-width: 2"/>
    </defs>
    <g clip-path="url(#p854858fed9)">
     <use xlink:href="#m1178854b1a" x="0" y="576" style="fill: #ff7f0e; fill-opacity: 0.5; stroke: #ffffff; stroke-opacity: 0.5; stroke-width: 2"/>
    </g>
   </g>
   <g id="line2d_27">
    <path d="M 669.525737 378.493937 
L 670.613039 384.565983 
L 671.700342 386.82845 
L 672.787645 387.573454 
L 673.874948 387.494749 
L 674.962251 386.895664 
L 676.049554 385.937221 
L 677.136857 384.716352 
L 679.311462 381.723733 
L 681.486068 378.241861 
L 684.747977 372.492376 
L 691.271794 360.27338 
L 698.882914 346.163229 
L 704.319428 336.567823 
L 709.755943 327.443009 
L 715.192457 318.778498 
L 720.628972 310.548406 
L 726.065486 302.725693 
L 731.502 295.285483 
L 736.938515 288.205127 
L 742.375029 281.463753 
L 747.811543 275.041931 
L 753.248058 268.921477 
L 758.684572 263.085343 
L 765.208389 256.434853 
L 771.732207 250.145113 
L 778.256024 244.192366 
L 784.779841 238.554679 
L 791.303658 233.211805 
L 797.827475 228.14506 
L 804.351293 223.337195 
L 810.87511 218.772284 
L 818.48623 213.734058 
L 826.09735 208.985076 
L 833.70847 204.505739 
L 841.31959 200.278121 
L 848.93071 196.285814 
L 857.629133 191.992064 
L 866.327556 187.965529 
L 875.025979 184.187552 
L 883.724402 180.641123 
L 893.510128 176.908859 
L 903.295854 173.429835 
L 913.08158 170.185709 
L 922.867306 167.159757 
L 933.740334 164.034918 
L 944.613363 161.141439 
L 956.573695 158.205074 
L 968.534026 155.506502 
L 980.494358 153.026596 
L 993.541992 150.550242 
L 1006.589627 148.292978 
L 1020.724564 146.073402 
L 1035.946804 143.922026 
L 1051.169045 141.995241 
L 1067.478588 140.155908 
L 1084.875434 138.424935 
L 1094.66116 137.54673 
L 1094.66116 137.54673 
" clip-path="url(#p854858fed9)" style="fill: none; stroke: #1f77b4; stroke-width: 3; stroke-linecap: round"/>
   </g>
   <g id="line2d_28">
    <path d="M 669.525737 403.084463 
L 670.613039 414.317334 
L 671.700342 419.530058 
L 672.787645 422.323625 
L 673.874948 423.81272 
L 674.962251 424.488368 
L 676.049554 424.610149 
L 677.136857 424.331918 
L 678.224159 423.752367 
L 679.311462 422.938581 
L 680.398765 421.938239 
L 682.573371 419.509763 
L 684.747977 416.660026 
L 688.009885 411.846492 
L 691.271794 406.599273 
L 695.621005 399.187073 
L 703.232126 385.663908 
L 716.27976 362.412378 
L 723.89088 349.34171 
L 730.414697 338.566897 
L 736.938515 328.227735 
L 743.462332 318.338465 
L 749.986149 308.899618 
L 756.509966 299.903237 
L 763.033784 291.336141 
L 769.557601 283.182002 
L 776.081418 275.422725 
L 782.605235 268.039375 
L 789.129052 261.012811 
L 795.65287 254.324127 
L 802.176687 247.954937 
L 808.700504 241.887568 
L 815.224321 236.105176 
L 821.748139 230.591803 
L 828.271956 225.332403 
L 835.883076 219.498615 
L 843.494196 213.97036 
L 851.105316 208.728254 
L 858.716436 203.754379 
L 866.327556 199.032177 
L 873.938676 194.546353 
L 882.637099 189.691056 
L 891.335522 185.106661 
L 900.033945 180.775399 
L 908.732368 176.680986 
L 918.518094 172.33931 
L 928.30382 168.259033 
L 938.089546 164.422402 
L 947.875272 160.8132 
L 958.748301 157.051699 
L 969.621329 153.534081 
L 980.494358 150.243408 
L 992.45469 146.867375 
L 1004.415021 143.728504 
L 1016.375353 140.809732 
L 1029.422987 137.858392 
L 1042.470622 135.132096 
L 1056.605559 132.413197 
L 1070.740496 129.919474 
L 1085.962737 127.465676 
L 1094.66116 126.163918 
L 1094.66116 126.163918 
" clip-path="url(#p854858fed9)" style="fill: none; stroke: #ff7f0e; stroke-width: 3; stroke-linecap: round"/>
   </g>
   <g id="patch_8">
    <path d="M 648.268965 485.94 
L 648.268965 50.64 
" style="fill: none; stroke: #262626; stroke-width: 2.5; stroke-linejoin: miter; stroke-linecap: square"/>
   </g>
   <g id="patch_9">
    <path d="M 1115.917931 485.94 
L 1115.917931 50.64 
" style="fill: none; stroke: #262626; stroke-width: 2.5; stroke-linejoin: miter; stroke-linecap: square"/>
   </g>
   <g id="patch_10">
    <path d="M 648.268965 485.94 
L 1115.917931 485.94 
" style="fill: none; stroke: #262626; stroke-width: 2.5; stroke-linejoin: miter; stroke-linecap: square"/>
   </g>
   <g id="patch_11">
    <path d="M 648.268965 50.64 
L 1115.917931 50.64 
" style="fill: none; stroke: #262626; stroke-width: 2.5; stroke-linejoin: miter; stroke-linecap: square"/>
   </g>
   <g id="text_29">
    <text style="fill: #262626; font: 24px 'Arial', 'DejaVu Sans', 'Liberation Sans', 'Bitstream Vera Sans', sans-serif; text-anchor: middle" x="882.093448" y="44.64" transform="rotate(-0 882.093448 44.64)">Aperiodic Spectrum</text>
   </g>
   <g id="legend_1">
    <g id="patch_12">
     <path d="M 663.668965 132.82375 
L 816.830215 132.82375 
Q 821.230215 132.82375 821.230215 128.42375 
L 821.230215 66.04 
Q 821.230215 61.64 816.830215 61.64 
L 663.668965 61.64 
Q 659.268965 61.64 659.268965 66.04 
L 659.268965 128.42375 
Q 659.268965 132.82375 663.668965 132.82375 
z
" style="fill: #ffffff; opacity: 0.8; stroke: #cccccc; stroke-width: 2; stroke-linejoin: miter"/>
    </g>
    <g id="line2d_29">
     <path d="M 668.068965 79.456563 
L 690.068965 79.456563 
L 712.068965 79.456563 
" style="fill: none; stroke: #1f77b4; stroke-width: 3; stroke-linecap: round"/>
    </g>
    <g id="text_30">
     <text style="fill: #262626; font: 22px 'Arial', 'DejaVu Sans', 'Liberation Sans', 'Bitstream Vera Sans', sans-serif; text-anchor: start" x="729.668965" y="87.156563" transform="rotate(-0 729.668965 87.156563)">control</text>
    </g>
    <g id="line2d_30">
     <path d="M 668.068965 111.748438 
L 690.068965 111.748438 
L 712.068965 111.748438 
" style="fill: none; stroke: #ff7f0e; stroke-width: 3; stroke-linecap: round"/>
    </g>
    <g id="text_31">
     <text style="fill: #262626; font: 22px 'Arial', 'DejaVu Sans', 'Liberation Sans', 'Bitstream Vera Sans', sans-serif; text-anchor: start" x="729.668965" y="119.448438" transform="rotate(-0 729.668965 119.448438)">tinnitus</text>
    </g>
   </g>
  </g>
 </g>
 <defs>
  <clipPath id="pb06c278bde">
   <rect x="104.19" y="50.64" width="467.648965" height="435.3"/>
  </clipPath>
  <clipPath id="p854858fed9">
   <rect x="648.268965" y="50.64" width="467.648965" height="435.3"/>
  </clipPath>
 </defs>
</svg>
