<?xml version="1.0" encoding="utf-8" standalone="no"?>
<!DOCTYPE svg PUBLIC "-//W3C//DTD SVG 1.1//EN"
  "http://www.w3.org/Graphics/SVG/1.1/DTD/svg11.dtd">
<svg xmlns:xlink="http://www.w3.org/1999/xlink" width="288pt" height="288pt" viewBox="0 0 288 288" xmlns="http://www.w3.org/2000/svg" version="1.1">
 <metadata>
  <rdf:RDF xmlns:dc="http://purl.org/dc/elements/1.1/" xmlns:cc="http://creativecommons.org/ns#" xmlns:rdf="http://www.w3.org/1999/02/22-rdf-syntax-ns#">
   <cc:Work>
    <dc:type rdf:resource="http://purl.org/dc/dcmitype/StillImage"/>
    <dc:date>2023-10-17T15:25:19.755618</dc:date>
    <dc:format>image/svg+xml</dc:format>
    <dc:creator>
     <cc:Agent>
      <dc:title>Matplotlib v3.8.0, https://matplotlib.org/</dc:title>
     </cc:Agent>
    </dc:creator>
   </cc:Work>
  </rdf:RDF>
 </metadata>
 <defs>
  <style type="text/css">*{stroke-linejoin: round; stroke-linecap: butt}</style>
 </defs>
 <g id="figure_1">
  <g id="patch_1">
   <path d="M 0 288 
L 288 288 
L 288 0 
L 0 0 
z
" style="fill: #ffffff"/>
  </g>
  <g id="axes_1">
   <g id="patch_2">
    <path d="M 36 256.32 
L 259.2 256.32 
L 259.2 34.56 
L 36 34.56 
z
" style="fill: #ffffff"/>
   </g>
   <g id="matplotlib.axis_1">
    <g id="xtick_1">
     <g id="line2d_1">
      <defs>
       <path id="m9d6d750ef3" d="M 0 0 
L 0 12 
" style="stroke: #262626; stroke-width: 2.5"/>
      </defs>
      <g>
       <use xlink:href="#m9d6d750ef3" x="46.143557" y="256.32" style="fill: #262626; stroke: #262626; stroke-width: 2.5"/>
      </g>
     </g>
     <g id="text_1">
      <text style="fill: #262626; font: 22px 'Arial', 'DejaVu Sans', 'Liberation Sans', 'Bitstream Vera Sans', sans-serif; text-anchor: middle" x="46.143557" y="287.567187" transform="rotate(-0 46.143557 287.567187)">0</text>
     </g>
    </g>
    <g id="xtick_2">
     <g id="line2d_2">
      <g>
       <use xlink:href="#m9d6d750ef3" x="142.32126" y="256.32" style="fill: #262626; stroke: #262626; stroke-width: 2.5"/>
      </g>
     </g>
     <g id="text_2">
      <text style="fill: #262626; font: 22px 'Arial', 'DejaVu Sans', 'Liberation Sans', 'Bitstream Vera Sans', sans-serif; text-anchor: middle" x="142.32126" y="287.567187" transform="rotate(-0 142.32126 287.567187)">2</text>
     </g>
    </g>
    <g id="xtick_3">
     <g id="line2d_3">
      <g>
       <use xlink:href="#m9d6d750ef3" x="238.498962" y="256.32" style="fill: #262626; stroke: #262626; stroke-width: 2.5"/>
      </g>
     </g>
     <g id="text_3">
      <text style="fill: #262626; font: 22px 'Arial', 'DejaVu Sans', 'Liberation Sans', 'Bitstream Vera Sans', sans-serif; text-anchor: middle" x="238.498962" y="287.567187" transform="rotate(-0 238.498962 287.567187)">4</text>
     </g>
    </g>
    <g id="text_4">
     <text style="fill: #262626; font: 24px 'Arial', 'DejaVu Sans', 'Liberation Sans', 'Bitstream Vera Sans', sans-serif; text-anchor: middle" x="147.6" y="313.118438" transform="rotate(-0 147.6 313.118438)">Exponent</text>
    </g>
   </g>
   <g id="matplotlib.axis_2">
    <g id="ytick_1">
     <g id="line2d_4">
      <defs>
       <path id="m11f7e3a527" d="M 0 0 
L -12 0 
" style="stroke: #262626; stroke-width: 2.5"/>
      </defs>
      <g>
       <use xlink:href="#m11f7e3a527" x="36" y="256.32" style="fill: #262626; stroke: #262626; stroke-width: 2.5"/>
      </g>
     </g>
     <g id="text_5">
      <text style="fill: #262626; font: 22px 'Arial', 'DejaVu Sans', 'Liberation Sans', 'Bitstream Vera Sans', sans-serif; text-anchor: end" x="20.5" y="264.193594" transform="rotate(-0 20.5 264.193594)">0</text>
     </g>
    </g>
    <g id="ytick_2">
     <g id="line2d_5">
      <g>
       <use xlink:href="#m11f7e3a527" x="36" y="207.340408" style="fill: #262626; stroke: #262626; stroke-width: 2.5"/>
      </g>
     </g>
     <g id="text_6">
      <text style="fill: #262626; font: 22px 'Arial', 'DejaVu Sans', 'Liberation Sans', 'Bitstream Vera Sans', sans-serif; text-anchor: end" x="20.5" y="215.214002" transform="rotate(-0 20.5 215.214002)">500</text>
     </g>
    </g>
    <g id="ytick_3">
     <g id="line2d_6">
      <g>
       <use xlink:href="#m11f7e3a527" x="36" y="158.360816" style="fill: #262626; stroke: #262626; stroke-width: 2.5"/>
      </g>
     </g>
     <g id="text_7">
      <text style="fill: #262626; font: 22px 'Arial', 'DejaVu Sans', 'Liberation Sans', 'Bitstream Vera Sans', sans-serif; text-anchor: end" x="20.5" y="166.23441" transform="rotate(-0 20.5 166.23441)">1000</text>
     </g>
    </g>
    <g id="ytick_4">
     <g id="line2d_7">
      <g>
       <use xlink:href="#m11f7e3a527" x="36" y="109.381224" style="fill: #262626; stroke: #262626; stroke-width: 2.5"/>
      </g>
     </g>
     <g id="text_8">
      <text style="fill: #262626; font: 22px 'Arial', 'DejaVu Sans', 'Liberation Sans', 'Bitstream Vera Sans', sans-serif; text-anchor: end" x="20.5" y="117.254818" transform="rotate(-0 20.5 117.254818)">1500</text>
     </g>
    </g>
    <g id="ytick_5">
     <g id="line2d_8">
      <g>
       <use xlink:href="#m11f7e3a527" x="36" y="60.401633" style="fill: #262626; stroke: #262626; stroke-width: 2.5"/>
      </g>
     </g>
     <g id="text_9">
      <text style="fill: #262626; font: 22px 'Arial', 'DejaVu Sans', 'Liberation Sans', 'Bitstream Vera Sans', sans-serif; text-anchor: end" x="20.5" y="68.275226" transform="rotate(-0 20.5 68.275226)">2000</text>
     </g>
    </g>
    <g id="text_10">
     <text style="fill: #262626; font: 24px 'Arial', 'DejaVu Sans', 'Liberation Sans', 'Bitstream Vera Sans', sans-serif; text-anchor: middle" x="-37.20625" y="145.44" transform="rotate(-90 -37.20625 145.44)">Count</text>
    </g>
   </g>
   <g id="patch_3">
    <path d="M 46.145455 256.32 
L 50.203636 256.32 
L 50.203636 255.242449 
L 46.145455 255.242449 
z
" clip-path="url(#p46d48a6abe)" style="fill: #4c72b0; stroke: #4c72b0; stroke-width: 2; stroke-linejoin: miter"/>
   </g>
   <g id="patch_4">
    <path d="M 50.203636 256.32 
L 54.261818 256.32 
L 54.261818 254.654694 
L 50.203636 254.654694 
z
" clip-path="url(#p46d48a6abe)" style="fill: #4c72b0; stroke: #4c72b0; stroke-width: 2; stroke-linejoin: miter"/>
   </g>
   <g id="patch_5">
    <path d="M 54.261818 256.32 
L 58.32 256.32 
L 58.32 250.442449 
L 54.261818 250.442449 
z
" clip-path="url(#p46d48a6abe)" style="fill: #4c72b0; stroke: #4c72b0; stroke-width: 2; stroke-linejoin: miter"/>
   </g>
   <g id="patch_6">
    <path d="M 58.32 256.32 
L 62.378182 256.32 
L 62.378182 235.650612 
L 58.32 235.650612 
z
" clip-path="url(#p46d48a6abe)" style="fill: #4c72b0; stroke: #4c72b0; stroke-width: 2; stroke-linejoin: miter"/>
   </g>
   <g id="patch_7">
    <path d="M 62.378182 256.32 
L 66.436364 256.32 
L 66.436364 213.805714 
L 62.378182 213.805714 
z
" clip-path="url(#p46d48a6abe)" style="fill: #4c72b0; stroke: #4c72b0; stroke-width: 2; stroke-linejoin: miter"/>
   </g>
   <g id="patch_8">
    <path d="M 66.436364 256.32 
L 70.494545 256.32 
L 70.494545 156.009796 
L 66.436364 156.009796 
z
" clip-path="url(#p46d48a6abe)" style="fill: #4c72b0; stroke: #4c72b0; stroke-width: 2; stroke-linejoin: miter"/>
   </g>
   <g id="patch_9">
    <path d="M 70.494545 256.32 
L 74.552727 256.32 
L 74.552727 105.560816 
L 70.494545 105.560816 
z
" clip-path="url(#p46d48a6abe)" style="fill: #4c72b0; stroke: #4c72b0; stroke-width: 2; stroke-linejoin: miter"/>
   </g>
   <g id="patch_10">
    <path d="M 74.552727 256.32 
L 78.610909 256.32 
L 78.610909 63.438367 
L 74.552727 63.438367 
z
" clip-path="url(#p46d48a6abe)" style="fill: #4c72b0; stroke: #4c72b0; stroke-width: 2; stroke-linejoin: miter"/>
   </g>
   <g id="patch_11">
    <path d="M 78.610909 256.32 
L 82.669091 256.32 
L 82.669091 58.834286 
L 78.610909 58.834286 
z
" clip-path="url(#p46d48a6abe)" style="fill: #4c72b0; stroke: #4c72b0; stroke-width: 2; stroke-linejoin: miter"/>
   </g>
   <g id="patch_12">
    <path d="M 82.669091 256.32 
L 86.727273 256.32 
L 86.727273 45.12 
L 82.669091 45.12 
z
" clip-path="url(#p46d48a6abe)" style="fill: #4c72b0; stroke: #4c72b0; stroke-width: 2; stroke-linejoin: miter"/>
   </g>
   <g id="patch_13">
    <path d="M 86.727273 256.32 
L 90.785455 256.32 
L 90.785455 64.026122 
L 86.727273 64.026122 
z
" clip-path="url(#p46d48a6abe)" style="fill: #4c72b0; stroke: #4c72b0; stroke-width: 2; stroke-linejoin: miter"/>
   </g>
   <g id="patch_14">
    <path d="M 90.785455 256.32 
L 94.843636 256.32 
L 94.843636 108.009796 
L 90.785455 108.009796 
z
" clip-path="url(#p46d48a6abe)" style="fill: #4c72b0; stroke: #4c72b0; stroke-width: 2; stroke-linejoin: miter"/>
   </g>
   <g id="patch_15">
    <path d="M 94.843636 256.32 
L 98.901818 256.32 
L 98.901818 152.189388 
L 94.843636 152.189388 
z
" clip-path="url(#p46d48a6abe)" style="fill: #4c72b0; stroke: #4c72b0; stroke-width: 2; stroke-linejoin: miter"/>
   </g>
   <g id="patch_16">
    <path d="M 98.901818 256.32 
L 102.96 256.32 
L 102.96 192.548571 
L 98.901818 192.548571 
z
" clip-path="url(#p46d48a6abe)" style="fill: #4c72b0; stroke: #4c72b0; stroke-width: 2; stroke-linejoin: miter"/>
   </g>
   <g id="patch_17">
    <path d="M 102.96 256.32 
L 107.018182 256.32 
L 107.018182 230.360816 
L 102.96 230.360816 
z
" clip-path="url(#p46d48a6abe)" style="fill: #4c72b0; stroke: #4c72b0; stroke-width: 2; stroke-linejoin: miter"/>
   </g>
   <g id="patch_18">
    <path d="M 107.018182 256.32 
L 111.076364 256.32 
L 111.076364 238.001633 
L 107.018182 238.001633 
z
" clip-path="url(#p46d48a6abe)" style="fill: #4c72b0; stroke: #4c72b0; stroke-width: 2; stroke-linejoin: miter"/>
   </g>
   <g id="patch_19">
    <path d="M 111.076364 256.32 
L 115.134545 256.32 
L 115.134545 243.09551 
L 111.076364 243.09551 
z
" clip-path="url(#p46d48a6abe)" style="fill: #4c72b0; stroke: #4c72b0; stroke-width: 2; stroke-linejoin: miter"/>
   </g>
   <g id="patch_20">
    <path d="M 115.134545 256.32 
L 119.192727 256.32 
L 119.192727 245.936327 
L 115.134545 245.936327 
z
" clip-path="url(#p46d48a6abe)" style="fill: #4c72b0; stroke: #4c72b0; stroke-width: 2; stroke-linejoin: miter"/>
   </g>
   <g id="patch_21">
    <path d="M 119.192727 256.32 
L 123.250909 256.32 
L 123.250909 247.993469 
L 119.192727 247.993469 
z
" clip-path="url(#p46d48a6abe)" style="fill: #4c72b0; stroke: #4c72b0; stroke-width: 2; stroke-linejoin: miter"/>
   </g>
   <g id="patch_22">
    <path d="M 123.250909 256.32 
L 127.309091 256.32 
L 127.309091 248.973061 
L 123.250909 248.973061 
z
" clip-path="url(#p46d48a6abe)" style="fill: #4c72b0; stroke: #4c72b0; stroke-width: 2; stroke-linejoin: miter"/>
   </g>
   <g id="patch_23">
    <path d="M 127.309091 256.32 
L 131.367273 256.32 
L 131.367273 250.540408 
L 127.309091 250.540408 
z
" clip-path="url(#p46d48a6abe)" style="fill: #4c72b0; stroke: #4c72b0; stroke-width: 2; stroke-linejoin: miter"/>
   </g>
   <g id="patch_24">
    <path d="M 131.367273 256.32 
L 135.425455 256.32 
L 135.425455 250.148571 
L 131.367273 250.148571 
z
" clip-path="url(#p46d48a6abe)" style="fill: #4c72b0; stroke: #4c72b0; stroke-width: 2; stroke-linejoin: miter"/>
   </g>
   <g id="patch_25">
    <path d="M 135.425455 256.32 
L 139.483636 256.32 
L 139.483636 252.303673 
L 135.425455 252.303673 
z
" clip-path="url(#p46d48a6abe)" style="fill: #4c72b0; stroke: #4c72b0; stroke-width: 2; stroke-linejoin: miter"/>
   </g>
   <g id="patch_26">
    <path d="M 139.483636 256.32 
L 143.541818 256.32 
L 143.541818 253.479184 
L 139.483636 253.479184 
z
" clip-path="url(#p46d48a6abe)" style="fill: #4c72b0; stroke: #4c72b0; stroke-width: 2; stroke-linejoin: miter"/>
   </g>
   <g id="patch_27">
    <path d="M 143.541818 256.32 
L 147.6 256.32 
L 147.6 252.891429 
L 143.541818 252.891429 
z
" clip-path="url(#p46d48a6abe)" style="fill: #4c72b0; stroke: #4c72b0; stroke-width: 2; stroke-linejoin: miter"/>
   </g>
   <g id="patch_28">
    <path d="M 147.6 256.32 
L 151.658182 256.32 
L 151.658182 252.205714 
L 147.6 252.205714 
z
" clip-path="url(#p46d48a6abe)" style="fill: #4c72b0; stroke: #4c72b0; stroke-width: 2; stroke-linejoin: miter"/>
   </g>
   <g id="patch_29">
    <path d="M 151.658182 256.32 
L 155.716364 256.32 
L 155.716364 251.911837 
L 151.658182 251.911837 
z
" clip-path="url(#p46d48a6abe)" style="fill: #4c72b0; stroke: #4c72b0; stroke-width: 2; stroke-linejoin: miter"/>
   </g>
   <g id="patch_30">
    <path d="M 155.716364 256.32 
L 159.774545 256.32 
L 159.774545 253.087347 
L 155.716364 253.087347 
z
" clip-path="url(#p46d48a6abe)" style="fill: #4c72b0; stroke: #4c72b0; stroke-width: 2; stroke-linejoin: miter"/>
   </g>
   <g id="patch_31">
    <path d="M 159.774545 256.32 
L 163.832727 256.32 
L 163.832727 252.989388 
L 159.774545 252.989388 
z
" clip-path="url(#p46d48a6abe)" style="fill: #4c72b0; stroke: #4c72b0; stroke-width: 2; stroke-linejoin: miter"/>
   </g>
   <g id="patch_32">
    <path d="M 163.832727 256.32 
L 167.890909 256.32 
L 167.890909 253.283265 
L 163.832727 253.283265 
z
" clip-path="url(#p46d48a6abe)" style="fill: #4c72b0; stroke: #4c72b0; stroke-width: 2; stroke-linejoin: miter"/>
   </g>
   <g id="patch_33">
    <path d="M 167.890909 256.32 
L 171.949091 256.32 
L 171.949091 253.185306 
L 167.890909 253.185306 
z
" clip-path="url(#p46d48a6abe)" style="fill: #4c72b0; stroke: #4c72b0; stroke-width: 2; stroke-linejoin: miter"/>
   </g>
   <g id="patch_34">
    <path d="M 171.949091 256.32 
L 176.007273 256.32 
L 176.007273 253.577143 
L 171.949091 253.577143 
z
" clip-path="url(#p46d48a6abe)" style="fill: #4c72b0; stroke: #4c72b0; stroke-width: 2; stroke-linejoin: miter"/>
   </g>
   <g id="patch_35">
    <path d="M 176.007273 256.32 
L 180.065455 256.32 
L 180.065455 253.773061 
L 176.007273 253.773061 
z
" clip-path="url(#p46d48a6abe)" style="fill: #4c72b0; stroke: #4c72b0; stroke-width: 2; stroke-linejoin: miter"/>
   </g>
   <g id="patch_36">
    <path d="M 180.065455 256.32 
L 184.123636 256.32 
L 184.123636 254.066939 
L 180.065455 254.066939 
z
" clip-path="url(#p46d48a6abe)" style="fill: #4c72b0; stroke: #4c72b0; stroke-width: 2; stroke-linejoin: miter"/>
   </g>
   <g id="patch_37">
    <path d="M 184.123636 256.32 
L 188.181818 256.32 
L 188.181818 254.556735 
L 184.123636 254.556735 
z
" clip-path="url(#p46d48a6abe)" style="fill: #4c72b0; stroke: #4c72b0; stroke-width: 2; stroke-linejoin: miter"/>
   </g>
   <g id="patch_38">
    <path d="M 188.181818 256.32 
L 192.24 256.32 
L 192.24 255.046531 
L 188.181818 255.046531 
z
" clip-path="url(#p46d48a6abe)" style="fill: #4c72b0; stroke: #4c72b0; stroke-width: 2; stroke-linejoin: miter"/>
   </g>
   <g id="patch_39">
    <path d="M 192.24 256.32 
L 196.298182 256.32 
L 196.298182 254.262857 
L 192.24 254.262857 
z
" clip-path="url(#p46d48a6abe)" style="fill: #4c72b0; stroke: #4c72b0; stroke-width: 2; stroke-linejoin: miter"/>
   </g>
   <g id="patch_40">
    <path d="M 196.298182 256.32 
L 200.356364 256.32 
L 200.356364 255.438367 
L 196.298182 255.438367 
z
" clip-path="url(#p46d48a6abe)" style="fill: #4c72b0; stroke: #4c72b0; stroke-width: 2; stroke-linejoin: miter"/>
   </g>
   <g id="patch_41">
    <path d="M 200.356364 256.32 
L 204.414545 256.32 
L 204.414545 254.948571 
L 200.356364 254.948571 
z
" clip-path="url(#p46d48a6abe)" style="fill: #4c72b0; stroke: #4c72b0; stroke-width: 2; stroke-linejoin: miter"/>
   </g>
   <g id="patch_42">
    <path d="M 204.414545 256.32 
L 208.472727 256.32 
L 208.472727 255.536327 
L 204.414545 255.536327 
z
" clip-path="url(#p46d48a6abe)" style="fill: #4c72b0; stroke: #4c72b0; stroke-width: 2; stroke-linejoin: miter"/>
   </g>
   <g id="patch_43">
    <path d="M 208.472727 256.32 
L 212.530909 256.32 
L 212.530909 256.124082 
L 208.472727 256.124082 
z
" clip-path="url(#p46d48a6abe)" style="fill: #4c72b0; stroke: #4c72b0; stroke-width: 2; stroke-linejoin: miter"/>
   </g>
   <g id="patch_44">
    <path d="M 212.530909 256.32 
L 216.589091 256.32 
L 216.589091 256.32 
L 212.530909 256.32 
z
" clip-path="url(#p46d48a6abe)" style="fill: #4c72b0; stroke: #4c72b0; stroke-width: 2; stroke-linejoin: miter"/>
   </g>
   <g id="patch_45">
    <path d="M 216.589091 256.32 
L 220.647273 256.32 
L 220.647273 256.32 
L 216.589091 256.32 
z
" clip-path="url(#p46d48a6abe)" style="fill: #4c72b0; stroke: #4c72b0; stroke-width: 2; stroke-linejoin: miter"/>
   </g>
   <g id="patch_46">
    <path d="M 220.647273 256.32 
L 224.705455 256.32 
L 224.705455 256.32 
L 220.647273 256.32 
z
" clip-path="url(#p46d48a6abe)" style="fill: #4c72b0; stroke: #4c72b0; stroke-width: 2; stroke-linejoin: miter"/>
   </g>
   <g id="patch_47">
    <path d="M 224.705455 256.32 
L 228.763636 256.32 
L 228.763636 256.32 
L 224.705455 256.32 
z
" clip-path="url(#p46d48a6abe)" style="fill: #4c72b0; stroke: #4c72b0; stroke-width: 2; stroke-linejoin: miter"/>
   </g>
   <g id="patch_48">
    <path d="M 228.763636 256.32 
L 232.821818 256.32 
L 232.821818 256.32 
L 228.763636 256.32 
z
" clip-path="url(#p46d48a6abe)" style="fill: #4c72b0; stroke: #4c72b0; stroke-width: 2; stroke-linejoin: miter"/>
   </g>
   <g id="patch_49">
    <path d="M 232.821818 256.32 
L 236.88 256.32 
L 236.88 256.32 
L 232.821818 256.32 
z
" clip-path="url(#p46d48a6abe)" style="fill: #4c72b0; stroke: #4c72b0; stroke-width: 2; stroke-linejoin: miter"/>
   </g>
   <g id="patch_50">
    <path d="M 236.88 256.32 
L 240.938182 256.32 
L 240.938182 256.32 
L 236.88 256.32 
z
" clip-path="url(#p46d48a6abe)" style="fill: #4c72b0; stroke: #4c72b0; stroke-width: 2; stroke-linejoin: miter"/>
   </g>
   <g id="patch_51">
    <path d="M 240.938182 256.32 
L 244.996364 256.32 
L 244.996364 256.32 
L 240.938182 256.32 
z
" clip-path="url(#p46d48a6abe)" style="fill: #4c72b0; stroke: #4c72b0; stroke-width: 2; stroke-linejoin: miter"/>
   </g>
   <g id="patch_52">
    <path d="M 244.996364 256.32 
L 249.054545 256.32 
L 249.054545 256.222041 
L 244.996364 256.222041 
z
" clip-path="url(#p46d48a6abe)" style="fill: #4c72b0; stroke: #4c72b0; stroke-width: 2; stroke-linejoin: miter"/>
   </g>
   <g id="patch_53">
    <path d="M 36 256.32 
L 36 34.56 
" style="fill: none; stroke: #262626; stroke-width: 2.5; stroke-linejoin: miter; stroke-linecap: square"/>
   </g>
   <g id="patch_54">
    <path d="M 36 256.32 
L 259.2 256.32 
" style="fill: none; stroke: #262626; stroke-width: 2.5; stroke-linejoin: miter; stroke-linecap: square"/>
   </g>
  </g>
 </g>
 <defs>
  <clipPath id="p46d48a6abe">
   <rect x="36" y="34.56" width="223.2" height="221.76"/>
  </clipPath>
 </defs>
</svg>
