<?xml version="1.0" encoding="utf-8" standalone="no"?>
<!DOCTYPE svg PUBLIC "-//W3C//DTD SVG 1.1//EN"
  "http://www.w3.org/Graphics/SVG/1.1/DTD/svg11.dtd">
<svg xmlns:xlink="http://www.w3.org/1999/xlink" width="288pt" height="288pt" viewBox="0 0 288 288" xmlns="http://www.w3.org/2000/svg" version="1.1">
 <metadata>
  <rdf:RDF xmlns:dc="http://purl.org/dc/elements/1.1/" xmlns:cc="http://creativecommons.org/ns#" xmlns:rdf="http://www.w3.org/1999/02/22-rdf-syntax-ns#">
   <cc:Work>
    <dc:type rdf:resource="http://purl.org/dc/dcmitype/StillImage"/>
    <dc:date>2023-10-02T10:14:02.100678</dc:date>
    <dc:format>image/svg+xml</dc:format>
    <dc:creator>
     <cc:Agent>
      <dc:title>Matplotlib v3.8.0, https://matplotlib.org/</dc:title>
     </cc:Agent>
    </dc:creator>
   </cc:Work>
  </rdf:RDF>
 </metadata>
 <defs>
  <style type="text/css">*{stroke-linejoin: round; stroke-linecap: butt}</style>
 </defs>
 <g id="figure_1">
  <g id="patch_1">
   <path d="M 0 288 
L 288 288 
L 288 0 
L 0 0 
z
" style="fill: #ffffff"/>
  </g>
  <g id="axes_1">
   <g id="patch_2">
    <path d="M 36 256.32 
L 259.2 256.32 
L 259.2 34.56 
L 36 34.56 
z
" style="fill: #ffffff"/>
   </g>
   <g id="matplotlib.axis_1">
    <g id="xtick_1">
     <g id="line2d_1">
      <defs>
       <path id="ma2b2726bc7" d="M 0 0 
L 0 12 
" style="stroke: #262626; stroke-width: 2.5"/>
      </defs>
      <g>
       <use xlink:href="#ma2b2726bc7" x="36" y="256.32" style="fill: #262626; stroke: #262626; stroke-width: 2.5"/>
      </g>
     </g>
     <g id="text_1">
      <text style="fill: #262626; font: 22px 'Arial', 'DejaVu Sans', 'Liberation Sans', 'Bitstream Vera Sans', sans-serif; text-anchor: middle" x="36" y="287.567187" transform="rotate(-0 36 287.567187)">0</text>
     </g>
    </g>
    <g id="xtick_2">
     <g id="line2d_2">
      <g>
       <use xlink:href="#ma2b2726bc7" x="125.28" y="256.32" style="fill: #262626; stroke: #262626; stroke-width: 2.5"/>
      </g>
     </g>
     <g id="text_2">
      <text style="fill: #262626; font: 22px 'Arial', 'DejaVu Sans', 'Liberation Sans', 'Bitstream Vera Sans', sans-serif; text-anchor: middle" x="125.28" y="287.567187" transform="rotate(-0 125.28 287.567187)">2</text>
     </g>
    </g>
    <g id="xtick_3">
     <g id="line2d_3">
      <g>
       <use xlink:href="#ma2b2726bc7" x="214.56" y="256.32" style="fill: #262626; stroke: #262626; stroke-width: 2.5"/>
      </g>
     </g>
     <g id="text_3">
      <text style="fill: #262626; font: 22px 'Arial', 'DejaVu Sans', 'Liberation Sans', 'Bitstream Vera Sans', sans-serif; text-anchor: middle" x="214.56" y="287.567187" transform="rotate(-0 214.56 287.567187)">4</text>
     </g>
    </g>
    <g id="text_4">
     <text style="fill: #262626; font: 24px 'Arial', 'DejaVu Sans', 'Liberation Sans', 'Bitstream Vera Sans', sans-serif; text-anchor: middle" x="147.6" y="313.118438" transform="rotate(-0 147.6 313.118438)">Exponent</text>
    </g>
   </g>
   <g id="matplotlib.axis_2">
    <g id="ytick_1">
     <g id="line2d_4">
      <defs>
       <path id="m1fbbc046a2" d="M 0 0 
L -12 0 
" style="stroke: #262626; stroke-width: 2.5"/>
      </defs>
      <g>
       <use xlink:href="#m1fbbc046a2" x="36" y="256.32" style="fill: #262626; stroke: #262626; stroke-width: 2.5"/>
      </g>
     </g>
     <g id="text_5">
      <text style="fill: #262626; font: 22px 'Arial', 'DejaVu Sans', 'Liberation Sans', 'Bitstream Vera Sans', sans-serif; text-anchor: end" x="20.5" y="264.193594" transform="rotate(-0 20.5 264.193594)">0</text>
     </g>
    </g>
    <g id="ytick_2">
     <g id="line2d_5">
      <g>
       <use xlink:href="#m1fbbc046a2" x="36" y="182.4" style="fill: #262626; stroke: #262626; stroke-width: 2.5"/>
      </g>
     </g>
     <g id="text_6">
      <text style="fill: #262626; font: 22px 'Arial', 'DejaVu Sans', 'Liberation Sans', 'Bitstream Vera Sans', sans-serif; text-anchor: end" x="20.5" y="190.273594" transform="rotate(-0 20.5 190.273594)">2000</text>
     </g>
    </g>
    <g id="ytick_3">
     <g id="line2d_6">
      <g>
       <use xlink:href="#m1fbbc046a2" x="36" y="108.48" style="fill: #262626; stroke: #262626; stroke-width: 2.5"/>
      </g>
     </g>
     <g id="text_7">
      <text style="fill: #262626; font: 22px 'Arial', 'DejaVu Sans', 'Liberation Sans', 'Bitstream Vera Sans', sans-serif; text-anchor: end" x="20.5" y="116.353594" transform="rotate(-0 20.5 116.353594)">4000</text>
     </g>
    </g>
    <g id="ytick_4">
     <g id="line2d_7">
      <g>
       <use xlink:href="#m1fbbc046a2" x="36" y="34.56" style="fill: #262626; stroke: #262626; stroke-width: 2.5"/>
      </g>
     </g>
     <g id="text_8">
      <text style="fill: #262626; font: 22px 'Arial', 'DejaVu Sans', 'Liberation Sans', 'Bitstream Vera Sans', sans-serif; text-anchor: end" x="20.5" y="42.433594" transform="rotate(-0 20.5 42.433594)">6000</text>
     </g>
    </g>
    <g id="text_9">
     <text style="fill: #262626; font: 24px 'Arial', 'DejaVu Sans', 'Liberation Sans', 'Bitstream Vera Sans', sans-serif; text-anchor: middle" x="-37.20625" y="145.44" transform="rotate(-90 -37.20625 145.44)">Count</text>
    </g>
   </g>
   <g id="patch_3">
    <path d="M 24.623353 256.32 
L 34.943309 256.32 
L 34.943309 255.24816 
L 24.623353 255.24816 
z
" clip-path="url(#p62af18c327)" style="fill: #4c72b0; stroke: #4c72b0; stroke-width: 2; stroke-linejoin: miter"/>
   </g>
   <g id="patch_4">
    <path d="M 34.943309 256.32 
L 45.263264 256.32 
L 45.263264 234.95712 
L 34.943309 234.95712 
z
" clip-path="url(#p62af18c327)" style="fill: #4c72b0; stroke: #4c72b0; stroke-width: 2; stroke-linejoin: miter"/>
   </g>
   <g id="patch_5">
    <path d="M 45.263264 256.32 
L 55.58322 256.32 
L 55.58322 157.74768 
L 45.263264 157.74768 
z
" clip-path="url(#p62af18c327)" style="fill: #4c72b0; stroke: #4c72b0; stroke-width: 2; stroke-linejoin: miter"/>
   </g>
   <g id="patch_6">
    <path d="M 55.58322 256.32 
L 65.903176 256.32 
L 65.903176 46.42416 
L 55.58322 46.42416 
z
" clip-path="url(#p62af18c327)" style="fill: #4c72b0; stroke: #4c72b0; stroke-width: 2; stroke-linejoin: miter"/>
   </g>
   <g id="patch_7">
    <path d="M 65.903176 256.32 
L 76.223131 256.32 
L 76.223131 25.39392 
L 65.903176 25.39392 
z
" clip-path="url(#p62af18c327)" style="fill: #4c72b0; stroke: #4c72b0; stroke-width: 2; stroke-linejoin: miter"/>
   </g>
   <g id="patch_8">
    <path d="M 76.223131 256.32 
L 86.543087 256.32 
L 86.543087 119.568 
L 76.223131 119.568 
z
" clip-path="url(#p62af18c327)" style="fill: #4c72b0; stroke: #4c72b0; stroke-width: 2; stroke-linejoin: miter"/>
   </g>
   <g id="patch_9">
    <path d="M 86.543087 256.32 
L 96.863043 256.32 
L 96.863043 235.84416 
L 86.543087 235.84416 
z
" clip-path="url(#p62af18c327)" style="fill: #4c72b0; stroke: #4c72b0; stroke-width: 2; stroke-linejoin: miter"/>
   </g>
   <g id="patch_10">
    <path d="M 96.863043 256.32 
L 107.182998 256.32 
L 107.182998 251.55216 
L 96.863043 251.55216 
z
" clip-path="url(#p62af18c327)" style="fill: #4c72b0; stroke: #4c72b0; stroke-width: 2; stroke-linejoin: miter"/>
   </g>
   <g id="patch_11">
    <path d="M 107.182998 256.32 
L 117.502954 256.32 
L 117.502954 253.69584 
L 107.182998 253.69584 
z
" clip-path="url(#p62af18c327)" style="fill: #4c72b0; stroke: #4c72b0; stroke-width: 2; stroke-linejoin: miter"/>
   </g>
   <g id="patch_12">
    <path d="M 117.502954 256.32 
L 127.822909 256.32 
L 127.822909 254.95248 
L 117.502954 254.95248 
z
" clip-path="url(#p62af18c327)" style="fill: #4c72b0; stroke: #4c72b0; stroke-width: 2; stroke-linejoin: miter"/>
   </g>
   <g id="patch_13">
    <path d="M 127.822909 256.32 
L 138.142865 256.32 
L 138.142865 255.28512 
L 127.822909 255.28512 
z
" clip-path="url(#p62af18c327)" style="fill: #4c72b0; stroke: #4c72b0; stroke-width: 2; stroke-linejoin: miter"/>
   </g>
   <g id="patch_14">
    <path d="M 138.142865 256.32 
L 148.462821 256.32 
L 148.462821 255.54384 
L 138.142865 255.54384 
z
" clip-path="url(#p62af18c327)" style="fill: #4c72b0; stroke: #4c72b0; stroke-width: 2; stroke-linejoin: miter"/>
   </g>
   <g id="patch_15">
    <path d="M 148.462821 256.32 
L 158.782776 256.32 
L 158.782776 255.80256 
L 148.462821 255.80256 
z
" clip-path="url(#p62af18c327)" style="fill: #4c72b0; stroke: #4c72b0; stroke-width: 2; stroke-linejoin: miter"/>
   </g>
   <g id="patch_16">
    <path d="M 158.782776 256.32 
L 169.102732 256.32 
L 169.102732 255.72864 
L 158.782776 255.72864 
z
" clip-path="url(#p62af18c327)" style="fill: #4c72b0; stroke: #4c72b0; stroke-width: 2; stroke-linejoin: miter"/>
   </g>
   <g id="patch_17">
    <path d="M 169.102732 256.32 
L 179.422687 256.32 
L 179.422687 255.91344 
L 169.102732 255.91344 
z
" clip-path="url(#p62af18c327)" style="fill: #4c72b0; stroke: #4c72b0; stroke-width: 2; stroke-linejoin: miter"/>
   </g>
   <g id="patch_18">
    <path d="M 179.422687 256.32 
L 189.742643 256.32 
L 189.742643 256.32 
L 179.422687 256.32 
z
" clip-path="url(#p62af18c327)" style="fill: #4c72b0; stroke: #4c72b0; stroke-width: 2; stroke-linejoin: miter"/>
   </g>
   <g id="patch_19">
    <path d="M 189.742643 256.32 
L 200.062599 256.32 
L 200.062599 256.24608 
L 189.742643 256.24608 
z
" clip-path="url(#p62af18c327)" style="fill: #4c72b0; stroke: #4c72b0; stroke-width: 2; stroke-linejoin: miter"/>
   </g>
   <g id="patch_20">
    <path d="M 200.062599 256.32 
L 210.382554 256.32 
L 210.382554 256.17216 
L 200.062599 256.17216 
z
" clip-path="url(#p62af18c327)" style="fill: #4c72b0; stroke: #4c72b0; stroke-width: 2; stroke-linejoin: miter"/>
   </g>
   <g id="patch_21">
    <path d="M 210.382554 256.32 
L 220.70251 256.32 
L 220.70251 256.32 
L 210.382554 256.32 
z
" clip-path="url(#p62af18c327)" style="fill: #4c72b0; stroke: #4c72b0; stroke-width: 2; stroke-linejoin: miter"/>
   </g>
   <g id="patch_22">
    <path d="M 220.70251 256.32 
L 231.022465 256.32 
L 231.022465 256.20912 
L 220.70251 256.20912 
z
" clip-path="url(#p62af18c327)" style="fill: #4c72b0; stroke: #4c72b0; stroke-width: 2; stroke-linejoin: miter"/>
   </g>
   <g id="patch_23">
    <path d="M 231.022465 256.32 
L 241.342421 256.32 
L 241.342421 256.28304 
L 231.022465 256.28304 
z
" clip-path="url(#p62af18c327)" style="fill: #4c72b0; stroke: #4c72b0; stroke-width: 2; stroke-linejoin: miter"/>
   </g>
   <g id="patch_24">
    <path d="M 241.342421 256.32 
L 251.662377 256.32 
L 251.662377 256.24608 
L 241.342421 256.24608 
z
" clip-path="url(#p62af18c327)" style="fill: #4c72b0; stroke: #4c72b0; stroke-width: 2; stroke-linejoin: miter"/>
   </g>
   <g id="patch_25">
    <path d="M 251.662377 256.32 
L 261.982332 256.32 
L 261.982332 256.28304 
L 251.662377 256.28304 
z
" clip-path="url(#p62af18c327)" style="fill: #4c72b0; stroke: #4c72b0; stroke-width: 2; stroke-linejoin: miter"/>
   </g>
   <g id="patch_26">
    <path d="M 261.982332 256.32 
L 272.302288 256.32 
L 272.302288 256.32 
L 261.982332 256.32 
z
" clip-path="url(#p62af18c327)" style="fill: #4c72b0; stroke: #4c72b0; stroke-width: 2; stroke-linejoin: miter"/>
   </g>
   <g id="patch_27">
    <path d="M 272.302288 256.32 
L 282.622244 256.32 
L 282.622244 256.32 
L 272.302288 256.32 
z
" clip-path="url(#p62af18c327)" style="fill: #4c72b0; stroke: #4c72b0; stroke-width: 2; stroke-linejoin: miter"/>
   </g>
   <g id="patch_28">
    <path d="M 282.622244 256.32 
L 292.942199 256.32 
L 292.942199 256.28304 
L 282.622244 256.28304 
z
" clip-path="url(#p62af18c327)" style="fill: #4c72b0; stroke: #4c72b0; stroke-width: 2; stroke-linejoin: miter"/>
   </g>
   <g id="patch_29">
    <path d="M 292.942199 256.32 
L 303.262155 256.32 
L 303.262155 256.28304 
L 292.942199 256.28304 
z
" clip-path="url(#p62af18c327)" style="fill: #4c72b0; stroke: #4c72b0; stroke-width: 2; stroke-linejoin: miter"/>
   </g>
   <g id="patch_30">
    <path d="M 303.262155 256.32 
L 313.58211 256.32 
L 313.58211 256.32 
L 303.262155 256.32 
z
" clip-path="url(#p62af18c327)" style="fill: #4c72b0; stroke: #4c72b0; stroke-width: 2; stroke-linejoin: miter"/>
   </g>
   <g id="patch_31">
    <path d="M 313.58211 256.32 
L 323.902066 256.32 
L 323.902066 256.32 
L 313.58211 256.32 
z
" clip-path="url(#p62af18c327)" style="fill: #4c72b0; stroke: #4c72b0; stroke-width: 2; stroke-linejoin: miter"/>
   </g>
   <g id="patch_32">
    <path d="M 323.902066 256.32 
L 334.222022 256.32 
L 334.222022 256.28304 
L 323.902066 256.28304 
z
" clip-path="url(#p62af18c327)" style="fill: #4c72b0; stroke: #4c72b0; stroke-width: 2; stroke-linejoin: miter"/>
   </g>
   <g id="patch_33">
    <path d="M 36 256.32 
L 36 34.56 
" style="fill: none; stroke: #262626; stroke-width: 2.5; stroke-linejoin: miter; stroke-linecap: square"/>
   </g>
   <g id="patch_34">
    <path d="M 36 256.32 
L 259.2 256.32 
" style="fill: none; stroke: #262626; stroke-width: 2.5; stroke-linejoin: miter; stroke-linecap: square"/>
   </g>
  </g>
 </g>
 <defs>
  <clipPath id="p62af18c327">
   <rect x="36" y="34.56" width="223.2" height="221.76"/>
  </clipPath>
 </defs>
</svg>
