<?xml version="1.0" encoding="utf-8" standalone="no"?>
<!DOCTYPE svg PUBLIC "-//W3C//DTD SVG 1.1//EN"
  "http://www.w3.org/Graphics/SVG/1.1/DTD/svg11.dtd">
<svg xmlns:xlink="http://www.w3.org/1999/xlink" width="288pt" height="288pt" viewBox="0 0 288 288" xmlns="http://www.w3.org/2000/svg" version="1.1">
 <metadata>
  <rdf:RDF xmlns:dc="http://purl.org/dc/elements/1.1/" xmlns:cc="http://creativecommons.org/ns#" xmlns:rdf="http://www.w3.org/1999/02/22-rdf-syntax-ns#">
   <cc:Work>
    <dc:type rdf:resource="http://purl.org/dc/dcmitype/StillImage"/>
    <dc:date>2023-11-05T12:36:32.484556</dc:date>
    <dc:format>image/svg+xml</dc:format>
    <dc:creator>
     <cc:Agent>
      <dc:title>Matplotlib v3.8.0, https://matplotlib.org/</dc:title>
     </cc:Agent>
    </dc:creator>
   </cc:Work>
  </rdf:RDF>
 </metadata>
 <defs>
  <style type="text/css">*{stroke-linejoin: round; stroke-linecap: butt}</style>
 </defs>
 <g id="figure_1">
  <g id="patch_1">
   <path d="M 0 288 
L 288 288 
L 288 0 
L 0 0 
z
" style="fill: #ffffff"/>
  </g>
  <g id="axes_1">
   <g id="patch_2">
    <path d="M 36 256.32 
L 259.2 256.32 
L 259.2 34.56 
L 36 34.56 
z
" style="fill: #ffffff"/>
   </g>
   <g id="matplotlib.axis_1">
    <g id="xtick_1">
     <g id="line2d_1">
      <defs>
       <path id="mad12148c15" d="M 0 0 
L 0 12 
" style="stroke: #262626; stroke-width: 2.5"/>
      </defs>
      <g>
       <use xlink:href="#mad12148c15" x="105.360641" y="256.32" style="fill: #262626; stroke: #262626; stroke-width: 2.5"/>
      </g>
     </g>
     <g id="text_1">
      <text style="fill: #262626; font: 22px 'Arial', 'DejaVu Sans', 'Liberation Sans', 'Bitstream Vera Sans', sans-serif; text-anchor: middle" x="105.360641" y="287.567187" transform="rotate(-0 105.360641 287.567187)">0.5</text>
     </g>
    </g>
    <g id="xtick_2">
     <g id="line2d_2">
      <g>
       <use xlink:href="#mad12148c15" x="195.791504" y="256.32" style="fill: #262626; stroke: #262626; stroke-width: 2.5"/>
      </g>
     </g>
     <g id="text_2">
      <text style="fill: #262626; font: 22px 'Arial', 'DejaVu Sans', 'Liberation Sans', 'Bitstream Vera Sans', sans-serif; text-anchor: middle" x="195.791504" y="287.567187" transform="rotate(-0 195.791504 287.567187)">1.0</text>
     </g>
    </g>
    <g id="text_3">
     <text style="fill: #262626; font: 24px 'Arial', 'DejaVu Sans', 'Liberation Sans', 'Bitstream Vera Sans', sans-serif; text-anchor: middle" x="147.6" y="313.118438" transform="rotate(-0 147.6 313.118438)">Exponent</text>
    </g>
   </g>
   <g id="matplotlib.axis_2">
    <g id="ytick_1">
     <g id="line2d_3">
      <defs>
       <path id="m4ae7f8c2e2" d="M 0 0 
L -12 0 
" style="stroke: #262626; stroke-width: 2.5"/>
      </defs>
      <g>
       <use xlink:href="#m4ae7f8c2e2" x="36" y="256.32" style="fill: #262626; stroke: #262626; stroke-width: 2.5"/>
      </g>
     </g>
     <g id="text_4">
      <text style="fill: #262626; font: 22px 'Arial', 'DejaVu Sans', 'Liberation Sans', 'Bitstream Vera Sans', sans-serif; text-anchor: end" x="20.5" y="264.193594" transform="rotate(-0 20.5 264.193594)">0</text>
     </g>
    </g>
    <g id="ytick_2">
     <g id="line2d_4">
      <g>
       <use xlink:href="#m4ae7f8c2e2" x="36" y="169.620493" style="fill: #262626; stroke: #262626; stroke-width: 2.5"/>
      </g>
     </g>
     <g id="text_5">
      <text style="fill: #262626; font: 22px 'Arial', 'DejaVu Sans', 'Liberation Sans', 'Bitstream Vera Sans', sans-serif; text-anchor: end" x="20.5" y="177.494086" transform="rotate(-0 20.5 177.494086)">500</text>
     </g>
    </g>
    <g id="ytick_3">
     <g id="line2d_5">
      <g>
       <use xlink:href="#m4ae7f8c2e2" x="36" y="82.920985" style="fill: #262626; stroke: #262626; stroke-width: 2.5"/>
      </g>
     </g>
     <g id="text_6">
      <text style="fill: #262626; font: 22px 'Arial', 'DejaVu Sans', 'Liberation Sans', 'Bitstream Vera Sans', sans-serif; text-anchor: end" x="20.5" y="90.794579" transform="rotate(-0 20.5 90.794579)">1000</text>
     </g>
    </g>
    <g id="text_7">
     <text style="fill: #262626; font: 24px 'Arial', 'DejaVu Sans', 'Liberation Sans', 'Bitstream Vera Sans', sans-serif; text-anchor: middle" x="-37.20625" y="145.44" transform="rotate(-90 -37.20625 145.44)">Count</text>
    </g>
   </g>
   <g id="patch_3">
    <path d="M 46.145455 256.32 
L 50.203636 256.32 
L 50.203636 256.146601 
L 46.145455 256.146601 
z
" clip-path="url(#pd380a1a43e)" style="fill: #4c72b0; stroke: #4c72b0; stroke-width: 2; stroke-linejoin: miter"/>
   </g>
   <g id="patch_4">
    <path d="M 50.203636 256.32 
L 54.261818 256.32 
L 54.261818 256.32 
L 50.203636 256.32 
z
" clip-path="url(#pd380a1a43e)" style="fill: #4c72b0; stroke: #4c72b0; stroke-width: 2; stroke-linejoin: miter"/>
   </g>
   <g id="patch_5">
    <path d="M 54.261818 256.32 
L 58.32 256.32 
L 58.32 256.32 
L 54.261818 256.32 
z
" clip-path="url(#pd380a1a43e)" style="fill: #4c72b0; stroke: #4c72b0; stroke-width: 2; stroke-linejoin: miter"/>
   </g>
   <g id="patch_6">
    <path d="M 58.32 256.32 
L 62.378182 256.32 
L 62.378182 256.146601 
L 58.32 256.146601 
z
" clip-path="url(#pd380a1a43e)" style="fill: #4c72b0; stroke: #4c72b0; stroke-width: 2; stroke-linejoin: miter"/>
   </g>
   <g id="patch_7">
    <path d="M 62.378182 256.32 
L 66.436364 256.32 
L 66.436364 256.32 
L 62.378182 256.32 
z
" clip-path="url(#pd380a1a43e)" style="fill: #4c72b0; stroke: #4c72b0; stroke-width: 2; stroke-linejoin: miter"/>
   </g>
   <g id="patch_8">
    <path d="M 66.436364 256.32 
L 70.494545 256.32 
L 70.494545 255.973202 
L 66.436364 255.973202 
z
" clip-path="url(#pd380a1a43e)" style="fill: #4c72b0; stroke: #4c72b0; stroke-width: 2; stroke-linejoin: miter"/>
   </g>
   <g id="patch_9">
    <path d="M 70.494545 256.32 
L 74.552727 256.32 
L 74.552727 256.146601 
L 70.494545 256.146601 
z
" clip-path="url(#pd380a1a43e)" style="fill: #4c72b0; stroke: #4c72b0; stroke-width: 2; stroke-linejoin: miter"/>
   </g>
   <g id="patch_10">
    <path d="M 74.552727 256.32 
L 78.610909 256.32 
L 78.610909 255.799803 
L 74.552727 255.799803 
z
" clip-path="url(#pd380a1a43e)" style="fill: #4c72b0; stroke: #4c72b0; stroke-width: 2; stroke-linejoin: miter"/>
   </g>
   <g id="patch_11">
    <path d="M 78.610909 256.32 
L 82.669091 256.32 
L 82.669091 256.146601 
L 78.610909 256.146601 
z
" clip-path="url(#pd380a1a43e)" style="fill: #4c72b0; stroke: #4c72b0; stroke-width: 2; stroke-linejoin: miter"/>
   </g>
   <g id="patch_12">
    <path d="M 82.669091 256.32 
L 86.727273 256.32 
L 86.727273 255.973202 
L 82.669091 255.973202 
z
" clip-path="url(#pd380a1a43e)" style="fill: #4c72b0; stroke: #4c72b0; stroke-width: 2; stroke-linejoin: miter"/>
   </g>
   <g id="patch_13">
    <path d="M 86.727273 256.32 
L 90.785455 256.32 
L 90.785455 255.799803 
L 86.727273 255.799803 
z
" clip-path="url(#pd380a1a43e)" style="fill: #4c72b0; stroke: #4c72b0; stroke-width: 2; stroke-linejoin: miter"/>
   </g>
   <g id="patch_14">
    <path d="M 90.785455 256.32 
L 94.843636 256.32 
L 94.843636 255.106207 
L 90.785455 255.106207 
z
" clip-path="url(#pd380a1a43e)" style="fill: #4c72b0; stroke: #4c72b0; stroke-width: 2; stroke-linejoin: miter"/>
   </g>
   <g id="patch_15">
    <path d="M 94.843636 256.32 
L 98.901818 256.32 
L 98.901818 254.58601 
L 94.843636 254.58601 
z
" clip-path="url(#pd380a1a43e)" style="fill: #4c72b0; stroke: #4c72b0; stroke-width: 2; stroke-linejoin: miter"/>
   </g>
   <g id="patch_16">
    <path d="M 98.901818 256.32 
L 102.96 256.32 
L 102.96 254.239212 
L 98.901818 254.239212 
z
" clip-path="url(#pd380a1a43e)" style="fill: #4c72b0; stroke: #4c72b0; stroke-width: 2; stroke-linejoin: miter"/>
   </g>
   <g id="patch_17">
    <path d="M 102.96 256.32 
L 107.018182 256.32 
L 107.018182 252.331823 
L 102.96 252.331823 
z
" clip-path="url(#pd380a1a43e)" style="fill: #4c72b0; stroke: #4c72b0; stroke-width: 2; stroke-linejoin: miter"/>
   </g>
   <g id="patch_18">
    <path d="M 107.018182 256.32 
L 111.076364 256.32 
L 111.076364 248.343645 
L 107.018182 248.343645 
z
" clip-path="url(#pd380a1a43e)" style="fill: #4c72b0; stroke: #4c72b0; stroke-width: 2; stroke-linejoin: miter"/>
   </g>
   <g id="patch_19">
    <path d="M 111.076364 256.32 
L 115.134545 256.32 
L 115.134545 244.528867 
L 111.076364 244.528867 
z
" clip-path="url(#pd380a1a43e)" style="fill: #4c72b0; stroke: #4c72b0; stroke-width: 2; stroke-linejoin: miter"/>
   </g>
   <g id="patch_20">
    <path d="M 115.134545 256.32 
L 119.192727 256.32 
L 119.192727 242.621478 
L 115.134545 242.621478 
z
" clip-path="url(#pd380a1a43e)" style="fill: #4c72b0; stroke: #4c72b0; stroke-width: 2; stroke-linejoin: miter"/>
   </g>
   <g id="patch_21">
    <path d="M 119.192727 256.32 
L 123.250909 256.32 
L 123.250909 233.604729 
L 119.192727 233.604729 
z
" clip-path="url(#pd380a1a43e)" style="fill: #4c72b0; stroke: #4c72b0; stroke-width: 2; stroke-linejoin: miter"/>
   </g>
   <g id="patch_22">
    <path d="M 123.250909 256.32 
L 127.309091 256.32 
L 127.309091 220.773202 
L 123.250909 220.773202 
z
" clip-path="url(#pd380a1a43e)" style="fill: #4c72b0; stroke: #4c72b0; stroke-width: 2; stroke-linejoin: miter"/>
   </g>
   <g id="patch_23">
    <path d="M 127.309091 256.32 
L 131.367273 256.32 
L 131.367273 210.195862 
L 127.309091 210.195862 
z
" clip-path="url(#pd380a1a43e)" style="fill: #4c72b0; stroke: #4c72b0; stroke-width: 2; stroke-linejoin: miter"/>
   </g>
   <g id="patch_24">
    <path d="M 131.367273 256.32 
L 135.425455 256.32 
L 135.425455 197.190936 
L 131.367273 197.190936 
z
" clip-path="url(#pd380a1a43e)" style="fill: #4c72b0; stroke: #4c72b0; stroke-width: 2; stroke-linejoin: miter"/>
   </g>
   <g id="patch_25">
    <path d="M 135.425455 256.32 
L 139.483636 256.32 
L 139.483636 184.012611 
L 135.425455 184.012611 
z
" clip-path="url(#pd380a1a43e)" style="fill: #4c72b0; stroke: #4c72b0; stroke-width: 2; stroke-linejoin: miter"/>
   </g>
   <g id="patch_26">
    <path d="M 139.483636 256.32 
L 143.541818 256.32 
L 143.541818 164.938719 
L 139.483636 164.938719 
z
" clip-path="url(#pd380a1a43e)" style="fill: #4c72b0; stroke: #4c72b0; stroke-width: 2; stroke-linejoin: miter"/>
   </g>
   <g id="patch_27">
    <path d="M 143.541818 256.32 
L 147.6 256.32 
L 147.6 139.795862 
L 143.541818 139.795862 
z
" clip-path="url(#pd380a1a43e)" style="fill: #4c72b0; stroke: #4c72b0; stroke-width: 2; stroke-linejoin: miter"/>
   </g>
   <g id="patch_28">
    <path d="M 147.6 256.32 
L 151.658182 256.32 
L 151.658182 122.802759 
L 147.6 122.802759 
z
" clip-path="url(#pd380a1a43e)" style="fill: #4c72b0; stroke: #4c72b0; stroke-width: 2; stroke-linejoin: miter"/>
   </g>
   <g id="patch_29">
    <path d="M 151.658182 256.32 
L 155.716364 256.32 
L 155.716364 108.063842 
L 151.658182 108.063842 
z
" clip-path="url(#pd380a1a43e)" style="fill: #4c72b0; stroke: #4c72b0; stroke-width: 2; stroke-linejoin: miter"/>
   </g>
   <g id="patch_30">
    <path d="M 155.716364 256.32 
L 159.774545 256.32 
L 159.774545 97.313103 
L 155.716364 97.313103 
z
" clip-path="url(#pd380a1a43e)" style="fill: #4c72b0; stroke: #4c72b0; stroke-width: 2; stroke-linejoin: miter"/>
   </g>
   <g id="patch_31">
    <path d="M 159.774545 256.32 
L 163.832727 256.32 
L 163.832727 89.510148 
L 159.774545 89.510148 
z
" clip-path="url(#pd380a1a43e)" style="fill: #4c72b0; stroke: #4c72b0; stroke-width: 2; stroke-linejoin: miter"/>
   </g>
   <g id="patch_32">
    <path d="M 163.832727 256.32 
L 167.890909 256.32 
L 167.890909 86.215567 
L 163.832727 86.215567 
z
" clip-path="url(#pd380a1a43e)" style="fill: #4c72b0; stroke: #4c72b0; stroke-width: 2; stroke-linejoin: miter"/>
   </g>
   <g id="patch_33">
    <path d="M 167.890909 256.32 
L 171.949091 256.32 
L 171.949091 70.956453 
L 167.890909 70.956453 
z
" clip-path="url(#pd380a1a43e)" style="fill: #4c72b0; stroke: #4c72b0; stroke-width: 2; stroke-linejoin: miter"/>
   </g>
   <g id="patch_34">
    <path d="M 171.949091 256.32 
L 176.007273 256.32 
L 176.007273 54.830345 
L 171.949091 54.830345 
z
" clip-path="url(#pd380a1a43e)" style="fill: #4c72b0; stroke: #4c72b0; stroke-width: 2; stroke-linejoin: miter"/>
   </g>
   <g id="patch_35">
    <path d="M 176.007273 256.32 
L 180.065455 256.32 
L 180.065455 45.12 
L 176.007273 45.12 
z
" clip-path="url(#pd380a1a43e)" style="fill: #4c72b0; stroke: #4c72b0; stroke-width: 2; stroke-linejoin: miter"/>
   </g>
   <g id="patch_36">
    <path d="M 180.065455 256.32 
L 184.123636 256.32 
L 184.123636 66.27468 
L 180.065455 66.27468 
z
" clip-path="url(#pd380a1a43e)" style="fill: #4c72b0; stroke: #4c72b0; stroke-width: 2; stroke-linejoin: miter"/>
   </g>
   <g id="patch_37">
    <path d="M 184.123636 256.32 
L 188.181818 256.32 
L 188.181818 81.013596 
L 184.123636 81.013596 
z
" clip-path="url(#pd380a1a43e)" style="fill: #4c72b0; stroke: #4c72b0; stroke-width: 2; stroke-linejoin: miter"/>
   </g>
   <g id="patch_38">
    <path d="M 188.181818 256.32 
L 192.24 256.32 
L 192.24 86.735764 
L 188.181818 86.735764 
z
" clip-path="url(#pd380a1a43e)" style="fill: #4c72b0; stroke: #4c72b0; stroke-width: 2; stroke-linejoin: miter"/>
   </g>
   <g id="patch_39">
    <path d="M 192.24 256.32 
L 196.298182 256.32 
L 196.298182 95.752512 
L 192.24 95.752512 
z
" clip-path="url(#pd380a1a43e)" style="fill: #4c72b0; stroke: #4c72b0; stroke-width: 2; stroke-linejoin: miter"/>
   </g>
   <g id="patch_40">
    <path d="M 196.298182 256.32 
L 200.356364 256.32 
L 200.356364 121.415567 
L 196.298182 121.415567 
z
" clip-path="url(#pd380a1a43e)" style="fill: #4c72b0; stroke: #4c72b0; stroke-width: 2; stroke-linejoin: miter"/>
   </g>
   <g id="patch_41">
    <path d="M 200.356364 256.32 
L 204.414545 256.32 
L 204.414545 130.085517 
L 200.356364 130.085517 
z
" clip-path="url(#pd380a1a43e)" style="fill: #4c72b0; stroke: #4c72b0; stroke-width: 2; stroke-linejoin: miter"/>
   </g>
   <g id="patch_42">
    <path d="M 204.414545 256.32 
L 208.472727 256.32 
L 208.472727 154.361379 
L 204.414545 154.361379 
z
" clip-path="url(#pd380a1a43e)" style="fill: #4c72b0; stroke: #4c72b0; stroke-width: 2; stroke-linejoin: miter"/>
   </g>
   <g id="patch_43">
    <path d="M 208.472727 256.32 
L 212.530909 256.32 
L 212.530909 170.14069 
L 208.472727 170.14069 
z
" clip-path="url(#pd380a1a43e)" style="fill: #4c72b0; stroke: #4c72b0; stroke-width: 2; stroke-linejoin: miter"/>
   </g>
   <g id="patch_44">
    <path d="M 212.530909 256.32 
L 216.589091 256.32 
L 216.589091 191.815567 
L 212.530909 191.815567 
z
" clip-path="url(#pd380a1a43e)" style="fill: #4c72b0; stroke: #4c72b0; stroke-width: 2; stroke-linejoin: miter"/>
   </g>
   <g id="patch_45">
    <path d="M 216.589091 256.32 
L 220.647273 256.32 
L 220.647273 198.751527 
L 216.589091 198.751527 
z
" clip-path="url(#pd380a1a43e)" style="fill: #4c72b0; stroke: #4c72b0; stroke-width: 2; stroke-linejoin: miter"/>
   </g>
   <g id="patch_46">
    <path d="M 220.647273 256.32 
L 224.705455 256.32 
L 224.705455 218.519015 
L 220.647273 218.519015 
z
" clip-path="url(#pd380a1a43e)" style="fill: #4c72b0; stroke: #4c72b0; stroke-width: 2; stroke-linejoin: miter"/>
   </g>
   <g id="patch_47">
    <path d="M 224.705455 256.32 
L 228.763636 256.32 
L 228.763636 232.217537 
L 224.705455 232.217537 
z
" clip-path="url(#pd380a1a43e)" style="fill: #4c72b0; stroke: #4c72b0; stroke-width: 2; stroke-linejoin: miter"/>
   </g>
   <g id="patch_48">
    <path d="M 228.763636 256.32 
L 232.821818 256.32 
L 232.821818 238.6333 
L 228.763636 238.6333 
z
" clip-path="url(#pd380a1a43e)" style="fill: #4c72b0; stroke: #4c72b0; stroke-width: 2; stroke-linejoin: miter"/>
   </g>
   <g id="patch_49">
    <path d="M 232.821818 256.32 
L 236.88 256.32 
L 236.88 249.904236 
L 232.821818 249.904236 
z
" clip-path="url(#pd380a1a43e)" style="fill: #4c72b0; stroke: #4c72b0; stroke-width: 2; stroke-linejoin: miter"/>
   </g>
   <g id="patch_50">
    <path d="M 236.88 256.32 
L 240.938182 256.32 
L 240.938182 253.545616 
L 236.88 253.545616 
z
" clip-path="url(#pd380a1a43e)" style="fill: #4c72b0; stroke: #4c72b0; stroke-width: 2; stroke-linejoin: miter"/>
   </g>
   <g id="patch_51">
    <path d="M 240.938182 256.32 
L 244.996364 256.32 
L 244.996364 254.932808 
L 240.938182 254.932808 
z
" clip-path="url(#pd380a1a43e)" style="fill: #4c72b0; stroke: #4c72b0; stroke-width: 2; stroke-linejoin: miter"/>
   </g>
   <g id="patch_52">
    <path d="M 244.996364 256.32 
L 249.054545 256.32 
L 249.054545 255.799803 
L 244.996364 255.799803 
z
" clip-path="url(#pd380a1a43e)" style="fill: #4c72b0; stroke: #4c72b0; stroke-width: 2; stroke-linejoin: miter"/>
   </g>
   <g id="patch_53">
    <path d="M 36 256.32 
L 36 34.56 
" style="fill: none; stroke: #262626; stroke-width: 2.5; stroke-linejoin: miter; stroke-linecap: square"/>
   </g>
   <g id="patch_54">
    <path d="M 36 256.32 
L 259.2 256.32 
" style="fill: none; stroke: #262626; stroke-width: 2.5; stroke-linejoin: miter; stroke-linecap: square"/>
   </g>
  </g>
 </g>
 <defs>
  <clipPath id="pd380a1a43e">
   <rect x="36" y="34.56" width="223.2" height="221.76"/>
  </clipPath>
 </defs>
</svg>
