<?xml version="1.0" encoding="utf-8" standalone="no"?>
<!DOCTYPE svg PUBLIC "-//W3C//DTD SVG 1.1//EN"
  "http://www.w3.org/Graphics/SVG/1.1/DTD/svg11.dtd">
<svg xmlns:xlink="http://www.w3.org/1999/xlink" width="864pt" height="288pt" viewBox="0 0 864 288" xmlns="http://www.w3.org/2000/svg" version="1.1">
 <metadata>
  <rdf:RDF xmlns:dc="http://purl.org/dc/elements/1.1/" xmlns:cc="http://creativecommons.org/ns#" xmlns:rdf="http://www.w3.org/1999/02/22-rdf-syntax-ns#">
   <cc:Work>
    <dc:type rdf:resource="http://purl.org/dc/dcmitype/StillImage"/>
    <dc:date>2023-11-20T15:22:01.633952</dc:date>
    <dc:format>image/svg+xml</dc:format>
    <dc:creator>
     <cc:Agent>
      <dc:title>Matplotlib v3.8.0, https://matplotlib.org/</dc:title>
     </cc:Agent>
    </dc:creator>
   </cc:Work>
  </rdf:RDF>
 </metadata>
 <defs>
  <style type="text/css">*{stroke-linejoin: round; stroke-linecap: butt}</style>
 </defs>
 <g id="figure_1">
  <g id="patch_1">
   <path d="M 0 288 
L 864 288 
L 864 0 
L 0 0 
z
" style="fill: #ffffff"/>
  </g>
  <g id="axes_1">
   <g id="patch_2">
    <path d="M 108 256.32 
L 777.6 256.32 
L 777.6 34.56 
L 108 34.56 
z
" style="fill: #ffffff"/>
   </g>
   <g id="patch_3">
    <path d="M 122.814159 256.32 
L 170.219469 256.32 
L 170.219469 256.32 
L 122.814159 256.32 
z
" clip-path="url(#p8c4dd81bf4)" style="fill: #55a868"/>
   </g>
   <g id="patch_4">
    <path d="M 182.070796 256.32 
L 229.476106 256.32 
L 229.476106 256.32 
L 182.070796 256.32 
z
" clip-path="url(#p8c4dd81bf4)" style="fill: #55a868"/>
   </g>
   <g id="patch_5">
    <path d="M 241.327434 256.32 
L 288.732743 256.32 
L 288.732743 256.32 
L 241.327434 256.32 
z
" clip-path="url(#p8c4dd81bf4)" style="fill: #55a868"/>
   </g>
   <g id="patch_6">
    <path d="M 300.584071 256.32 
L 347.989381 256.32 
L 347.989381 256.32 
L 300.584071 256.32 
z
" clip-path="url(#p8c4dd81bf4)" style="fill: #55a868"/>
   </g>
   <g id="patch_7">
    <path d="M 359.840708 256.32 
L 407.246018 256.32 
L 407.246018 256.32 
L 359.840708 256.32 
z
" clip-path="url(#p8c4dd81bf4)" style="fill: #55a868"/>
   </g>
   <g id="patch_8">
    <path d="M 419.097345 256.32 
L 466.502655 256.32 
L 466.502655 256.32 
L 419.097345 256.32 
z
" clip-path="url(#p8c4dd81bf4)" style="fill: #55a868"/>
   </g>
   <g id="patch_9">
    <path d="M 478.353982 256.32 
L 525.759292 256.32 
L 525.759292 256.32 
L 478.353982 256.32 
z
" clip-path="url(#p8c4dd81bf4)" style="fill: #55a868"/>
   </g>
   <g id="patch_10">
    <path d="M 537.610619 256.32 
L 585.015929 256.32 
L 585.015929 256.32 
L 537.610619 256.32 
z
" clip-path="url(#p8c4dd81bf4)" style="fill: #55a868"/>
   </g>
   <g id="patch_11">
    <path d="M 596.867257 256.32 
L 644.272566 256.32 
L 644.272566 256.32 
L 596.867257 256.32 
z
" clip-path="url(#p8c4dd81bf4)" style="fill: #55a868"/>
   </g>
   <g id="patch_12">
    <path d="M 656.123894 256.32 
L 703.529204 256.32 
L 703.529204 256.32 
L 656.123894 256.32 
z
" clip-path="url(#p8c4dd81bf4)" style="fill: #55a868"/>
   </g>
   <g id="patch_13">
    <path d="M 715.380531 256.32 
L 762.785841 256.32 
L 762.785841 256.32 
L 715.380531 256.32 
z
" clip-path="url(#p8c4dd81bf4)" style="fill: #55a868"/>
   </g>
   <g id="patch_14">
    <path d="M 122.814159 256.32 
L 170.219469 256.32 
L 170.219469 221.12 
L 122.814159 221.12 
z
" clip-path="url(#p8c4dd81bf4)" style="fill: #a1c9f4"/>
   </g>
   <g id="patch_15">
    <path d="M 182.070796 256.32 
L 229.476106 256.32 
L 229.476106 188.627692 
L 182.070796 188.627692 
z
" clip-path="url(#p8c4dd81bf4)" style="fill: #a1c9f4"/>
   </g>
   <g id="patch_16">
    <path d="M 241.327434 256.32 
L 288.732743 256.32 
L 288.732743 256.32 
L 241.327434 256.32 
z
" clip-path="url(#p8c4dd81bf4)" style="fill: #a1c9f4"/>
   </g>
   <g id="patch_17">
    <path d="M 300.584071 256.32 
L 347.989381 256.32 
L 347.989381 248.196923 
L 300.584071 248.196923 
z
" clip-path="url(#p8c4dd81bf4)" style="fill: #a1c9f4"/>
   </g>
   <g id="patch_18">
    <path d="M 359.840708 256.32 
L 407.246018 256.32 
L 407.246018 196.750769 
L 359.840708 196.750769 
z
" clip-path="url(#p8c4dd81bf4)" style="fill: #a1c9f4"/>
   </g>
   <g id="patch_19">
    <path d="M 419.097345 256.32 
L 466.502655 256.32 
L 466.502655 256.32 
L 419.097345 256.32 
z
" clip-path="url(#p8c4dd81bf4)" style="fill: #a1c9f4"/>
   </g>
   <g id="patch_20">
    <path d="M 478.353982 256.32 
L 525.759292 256.32 
L 525.759292 240.073846 
L 478.353982 240.073846 
z
" clip-path="url(#p8c4dd81bf4)" style="fill: #a1c9f4"/>
   </g>
   <g id="patch_21">
    <path d="M 537.610619 256.32 
L 585.015929 256.32 
L 585.015929 245.489231 
L 537.610619 245.489231 
z
" clip-path="url(#p8c4dd81bf4)" style="fill: #a1c9f4"/>
   </g>
   <g id="patch_22">
    <path d="M 596.867257 256.32 
L 644.272566 256.32 
L 644.272566 240.073846 
L 596.867257 240.073846 
z
" clip-path="url(#p8c4dd81bf4)" style="fill: #a1c9f4"/>
   </g>
   <g id="patch_23">
    <path d="M 656.123894 256.32 
L 703.529204 256.32 
L 703.529204 256.32 
L 656.123894 256.32 
z
" clip-path="url(#p8c4dd81bf4)" style="fill: #a1c9f4"/>
   </g>
   <g id="patch_24">
    <path d="M 715.380531 256.32 
L 762.785841 256.32 
L 762.785841 245.489231 
L 715.380531 245.489231 
z
" clip-path="url(#p8c4dd81bf4)" style="fill: #a1c9f4"/>
   </g>
   <g id="patch_25">
    <path d="M 122.814159 221.12 
L 170.219469 221.12 
L 170.219469 185.92 
L 122.814159 185.92 
z
" clip-path="url(#p8c4dd81bf4)" style="fill: #4c72b0"/>
   </g>
   <g id="patch_26">
    <path d="M 182.070796 188.627692 
L 229.476106 188.627692 
L 229.476106 131.766154 
L 182.070796 131.766154 
z
" clip-path="url(#p8c4dd81bf4)" style="fill: #4c72b0"/>
   </g>
   <g id="patch_27">
    <path d="M 241.327434 256.32 
L 288.732743 256.32 
L 288.732743 256.32 
L 241.327434 256.32 
z
" clip-path="url(#p8c4dd81bf4)" style="fill: #4c72b0"/>
   </g>
   <g id="patch_28">
    <path d="M 300.584071 256.32 
L 347.989381 256.32 
L 347.989381 256.32 
L 300.584071 256.32 
z
" clip-path="url(#p8c4dd81bf4)" style="fill: #4c72b0"/>
   </g>
   <g id="patch_29">
    <path d="M 359.840708 256.32 
L 407.246018 256.32 
L 407.246018 256.32 
L 359.840708 256.32 
z
" clip-path="url(#p8c4dd81bf4)" style="fill: #4c72b0"/>
   </g>
   <g id="patch_30">
    <path d="M 419.097345 256.32 
L 466.502655 256.32 
L 466.502655 256.32 
L 419.097345 256.32 
z
" clip-path="url(#p8c4dd81bf4)" style="fill: #4c72b0"/>
   </g>
   <g id="patch_31">
    <path d="M 478.353982 240.073846 
L 525.759292 240.073846 
L 525.759292 234.658462 
L 478.353982 234.658462 
z
" clip-path="url(#p8c4dd81bf4)" style="fill: #4c72b0"/>
   </g>
   <g id="patch_32">
    <path d="M 537.610619 245.489231 
L 585.015929 245.489231 
L 585.015929 240.073846 
L 537.610619 240.073846 
z
" clip-path="url(#p8c4dd81bf4)" style="fill: #4c72b0"/>
   </g>
   <g id="patch_33">
    <path d="M 596.867257 256.32 
L 644.272566 256.32 
L 644.272566 256.32 
L 596.867257 256.32 
z
" clip-path="url(#p8c4dd81bf4)" style="fill: #4c72b0"/>
   </g>
   <g id="patch_34">
    <path d="M 656.123894 256.32 
L 703.529204 256.32 
L 703.529204 256.32 
L 656.123894 256.32 
z
" clip-path="url(#p8c4dd81bf4)" style="fill: #4c72b0"/>
   </g>
   <g id="patch_35">
    <path d="M 715.380531 256.32 
L 762.785841 256.32 
L 762.785841 256.32 
L 715.380531 256.32 
z
" clip-path="url(#p8c4dd81bf4)" style="fill: #4c72b0"/>
   </g>
   <g id="patch_36">
    <path d="M 122.814159 185.92 
L 170.219469 185.92 
L 170.219469 180.504615 
L 122.814159 180.504615 
z
" clip-path="url(#p8c4dd81bf4)" style="fill: #ff9f9b"/>
   </g>
   <g id="patch_37">
    <path d="M 182.070796 256.32 
L 229.476106 256.32 
L 229.476106 256.32 
L 182.070796 256.32 
z
" clip-path="url(#p8c4dd81bf4)" style="fill: #ff9f9b"/>
   </g>
   <g id="patch_38">
    <path d="M 241.327434 256.32 
L 288.732743 256.32 
L 288.732743 158.843077 
L 241.327434 158.843077 
z
" clip-path="url(#p8c4dd81bf4)" style="fill: #ff9f9b"/>
   </g>
   <g id="patch_39">
    <path d="M 300.584071 256.32 
L 347.989381 256.32 
L 347.989381 256.32 
L 300.584071 256.32 
z
" clip-path="url(#p8c4dd81bf4)" style="fill: #ff9f9b"/>
   </g>
   <g id="patch_40">
    <path d="M 359.840708 196.750769 
L 407.246018 196.750769 
L 407.246018 194.043077 
L 359.840708 194.043077 
z
" clip-path="url(#p8c4dd81bf4)" style="fill: #ff9f9b"/>
   </g>
   <g id="patch_41">
    <path d="M 419.097345 256.32 
L 466.502655 256.32 
L 466.502655 223.827692 
L 419.097345 223.827692 
z
" clip-path="url(#p8c4dd81bf4)" style="fill: #ff9f9b"/>
   </g>
   <g id="patch_42">
    <path d="M 478.353982 234.658462 
L 525.759292 234.658462 
L 525.759292 194.043077 
L 478.353982 194.043077 
z
" clip-path="url(#p8c4dd81bf4)" style="fill: #ff9f9b"/>
   </g>
   <g id="patch_43">
    <path d="M 537.610619 240.073846 
L 585.015929 240.073846 
L 585.015929 215.704615 
L 537.610619 215.704615 
z
" clip-path="url(#p8c4dd81bf4)" style="fill: #ff9f9b"/>
   </g>
   <g id="patch_44">
    <path d="M 596.867257 240.073846 
L 644.272566 240.073846 
L 644.272566 129.058462 
L 596.867257 129.058462 
z
" clip-path="url(#p8c4dd81bf4)" style="fill: #ff9f9b"/>
   </g>
   <g id="patch_45">
    <path d="M 656.123894 256.32 
L 703.529204 256.32 
L 703.529204 64.073846 
L 656.123894 64.073846 
z
" clip-path="url(#p8c4dd81bf4)" style="fill: #ff9f9b"/>
   </g>
   <g id="patch_46">
    <path d="M 715.380531 256.32 
L 762.785841 256.32 
L 762.785841 256.32 
L 715.380531 256.32 
z
" clip-path="url(#p8c4dd81bf4)" style="fill: #ff9f9b"/>
   </g>
   <g id="patch_47">
    <path d="M 122.814159 180.504615 
L 170.219469 180.504615 
L 170.219469 177.796923 
L 122.814159 177.796923 
z
" clip-path="url(#p8c4dd81bf4)" style="fill: #c44e52"/>
   </g>
   <g id="patch_48">
    <path d="M 182.070796 256.32 
L 229.476106 256.32 
L 229.476106 256.32 
L 182.070796 256.32 
z
" clip-path="url(#p8c4dd81bf4)" style="fill: #c44e52"/>
   </g>
   <g id="patch_49">
    <path d="M 241.327434 158.843077 
L 288.732743 158.843077 
L 288.732743 142.596923 
L 241.327434 142.596923 
z
" clip-path="url(#p8c4dd81bf4)" style="fill: #c44e52"/>
   </g>
   <g id="patch_50">
    <path d="M 300.584071 256.32 
L 347.989381 256.32 
L 347.989381 256.32 
L 300.584071 256.32 
z
" clip-path="url(#p8c4dd81bf4)" style="fill: #c44e52"/>
   </g>
   <g id="patch_51">
    <path d="M 359.840708 256.32 
L 407.246018 256.32 
L 407.246018 256.32 
L 359.840708 256.32 
z
" clip-path="url(#p8c4dd81bf4)" style="fill: #c44e52"/>
   </g>
   <g id="patch_52">
    <path d="M 419.097345 223.827692 
L 466.502655 223.827692 
L 466.502655 215.704615 
L 419.097345 215.704615 
z
" clip-path="url(#p8c4dd81bf4)" style="fill: #c44e52"/>
   </g>
   <g id="patch_53">
    <path d="M 478.353982 256.32 
L 525.759292 256.32 
L 525.759292 256.32 
L 478.353982 256.32 
z
" clip-path="url(#p8c4dd81bf4)" style="fill: #c44e52"/>
   </g>
   <g id="patch_54">
    <path d="M 537.610619 215.704615 
L 585.015929 215.704615 
L 585.015929 212.996923 
L 537.610619 212.996923 
z
" clip-path="url(#p8c4dd81bf4)" style="fill: #c44e52"/>
   </g>
   <g id="patch_55">
    <path d="M 596.867257 129.058462 
L 644.272566 129.058462 
L 644.272566 112.812308 
L 596.867257 112.812308 
z
" clip-path="url(#p8c4dd81bf4)" style="fill: #c44e52"/>
   </g>
   <g id="patch_56">
    <path d="M 656.123894 64.073846 
L 703.529204 64.073846 
L 703.529204 45.12 
L 656.123894 45.12 
z
" clip-path="url(#p8c4dd81bf4)" style="fill: #c44e52"/>
   </g>
   <g id="patch_57">
    <path d="M 715.380531 256.32 
L 762.785841 256.32 
L 762.785841 256.32 
L 715.380531 256.32 
z
" clip-path="url(#p8c4dd81bf4)" style="fill: #c44e52"/>
   </g>
   <g id="matplotlib.axis_1">
    <g id="xtick_1">
     <g id="line2d_1">
      <defs>
       <path id="medad5dc099" d="M 0 0 
L 0 12 
" style="stroke: #000000; stroke-width: 2.5"/>
      </defs>
      <g>
       <use xlink:href="#medad5dc099" x="146.516814" y="256.32" style="stroke: #000000; stroke-width: 2.5"/>
      </g>
     </g>
     <g id="text_1">
      <text style="font: 22px 'DejaVu Sans', 'Bitstream Vera Sans', 'Computer Modern Sans Serif', 'Lucida Grande', 'Verdana', 'Geneva', 'Lucid', 'Arial', 'Helvetica', 'Avant Garde', sans-serif" transform="translate(152.587439 378.843125) rotate(-90)">Theta (cf)</text>
     </g>
    </g>
    <g id="xtick_2">
     <g id="line2d_2">
      <g>
       <use xlink:href="#medad5dc099" x="205.773451" y="256.32" style="stroke: #000000; stroke-width: 2.5"/>
      </g>
     </g>
     <g id="text_2">
      <text style="font: 22px 'DejaVu Sans', 'Bitstream Vera Sans', 'Computer Modern Sans Serif', 'Lucida Grande', 'Verdana', 'Geneva', 'Lucid', 'Arial', 'Helvetica', 'Avant Garde', sans-serif" transform="translate(211.844076 390.960312) rotate(-90)">Theta (pw)</text>
     </g>
    </g>
    <g id="xtick_3">
     <g id="line2d_3">
      <g>
       <use xlink:href="#medad5dc099" x="265.030088" y="256.32" style="stroke: #000000; stroke-width: 2.5"/>
      </g>
     </g>
     <g id="text_3">
      <text style="font: 22px 'DejaVu Sans', 'Bitstream Vera Sans', 'Computer Modern Sans Serif', 'Lucida Grande', 'Verdana', 'Geneva', 'Lucid', 'Arial', 'Helvetica', 'Avant Garde', sans-serif" transform="translate(271.100713 378.372187) rotate(-90)">Alpha (cf)</text>
     </g>
    </g>
    <g id="xtick_4">
     <g id="line2d_4">
      <g>
       <use xlink:href="#medad5dc099" x="324.286726" y="256.32" style="stroke: #000000; stroke-width: 2.5"/>
      </g>
     </g>
     <g id="text_4">
      <text style="font: 22px 'DejaVu Sans', 'Bitstream Vera Sans', 'Computer Modern Sans Serif', 'Lucida Grande', 'Verdana', 'Geneva', 'Lucid', 'Arial', 'Helvetica', 'Avant Garde', sans-serif" transform="translate(330.357351 390.489375) rotate(-90)">Alpha (pw)</text>
     </g>
    </g>
    <g id="xtick_5">
     <g id="line2d_5">
      <g>
       <use xlink:href="#medad5dc099" x="383.543363" y="256.32" style="stroke: #000000; stroke-width: 2.5"/>
      </g>
     </g>
     <g id="text_5">
      <text style="font: 22px 'DejaVu Sans', 'Bitstream Vera Sans', 'Computer Modern Sans Serif', 'Lucida Grande', 'Verdana', 'Geneva', 'Lucid', 'Arial', 'Helvetica', 'Avant Garde', sans-serif" transform="translate(389.613988 366.5575) rotate(-90)">Beta (cf)</text>
     </g>
    </g>
    <g id="xtick_6">
     <g id="line2d_6">
      <g>
       <use xlink:href="#medad5dc099" x="442.8" y="256.32" style="stroke: #000000; stroke-width: 2.5"/>
      </g>
     </g>
     <g id="text_6">
      <text style="font: 22px 'DejaVu Sans', 'Bitstream Vera Sans', 'Computer Modern Sans Serif', 'Lucida Grande', 'Verdana', 'Geneva', 'Lucid', 'Arial', 'Helvetica', 'Avant Garde', sans-serif" transform="translate(448.870625 378.674688) rotate(-90)">Beta (pw)</text>
     </g>
    </g>
    <g id="xtick_7">
     <g id="line2d_7">
      <g>
       <use xlink:href="#medad5dc099" x="502.056637" y="256.32" style="stroke: #000000; stroke-width: 2.5"/>
      </g>
     </g>
     <g id="text_7">
      <text style="font: 22px 'DejaVu Sans', 'Bitstream Vera Sans', 'Computer Modern Sans Serif', 'Lucida Grande', 'Verdana', 'Geneva', 'Lucid', 'Arial', 'Helvetica', 'Avant Garde', sans-serif" transform="translate(508.127262 402.689063) rotate(-90)">Gamma (cf)</text>
     </g>
    </g>
    <g id="xtick_8">
     <g id="line2d_8">
      <g>
       <use xlink:href="#medad5dc099" x="561.313274" y="256.32" style="stroke: #000000; stroke-width: 2.5"/>
      </g>
     </g>
     <g id="text_8">
      <text style="font: 22px 'DejaVu Sans', 'Bitstream Vera Sans', 'Computer Modern Sans Serif', 'Lucida Grande', 'Verdana', 'Geneva', 'Lucid', 'Arial', 'Helvetica', 'Avant Garde', sans-serif" transform="translate(567.383899 414.80625) rotate(-90)">Gamma (pw)</text>
     </g>
    </g>
    <g id="xtick_9">
     <g id="line2d_9">
      <g>
       <use xlink:href="#medad5dc099" x="620.569912" y="256.32" style="stroke: #000000; stroke-width: 2.5"/>
      </g>
     </g>
     <g id="text_9">
      <text style="font: 22px 'DejaVu Sans', 'Bitstream Vera Sans', 'Computer Modern Sans Serif', 'Lucida Grande', 'Verdana', 'Geneva', 'Lucid', 'Arial', 'Helvetica', 'Avant Garde', sans-serif" transform="translate(626.640537 353.941875) rotate(-90)">#Peaks</text>
     </g>
    </g>
    <g id="xtick_10">
     <g id="line2d_10">
      <g>
       <use xlink:href="#medad5dc099" x="679.826549" y="256.32" style="stroke: #000000; stroke-width: 2.5"/>
      </g>
     </g>
     <g id="text_10">
      <text style="font: 22px 'DejaVu Sans', 'Bitstream Vera Sans', 'Computer Modern Sans Serif', 'Lucida Grande', 'Verdana', 'Geneva', 'Lucid', 'Arial', 'Helvetica', 'Avant Garde', sans-serif" transform="translate(685.897174 376.216875) rotate(-90)">Exponent</text>
     </g>
    </g>
    <g id="xtick_11">
     <g id="line2d_11">
      <g>
       <use xlink:href="#medad5dc099" x="739.083186" y="256.32" style="stroke: #000000; stroke-width: 2.5"/>
      </g>
     </g>
     <g id="text_11">
      <text style="font: 22px 'DejaVu Sans', 'Bitstream Vera Sans', 'Computer Modern Sans Serif', 'Lucida Grande', 'Verdana', 'Geneva', 'Lucid', 'Arial', 'Helvetica', 'Avant Garde', sans-serif" transform="translate(745.153811 338.249687) rotate(-90)">Offset</text>
     </g>
    </g>
   </g>
   <g id="matplotlib.axis_2">
    <g id="ytick_1">
     <g id="line2d_12">
      <defs>
       <path id="maad229c043" d="M 0 0 
L -12 0 
" style="stroke: #000000; stroke-width: 2.5"/>
      </defs>
      <g>
       <use xlink:href="#maad229c043" x="108" y="256.32" style="stroke: #000000; stroke-width: 2.5"/>
      </g>
     </g>
     <g id="text_12">
      <text style="font: 22px 'DejaVu Sans', 'Bitstream Vera Sans', 'Computer Modern Sans Serif', 'Lucida Grande', 'Verdana', 'Geneva', 'Lucid', 'Arial', 'Helvetica', 'Avant Garde', sans-serif; text-anchor: end" x="92.5" y="264.678281" transform="rotate(-0 92.5 264.678281)">0</text>
     </g>
    </g>
    <g id="ytick_2">
     <g id="line2d_13">
      <g>
       <use xlink:href="#maad229c043" x="108" y="207.581538" style="stroke: #000000; stroke-width: 2.5"/>
      </g>
     </g>
     <g id="text_13">
      <text style="font: 22px 'DejaVu Sans', 'Bitstream Vera Sans', 'Computer Modern Sans Serif', 'Lucida Grande', 'Verdana', 'Geneva', 'Lucid', 'Arial', 'Helvetica', 'Avant Garde', sans-serif; text-anchor: end" x="92.5" y="215.93982" transform="rotate(-0 92.5 215.93982)">5</text>
     </g>
    </g>
    <g id="ytick_3">
     <g id="line2d_14">
      <g>
       <use xlink:href="#maad229c043" x="108" y="158.843077" style="stroke: #000000; stroke-width: 2.5"/>
      </g>
     </g>
     <g id="text_14">
      <text style="font: 22px 'DejaVu Sans', 'Bitstream Vera Sans', 'Computer Modern Sans Serif', 'Lucida Grande', 'Verdana', 'Geneva', 'Lucid', 'Arial', 'Helvetica', 'Avant Garde', sans-serif; text-anchor: end" x="92.5" y="167.201358" transform="rotate(-0 92.5 167.201358)">10</text>
     </g>
    </g>
    <g id="ytick_4">
     <g id="line2d_15">
      <g>
       <use xlink:href="#maad229c043" x="108" y="110.104615" style="stroke: #000000; stroke-width: 2.5"/>
      </g>
     </g>
     <g id="text_15">
      <text style="font: 22px 'DejaVu Sans', 'Bitstream Vera Sans', 'Computer Modern Sans Serif', 'Lucida Grande', 'Verdana', 'Geneva', 'Lucid', 'Arial', 'Helvetica', 'Avant Garde', sans-serif; text-anchor: end" x="92.5" y="118.462897" transform="rotate(-0 92.5 118.462897)">15</text>
     </g>
    </g>
    <g id="ytick_5">
     <g id="line2d_16">
      <g>
       <use xlink:href="#maad229c043" x="108" y="61.366154" style="stroke: #000000; stroke-width: 2.5"/>
      </g>
     </g>
     <g id="text_16">
      <text style="font: 22px 'DejaVu Sans', 'Bitstream Vera Sans', 'Computer Modern Sans Serif', 'Lucida Grande', 'Verdana', 'Geneva', 'Lucid', 'Arial', 'Helvetica', 'Avant Garde', sans-serif; text-anchor: end" x="92.5" y="69.724435" transform="rotate(-0 92.5 69.724435)">20</text>
     </g>
    </g>
    <g id="text_17">
     <text style="font: 24px 'DejaVu Sans', 'Bitstream Vera Sans', 'Computer Modern Sans Serif', 'Lucida Grande', 'Verdana', 'Geneva', 'Lucid', 'Arial', 'Helvetica', 'Avant Garde', sans-serif; text-anchor: middle" x="55.51375" y="145.44" transform="rotate(-90 55.51375 145.44)">Observed Effect (%)</text>
    </g>
   </g>
   <g id="patch_58">
    <path d="M 108 256.32 
L 108 34.56 
" style="fill: none; stroke: #000000; stroke-width: 2.5; stroke-linejoin: miter; stroke-linecap: square"/>
   </g>
   <g id="patch_59">
    <path d="M 108 256.32 
L 777.6 256.32 
" style="fill: none; stroke: #000000; stroke-width: 2.5; stroke-linejoin: miter; stroke-linecap: square"/>
   </g>
   <g id="legend_1">
    <g id="patch_60">
     <path d="M 123.4 247.846875 
L 448.384688 247.846875 
Q 452.784688 247.846875 452.784688 243.446875 
L 452.784688 49.96 
Q 452.784688 45.56 448.384688 45.56 
L 123.4 45.56 
Q 119 45.56 119 49.96 
L 119 243.446875 
Q 119 247.846875 123.4 247.846875 
z
" style="fill: #ffffff; opacity: 0.8; stroke: #cccccc; stroke-width: 2; stroke-linejoin: miter"/>
    </g>
    <g id="text_18">
     <text style="font: 24px 'DejaVu Sans', 'Bitstream Vera Sans', 'Computer Modern Sans Serif', 'Lucida Grande', 'Verdana', 'Geneva', 'Lucid', 'Arial', 'Helvetica', 'Avant Garde', sans-serif; text-anchor: start" x="251.174844" y="72.59625" transform="rotate(-0 251.174844 72.59625)">Effect</text>
    </g>
    <g id="patch_61">
     <path d="M 127.8 105.304063 
L 171.8 105.304063 
L 171.8 89.904063 
L 127.8 89.904063 
z
" style="fill: #55a868"/>
    </g>
    <g id="text_19">
     <text style="font: 22px 'DejaVu Sans', 'Bitstream Vera Sans', 'Computer Modern Sans Serif', 'Lucida Grande', 'Verdana', 'Geneva', 'Lucid', 'Arial', 'Helvetica', 'Avant Garde', sans-serif; text-anchor: start" x="189.4" y="105.304063" transform="rotate(-0 189.4 105.304063)">null effect</text>
    </g>
    <g id="patch_62">
     <path d="M 127.8 137.595938 
L 171.8 137.595938 
L 171.8 122.195938 
L 127.8 122.195938 
z
" style="fill: #a1c9f4"/>
    </g>
    <g id="text_20">
     <text style="font: 22px 'DejaVu Sans', 'Bitstream Vera Sans', 'Computer Modern Sans Serif', 'Lucida Grande', 'Verdana', 'Geneva', 'Lucid', 'Arial', 'Helvetica', 'Avant Garde', sans-serif; text-anchor: start" x="189.4" y="137.595938" transform="rotate(-0 189.4 137.595938)">leaning negative effect</text>
    </g>
    <g id="patch_63">
     <path d="M 127.8 169.887813 
L 171.8 169.887813 
L 171.8 154.487813 
L 127.8 154.487813 
z
" style="fill: #4c72b0"/>
    </g>
    <g id="text_21">
     <text style="font: 22px 'DejaVu Sans', 'Bitstream Vera Sans', 'Computer Modern Sans Serif', 'Lucida Grande', 'Verdana', 'Geneva', 'Lucid', 'Arial', 'Helvetica', 'Avant Garde', sans-serif; text-anchor: start" x="189.4" y="169.887813" transform="rotate(-0 189.4 169.887813)">negative effect</text>
    </g>
    <g id="patch_64">
     <path d="M 127.8 202.179688 
L 171.8 202.179688 
L 171.8 186.779688 
L 127.8 186.779688 
z
" style="fill: #ff9f9b"/>
    </g>
    <g id="text_22">
     <text style="font: 22px 'DejaVu Sans', 'Bitstream Vera Sans', 'Computer Modern Sans Serif', 'Lucida Grande', 'Verdana', 'Geneva', 'Lucid', 'Arial', 'Helvetica', 'Avant Garde', sans-serif; text-anchor: start" x="189.4" y="202.179688" transform="rotate(-0 189.4 202.179688)">leaning positive effect</text>
    </g>
    <g id="patch_65">
     <path d="M 127.8 234.471563 
L 171.8 234.471563 
L 171.8 219.071563 
L 127.8 219.071563 
z
" style="fill: #c44e52"/>
    </g>
    <g id="text_23">
     <text style="font: 22px 'DejaVu Sans', 'Bitstream Vera Sans', 'Computer Modern Sans Serif', 'Lucida Grande', 'Verdana', 'Geneva', 'Lucid', 'Arial', 'Helvetica', 'Avant Garde', sans-serif; text-anchor: start" x="189.4" y="234.471563" transform="rotate(-0 189.4 234.471563)">positive effect</text>
    </g>
   </g>
  </g>
 </g>
 <defs>
  <clipPath id="p8c4dd81bf4">
   <rect x="108" y="34.56" width="669.6" height="221.76"/>
  </clipPath>
 </defs>
</svg>
