<?xml version="1.0" encoding="utf-8" standalone="no"?>
<!DOCTYPE svg PUBLIC "-//W3C//DTD SVG 1.1//EN"
  "http://www.w3.org/Graphics/SVG/1.1/DTD/svg11.dtd">
<svg xmlns:xlink="http://www.w3.org/1999/xlink" width="864pt" height="288pt" viewBox="0 0 864 288" xmlns="http://www.w3.org/2000/svg" version="1.1">
 <metadata>
  <rdf:RDF xmlns:dc="http://purl.org/dc/elements/1.1/" xmlns:cc="http://creativecommons.org/ns#" xmlns:rdf="http://www.w3.org/1999/02/22-rdf-syntax-ns#">
   <cc:Work>
    <dc:type rdf:resource="http://purl.org/dc/dcmitype/StillImage"/>
    <dc:date>2023-10-18T17:28:26.259696</dc:date>
    <dc:format>image/svg+xml</dc:format>
    <dc:creator>
     <cc:Agent>
      <dc:title>Matplotlib v3.8.0, https://matplotlib.org/</dc:title>
     </cc:Agent>
    </dc:creator>
   </cc:Work>
  </rdf:RDF>
 </metadata>
 <defs>
  <style type="text/css">*{stroke-linejoin: round; stroke-linecap: butt}</style>
 </defs>
 <g id="figure_1">
  <g id="patch_1">
   <path d="M 0 288 
L 864 288 
L 864 0 
L 0 0 
z
" style="fill: #ffffff"/>
  </g>
  <g id="axes_1">
   <g id="patch_2">
    <path d="M 108 256.32 
L 777.6 256.32 
L 777.6 34.56 
L 108 34.56 
z
" style="fill: #ffffff"/>
   </g>
   <g id="patch_3">
    <path d="M 119.706294 256.32 
L 157.166434 256.32 
L 157.166434 256.32 
L 119.706294 256.32 
z
" clip-path="url(#p2abd4bec9b)" style="fill: #55a868"/>
   </g>
   <g id="patch_4">
    <path d="M 166.531469 256.32 
L 203.991608 256.32 
L 203.991608 256.32 
L 166.531469 256.32 
z
" clip-path="url(#p2abd4bec9b)" style="fill: #55a868"/>
   </g>
   <g id="patch_5">
    <path d="M 213.356643 256.32 
L 250.816783 256.32 
L 250.816783 256.32 
L 213.356643 256.32 
z
" clip-path="url(#p2abd4bec9b)" style="fill: #55a868"/>
   </g>
   <g id="patch_6">
    <path d="M 260.181818 256.32 
L 297.641958 256.32 
L 297.641958 256.32 
L 260.181818 256.32 
z
" clip-path="url(#p2abd4bec9b)" style="fill: #55a868"/>
   </g>
   <g id="patch_7">
    <path d="M 307.006993 256.32 
L 344.467133 256.32 
L 344.467133 256.32 
L 307.006993 256.32 
z
" clip-path="url(#p2abd4bec9b)" style="fill: #55a868"/>
   </g>
   <g id="patch_8">
    <path d="M 353.832168 256.32 
L 391.292308 256.32 
L 391.292308 256.32 
L 353.832168 256.32 
z
" clip-path="url(#p2abd4bec9b)" style="fill: #55a868"/>
   </g>
   <g id="patch_9">
    <path d="M 400.657343 256.32 
L 438.117483 256.32 
L 438.117483 256.32 
L 400.657343 256.32 
z
" clip-path="url(#p2abd4bec9b)" style="fill: #55a868"/>
   </g>
   <g id="patch_10">
    <path d="M 447.482517 256.32 
L 484.942657 256.32 
L 484.942657 256.32 
L 447.482517 256.32 
z
" clip-path="url(#p2abd4bec9b)" style="fill: #55a868"/>
   </g>
   <g id="patch_11">
    <path d="M 494.307692 256.32 
L 531.767832 256.32 
L 531.767832 256.32 
L 494.307692 256.32 
z
" clip-path="url(#p2abd4bec9b)" style="fill: #55a868"/>
   </g>
   <g id="patch_12">
    <path d="M 541.132867 256.32 
L 578.593007 256.32 
L 578.593007 256.32 
L 541.132867 256.32 
z
" clip-path="url(#p2abd4bec9b)" style="fill: #55a868"/>
   </g>
   <g id="patch_13">
    <path d="M 587.958042 256.32 
L 625.418182 256.32 
L 625.418182 256.32 
L 587.958042 256.32 
z
" clip-path="url(#p2abd4bec9b)" style="fill: #55a868"/>
   </g>
   <g id="patch_14">
    <path d="M 634.783217 256.32 
L 672.243357 256.32 
L 672.243357 256.32 
L 634.783217 256.32 
z
" clip-path="url(#p2abd4bec9b)" style="fill: #55a868"/>
   </g>
   <g id="patch_15">
    <path d="M 681.608392 256.32 
L 719.068531 256.32 
L 719.068531 256.32 
L 681.608392 256.32 
z
" clip-path="url(#p2abd4bec9b)" style="fill: #55a868"/>
   </g>
   <g id="patch_16">
    <path d="M 728.433566 256.32 
L 765.893706 256.32 
L 765.893706 256.32 
L 728.433566 256.32 
z
" clip-path="url(#p2abd4bec9b)" style="fill: #55a868"/>
   </g>
   <g id="patch_17">
    <path d="M 119.706294 256.32 
L 157.166434 256.32 
L 157.166434 225.288987 
L 119.706294 225.288987 
z
" clip-path="url(#p2abd4bec9b)" style="fill: #a1c9f4"/>
   </g>
   <g id="patch_18">
    <path d="M 166.531469 256.32 
L 203.991608 256.32 
L 203.991608 256.32 
L 166.531469 256.32 
z
" clip-path="url(#p2abd4bec9b)" style="fill: #a1c9f4"/>
   </g>
   <g id="patch_19">
    <path d="M 213.356643 256.32 
L 250.816783 256.32 
L 250.816783 213.217959 
L 213.356643 213.217959 
z
" clip-path="url(#p2abd4bec9b)" style="fill: #a1c9f4"/>
   </g>
   <g id="patch_20">
    <path d="M 260.181818 256.32 
L 297.641958 256.32 
L 297.641958 247.699592 
L 260.181818 247.699592 
z
" clip-path="url(#p2abd4bec9b)" style="fill: #a1c9f4"/>
   </g>
   <g id="patch_21">
    <path d="M 307.006993 256.32 
L 344.467133 256.32 
L 344.467133 254.164898 
L 307.006993 254.164898 
z
" clip-path="url(#p2abd4bec9b)" style="fill: #a1c9f4"/>
   </g>
   <g id="patch_22">
    <path d="M 353.832168 256.32 
L 391.292308 256.32 
L 391.292308 213.217959 
L 353.832168 213.217959 
z
" clip-path="url(#p2abd4bec9b)" style="fill: #a1c9f4"/>
   </g>
   <g id="patch_23">
    <path d="M 400.657343 256.32 
L 438.117483 256.32 
L 438.117483 208.907755 
L 400.657343 208.907755 
z
" clip-path="url(#p2abd4bec9b)" style="fill: #a1c9f4"/>
   </g>
   <g id="patch_24">
    <path d="M 447.482517 256.32 
L 484.942657 256.32 
L 484.942657 249.854694 
L 447.482517 249.854694 
z
" clip-path="url(#p2abd4bec9b)" style="fill: #a1c9f4"/>
   </g>
   <g id="patch_25">
    <path d="M 494.307692 256.32 
L 531.767832 256.32 
L 531.767832 236.70676 
L 494.307692 236.70676 
z
" clip-path="url(#p2abd4bec9b)" style="fill: #a1c9f4"/>
   </g>
   <g id="patch_26">
    <path d="M 541.132867 256.32 
L 578.593007 256.32 
L 578.593007 247.603005 
L 541.132867 247.603005 
z
" clip-path="url(#p2abd4bec9b)" style="fill: #a1c9f4"/>
   </g>
   <g id="patch_27">
    <path d="M 587.958042 256.32 
L 625.418182 256.32 
L 625.418182 236.924082 
L 587.958042 236.924082 
z
" clip-path="url(#p2abd4bec9b)" style="fill: #a1c9f4"/>
   </g>
   <g id="patch_28">
    <path d="M 634.783217 256.32 
L 672.243357 256.32 
L 672.243357 254.164898 
L 634.783217 254.164898 
z
" clip-path="url(#p2abd4bec9b)" style="fill: #a1c9f4"/>
   </g>
   <g id="patch_29">
    <path d="M 681.608392 256.32 
L 719.068531 256.32 
L 719.068531 252.009796 
L 681.608392 252.009796 
z
" clip-path="url(#p2abd4bec9b)" style="fill: #a1c9f4"/>
   </g>
   <g id="patch_30">
    <path d="M 728.433566 256.32 
L 765.893706 256.32 
L 765.893706 243.872131 
L 728.433566 243.872131 
z
" clip-path="url(#p2abd4bec9b)" style="fill: #a1c9f4"/>
   </g>
   <g id="patch_31">
    <path d="M 119.706294 225.288987 
L 157.166434 225.288987 
L 157.166434 220.855985 
L 119.706294 220.855985 
z
" clip-path="url(#p2abd4bec9b)" style="fill: #4c72b0"/>
   </g>
   <g id="patch_32">
    <path d="M 166.531469 256.32 
L 203.991608 256.32 
L 203.991608 256.32 
L 166.531469 256.32 
z
" clip-path="url(#p2abd4bec9b)" style="fill: #4c72b0"/>
   </g>
   <g id="patch_33">
    <path d="M 213.356643 213.217959 
L 250.816783 213.217959 
L 250.816783 195.977143 
L 213.356643 195.977143 
z
" clip-path="url(#p2abd4bec9b)" style="fill: #4c72b0"/>
   </g>
   <g id="patch_34">
    <path d="M 260.181818 247.699592 
L 297.641958 247.699592 
L 297.641958 239.079184 
L 260.181818 239.079184 
z
" clip-path="url(#p2abd4bec9b)" style="fill: #4c72b0"/>
   </g>
   <g id="patch_35">
    <path d="M 307.006993 256.32 
L 344.467133 256.32 
L 344.467133 256.32 
L 307.006993 256.32 
z
" clip-path="url(#p2abd4bec9b)" style="fill: #4c72b0"/>
   </g>
   <g id="patch_36">
    <path d="M 353.832168 213.217959 
L 391.292308 213.217959 
L 391.292308 211.062857 
L 353.832168 211.062857 
z
" clip-path="url(#p2abd4bec9b)" style="fill: #4c72b0"/>
   </g>
   <g id="patch_37">
    <path d="M 400.657343 208.907755 
L 438.117483 208.907755 
L 438.117483 204.597551 
L 400.657343 204.597551 
z
" clip-path="url(#p2abd4bec9b)" style="fill: #4c72b0"/>
   </g>
   <g id="patch_38">
    <path d="M 447.482517 249.854694 
L 484.942657 249.854694 
L 484.942657 247.699592 
L 447.482517 247.699592 
z
" clip-path="url(#p2abd4bec9b)" style="fill: #4c72b0"/>
   </g>
   <g id="patch_39">
    <path d="M 494.307692 236.70676 
L 531.767832 236.70676 
L 531.767832 227.989765 
L 494.307692 227.989765 
z
" clip-path="url(#p2abd4bec9b)" style="fill: #4c72b0"/>
   </g>
   <g id="patch_40">
    <path d="M 541.132867 247.603005 
L 578.593007 247.603005 
L 578.593007 245.423756 
L 541.132867 245.423756 
z
" clip-path="url(#p2abd4bec9b)" style="fill: #4c72b0"/>
   </g>
   <g id="patch_41">
    <path d="M 587.958042 256.32 
L 625.418182 256.32 
L 625.418182 256.32 
L 587.958042 256.32 
z
" clip-path="url(#p2abd4bec9b)" style="fill: #4c72b0"/>
   </g>
   <g id="patch_42">
    <path d="M 634.783217 256.32 
L 672.243357 256.32 
L 672.243357 256.32 
L 634.783217 256.32 
z
" clip-path="url(#p2abd4bec9b)" style="fill: #4c72b0"/>
   </g>
   <g id="patch_43">
    <path d="M 681.608392 256.32 
L 719.068531 256.32 
L 719.068531 256.32 
L 681.608392 256.32 
z
" clip-path="url(#p2abd4bec9b)" style="fill: #4c72b0"/>
   </g>
   <g id="patch_44">
    <path d="M 728.433566 256.32 
L 765.893706 256.32 
L 765.893706 256.32 
L 728.433566 256.32 
z
" clip-path="url(#p2abd4bec9b)" style="fill: #4c72b0"/>
   </g>
   <g id="patch_45">
    <path d="M 119.706294 220.855985 
L 157.166434 220.855985 
L 157.166434 203.123977 
L 119.706294 203.123977 
z
" clip-path="url(#p2abd4bec9b)" style="fill: #ff9f9b"/>
   </g>
   <g id="patch_46">
    <path d="M 166.531469 256.32 
L 203.991608 256.32 
L 203.991608 251.886998 
L 166.531469 251.886998 
z
" clip-path="url(#p2abd4bec9b)" style="fill: #ff9f9b"/>
   </g>
   <g id="patch_47">
    <path d="M 213.356643 195.977143 
L 250.816783 195.977143 
L 250.816783 187.356735 
L 213.356643 187.356735 
z
" clip-path="url(#p2abd4bec9b)" style="fill: #ff9f9b"/>
   </g>
   <g id="patch_48">
    <path d="M 260.181818 239.079184 
L 297.641958 239.079184 
L 297.641958 221.838367 
L 260.181818 221.838367 
z
" clip-path="url(#p2abd4bec9b)" style="fill: #ff9f9b"/>
   </g>
   <g id="patch_49">
    <path d="M 307.006993 254.164898 
L 344.467133 254.164898 
L 344.467133 211.062857 
L 307.006993 211.062857 
z
" clip-path="url(#p2abd4bec9b)" style="fill: #ff9f9b"/>
   </g>
   <g id="patch_50">
    <path d="M 353.832168 211.062857 
L 391.292308 211.062857 
L 391.292308 206.752653 
L 353.832168 206.752653 
z
" clip-path="url(#p2abd4bec9b)" style="fill: #ff9f9b"/>
   </g>
   <g id="patch_51">
    <path d="M 400.657343 256.32 
L 438.117483 256.32 
L 438.117483 256.32 
L 400.657343 256.32 
z
" clip-path="url(#p2abd4bec9b)" style="fill: #ff9f9b"/>
   </g>
   <g id="patch_52">
    <path d="M 447.482517 247.699592 
L 484.942657 247.699592 
L 484.942657 213.217959 
L 447.482517 213.217959 
z
" clip-path="url(#p2abd4bec9b)" style="fill: #ff9f9b"/>
   </g>
   <g id="patch_53">
    <path d="M 494.307692 227.989765 
L 531.767832 227.989765 
L 531.767832 217.093521 
L 494.307692 217.093521 
z
" clip-path="url(#p2abd4bec9b)" style="fill: #ff9f9b"/>
   </g>
   <g id="patch_54">
    <path d="M 541.132867 245.423756 
L 578.593007 245.423756 
L 578.593007 236.70676 
L 541.132867 236.70676 
z
" clip-path="url(#p2abd4bec9b)" style="fill: #ff9f9b"/>
   </g>
   <g id="patch_55">
    <path d="M 587.958042 236.924082 
L 625.418182 236.924082 
L 625.418182 133.479184 
L 587.958042 133.479184 
z
" clip-path="url(#p2abd4bec9b)" style="fill: #ff9f9b"/>
   </g>
   <g id="patch_56">
    <path d="M 634.783217 254.164898 
L 672.243357 254.164898 
L 672.243357 157.185306 
L 634.783217 157.185306 
z
" clip-path="url(#p2abd4bec9b)" style="fill: #ff9f9b"/>
   </g>
   <g id="patch_57">
    <path d="M 681.608392 252.009796 
L 719.068531 252.009796 
L 719.068531 183.046531 
L 681.608392 183.046531 
z
" clip-path="url(#p2abd4bec9b)" style="fill: #ff9f9b"/>
   </g>
   <g id="patch_58">
    <path d="M 728.433566 256.32 
L 765.893706 256.32 
L 765.893706 256.32 
L 728.433566 256.32 
z
" clip-path="url(#p2abd4bec9b)" style="fill: #ff9f9b"/>
   </g>
   <g id="patch_59">
    <path d="M 119.706294 203.123977 
L 157.166434 203.123977 
L 157.166434 200.907476 
L 119.706294 200.907476 
z
" clip-path="url(#p2abd4bec9b)" style="fill: #c44e52"/>
   </g>
   <g id="patch_60">
    <path d="M 166.531469 256.32 
L 203.991608 256.32 
L 203.991608 256.32 
L 166.531469 256.32 
z
" clip-path="url(#p2abd4bec9b)" style="fill: #c44e52"/>
   </g>
   <g id="patch_61">
    <path d="M 213.356643 187.356735 
L 250.816783 187.356735 
L 250.816783 185.201633 
L 213.356643 185.201633 
z
" clip-path="url(#p2abd4bec9b)" style="fill: #c44e52"/>
   </g>
   <g id="patch_62">
    <path d="M 260.181818 221.838367 
L 297.641958 221.838367 
L 297.641958 219.683265 
L 260.181818 219.683265 
z
" clip-path="url(#p2abd4bec9b)" style="fill: #c44e52"/>
   </g>
   <g id="patch_63">
    <path d="M 307.006993 211.062857 
L 344.467133 211.062857 
L 344.467133 204.597551 
L 307.006993 204.597551 
z
" clip-path="url(#p2abd4bec9b)" style="fill: #c44e52"/>
   </g>
   <g id="patch_64">
    <path d="M 353.832168 256.32 
L 391.292308 256.32 
L 391.292308 256.32 
L 353.832168 256.32 
z
" clip-path="url(#p2abd4bec9b)" style="fill: #c44e52"/>
   </g>
   <g id="patch_65">
    <path d="M 400.657343 256.32 
L 438.117483 256.32 
L 438.117483 256.32 
L 400.657343 256.32 
z
" clip-path="url(#p2abd4bec9b)" style="fill: #c44e52"/>
   </g>
   <g id="patch_66">
    <path d="M 447.482517 213.217959 
L 484.942657 213.217959 
L 484.942657 204.597551 
L 447.482517 204.597551 
z
" clip-path="url(#p2abd4bec9b)" style="fill: #c44e52"/>
   </g>
   <g id="patch_67">
    <path d="M 494.307692 217.093521 
L 531.767832 217.093521 
L 531.767832 212.735023 
L 494.307692 212.735023 
z
" clip-path="url(#p2abd4bec9b)" style="fill: #c44e52"/>
   </g>
   <g id="patch_68">
    <path d="M 541.132867 236.70676 
L 578.593007 236.70676 
L 578.593007 232.348263 
L 541.132867 232.348263 
z
" clip-path="url(#p2abd4bec9b)" style="fill: #c44e52"/>
   </g>
   <g id="patch_69">
    <path d="M 587.958042 133.479184 
L 625.418182 133.479184 
L 625.418182 107.617959 
L 587.958042 107.617959 
z
" clip-path="url(#p2abd4bec9b)" style="fill: #c44e52"/>
   </g>
   <g id="patch_70">
    <path d="M 634.783217 157.185306 
L 672.243357 157.185306 
L 672.243357 45.12 
L 634.783217 45.12 
z
" clip-path="url(#p2abd4bec9b)" style="fill: #c44e52"/>
   </g>
   <g id="patch_71">
    <path d="M 681.608392 183.046531 
L 719.068531 183.046531 
L 719.068531 111.928163 
L 681.608392 111.928163 
z
" clip-path="url(#p2abd4bec9b)" style="fill: #c44e52"/>
   </g>
   <g id="patch_72">
    <path d="M 728.433566 256.32 
L 765.893706 256.32 
L 765.893706 256.32 
L 728.433566 256.32 
z
" clip-path="url(#p2abd4bec9b)" style="fill: #c44e52"/>
   </g>
   <g id="matplotlib.axis_1">
    <g id="xtick_1">
     <g id="line2d_1">
      <defs>
       <path id="mfe0181cebd" d="M 0 0 
L 0 12 
" style="stroke: #000000; stroke-width: 2.5"/>
      </defs>
      <g>
       <use xlink:href="#mfe0181cebd" x="138.436364" y="256.32" style="stroke: #000000; stroke-width: 2.5"/>
      </g>
     </g>
     <g id="text_1">
      <text style="font: 22px 'DejaVu Sans', 'Bitstream Vera Sans', 'Computer Modern Sans Serif', 'Lucida Grande', 'Verdana', 'Geneva', 'Lucid', 'Arial', 'Helvetica', 'Avant Garde', sans-serif" transform="translate(144.506989 374.515312) rotate(-90)">Delta (cf)</text>
     </g>
    </g>
    <g id="xtick_2">
     <g id="line2d_2">
      <g>
       <use xlink:href="#mfe0181cebd" x="185.261538" y="256.32" style="stroke: #000000; stroke-width: 2.5"/>
      </g>
     </g>
     <g id="text_2">
      <text style="font: 22px 'DejaVu Sans', 'Bitstream Vera Sans', 'Computer Modern Sans Serif', 'Lucida Grande', 'Verdana', 'Geneva', 'Lucid', 'Arial', 'Helvetica', 'Avant Garde', sans-serif" transform="translate(191.332163 386.6325) rotate(-90)">Delta (pw)</text>
     </g>
    </g>
    <g id="xtick_3">
     <g id="line2d_3">
      <g>
       <use xlink:href="#mfe0181cebd" x="232.086713" y="256.32" style="stroke: #000000; stroke-width: 2.5"/>
      </g>
     </g>
     <g id="text_3">
      <text style="font: 22px 'DejaVu Sans', 'Bitstream Vera Sans', 'Computer Modern Sans Serif', 'Lucida Grande', 'Verdana', 'Geneva', 'Lucid', 'Arial', 'Helvetica', 'Avant Garde', sans-serif" transform="translate(238.157338 378.843125) rotate(-90)">Theta (cf)</text>
     </g>
    </g>
    <g id="xtick_4">
     <g id="line2d_4">
      <g>
       <use xlink:href="#mfe0181cebd" x="278.911888" y="256.32" style="stroke: #000000; stroke-width: 2.5"/>
      </g>
     </g>
     <g id="text_4">
      <text style="font: 22px 'DejaVu Sans', 'Bitstream Vera Sans', 'Computer Modern Sans Serif', 'Lucida Grande', 'Verdana', 'Geneva', 'Lucid', 'Arial', 'Helvetica', 'Avant Garde', sans-serif" transform="translate(284.982513 390.960312) rotate(-90)">Theta (pw)</text>
     </g>
    </g>
    <g id="xtick_5">
     <g id="line2d_5">
      <g>
       <use xlink:href="#mfe0181cebd" x="325.737063" y="256.32" style="stroke: #000000; stroke-width: 2.5"/>
      </g>
     </g>
     <g id="text_5">
      <text style="font: 22px 'DejaVu Sans', 'Bitstream Vera Sans', 'Computer Modern Sans Serif', 'Lucida Grande', 'Verdana', 'Geneva', 'Lucid', 'Arial', 'Helvetica', 'Avant Garde', sans-serif" transform="translate(331.807688 378.372187) rotate(-90)">Alpha (cf)</text>
     </g>
    </g>
    <g id="xtick_6">
     <g id="line2d_6">
      <g>
       <use xlink:href="#mfe0181cebd" x="372.562238" y="256.32" style="stroke: #000000; stroke-width: 2.5"/>
      </g>
     </g>
     <g id="text_6">
      <text style="font: 22px 'DejaVu Sans', 'Bitstream Vera Sans', 'Computer Modern Sans Serif', 'Lucida Grande', 'Verdana', 'Geneva', 'Lucid', 'Arial', 'Helvetica', 'Avant Garde', sans-serif" transform="translate(378.632863 390.489375) rotate(-90)">Alpha (pw)</text>
     </g>
    </g>
    <g id="xtick_7">
     <g id="line2d_7">
      <g>
       <use xlink:href="#mfe0181cebd" x="419.387413" y="256.32" style="stroke: #000000; stroke-width: 2.5"/>
      </g>
     </g>
     <g id="text_7">
      <text style="font: 22px 'DejaVu Sans', 'Bitstream Vera Sans', 'Computer Modern Sans Serif', 'Lucida Grande', 'Verdana', 'Geneva', 'Lucid', 'Arial', 'Helvetica', 'Avant Garde', sans-serif" transform="translate(425.458038 366.5575) rotate(-90)">Beta (cf)</text>
     </g>
    </g>
    <g id="xtick_8">
     <g id="line2d_8">
      <g>
       <use xlink:href="#mfe0181cebd" x="466.212587" y="256.32" style="stroke: #000000; stroke-width: 2.5"/>
      </g>
     </g>
     <g id="text_8">
      <text style="font: 22px 'DejaVu Sans', 'Bitstream Vera Sans', 'Computer Modern Sans Serif', 'Lucida Grande', 'Verdana', 'Geneva', 'Lucid', 'Arial', 'Helvetica', 'Avant Garde', sans-serif" transform="translate(472.283212 378.674688) rotate(-90)">Beta (pw)</text>
     </g>
    </g>
    <g id="xtick_9">
     <g id="line2d_9">
      <g>
       <use xlink:href="#mfe0181cebd" x="513.037762" y="256.32" style="stroke: #000000; stroke-width: 2.5"/>
      </g>
     </g>
     <g id="text_9">
      <text style="font: 22px 'DejaVu Sans', 'Bitstream Vera Sans', 'Computer Modern Sans Serif', 'Lucida Grande', 'Verdana', 'Geneva', 'Lucid', 'Arial', 'Helvetica', 'Avant Garde', sans-serif" transform="translate(519.108387 402.689063) rotate(-90)">Gamma (cf)</text>
     </g>
    </g>
    <g id="xtick_10">
     <g id="line2d_10">
      <g>
       <use xlink:href="#mfe0181cebd" x="559.862937" y="256.32" style="stroke: #000000; stroke-width: 2.5"/>
      </g>
     </g>
     <g id="text_10">
      <text style="font: 22px 'DejaVu Sans', 'Bitstream Vera Sans', 'Computer Modern Sans Serif', 'Lucida Grande', 'Verdana', 'Geneva', 'Lucid', 'Arial', 'Helvetica', 'Avant Garde', sans-serif" transform="translate(565.933562 414.80625) rotate(-90)">Gamma (pw)</text>
     </g>
    </g>
    <g id="xtick_11">
     <g id="line2d_11">
      <g>
       <use xlink:href="#mfe0181cebd" x="606.688112" y="256.32" style="stroke: #000000; stroke-width: 2.5"/>
      </g>
     </g>
     <g id="text_11">
      <text style="font: 22px 'DejaVu Sans', 'Bitstream Vera Sans', 'Computer Modern Sans Serif', 'Lucida Grande', 'Verdana', 'Geneva', 'Lucid', 'Arial', 'Helvetica', 'Avant Garde', sans-serif" transform="translate(612.758737 353.941875) rotate(-90)">#Peaks</text>
     </g>
    </g>
    <g id="xtick_12">
     <g id="line2d_12">
      <g>
       <use xlink:href="#mfe0181cebd" x="653.513287" y="256.32" style="stroke: #000000; stroke-width: 2.5"/>
      </g>
     </g>
     <g id="text_12">
      <text style="font: 22px 'DejaVu Sans', 'Bitstream Vera Sans', 'Computer Modern Sans Serif', 'Lucida Grande', 'Verdana', 'Geneva', 'Lucid', 'Arial', 'Helvetica', 'Avant Garde', sans-serif" transform="translate(659.583912 376.216875) rotate(-90)">Exponent</text>
     </g>
    </g>
    <g id="xtick_13">
     <g id="line2d_13">
      <g>
       <use xlink:href="#mfe0181cebd" x="700.338462" y="256.32" style="stroke: #000000; stroke-width: 2.5"/>
      </g>
     </g>
     <g id="text_13">
      <text style="font: 22px 'DejaVu Sans', 'Bitstream Vera Sans', 'Computer Modern Sans Serif', 'Lucida Grande', 'Verdana', 'Geneva', 'Lucid', 'Arial', 'Helvetica', 'Avant Garde', sans-serif" transform="translate(706.409087 338.249687) rotate(-90)">Offset</text>
     </g>
    </g>
    <g id="xtick_14">
     <g id="line2d_14">
      <g>
       <use xlink:href="#mfe0181cebd" x="747.163636" y="256.32" style="stroke: #000000; stroke-width: 2.5"/>
      </g>
     </g>
     <g id="text_14">
      <text style="font: 22px 'DejaVu Sans', 'Bitstream Vera Sans', 'Computer Modern Sans Serif', 'Lucida Grande', 'Verdana', 'Geneva', 'Lucid', 'Arial', 'Helvetica', 'Avant Garde', sans-serif" transform="translate(753.234261 500.155937) rotate(-90)">Knee Frequency (Hz)</text>
     </g>
    </g>
   </g>
   <g id="matplotlib.axis_2">
    <g id="ytick_1">
     <g id="line2d_15">
      <defs>
       <path id="mdb6e123743" d="M 0 0 
L -12 0 
" style="stroke: #000000; stroke-width: 2.5"/>
      </defs>
      <g>
       <use xlink:href="#mdb6e123743" x="108" y="256.32" style="stroke: #000000; stroke-width: 2.5"/>
      </g>
     </g>
     <g id="text_15">
      <text style="font: 22px 'DejaVu Sans', 'Bitstream Vera Sans', 'Computer Modern Sans Serif', 'Lucida Grande', 'Verdana', 'Geneva', 'Lucid', 'Arial', 'Helvetica', 'Avant Garde', sans-serif; text-anchor: end" x="92.5" y="264.678281" transform="rotate(-0 92.5 264.678281)">0</text>
     </g>
    </g>
    <g id="ytick_2">
     <g id="line2d_16">
      <g>
       <use xlink:href="#mdb6e123743" x="108" y="178.520816" style="stroke: #000000; stroke-width: 2.5"/>
      </g>
     </g>
     <g id="text_16">
      <text style="font: 22px 'DejaVu Sans', 'Bitstream Vera Sans', 'Computer Modern Sans Serif', 'Lucida Grande', 'Verdana', 'Geneva', 'Lucid', 'Arial', 'Helvetica', 'Avant Garde', sans-serif; text-anchor: end" x="92.5" y="186.879098" transform="rotate(-0 92.5 186.879098)">10</text>
     </g>
    </g>
    <g id="ytick_3">
     <g id="line2d_17">
      <g>
       <use xlink:href="#mdb6e123743" x="108" y="100.721633" style="stroke: #000000; stroke-width: 2.5"/>
      </g>
     </g>
     <g id="text_17">
      <text style="font: 22px 'DejaVu Sans', 'Bitstream Vera Sans', 'Computer Modern Sans Serif', 'Lucida Grande', 'Verdana', 'Geneva', 'Lucid', 'Arial', 'Helvetica', 'Avant Garde', sans-serif; text-anchor: end" x="92.5" y="109.079914" transform="rotate(-0 92.5 109.079914)">20</text>
     </g>
    </g>
    <g id="text_18">
     <text style="font: 24px 'DejaVu Sans', 'Bitstream Vera Sans', 'Computer Modern Sans Serif', 'Lucida Grande', 'Verdana', 'Geneva', 'Lucid', 'Arial', 'Helvetica', 'Avant Garde', sans-serif; text-anchor: middle" x="55.51375" y="145.44" transform="rotate(-90 55.51375 145.44)">Observed Effect (%)</text>
    </g>
   </g>
   <g id="patch_73">
    <path d="M 108 256.32 
L 108 34.56 
" style="fill: none; stroke: #000000; stroke-width: 2.5; stroke-linejoin: miter; stroke-linecap: square"/>
   </g>
   <g id="patch_74">
    <path d="M 108 256.32 
L 777.6 256.32 
" style="fill: none; stroke: #000000; stroke-width: 2.5; stroke-linejoin: miter; stroke-linecap: square"/>
   </g>
   <g id="legend_1">
    <g id="patch_75">
     <path d="M 437.215312 245.32 
L 762.2 245.32 
Q 766.6 245.32 766.6 240.92 
L 766.6 47.433125 
Q 766.6 43.033125 762.2 43.033125 
L 437.215312 43.033125 
Q 432.815313 43.033125 432.815313 47.433125 
L 432.815313 240.92 
Q 432.815313 245.32 437.215312 245.32 
z
" style="fill: #ffffff; opacity: 0.8; stroke: #cccccc; stroke-width: 2; stroke-linejoin: miter"/>
    </g>
    <g id="text_19">
     <text style="font: 24px 'DejaVu Sans', 'Bitstream Vera Sans', 'Computer Modern Sans Serif', 'Lucida Grande', 'Verdana', 'Geneva', 'Lucid', 'Arial', 'Helvetica', 'Avant Garde', sans-serif; text-anchor: start" x="564.990156" y="70.069375" transform="rotate(-0 564.990156 70.069375)">Effect</text>
    </g>
    <g id="patch_76">
     <path d="M 441.615313 102.777187 
L 485.615313 102.777187 
L 485.615313 87.377187 
L 441.615313 87.377187 
z
" style="fill: #55a868"/>
    </g>
    <g id="text_20">
     <text style="font: 22px 'DejaVu Sans', 'Bitstream Vera Sans', 'Computer Modern Sans Serif', 'Lucida Grande', 'Verdana', 'Geneva', 'Lucid', 'Arial', 'Helvetica', 'Avant Garde', sans-serif; text-anchor: start" x="503.215313" y="102.777187" transform="rotate(-0 503.215313 102.777187)">null effect</text>
    </g>
    <g id="patch_77">
     <path d="M 441.615313 135.069062 
L 485.615313 135.069062 
L 485.615313 119.669062 
L 441.615313 119.669062 
z
" style="fill: #a1c9f4"/>
    </g>
    <g id="text_21">
     <text style="font: 22px 'DejaVu Sans', 'Bitstream Vera Sans', 'Computer Modern Sans Serif', 'Lucida Grande', 'Verdana', 'Geneva', 'Lucid', 'Arial', 'Helvetica', 'Avant Garde', sans-serif; text-anchor: start" x="503.215313" y="135.069062" transform="rotate(-0 503.215313 135.069062)">leaning negative effect</text>
    </g>
    <g id="patch_78">
     <path d="M 441.615313 167.360937 
L 485.615313 167.360937 
L 485.615313 151.960937 
L 441.615313 151.960937 
z
" style="fill: #4c72b0"/>
    </g>
    <g id="text_22">
     <text style="font: 22px 'DejaVu Sans', 'Bitstream Vera Sans', 'Computer Modern Sans Serif', 'Lucida Grande', 'Verdana', 'Geneva', 'Lucid', 'Arial', 'Helvetica', 'Avant Garde', sans-serif; text-anchor: start" x="503.215313" y="167.360937" transform="rotate(-0 503.215313 167.360937)">negative effect</text>
    </g>
    <g id="patch_79">
     <path d="M 441.615313 199.652812 
L 485.615313 199.652812 
L 485.615313 184.252812 
L 441.615313 184.252812 
z
" style="fill: #ff9f9b"/>
    </g>
    <g id="text_23">
     <text style="font: 22px 'DejaVu Sans', 'Bitstream Vera Sans', 'Computer Modern Sans Serif', 'Lucida Grande', 'Verdana', 'Geneva', 'Lucid', 'Arial', 'Helvetica', 'Avant Garde', sans-serif; text-anchor: start" x="503.215313" y="199.652812" transform="rotate(-0 503.215313 199.652812)">leaning positive effect</text>
    </g>
    <g id="patch_80">
     <path d="M 441.615313 231.944687 
L 485.615313 231.944687 
L 485.615313 216.544687 
L 441.615313 216.544687 
z
" style="fill: #c44e52"/>
    </g>
    <g id="text_24">
     <text style="font: 22px 'DejaVu Sans', 'Bitstream Vera Sans', 'Computer Modern Sans Serif', 'Lucida Grande', 'Verdana', 'Geneva', 'Lucid', 'Arial', 'Helvetica', 'Avant Garde', sans-serif; text-anchor: start" x="503.215313" y="231.944687" transform="rotate(-0 503.215313 231.944687)">positive effect</text>
    </g>
   </g>
  </g>
 </g>
 <defs>
  <clipPath id="p2abd4bec9b">
   <rect x="108" y="34.56" width="669.6" height="221.76"/>
  </clipPath>
 </defs>
</svg>
