<?xml version="1.0" encoding="utf-8" standalone="no"?>
<!DOCTYPE svg PUBLIC "-//W3C//DTD SVG 1.1//EN"
  "http://www.w3.org/Graphics/SVG/1.1/DTD/svg11.dtd">
<svg xmlns:xlink="http://www.w3.org/1999/xlink" width="864pt" height="288pt" viewBox="0 0 864 288" xmlns="http://www.w3.org/2000/svg" version="1.1">
 <metadata>
  <rdf:RDF xmlns:dc="http://purl.org/dc/elements/1.1/" xmlns:cc="http://creativecommons.org/ns#" xmlns:rdf="http://www.w3.org/1999/02/22-rdf-syntax-ns#">
   <cc:Work>
    <dc:type rdf:resource="http://purl.org/dc/dcmitype/StillImage"/>
    <dc:date>2023-10-19T01:16:46.765219</dc:date>
    <dc:format>image/svg+xml</dc:format>
    <dc:creator>
     <cc:Agent>
      <dc:title>Matplotlib v3.8.0, https://matplotlib.org/</dc:title>
     </cc:Agent>
    </dc:creator>
   </cc:Work>
  </rdf:RDF>
 </metadata>
 <defs>
  <style type="text/css">*{stroke-linejoin: round; stroke-linecap: butt}</style>
 </defs>
 <g id="figure_1">
  <g id="patch_1">
   <path d="M 0 288 
L 864 288 
L 864 0 
L 0 0 
z
" style="fill: #ffffff"/>
  </g>
  <g id="axes_1">
   <g id="patch_2">
    <path d="M 108 256.32 
L 777.6 256.32 
L 777.6 34.56 
L 108 34.56 
z
" style="fill: #ffffff"/>
   </g>
   <g id="patch_3">
    <path d="M 119.706294 256.32 
L 157.166434 256.32 
L 157.166434 256.32 
L 119.706294 256.32 
z
" clip-path="url(#p62dbe1ae53)" style="fill: #55a868"/>
   </g>
   <g id="patch_4">
    <path d="M 166.531469 256.32 
L 203.991608 256.32 
L 203.991608 256.32 
L 166.531469 256.32 
z
" clip-path="url(#p62dbe1ae53)" style="fill: #55a868"/>
   </g>
   <g id="patch_5">
    <path d="M 213.356643 256.32 
L 250.816783 256.32 
L 250.816783 256.32 
L 213.356643 256.32 
z
" clip-path="url(#p62dbe1ae53)" style="fill: #55a868"/>
   </g>
   <g id="patch_6">
    <path d="M 260.181818 256.32 
L 297.641958 256.32 
L 297.641958 256.32 
L 260.181818 256.32 
z
" clip-path="url(#p62dbe1ae53)" style="fill: #55a868"/>
   </g>
   <g id="patch_7">
    <path d="M 307.006993 256.32 
L 344.467133 256.32 
L 344.467133 256.32 
L 307.006993 256.32 
z
" clip-path="url(#p62dbe1ae53)" style="fill: #55a868"/>
   </g>
   <g id="patch_8">
    <path d="M 353.832168 256.32 
L 391.292308 256.32 
L 391.292308 256.32 
L 353.832168 256.32 
z
" clip-path="url(#p62dbe1ae53)" style="fill: #55a868"/>
   </g>
   <g id="patch_9">
    <path d="M 400.657343 256.32 
L 438.117483 256.32 
L 438.117483 256.32 
L 400.657343 256.32 
z
" clip-path="url(#p62dbe1ae53)" style="fill: #55a868"/>
   </g>
   <g id="patch_10">
    <path d="M 447.482517 256.32 
L 484.942657 256.32 
L 484.942657 256.32 
L 447.482517 256.32 
z
" clip-path="url(#p62dbe1ae53)" style="fill: #55a868"/>
   </g>
   <g id="patch_11">
    <path d="M 494.307692 256.32 
L 531.767832 256.32 
L 531.767832 256.32 
L 494.307692 256.32 
z
" clip-path="url(#p62dbe1ae53)" style="fill: #55a868"/>
   </g>
   <g id="patch_12">
    <path d="M 541.132867 256.32 
L 578.593007 256.32 
L 578.593007 256.32 
L 541.132867 256.32 
z
" clip-path="url(#p62dbe1ae53)" style="fill: #55a868"/>
   </g>
   <g id="patch_13">
    <path d="M 587.958042 256.32 
L 625.418182 256.32 
L 625.418182 256.32 
L 587.958042 256.32 
z
" clip-path="url(#p62dbe1ae53)" style="fill: #55a868"/>
   </g>
   <g id="patch_14">
    <path d="M 634.783217 256.32 
L 672.243357 256.32 
L 672.243357 256.32 
L 634.783217 256.32 
z
" clip-path="url(#p62dbe1ae53)" style="fill: #55a868"/>
   </g>
   <g id="patch_15">
    <path d="M 681.608392 256.32 
L 719.068531 256.32 
L 719.068531 256.32 
L 681.608392 256.32 
z
" clip-path="url(#p62dbe1ae53)" style="fill: #55a868"/>
   </g>
   <g id="patch_16">
    <path d="M 728.433566 256.32 
L 765.893706 256.32 
L 765.893706 256.32 
L 728.433566 256.32 
z
" clip-path="url(#p62dbe1ae53)" style="fill: #55a868"/>
   </g>
   <g id="patch_17">
    <path d="M 119.706294 256.32 
L 157.166434 256.32 
L 157.166434 233.84761 
L 119.706294 233.84761 
z
" clip-path="url(#p62dbe1ae53)" style="fill: #a1c9f4"/>
   </g>
   <g id="patch_18">
    <path d="M 166.531469 256.32 
L 203.991608 256.32 
L 203.991608 256.32 
L 166.531469 256.32 
z
" clip-path="url(#p62dbe1ae53)" style="fill: #a1c9f4"/>
   </g>
   <g id="patch_19">
    <path d="M 213.356643 256.32 
L 250.816783 256.32 
L 250.816783 220.261463 
L 213.356643 220.261463 
z
" clip-path="url(#p62dbe1ae53)" style="fill: #a1c9f4"/>
   </g>
   <g id="patch_20">
    <path d="M 260.181818 256.32 
L 297.641958 256.32 
L 297.641958 256.32 
L 260.181818 256.32 
z
" clip-path="url(#p62dbe1ae53)" style="fill: #a1c9f4"/>
   </g>
   <g id="patch_21">
    <path d="M 307.006993 256.32 
L 344.467133 256.32 
L 344.467133 230.563902 
L 307.006993 230.563902 
z
" clip-path="url(#p62dbe1ae53)" style="fill: #a1c9f4"/>
   </g>
   <g id="patch_22">
    <path d="M 353.832168 256.32 
L 391.292308 256.32 
L 391.292308 251.16878 
L 353.832168 251.16878 
z
" clip-path="url(#p62dbe1ae53)" style="fill: #a1c9f4"/>
   </g>
   <g id="patch_23">
    <path d="M 400.657343 256.32 
L 438.117483 256.32 
L 438.117483 184.202927 
L 400.657343 184.202927 
z
" clip-path="url(#p62dbe1ae53)" style="fill: #a1c9f4"/>
   </g>
   <g id="patch_24">
    <path d="M 447.482517 256.32 
L 484.942657 256.32 
L 484.942657 199.656585 
L 447.482517 199.656585 
z
" clip-path="url(#p62dbe1ae53)" style="fill: #a1c9f4"/>
   </g>
   <g id="patch_25">
    <path d="M 494.307692 256.32 
L 531.767832 256.32 
L 531.767832 235.980732 
L 494.307692 235.980732 
z
" clip-path="url(#p62dbe1ae53)" style="fill: #a1c9f4"/>
   </g>
   <g id="patch_26">
    <path d="M 541.132867 256.32 
L 578.593007 256.32 
L 578.593007 209.830244 
L 541.132867 209.830244 
z
" clip-path="url(#p62dbe1ae53)" style="fill: #a1c9f4"/>
   </g>
   <g id="patch_27">
    <path d="M 587.958042 256.32 
L 625.418182 256.32 
L 625.418182 176.476098 
L 587.958042 176.476098 
z
" clip-path="url(#p62dbe1ae53)" style="fill: #a1c9f4"/>
   </g>
   <g id="patch_28">
    <path d="M 634.783217 256.32 
L 672.243357 256.32 
L 672.243357 246.017561 
L 634.783217 246.017561 
z
" clip-path="url(#p62dbe1ae53)" style="fill: #a1c9f4"/>
   </g>
   <g id="patch_29">
    <path d="M 681.608392 256.32 
L 719.068531 256.32 
L 719.068531 240.866341 
L 681.608392 240.866341 
z
" clip-path="url(#p62dbe1ae53)" style="fill: #a1c9f4"/>
   </g>
   <g id="patch_30">
    <path d="M 728.433566 256.32 
L 765.893706 256.32 
L 765.893706 252.223986 
L 728.433566 252.223986 
z
" clip-path="url(#p62dbe1ae53)" style="fill: #a1c9f4"/>
   </g>
   <g id="patch_31">
    <path d="M 119.706294 233.84761 
L 157.166434 233.84761 
L 157.166434 177.666636 
L 119.706294 177.666636 
z
" clip-path="url(#p62dbe1ae53)" style="fill: #4c72b0"/>
   </g>
   <g id="patch_32">
    <path d="M 166.531469 256.32 
L 203.991608 256.32 
L 203.991608 256.32 
L 166.531469 256.32 
z
" clip-path="url(#p62dbe1ae53)" style="fill: #4c72b0"/>
   </g>
   <g id="patch_33">
    <path d="M 213.356643 220.261463 
L 250.816783 220.261463 
L 250.816783 181.627317 
L 213.356643 181.627317 
z
" clip-path="url(#p62dbe1ae53)" style="fill: #4c72b0"/>
   </g>
   <g id="patch_34">
    <path d="M 260.181818 256.32 
L 297.641958 256.32 
L 297.641958 256.32 
L 260.181818 256.32 
z
" clip-path="url(#p62dbe1ae53)" style="fill: #4c72b0"/>
   </g>
   <g id="patch_35">
    <path d="M 307.006993 230.563902 
L 344.467133 230.563902 
L 344.467133 227.988293 
L 307.006993 227.988293 
z
" clip-path="url(#p62dbe1ae53)" style="fill: #4c72b0"/>
   </g>
   <g id="patch_36">
    <path d="M 353.832168 251.16878 
L 391.292308 251.16878 
L 391.292308 243.441951 
L 353.832168 243.441951 
z
" clip-path="url(#p62dbe1ae53)" style="fill: #4c72b0"/>
   </g>
   <g id="patch_37">
    <path d="M 400.657343 184.202927 
L 438.117483 184.202927 
L 438.117483 171.324878 
L 400.657343 171.324878 
z
" clip-path="url(#p62dbe1ae53)" style="fill: #4c72b0"/>
   </g>
   <g id="patch_38">
    <path d="M 447.482517 199.656585 
L 484.942657 199.656585 
L 484.942657 179.051707 
L 447.482517 179.051707 
z
" clip-path="url(#p62dbe1ae53)" style="fill: #4c72b0"/>
   </g>
   <g id="patch_39">
    <path d="M 494.307692 235.980732 
L 531.767832 235.980732 
L 531.767832 218.547073 
L 494.307692 218.547073 
z
" clip-path="url(#p62dbe1ae53)" style="fill: #4c72b0"/>
   </g>
   <g id="patch_40">
    <path d="M 541.132867 209.830244 
L 578.593007 209.830244 
L 578.593007 195.302195 
L 541.132867 195.302195 
z
" clip-path="url(#p62dbe1ae53)" style="fill: #4c72b0"/>
   </g>
   <g id="patch_41">
    <path d="M 587.958042 176.476098 
L 625.418182 176.476098 
L 625.418182 161.022439 
L 587.958042 161.022439 
z
" clip-path="url(#p62dbe1ae53)" style="fill: #4c72b0"/>
   </g>
   <g id="patch_42">
    <path d="M 634.783217 256.32 
L 672.243357 256.32 
L 672.243357 256.32 
L 634.783217 256.32 
z
" clip-path="url(#p62dbe1ae53)" style="fill: #4c72b0"/>
   </g>
   <g id="patch_43">
    <path d="M 681.608392 240.866341 
L 719.068531 240.866341 
L 719.068531 238.290732 
L 681.608392 238.290732 
z
" clip-path="url(#p62dbe1ae53)" style="fill: #4c72b0"/>
   </g>
   <g id="patch_44">
    <path d="M 728.433566 256.32 
L 765.893706 256.32 
L 765.893706 256.32 
L 728.433566 256.32 
z
" clip-path="url(#p62dbe1ae53)" style="fill: #4c72b0"/>
   </g>
   <g id="patch_45">
    <path d="M 119.706294 177.666636 
L 157.166434 177.666636 
L 157.166434 169.23949 
L 119.706294 169.23949 
z
" clip-path="url(#p62dbe1ae53)" style="fill: #ff9f9b"/>
   </g>
   <g id="patch_46">
    <path d="M 166.531469 256.32 
L 203.991608 256.32 
L 203.991608 186.093782 
L 166.531469 186.093782 
z
" clip-path="url(#p62dbe1ae53)" style="fill: #ff9f9b"/>
   </g>
   <g id="patch_47">
    <path d="M 213.356643 181.627317 
L 250.816783 181.627317 
L 250.816783 179.051707 
L 213.356643 179.051707 
z
" clip-path="url(#p62dbe1ae53)" style="fill: #ff9f9b"/>
   </g>
   <g id="patch_48">
    <path d="M 260.181818 256.32 
L 297.641958 256.32 
L 297.641958 171.324878 
L 260.181818 171.324878 
z
" clip-path="url(#p62dbe1ae53)" style="fill: #ff9f9b"/>
   </g>
   <g id="patch_49">
    <path d="M 307.006993 227.988293 
L 344.467133 227.988293 
L 344.467133 176.476098 
L 307.006993 176.476098 
z
" clip-path="url(#p62dbe1ae53)" style="fill: #ff9f9b"/>
   </g>
   <g id="patch_50">
    <path d="M 353.832168 243.441951 
L 391.292308 243.441951 
L 391.292308 240.866341 
L 353.832168 240.866341 
z
" clip-path="url(#p62dbe1ae53)" style="fill: #ff9f9b"/>
   </g>
   <g id="patch_51">
    <path d="M 400.657343 171.324878 
L 438.117483 171.324878 
L 438.117483 158.446829 
L 400.657343 158.446829 
z
" clip-path="url(#p62dbe1ae53)" style="fill: #ff9f9b"/>
   </g>
   <g id="patch_52">
    <path d="M 447.482517 256.32 
L 484.942657 256.32 
L 484.942657 256.32 
L 447.482517 256.32 
z
" clip-path="url(#p62dbe1ae53)" style="fill: #ff9f9b"/>
   </g>
   <g id="patch_53">
    <path d="M 494.307692 218.547073 
L 531.767832 218.547073 
L 531.767832 201.113415 
L 494.307692 201.113415 
z
" clip-path="url(#p62dbe1ae53)" style="fill: #ff9f9b"/>
   </g>
   <g id="patch_54">
    <path d="M 541.132867 195.302195 
L 578.593007 195.302195 
L 578.593007 186.585366 
L 541.132867 186.585366 
z
" clip-path="url(#p62dbe1ae53)" style="fill: #ff9f9b"/>
   </g>
   <g id="patch_55">
    <path d="M 587.958042 161.022439 
L 625.418182 161.022439 
L 625.418182 140.417561 
L 587.958042 140.417561 
z
" clip-path="url(#p62dbe1ae53)" style="fill: #ff9f9b"/>
   </g>
   <g id="patch_56">
    <path d="M 634.783217 246.017561 
L 672.243357 246.017561 
L 672.243357 204.807805 
L 634.783217 204.807805 
z
" clip-path="url(#p62dbe1ae53)" style="fill: #ff9f9b"/>
   </g>
   <g id="patch_57">
    <path d="M 681.608392 238.290732 
L 719.068531 238.290732 
L 719.068531 235.715122 
L 681.608392 235.715122 
z
" clip-path="url(#p62dbe1ae53)" style="fill: #ff9f9b"/>
   </g>
   <g id="patch_58">
    <path d="M 728.433566 256.32 
L 765.893706 256.32 
L 765.893706 256.32 
L 728.433566 256.32 
z
" clip-path="url(#p62dbe1ae53)" style="fill: #ff9f9b"/>
   </g>
   <g id="patch_59">
    <path d="M 119.706294 169.23949 
L 157.166434 169.23949 
L 157.166434 163.621393 
L 119.706294 163.621393 
z
" clip-path="url(#p62dbe1ae53)" style="fill: #c44e52"/>
   </g>
   <g id="patch_60">
    <path d="M 166.531469 186.093782 
L 203.991608 186.093782 
L 203.991608 104.63137 
L 166.531469 104.63137 
z
" clip-path="url(#p62dbe1ae53)" style="fill: #c44e52"/>
   </g>
   <g id="patch_61">
    <path d="M 213.356643 179.051707 
L 250.816783 179.051707 
L 250.816783 173.900488 
L 213.356643 173.900488 
z
" clip-path="url(#p62dbe1ae53)" style="fill: #c44e52"/>
   </g>
   <g id="patch_62">
    <path d="M 260.181818 171.324878 
L 297.641958 171.324878 
L 297.641958 45.12 
L 260.181818 45.12 
z
" clip-path="url(#p62dbe1ae53)" style="fill: #c44e52"/>
   </g>
   <g id="patch_63">
    <path d="M 307.006993 176.476098 
L 344.467133 176.476098 
L 344.467133 161.022439 
L 307.006993 161.022439 
z
" clip-path="url(#p62dbe1ae53)" style="fill: #c44e52"/>
   </g>
   <g id="patch_64">
    <path d="M 353.832168 256.32 
L 391.292308 256.32 
L 391.292308 256.32 
L 353.832168 256.32 
z
" clip-path="url(#p62dbe1ae53)" style="fill: #c44e52"/>
   </g>
   <g id="patch_65">
    <path d="M 400.657343 158.446829 
L 438.117483 158.446829 
L 438.117483 155.87122 
L 400.657343 155.87122 
z
" clip-path="url(#p62dbe1ae53)" style="fill: #c44e52"/>
   </g>
   <g id="patch_66">
    <path d="M 447.482517 179.051707 
L 484.942657 179.051707 
L 484.942657 176.476098 
L 447.482517 176.476098 
z
" clip-path="url(#p62dbe1ae53)" style="fill: #c44e52"/>
   </g>
   <g id="patch_67">
    <path d="M 494.307692 201.113415 
L 531.767832 201.113415 
L 531.767832 189.490976 
L 494.307692 189.490976 
z
" clip-path="url(#p62dbe1ae53)" style="fill: #c44e52"/>
   </g>
   <g id="patch_68">
    <path d="M 541.132867 186.585366 
L 578.593007 186.585366 
L 578.593007 183.679756 
L 541.132867 183.679756 
z
" clip-path="url(#p62dbe1ae53)" style="fill: #c44e52"/>
   </g>
   <g id="patch_69">
    <path d="M 587.958042 140.417561 
L 625.418182 140.417561 
L 625.418182 130.115122 
L 587.958042 130.115122 
z
" clip-path="url(#p62dbe1ae53)" style="fill: #c44e52"/>
   </g>
   <g id="patch_70">
    <path d="M 634.783217 204.807805 
L 672.243357 204.807805 
L 672.243357 189.354146 
L 634.783217 189.354146 
z
" clip-path="url(#p62dbe1ae53)" style="fill: #c44e52"/>
   </g>
   <g id="patch_71">
    <path d="M 681.608392 256.32 
L 719.068531 256.32 
L 719.068531 256.32 
L 681.608392 256.32 
z
" clip-path="url(#p62dbe1ae53)" style="fill: #c44e52"/>
   </g>
   <g id="patch_72">
    <path d="M 728.433566 256.32 
L 765.893706 256.32 
L 765.893706 256.32 
L 728.433566 256.32 
z
" clip-path="url(#p62dbe1ae53)" style="fill: #c44e52"/>
   </g>
   <g id="matplotlib.axis_1">
    <g id="xtick_1">
     <g id="line2d_1">
      <defs>
       <path id="maff61f5424" d="M 0 0 
L 0 12 
" style="stroke: #000000; stroke-width: 2.5"/>
      </defs>
      <g>
       <use xlink:href="#maff61f5424" x="138.436364" y="256.32" style="stroke: #000000; stroke-width: 2.5"/>
      </g>
     </g>
     <g id="text_1">
      <text style="font: 22px 'DejaVu Sans', 'Bitstream Vera Sans', 'Computer Modern Sans Serif', 'Lucida Grande', 'Verdana', 'Geneva', 'Lucid', 'Arial', 'Helvetica', 'Avant Garde', sans-serif" transform="translate(144.506989 374.515312) rotate(-90)">Delta (cf)</text>
     </g>
    </g>
    <g id="xtick_2">
     <g id="line2d_2">
      <g>
       <use xlink:href="#maff61f5424" x="185.261538" y="256.32" style="stroke: #000000; stroke-width: 2.5"/>
      </g>
     </g>
     <g id="text_2">
      <text style="font: 22px 'DejaVu Sans', 'Bitstream Vera Sans', 'Computer Modern Sans Serif', 'Lucida Grande', 'Verdana', 'Geneva', 'Lucid', 'Arial', 'Helvetica', 'Avant Garde', sans-serif" transform="translate(191.332163 386.6325) rotate(-90)">Delta (pw)</text>
     </g>
    </g>
    <g id="xtick_3">
     <g id="line2d_3">
      <g>
       <use xlink:href="#maff61f5424" x="232.086713" y="256.32" style="stroke: #000000; stroke-width: 2.5"/>
      </g>
     </g>
     <g id="text_3">
      <text style="font: 22px 'DejaVu Sans', 'Bitstream Vera Sans', 'Computer Modern Sans Serif', 'Lucida Grande', 'Verdana', 'Geneva', 'Lucid', 'Arial', 'Helvetica', 'Avant Garde', sans-serif" transform="translate(238.157338 378.843125) rotate(-90)">Theta (cf)</text>
     </g>
    </g>
    <g id="xtick_4">
     <g id="line2d_4">
      <g>
       <use xlink:href="#maff61f5424" x="278.911888" y="256.32" style="stroke: #000000; stroke-width: 2.5"/>
      </g>
     </g>
     <g id="text_4">
      <text style="font: 22px 'DejaVu Sans', 'Bitstream Vera Sans', 'Computer Modern Sans Serif', 'Lucida Grande', 'Verdana', 'Geneva', 'Lucid', 'Arial', 'Helvetica', 'Avant Garde', sans-serif" transform="translate(284.982513 390.960312) rotate(-90)">Theta (pw)</text>
     </g>
    </g>
    <g id="xtick_5">
     <g id="line2d_5">
      <g>
       <use xlink:href="#maff61f5424" x="325.737063" y="256.32" style="stroke: #000000; stroke-width: 2.5"/>
      </g>
     </g>
     <g id="text_5">
      <text style="font: 22px 'DejaVu Sans', 'Bitstream Vera Sans', 'Computer Modern Sans Serif', 'Lucida Grande', 'Verdana', 'Geneva', 'Lucid', 'Arial', 'Helvetica', 'Avant Garde', sans-serif" transform="translate(331.807688 378.372187) rotate(-90)">Alpha (cf)</text>
     </g>
    </g>
    <g id="xtick_6">
     <g id="line2d_6">
      <g>
       <use xlink:href="#maff61f5424" x="372.562238" y="256.32" style="stroke: #000000; stroke-width: 2.5"/>
      </g>
     </g>
     <g id="text_6">
      <text style="font: 22px 'DejaVu Sans', 'Bitstream Vera Sans', 'Computer Modern Sans Serif', 'Lucida Grande', 'Verdana', 'Geneva', 'Lucid', 'Arial', 'Helvetica', 'Avant Garde', sans-serif" transform="translate(378.632863 390.489375) rotate(-90)">Alpha (pw)</text>
     </g>
    </g>
    <g id="xtick_7">
     <g id="line2d_7">
      <g>
       <use xlink:href="#maff61f5424" x="419.387413" y="256.32" style="stroke: #000000; stroke-width: 2.5"/>
      </g>
     </g>
     <g id="text_7">
      <text style="font: 22px 'DejaVu Sans', 'Bitstream Vera Sans', 'Computer Modern Sans Serif', 'Lucida Grande', 'Verdana', 'Geneva', 'Lucid', 'Arial', 'Helvetica', 'Avant Garde', sans-serif" transform="translate(425.458038 366.5575) rotate(-90)">Beta (cf)</text>
     </g>
    </g>
    <g id="xtick_8">
     <g id="line2d_8">
      <g>
       <use xlink:href="#maff61f5424" x="466.212587" y="256.32" style="stroke: #000000; stroke-width: 2.5"/>
      </g>
     </g>
     <g id="text_8">
      <text style="font: 22px 'DejaVu Sans', 'Bitstream Vera Sans', 'Computer Modern Sans Serif', 'Lucida Grande', 'Verdana', 'Geneva', 'Lucid', 'Arial', 'Helvetica', 'Avant Garde', sans-serif" transform="translate(472.283212 378.674688) rotate(-90)">Beta (pw)</text>
     </g>
    </g>
    <g id="xtick_9">
     <g id="line2d_9">
      <g>
       <use xlink:href="#maff61f5424" x="513.037762" y="256.32" style="stroke: #000000; stroke-width: 2.5"/>
      </g>
     </g>
     <g id="text_9">
      <text style="font: 22px 'DejaVu Sans', 'Bitstream Vera Sans', 'Computer Modern Sans Serif', 'Lucida Grande', 'Verdana', 'Geneva', 'Lucid', 'Arial', 'Helvetica', 'Avant Garde', sans-serif" transform="translate(519.108387 402.689063) rotate(-90)">Gamma (cf)</text>
     </g>
    </g>
    <g id="xtick_10">
     <g id="line2d_10">
      <g>
       <use xlink:href="#maff61f5424" x="559.862937" y="256.32" style="stroke: #000000; stroke-width: 2.5"/>
      </g>
     </g>
     <g id="text_10">
      <text style="font: 22px 'DejaVu Sans', 'Bitstream Vera Sans', 'Computer Modern Sans Serif', 'Lucida Grande', 'Verdana', 'Geneva', 'Lucid', 'Arial', 'Helvetica', 'Avant Garde', sans-serif" transform="translate(565.933562 414.80625) rotate(-90)">Gamma (pw)</text>
     </g>
    </g>
    <g id="xtick_11">
     <g id="line2d_11">
      <g>
       <use xlink:href="#maff61f5424" x="606.688112" y="256.32" style="stroke: #000000; stroke-width: 2.5"/>
      </g>
     </g>
     <g id="text_11">
      <text style="font: 22px 'DejaVu Sans', 'Bitstream Vera Sans', 'Computer Modern Sans Serif', 'Lucida Grande', 'Verdana', 'Geneva', 'Lucid', 'Arial', 'Helvetica', 'Avant Garde', sans-serif" transform="translate(612.758737 353.941875) rotate(-90)">#Peaks</text>
     </g>
    </g>
    <g id="xtick_12">
     <g id="line2d_12">
      <g>
       <use xlink:href="#maff61f5424" x="653.513287" y="256.32" style="stroke: #000000; stroke-width: 2.5"/>
      </g>
     </g>
     <g id="text_12">
      <text style="font: 22px 'DejaVu Sans', 'Bitstream Vera Sans', 'Computer Modern Sans Serif', 'Lucida Grande', 'Verdana', 'Geneva', 'Lucid', 'Arial', 'Helvetica', 'Avant Garde', sans-serif" transform="translate(659.583912 376.216875) rotate(-90)">Exponent</text>
     </g>
    </g>
    <g id="xtick_13">
     <g id="line2d_13">
      <g>
       <use xlink:href="#maff61f5424" x="700.338462" y="256.32" style="stroke: #000000; stroke-width: 2.5"/>
      </g>
     </g>
     <g id="text_13">
      <text style="font: 22px 'DejaVu Sans', 'Bitstream Vera Sans', 'Computer Modern Sans Serif', 'Lucida Grande', 'Verdana', 'Geneva', 'Lucid', 'Arial', 'Helvetica', 'Avant Garde', sans-serif" transform="translate(706.409087 338.249687) rotate(-90)">Offset</text>
     </g>
    </g>
    <g id="xtick_14">
     <g id="line2d_14">
      <g>
       <use xlink:href="#maff61f5424" x="747.163636" y="256.32" style="stroke: #000000; stroke-width: 2.5"/>
      </g>
     </g>
     <g id="text_14">
      <text style="font: 22px 'DejaVu Sans', 'Bitstream Vera Sans', 'Computer Modern Sans Serif', 'Lucida Grande', 'Verdana', 'Geneva', 'Lucid', 'Arial', 'Helvetica', 'Avant Garde', sans-serif" transform="translate(753.234261 500.155937) rotate(-90)">Knee Frequency (Hz)</text>
     </g>
    </g>
   </g>
   <g id="matplotlib.axis_2">
    <g id="ytick_1">
     <g id="line2d_15">
      <defs>
       <path id="mcca976a4e0" d="M 0 0 
L -12 0 
" style="stroke: #000000; stroke-width: 2.5"/>
      </defs>
      <g>
       <use xlink:href="#mcca976a4e0" x="108" y="256.32" style="stroke: #000000; stroke-width: 2.5"/>
      </g>
     </g>
     <g id="text_15">
      <text style="font: 22px 'DejaVu Sans', 'Bitstream Vera Sans', 'Computer Modern Sans Serif', 'Lucida Grande', 'Verdana', 'Geneva', 'Lucid', 'Arial', 'Helvetica', 'Avant Garde', sans-serif; text-anchor: end" x="92.5" y="264.678281" transform="rotate(-0 92.5 264.678281)">0</text>
     </g>
    </g>
    <g id="ytick_2">
     <g id="line2d_16">
      <g>
       <use xlink:href="#mcca976a4e0" x="108" y="209.830244" style="stroke: #000000; stroke-width: 2.5"/>
      </g>
     </g>
     <g id="text_16">
      <text style="font: 22px 'DejaVu Sans', 'Bitstream Vera Sans', 'Computer Modern Sans Serif', 'Lucida Grande', 'Verdana', 'Geneva', 'Lucid', 'Arial', 'Helvetica', 'Avant Garde', sans-serif; text-anchor: end" x="92.5" y="218.188525" transform="rotate(-0 92.5 218.188525)">5</text>
     </g>
    </g>
    <g id="ytick_3">
     <g id="line2d_17">
      <g>
       <use xlink:href="#mcca976a4e0" x="108" y="163.340488" style="stroke: #000000; stroke-width: 2.5"/>
      </g>
     </g>
     <g id="text_17">
      <text style="font: 22px 'DejaVu Sans', 'Bitstream Vera Sans', 'Computer Modern Sans Serif', 'Lucida Grande', 'Verdana', 'Geneva', 'Lucid', 'Arial', 'Helvetica', 'Avant Garde', sans-serif; text-anchor: end" x="92.5" y="171.698769" transform="rotate(-0 92.5 171.698769)">10</text>
     </g>
    </g>
    <g id="ytick_4">
     <g id="line2d_18">
      <g>
       <use xlink:href="#mcca976a4e0" x="108" y="116.850732" style="stroke: #000000; stroke-width: 2.5"/>
      </g>
     </g>
     <g id="text_18">
      <text style="font: 22px 'DejaVu Sans', 'Bitstream Vera Sans', 'Computer Modern Sans Serif', 'Lucida Grande', 'Verdana', 'Geneva', 'Lucid', 'Arial', 'Helvetica', 'Avant Garde', sans-serif; text-anchor: end" x="92.5" y="125.209013" transform="rotate(-0 92.5 125.209013)">15</text>
     </g>
    </g>
    <g id="ytick_5">
     <g id="line2d_19">
      <g>
       <use xlink:href="#mcca976a4e0" x="108" y="70.360976" style="stroke: #000000; stroke-width: 2.5"/>
      </g>
     </g>
     <g id="text_19">
      <text style="font: 22px 'DejaVu Sans', 'Bitstream Vera Sans', 'Computer Modern Sans Serif', 'Lucida Grande', 'Verdana', 'Geneva', 'Lucid', 'Arial', 'Helvetica', 'Avant Garde', sans-serif; text-anchor: end" x="92.5" y="78.719257" transform="rotate(-0 92.5 78.719257)">20</text>
     </g>
    </g>
    <g id="text_20">
     <text style="font: 24px 'DejaVu Sans', 'Bitstream Vera Sans', 'Computer Modern Sans Serif', 'Lucida Grande', 'Verdana', 'Geneva', 'Lucid', 'Arial', 'Helvetica', 'Avant Garde', sans-serif; text-anchor: middle" x="55.51375" y="145.44" transform="rotate(-90 55.51375 145.44)">Observed Effect (%)</text>
    </g>
   </g>
   <g id="patch_73">
    <path d="M 108 256.32 
L 108 34.56 
" style="fill: none; stroke: #000000; stroke-width: 2.5; stroke-linejoin: miter; stroke-linecap: square"/>
   </g>
   <g id="patch_74">
    <path d="M 108 256.32 
L 777.6 256.32 
" style="fill: none; stroke: #000000; stroke-width: 2.5; stroke-linejoin: miter; stroke-linecap: square"/>
   </g>
   <g id="legend_1">
    <g id="patch_75">
     <path d="M 437.215312 245.32 
L 762.2 245.32 
Q 766.6 245.32 766.6 240.92 
L 766.6 47.433125 
Q 766.6 43.033125 762.2 43.033125 
L 437.215312 43.033125 
Q 432.815313 43.033125 432.815313 47.433125 
L 432.815313 240.92 
Q 432.815313 245.32 437.215312 245.32 
z
" style="fill: #ffffff; opacity: 0.8; stroke: #cccccc; stroke-width: 2; stroke-linejoin: miter"/>
    </g>
    <g id="text_21">
     <text style="font: 24px 'DejaVu Sans', 'Bitstream Vera Sans', 'Computer Modern Sans Serif', 'Lucida Grande', 'Verdana', 'Geneva', 'Lucid', 'Arial', 'Helvetica', 'Avant Garde', sans-serif; text-anchor: start" x="564.990156" y="70.069375" transform="rotate(-0 564.990156 70.069375)">Effect</text>
    </g>
    <g id="patch_76">
     <path d="M 441.615313 102.777187 
L 485.615313 102.777187 
L 485.615313 87.377187 
L 441.615313 87.377187 
z
" style="fill: #55a868"/>
    </g>
    <g id="text_22">
     <text style="font: 22px 'DejaVu Sans', 'Bitstream Vera Sans', 'Computer Modern Sans Serif', 'Lucida Grande', 'Verdana', 'Geneva', 'Lucid', 'Arial', 'Helvetica', 'Avant Garde', sans-serif; text-anchor: start" x="503.215313" y="102.777187" transform="rotate(-0 503.215313 102.777187)">null effect</text>
    </g>
    <g id="patch_77">
     <path d="M 441.615313 135.069062 
L 485.615313 135.069062 
L 485.615313 119.669062 
L 441.615313 119.669062 
z
" style="fill: #a1c9f4"/>
    </g>
    <g id="text_23">
     <text style="font: 22px 'DejaVu Sans', 'Bitstream Vera Sans', 'Computer Modern Sans Serif', 'Lucida Grande', 'Verdana', 'Geneva', 'Lucid', 'Arial', 'Helvetica', 'Avant Garde', sans-serif; text-anchor: start" x="503.215313" y="135.069062" transform="rotate(-0 503.215313 135.069062)">leaning negative effect</text>
    </g>
    <g id="patch_78">
     <path d="M 441.615313 167.360937 
L 485.615313 167.360937 
L 485.615313 151.960937 
L 441.615313 151.960937 
z
" style="fill: #4c72b0"/>
    </g>
    <g id="text_24">
     <text style="font: 22px 'DejaVu Sans', 'Bitstream Vera Sans', 'Computer Modern Sans Serif', 'Lucida Grande', 'Verdana', 'Geneva', 'Lucid', 'Arial', 'Helvetica', 'Avant Garde', sans-serif; text-anchor: start" x="503.215313" y="167.360937" transform="rotate(-0 503.215313 167.360937)">negative effect</text>
    </g>
    <g id="patch_79">
     <path d="M 441.615313 199.652812 
L 485.615313 199.652812 
L 485.615313 184.252812 
L 441.615313 184.252812 
z
" style="fill: #ff9f9b"/>
    </g>
    <g id="text_25">
     <text style="font: 22px 'DejaVu Sans', 'Bitstream Vera Sans', 'Computer Modern Sans Serif', 'Lucida Grande', 'Verdana', 'Geneva', 'Lucid', 'Arial', 'Helvetica', 'Avant Garde', sans-serif; text-anchor: start" x="503.215313" y="199.652812" transform="rotate(-0 503.215313 199.652812)">leaning positive effect</text>
    </g>
    <g id="patch_80">
     <path d="M 441.615313 231.944687 
L 485.615313 231.944687 
L 485.615313 216.544687 
L 441.615313 216.544687 
z
" style="fill: #c44e52"/>
    </g>
    <g id="text_26">
     <text style="font: 22px 'DejaVu Sans', 'Bitstream Vera Sans', 'Computer Modern Sans Serif', 'Lucida Grande', 'Verdana', 'Geneva', 'Lucid', 'Arial', 'Helvetica', 'Avant Garde', sans-serif; text-anchor: start" x="503.215313" y="231.944687" transform="rotate(-0 503.215313 231.944687)">positive effect</text>
    </g>
   </g>
  </g>
 </g>
 <defs>
  <clipPath id="p62dbe1ae53">
   <rect x="108" y="34.56" width="669.6" height="221.76"/>
  </clipPath>
 </defs>
</svg>
