<?xml version="1.0" encoding="utf-8" standalone="no"?>
<!DOCTYPE svg PUBLIC "-//W3C//DTD SVG 1.1//EN"
  "http://www.w3.org/Graphics/SVG/1.1/DTD/svg11.dtd">
<svg xmlns:xlink="http://www.w3.org/1999/xlink" width="288pt" height="288pt" viewBox="0 0 288 288" xmlns="http://www.w3.org/2000/svg" version="1.1">
 <metadata>
  <rdf:RDF xmlns:dc="http://purl.org/dc/elements/1.1/" xmlns:cc="http://creativecommons.org/ns#" xmlns:rdf="http://www.w3.org/1999/02/22-rdf-syntax-ns#">
   <cc:Work>
    <dc:type rdf:resource="http://purl.org/dc/dcmitype/StillImage"/>
    <dc:date>2023-10-02T10:14:05.693966</dc:date>
    <dc:format>image/svg+xml</dc:format>
    <dc:creator>
     <cc:Agent>
      <dc:title>Matplotlib v3.8.0, https://matplotlib.org/</dc:title>
     </cc:Agent>
    </dc:creator>
   </cc:Work>
  </rdf:RDF>
 </metadata>
 <defs>
  <style type="text/css">*{stroke-linejoin: round; stroke-linecap: butt}</style>
 </defs>
 <g id="figure_1">
  <g id="patch_1">
   <path d="M 0 288 
L 288 288 
L 288 0 
L 0 0 
z
" style="fill: #ffffff"/>
  </g>
  <g id="axes_1">
   <g id="patch_2">
    <path d="M 36 256.32 
L 259.2 256.32 
L 259.2 34.56 
L 36 34.56 
z
" style="fill: #ffffff"/>
   </g>
   <g id="matplotlib.axis_1">
    <g id="xtick_1">
     <g id="line2d_1">
      <defs>
       <path id="m8007f15bac" d="M 0 0 
L 0 12 
" style="stroke: #262626; stroke-width: 2.5"/>
      </defs>
      <g>
       <use xlink:href="#m8007f15bac" x="36" y="256.32" style="fill: #262626; stroke: #262626; stroke-width: 2.5"/>
      </g>
     </g>
     <g id="text_1">
      <text style="fill: #262626; font: 22px 'Arial', 'DejaVu Sans', 'Liberation Sans', 'Bitstream Vera Sans', sans-serif; text-anchor: middle" x="36" y="287.567187" transform="rotate(-0 36 287.567187)">0</text>
     </g>
    </g>
    <g id="xtick_2">
     <g id="line2d_2">
      <g>
       <use xlink:href="#m8007f15bac" x="147.6" y="256.32" style="fill: #262626; stroke: #262626; stroke-width: 2.5"/>
      </g>
     </g>
     <g id="text_2">
      <text style="fill: #262626; font: 22px 'Arial', 'DejaVu Sans', 'Liberation Sans', 'Bitstream Vera Sans', sans-serif; text-anchor: middle" x="147.6" y="287.567187" transform="rotate(-0 147.6 287.567187)">20</text>
     </g>
    </g>
    <g id="xtick_3">
     <g id="line2d_3">
      <g>
       <use xlink:href="#m8007f15bac" x="259.2" y="256.32" style="fill: #262626; stroke: #262626; stroke-width: 2.5"/>
      </g>
     </g>
     <g id="text_3">
      <text style="fill: #262626; font: 22px 'Arial', 'DejaVu Sans', 'Liberation Sans', 'Bitstream Vera Sans', sans-serif; text-anchor: middle" x="259.2" y="287.567187" transform="rotate(-0 259.2 287.567187)">40</text>
     </g>
    </g>
    <g id="text_4">
     <text style="fill: #262626; font: 24px 'Arial', 'DejaVu Sans', 'Liberation Sans', 'Bitstream Vera Sans', sans-serif; text-anchor: middle" x="147.6" y="313.410937" transform="rotate(-0 147.6 313.410937)">Knee Frequency (Hz)</text>
    </g>
   </g>
   <g id="matplotlib.axis_2">
    <g id="ytick_1">
     <g id="line2d_4">
      <defs>
       <path id="ma68be0c318" d="M 0 0 
L -12 0 
" style="stroke: #262626; stroke-width: 2.5"/>
      </defs>
      <g>
       <use xlink:href="#ma68be0c318" x="36" y="256.32" style="fill: #262626; stroke: #262626; stroke-width: 2.5"/>
      </g>
     </g>
     <g id="text_5">
      <text style="fill: #262626; font: 22px 'Arial', 'DejaVu Sans', 'Liberation Sans', 'Bitstream Vera Sans', sans-serif; text-anchor: end" x="20.5" y="264.193594" transform="rotate(-0 20.5 264.193594)">0</text>
     </g>
    </g>
    <g id="ytick_2">
     <g id="line2d_5">
      <g>
       <use xlink:href="#ma68be0c318" x="36" y="211.968" style="fill: #262626; stroke: #262626; stroke-width: 2.5"/>
      </g>
     </g>
     <g id="text_6">
      <text style="fill: #262626; font: 22px 'Arial', 'DejaVu Sans', 'Liberation Sans', 'Bitstream Vera Sans', sans-serif; text-anchor: end" x="20.5" y="219.841594" transform="rotate(-0 20.5 219.841594)">100</text>
     </g>
    </g>
    <g id="ytick_3">
     <g id="line2d_6">
      <g>
       <use xlink:href="#ma68be0c318" x="36" y="167.616" style="fill: #262626; stroke: #262626; stroke-width: 2.5"/>
      </g>
     </g>
     <g id="text_7">
      <text style="fill: #262626; font: 22px 'Arial', 'DejaVu Sans', 'Liberation Sans', 'Bitstream Vera Sans', sans-serif; text-anchor: end" x="20.5" y="175.489594" transform="rotate(-0 20.5 175.489594)">200</text>
     </g>
    </g>
    <g id="ytick_4">
     <g id="line2d_7">
      <g>
       <use xlink:href="#ma68be0c318" x="36" y="123.264" style="fill: #262626; stroke: #262626; stroke-width: 2.5"/>
      </g>
     </g>
     <g id="text_8">
      <text style="fill: #262626; font: 22px 'Arial', 'DejaVu Sans', 'Liberation Sans', 'Bitstream Vera Sans', sans-serif; text-anchor: end" x="20.5" y="131.137594" transform="rotate(-0 20.5 131.137594)">300</text>
     </g>
    </g>
    <g id="ytick_5">
     <g id="line2d_8">
      <g>
       <use xlink:href="#ma68be0c318" x="36" y="78.912" style="fill: #262626; stroke: #262626; stroke-width: 2.5"/>
      </g>
     </g>
     <g id="text_9">
      <text style="fill: #262626; font: 22px 'Arial', 'DejaVu Sans', 'Liberation Sans', 'Bitstream Vera Sans', sans-serif; text-anchor: end" x="20.5" y="86.785594" transform="rotate(-0 20.5 86.785594)">400</text>
     </g>
    </g>
    <g id="ytick_6">
     <g id="line2d_9">
      <g>
       <use xlink:href="#ma68be0c318" x="36" y="34.56" style="fill: #262626; stroke: #262626; stroke-width: 2.5"/>
      </g>
     </g>
     <g id="text_10">
      <text style="fill: #262626; font: 22px 'Arial', 'DejaVu Sans', 'Liberation Sans', 'Bitstream Vera Sans', sans-serif; text-anchor: end" x="20.5" y="42.433594" transform="rotate(-0 20.5 42.433594)">500</text>
     </g>
    </g>
    <g id="text_11">
     <text style="fill: #262626; font: 24px 'Arial', 'DejaVu Sans', 'Liberation Sans', 'Bitstream Vera Sans', sans-serif; text-anchor: middle" x="-24.972188" y="145.44" transform="rotate(-90 -24.972188 145.44)">Count</text>
    </g>
   </g>
   <g id="patch_3">
    <path d="M 36.008766 256.32 
L 53.590319 256.32 
L 53.590319 60.72768 
L 36.008766 60.72768 
z
" clip-path="url(#pb854590b54)" style="fill: #4c72b0; stroke: #4c72b0; stroke-width: 2; stroke-linejoin: miter"/>
   </g>
   <g id="patch_4">
    <path d="M 53.590319 256.32 
L 71.171873 256.32 
L 71.171873 196.00128 
L 53.590319 196.00128 
z
" clip-path="url(#pb854590b54)" style="fill: #4c72b0; stroke: #4c72b0; stroke-width: 2; stroke-linejoin: miter"/>
   </g>
   <g id="patch_5">
    <path d="M 71.171873 256.32 
L 88.753427 256.32 
L 88.753427 219.95136 
L 71.171873 219.95136 
z
" clip-path="url(#pb854590b54)" style="fill: #4c72b0; stroke: #4c72b0; stroke-width: 2; stroke-linejoin: miter"/>
   </g>
   <g id="patch_6">
    <path d="M 88.753427 256.32 
L 106.334981 256.32 
L 106.334981 224.83008 
L 88.753427 224.83008 
z
" clip-path="url(#pb854590b54)" style="fill: #4c72b0; stroke: #4c72b0; stroke-width: 2; stroke-linejoin: miter"/>
   </g>
   <g id="patch_7">
    <path d="M 106.334981 256.32 
L 123.916534 256.32 
L 123.916534 234.58752 
L 106.334981 234.58752 
z
" clip-path="url(#pb854590b54)" style="fill: #4c72b0; stroke: #4c72b0; stroke-width: 2; stroke-linejoin: miter"/>
   </g>
   <g id="patch_8">
    <path d="M 123.916534 256.32 
L 141.498088 256.32 
L 141.498088 246.56256 
L 123.916534 246.56256 
z
" clip-path="url(#pb854590b54)" style="fill: #4c72b0; stroke: #4c72b0; stroke-width: 2; stroke-linejoin: miter"/>
   </g>
   <g id="patch_9">
    <path d="M 141.498088 256.32 
L 159.079642 256.32 
L 159.079642 254.54592 
L 141.498088 254.54592 
z
" clip-path="url(#pb854590b54)" style="fill: #4c72b0; stroke: #4c72b0; stroke-width: 2; stroke-linejoin: miter"/>
   </g>
   <g id="patch_10">
    <path d="M 159.079642 256.32 
L 176.661195 256.32 
L 176.661195 254.54592 
L 159.079642 254.54592 
z
" clip-path="url(#pb854590b54)" style="fill: #4c72b0; stroke: #4c72b0; stroke-width: 2; stroke-linejoin: miter"/>
   </g>
   <g id="patch_11">
    <path d="M 176.661195 256.32 
L 194.242749 256.32 
L 194.242749 254.98944 
L 176.661195 254.98944 
z
" clip-path="url(#pb854590b54)" style="fill: #4c72b0; stroke: #4c72b0; stroke-width: 2; stroke-linejoin: miter"/>
   </g>
   <g id="patch_12">
    <path d="M 194.242749 256.32 
L 211.824303 256.32 
L 211.824303 254.54592 
L 194.242749 254.54592 
z
" clip-path="url(#pb854590b54)" style="fill: #4c72b0; stroke: #4c72b0; stroke-width: 2; stroke-linejoin: miter"/>
   </g>
   <g id="patch_13">
    <path d="M 211.824303 256.32 
L 229.405857 256.32 
L 229.405857 254.54592 
L 211.824303 254.54592 
z
" clip-path="url(#pb854590b54)" style="fill: #4c72b0; stroke: #4c72b0; stroke-width: 2; stroke-linejoin: miter"/>
   </g>
   <g id="patch_14">
    <path d="M 229.405857 256.32 
L 246.98741 256.32 
L 246.98741 255.43296 
L 229.405857 255.43296 
z
" clip-path="url(#pb854590b54)" style="fill: #4c72b0; stroke: #4c72b0; stroke-width: 2; stroke-linejoin: miter"/>
   </g>
   <g id="patch_15">
    <path d="M 246.98741 256.32 
L 264.568964 256.32 
L 264.568964 254.98944 
L 246.98741 254.98944 
z
" clip-path="url(#pb854590b54)" style="fill: #4c72b0; stroke: #4c72b0; stroke-width: 2; stroke-linejoin: miter"/>
   </g>
   <g id="patch_16">
    <path d="M 264.568964 256.32 
L 282.150518 256.32 
L 282.150518 255.43296 
L 264.568964 255.43296 
z
" clip-path="url(#pb854590b54)" style="fill: #4c72b0; stroke: #4c72b0; stroke-width: 2; stroke-linejoin: miter"/>
   </g>
   <g id="patch_17">
    <path d="M 282.150518 256.32 
L 299.732072 256.32 
L 299.732072 253.65888 
L 282.150518 253.65888 
z
" clip-path="url(#pb854590b54)" style="fill: #4c72b0; stroke: #4c72b0; stroke-width: 2; stroke-linejoin: miter"/>
   </g>
   <g id="patch_18">
    <path d="M 299.732072 256.32 
L 317.313625 256.32 
L 317.313625 255.43296 
L 299.732072 255.43296 
z
" clip-path="url(#pb854590b54)" style="fill: #4c72b0; stroke: #4c72b0; stroke-width: 2; stroke-linejoin: miter"/>
   </g>
   <g id="patch_19">
    <path d="M 317.313625 256.32 
L 334.895179 256.32 
L 334.895179 254.1024 
L 317.313625 254.1024 
z
" clip-path="url(#pb854590b54)" style="fill: #4c72b0; stroke: #4c72b0; stroke-width: 2; stroke-linejoin: miter"/>
   </g>
   <g id="patch_20">
    <path d="M 334.895179 256.32 
L 352.476733 256.32 
L 352.476733 256.32 
L 334.895179 256.32 
z
" clip-path="url(#pb854590b54)" style="fill: #4c72b0; stroke: #4c72b0; stroke-width: 2; stroke-linejoin: miter"/>
   </g>
   <g id="patch_21">
    <path d="M 352.476733 256.32 
L 370.058286 256.32 
L 370.058286 254.98944 
L 352.476733 254.98944 
z
" clip-path="url(#pb854590b54)" style="fill: #4c72b0; stroke: #4c72b0; stroke-width: 2; stroke-linejoin: miter"/>
   </g>
   <g id="patch_22">
    <path d="M 370.058286 256.32 
L 387.63984 256.32 
L 387.63984 255.87648 
L 370.058286 255.87648 
z
" clip-path="url(#pb854590b54)" style="fill: #4c72b0; stroke: #4c72b0; stroke-width: 2; stroke-linejoin: miter"/>
   </g>
   <g id="patch_23">
    <path d="M 387.63984 256.32 
L 405.221394 256.32 
L 405.221394 254.1024 
L 387.63984 254.1024 
z
" clip-path="url(#pb854590b54)" style="fill: #4c72b0; stroke: #4c72b0; stroke-width: 2; stroke-linejoin: miter"/>
   </g>
   <g id="patch_24">
    <path d="M 405.221394 256.32 
L 422.802948 256.32 
L 422.802948 253.21536 
L 405.221394 253.21536 
z
" clip-path="url(#pb854590b54)" style="fill: #4c72b0; stroke: #4c72b0; stroke-width: 2; stroke-linejoin: miter"/>
   </g>
   <g id="patch_25">
    <path d="M 422.802948 256.32 
L 440.384501 256.32 
L 440.384501 256.32 
L 422.802948 256.32 
z
" clip-path="url(#pb854590b54)" style="fill: #4c72b0; stroke: #4c72b0; stroke-width: 2; stroke-linejoin: miter"/>
   </g>
   <g id="patch_26">
    <path d="M 440.384501 256.32 
L 457.966055 256.32 
L 457.966055 253.65888 
L 440.384501 253.65888 
z
" clip-path="url(#pb854590b54)" style="fill: #4c72b0; stroke: #4c72b0; stroke-width: 2; stroke-linejoin: miter"/>
   </g>
   <g id="patch_27">
    <path d="M 457.966055 256.32 
L 475.547609 256.32 
L 475.547609 254.54592 
L 457.966055 254.54592 
z
" clip-path="url(#pb854590b54)" style="fill: #4c72b0; stroke: #4c72b0; stroke-width: 2; stroke-linejoin: miter"/>
   </g>
   <g id="patch_28">
    <path d="M 475.547609 256.32 
L 493.129163 256.32 
L 493.129163 255.43296 
L 475.547609 255.43296 
z
" clip-path="url(#pb854590b54)" style="fill: #4c72b0; stroke: #4c72b0; stroke-width: 2; stroke-linejoin: miter"/>
   </g>
   <g id="patch_29">
    <path d="M 493.129163 256.32 
L 510.710716 256.32 
L 510.710716 254.54592 
L 493.129163 254.54592 
z
" clip-path="url(#pb854590b54)" style="fill: #4c72b0; stroke: #4c72b0; stroke-width: 2; stroke-linejoin: miter"/>
   </g>
   <g id="patch_30">
    <path d="M 510.710716 256.32 
L 528.29227 256.32 
L 528.29227 254.54592 
L 510.710716 254.54592 
z
" clip-path="url(#pb854590b54)" style="fill: #4c72b0; stroke: #4c72b0; stroke-width: 2; stroke-linejoin: miter"/>
   </g>
   <g id="patch_31">
    <path d="M 528.29227 256.32 
L 545.873824 256.32 
L 545.873824 255.43296 
L 528.29227 255.43296 
z
" clip-path="url(#pb854590b54)" style="fill: #4c72b0; stroke: #4c72b0; stroke-width: 2; stroke-linejoin: miter"/>
   </g>
   <g id="patch_32">
    <path d="M 545.873824 256.32 
L 563.455378 256.32 
L 563.455378 256.32 
L 545.873824 256.32 
z
" clip-path="url(#pb854590b54)" style="fill: #4c72b0; stroke: #4c72b0; stroke-width: 2; stroke-linejoin: miter"/>
   </g>
   <g id="patch_33">
    <path d="M 563.455378 256.32 
L 581.036931 256.32 
L 581.036931 255.87648 
L 563.455378 255.87648 
z
" clip-path="url(#pb854590b54)" style="fill: #4c72b0; stroke: #4c72b0; stroke-width: 2; stroke-linejoin: miter"/>
   </g>
   <g id="patch_34">
    <path d="M 581.036931 256.32 
L 598.618485 256.32 
L 598.618485 254.98944 
L 581.036931 254.98944 
z
" clip-path="url(#pb854590b54)" style="fill: #4c72b0; stroke: #4c72b0; stroke-width: 2; stroke-linejoin: miter"/>
   </g>
   <g id="patch_35">
    <path d="M 598.618485 256.32 
L 616.200039 256.32 
L 616.200039 256.32 
L 598.618485 256.32 
z
" clip-path="url(#pb854590b54)" style="fill: #4c72b0; stroke: #4c72b0; stroke-width: 2; stroke-linejoin: miter"/>
   </g>
   <g id="patch_36">
    <path d="M 616.200039 256.32 
L 633.781592 256.32 
L 633.781592 254.98944 
L 616.200039 254.98944 
z
" clip-path="url(#pb854590b54)" style="fill: #4c72b0; stroke: #4c72b0; stroke-width: 2; stroke-linejoin: miter"/>
   </g>
   <g id="patch_37">
    <path d="M 633.781592 256.32 
L 651.363146 256.32 
L 651.363146 256.32 
L 633.781592 256.32 
z
" clip-path="url(#pb854590b54)" style="fill: #4c72b0; stroke: #4c72b0; stroke-width: 2; stroke-linejoin: miter"/>
   </g>
   <g id="patch_38">
    <path d="M 651.363146 256.32 
L 668.9447 256.32 
L 668.9447 255.87648 
L 651.363146 255.87648 
z
" clip-path="url(#pb854590b54)" style="fill: #4c72b0; stroke: #4c72b0; stroke-width: 2; stroke-linejoin: miter"/>
   </g>
   <g id="patch_39">
    <path d="M 668.9447 256.32 
L 686.526254 256.32 
L 686.526254 256.32 
L 668.9447 256.32 
z
" clip-path="url(#pb854590b54)" style="fill: #4c72b0; stroke: #4c72b0; stroke-width: 2; stroke-linejoin: miter"/>
   </g>
   <g id="patch_40">
    <path d="M 686.526254 256.32 
L 704.107807 256.32 
L 704.107807 256.32 
L 686.526254 256.32 
z
" clip-path="url(#pb854590b54)" style="fill: #4c72b0; stroke: #4c72b0; stroke-width: 2; stroke-linejoin: miter"/>
   </g>
   <g id="patch_41">
    <path d="M 704.107807 256.32 
L 721.689361 256.32 
L 721.689361 255.87648 
L 704.107807 255.87648 
z
" clip-path="url(#pb854590b54)" style="fill: #4c72b0; stroke: #4c72b0; stroke-width: 2; stroke-linejoin: miter"/>
   </g>
   <g id="patch_42">
    <path d="M 721.689361 256.32 
L 739.270915 256.32 
L 739.270915 255.87648 
L 721.689361 255.87648 
z
" clip-path="url(#pb854590b54)" style="fill: #4c72b0; stroke: #4c72b0; stroke-width: 2; stroke-linejoin: miter"/>
   </g>
   <g id="patch_43">
    <path d="M 36 256.32 
L 36 34.56 
" style="fill: none; stroke: #262626; stroke-width: 2.5; stroke-linejoin: miter; stroke-linecap: square"/>
   </g>
   <g id="patch_44">
    <path d="M 36 256.32 
L 259.2 256.32 
" style="fill: none; stroke: #262626; stroke-width: 2.5; stroke-linejoin: miter; stroke-linecap: square"/>
   </g>
  </g>
 </g>
 <defs>
  <clipPath id="pb854590b54">
   <rect x="36" y="34.56" width="223.2" height="221.76"/>
  </clipPath>
 </defs>
</svg>
