<?xml version="1.0" encoding="utf-8" standalone="no"?>
<!DOCTYPE svg PUBLIC "-//W3C//DTD SVG 1.1//EN"
  "http://www.w3.org/Graphics/SVG/1.1/DTD/svg11.dtd">
<svg xmlns:xlink="http://www.w3.org/1999/xlink" width="288pt" height="288pt" viewBox="0 0 288 288" xmlns="http://www.w3.org/2000/svg" version="1.1">
 <metadata>
  <rdf:RDF xmlns:dc="http://purl.org/dc/elements/1.1/" xmlns:cc="http://creativecommons.org/ns#" xmlns:rdf="http://www.w3.org/1999/02/22-rdf-syntax-ns#">
   <cc:Work>
    <dc:type rdf:resource="http://purl.org/dc/dcmitype/StillImage"/>
    <dc:date>2023-10-13T13:30:32.891660</dc:date>
    <dc:format>image/svg+xml</dc:format>
    <dc:creator>
     <cc:Agent>
      <dc:title>Matplotlib v3.8.0, https://matplotlib.org/</dc:title>
     </cc:Agent>
    </dc:creator>
   </cc:Work>
  </rdf:RDF>
 </metadata>
 <defs>
  <style type="text/css">*{stroke-linejoin: round; stroke-linecap: butt}</style>
 </defs>
 <g id="figure_1">
  <g id="patch_1">
   <path d="M 0 288 
L 288 288 
L 288 0 
L 0 0 
z
" style="fill: #ffffff"/>
  </g>
  <g id="axes_1">
   <g id="patch_2">
    <path d="M 36 256.32 
L 259.2 256.32 
L 259.2 34.56 
L 36 34.56 
z
" style="fill: #ffffff"/>
   </g>
   <g id="matplotlib.axis_1">
    <g id="xtick_1">
     <g id="line2d_1">
      <defs>
       <path id="m8e1752ff9f" d="M 0 0 
L 0 12 
" style="stroke: #262626; stroke-width: 2.5"/>
      </defs>
      <g>
       <use xlink:href="#m8e1752ff9f" x="36" y="256.32" style="fill: #262626; stroke: #262626; stroke-width: 2.5"/>
      </g>
     </g>
     <g id="text_1">
      <text style="fill: #262626; font: 22px 'Arial', 'DejaVu Sans', 'Liberation Sans', 'Bitstream Vera Sans', sans-serif; text-anchor: middle" x="36" y="287.567187" transform="rotate(-0 36 287.567187)">0</text>
     </g>
    </g>
    <g id="xtick_2">
     <g id="line2d_2">
      <g>
       <use xlink:href="#m8e1752ff9f" x="147.6" y="256.32" style="fill: #262626; stroke: #262626; stroke-width: 2.5"/>
      </g>
     </g>
     <g id="text_2">
      <text style="fill: #262626; font: 22px 'Arial', 'DejaVu Sans', 'Liberation Sans', 'Bitstream Vera Sans', sans-serif; text-anchor: middle" x="147.6" y="287.567187" transform="rotate(-0 147.6 287.567187)">50</text>
     </g>
    </g>
    <g id="xtick_3">
     <g id="line2d_3">
      <g>
       <use xlink:href="#m8e1752ff9f" x="259.2" y="256.32" style="fill: #262626; stroke: #262626; stroke-width: 2.5"/>
      </g>
     </g>
     <g id="text_3">
      <text style="fill: #262626; font: 22px 'Arial', 'DejaVu Sans', 'Liberation Sans', 'Bitstream Vera Sans', sans-serif; text-anchor: middle" x="259.2" y="287.567187" transform="rotate(-0 259.2 287.567187)">100</text>
     </g>
    </g>
    <g id="text_4">
     <text style="fill: #262626; font: 24px 'Arial', 'DejaVu Sans', 'Liberation Sans', 'Bitstream Vera Sans', sans-serif; text-anchor: middle" x="147.6" y="313.410937" transform="rotate(-0 147.6 313.410937)">Knee Frequency (Hz)</text>
    </g>
   </g>
   <g id="matplotlib.axis_2">
    <g id="ytick_1">
     <g id="line2d_4">
      <defs>
       <path id="m1449e53ebe" d="M 0 0 
L -12 0 
" style="stroke: #262626; stroke-width: 2.5"/>
      </defs>
      <g>
       <use xlink:href="#m1449e53ebe" x="36" y="246.24" style="fill: #262626; stroke: #262626; stroke-width: 2.5"/>
      </g>
     </g>
     <g id="text_5">
      <!-- $\mathdefault{10^{0}}$ -->
      <g style="fill: #262626" transform="translate(-14.04 257.58375)">
       <text>
        <tspan style="font: 22px 'Arial'" x="0 12.235352" y="-0.598625000000002">10</tspan>
        <tspan style="font: 15.4px 'Arial'" x="24.854019" y="-15.93125">0</tspan>
       </text>
      </g>
     </g>
    </g>
    <g id="ytick_2">
     <g id="line2d_5">
      <g>
       <use xlink:href="#m1449e53ebe" x="36" y="178.142723" style="fill: #262626; stroke: #262626; stroke-width: 2.5"/>
      </g>
     </g>
     <g id="text_6">
      <!-- $\mathdefault{10^{1}}$ -->
      <g style="fill: #262626" transform="translate(-14.04 189.486473)">
       <text>
        <tspan style="font: 22px 'Arial'" x="0 12.235352" y="-0.598625000000002">10</tspan>
        <tspan style="font: 15.4px 'Arial'" x="24.854019" y="-15.93125">1</tspan>
       </text>
      </g>
     </g>
    </g>
    <g id="ytick_3">
     <g id="line2d_6">
      <g>
       <use xlink:href="#m1449e53ebe" x="36" y="110.045445" style="fill: #262626; stroke: #262626; stroke-width: 2.5"/>
      </g>
     </g>
     <g id="text_7">
      <!-- $\mathdefault{10^{2}}$ -->
      <g style="fill: #262626" transform="translate(-14.04 121.389195)">
       <text>
        <tspan style="font: 22px 'Arial'" x="0 12.235352" y="-0.598625000000002">10</tspan>
        <tspan style="font: 15.4px 'Arial'" x="24.854019" y="-15.93125">2</tspan>
       </text>
      </g>
     </g>
    </g>
    <g id="ytick_4">
     <g id="line2d_7">
      <g>
       <use xlink:href="#m1449e53ebe" x="36" y="41.948168" style="fill: #262626; stroke: #262626; stroke-width: 2.5"/>
      </g>
     </g>
     <g id="text_8">
      <!-- $\mathdefault{10^{3}}$ -->
      <g style="fill: #262626" transform="translate(-14.04 53.291918)">
       <text>
        <tspan style="font: 22px 'Arial'" x="0 12.235352" y="-0.598625000000002">10</tspan>
        <tspan style="font: 15.4px 'Arial'" x="24.854019" y="-15.93125">3</tspan>
       </text>
      </g>
     </g>
    </g>
    <g id="ytick_5">
     <g id="line2d_8">
      <defs>
       <path id="mdeac94f4ec" d="M 0 0 
L -8 0 
" style="stroke: #262626; stroke-width: 2"/>
      </defs>
      <g>
       <use xlink:href="#mdeac94f4ec" x="36" y="252.839308" style="fill: #262626; stroke: #262626; stroke-width: 2"/>
      </g>
     </g>
    </g>
    <g id="ytick_6">
     <g id="line2d_9">
      <g>
       <use xlink:href="#mdeac94f4ec" x="36" y="249.355961" style="fill: #262626; stroke: #262626; stroke-width: 2"/>
      </g>
     </g>
    </g>
    <g id="ytick_7">
     <g id="line2d_10">
      <g>
       <use xlink:href="#mdeac94f4ec" x="36" y="225.740677" style="fill: #262626; stroke: #262626; stroke-width: 2"/>
      </g>
     </g>
    </g>
    <g id="ytick_8">
     <g id="line2d_11">
      <g>
       <use xlink:href="#mdeac94f4ec" x="36" y="213.749342" style="fill: #262626; stroke: #262626; stroke-width: 2"/>
      </g>
     </g>
    </g>
    <g id="ytick_9">
     <g id="line2d_12">
      <g>
       <use xlink:href="#mdeac94f4ec" x="36" y="205.241354" style="fill: #262626; stroke: #262626; stroke-width: 2"/>
      </g>
     </g>
    </g>
    <g id="ytick_10">
     <g id="line2d_13">
      <g>
       <use xlink:href="#mdeac94f4ec" x="36" y="198.642046" style="fill: #262626; stroke: #262626; stroke-width: 2"/>
      </g>
     </g>
    </g>
    <g id="ytick_11">
     <g id="line2d_14">
      <g>
       <use xlink:href="#mdeac94f4ec" x="36" y="193.250018" style="fill: #262626; stroke: #262626; stroke-width: 2"/>
      </g>
     </g>
    </g>
    <g id="ytick_12">
     <g id="line2d_15">
      <g>
       <use xlink:href="#mdeac94f4ec" x="36" y="188.691124" style="fill: #262626; stroke: #262626; stroke-width: 2"/>
      </g>
     </g>
    </g>
    <g id="ytick_13">
     <g id="line2d_16">
      <g>
       <use xlink:href="#mdeac94f4ec" x="36" y="184.742031" style="fill: #262626; stroke: #262626; stroke-width: 2"/>
      </g>
     </g>
    </g>
    <g id="ytick_14">
     <g id="line2d_17">
      <g>
       <use xlink:href="#mdeac94f4ec" x="36" y="181.258683" style="fill: #262626; stroke: #262626; stroke-width: 2"/>
      </g>
     </g>
    </g>
    <g id="ytick_15">
     <g id="line2d_18">
      <g>
       <use xlink:href="#mdeac94f4ec" x="36" y="157.643399" style="fill: #262626; stroke: #262626; stroke-width: 2"/>
      </g>
     </g>
    </g>
    <g id="ytick_16">
     <g id="line2d_19">
      <g>
       <use xlink:href="#mdeac94f4ec" x="36" y="145.652064" style="fill: #262626; stroke: #262626; stroke-width: 2"/>
      </g>
     </g>
    </g>
    <g id="ytick_17">
     <g id="line2d_20">
      <g>
       <use xlink:href="#mdeac94f4ec" x="36" y="137.144076" style="fill: #262626; stroke: #262626; stroke-width: 2"/>
      </g>
     </g>
    </g>
    <g id="ytick_18">
     <g id="line2d_21">
      <g>
       <use xlink:href="#mdeac94f4ec" x="36" y="130.544768" style="fill: #262626; stroke: #262626; stroke-width: 2"/>
      </g>
     </g>
    </g>
    <g id="ytick_19">
     <g id="line2d_22">
      <g>
       <use xlink:href="#mdeac94f4ec" x="36" y="125.152741" style="fill: #262626; stroke: #262626; stroke-width: 2"/>
      </g>
     </g>
    </g>
    <g id="ytick_20">
     <g id="line2d_23">
      <g>
       <use xlink:href="#mdeac94f4ec" x="36" y="120.593847" style="fill: #262626; stroke: #262626; stroke-width: 2"/>
      </g>
     </g>
    </g>
    <g id="ytick_21">
     <g id="line2d_24">
      <g>
       <use xlink:href="#mdeac94f4ec" x="36" y="116.644753" style="fill: #262626; stroke: #262626; stroke-width: 2"/>
      </g>
     </g>
    </g>
    <g id="ytick_22">
     <g id="line2d_25">
      <g>
       <use xlink:href="#mdeac94f4ec" x="36" y="113.161406" style="fill: #262626; stroke: #262626; stroke-width: 2"/>
      </g>
     </g>
    </g>
    <g id="ytick_23">
     <g id="line2d_26">
      <g>
       <use xlink:href="#mdeac94f4ec" x="36" y="89.546122" style="fill: #262626; stroke: #262626; stroke-width: 2"/>
      </g>
     </g>
    </g>
    <g id="ytick_24">
     <g id="line2d_27">
      <g>
       <use xlink:href="#mdeac94f4ec" x="36" y="77.554787" style="fill: #262626; stroke: #262626; stroke-width: 2"/>
      </g>
     </g>
    </g>
    <g id="ytick_25">
     <g id="line2d_28">
      <g>
       <use xlink:href="#mdeac94f4ec" x="36" y="69.046799" style="fill: #262626; stroke: #262626; stroke-width: 2"/>
      </g>
     </g>
    </g>
    <g id="ytick_26">
     <g id="line2d_29">
      <g>
       <use xlink:href="#mdeac94f4ec" x="36" y="62.447491" style="fill: #262626; stroke: #262626; stroke-width: 2"/>
      </g>
     </g>
    </g>
    <g id="ytick_27">
     <g id="line2d_30">
      <g>
       <use xlink:href="#mdeac94f4ec" x="36" y="57.055463" style="fill: #262626; stroke: #262626; stroke-width: 2"/>
      </g>
     </g>
    </g>
    <g id="ytick_28">
     <g id="line2d_31">
      <g>
       <use xlink:href="#mdeac94f4ec" x="36" y="52.496569" style="fill: #262626; stroke: #262626; stroke-width: 2"/>
      </g>
     </g>
    </g>
    <g id="ytick_29">
     <g id="line2d_32">
      <g>
       <use xlink:href="#mdeac94f4ec" x="36" y="48.547476" style="fill: #262626; stroke: #262626; stroke-width: 2"/>
      </g>
     </g>
    </g>
    <g id="ytick_30">
     <g id="line2d_33">
      <g>
       <use xlink:href="#mdeac94f4ec" x="36" y="45.064128" style="fill: #262626; stroke: #262626; stroke-width: 2"/>
      </g>
     </g>
    </g>
    <g id="text_9">
     <text style="fill: #262626; font: 24px 'Arial', 'DejaVu Sans', 'Liberation Sans', 'Bitstream Vera Sans', sans-serif; text-anchor: middle" x="-22.81" y="145.44" transform="rotate(-90 -22.81 145.44)">Count</text>
    </g>
   </g>
   <g id="patch_3">
    <path d="M 36.000088 68343.517477 
L 37.822569 68343.517477 
L 37.822569 44.64 
L 36.000088 44.64 
z
" clip-path="url(#p0e4f4dea89)" style="fill: #4c72b0; stroke: #4c72b0; stroke-width: 2; stroke-linejoin: miter"/>
   </g>
   <g id="patch_4">
    <path d="M 37.822569 68343.517477 
L 39.64505 68343.517477 
L 39.64505 83.303852 
L 37.822569 83.303852 
z
" clip-path="url(#p0e4f4dea89)" style="fill: #4c72b0; stroke: #4c72b0; stroke-width: 2; stroke-linejoin: miter"/>
   </g>
   <g id="patch_5">
    <path d="M 39.64505 68343.517477 
L 41.467531 68343.517477 
L 41.467531 95.596047 
L 39.64505 95.596047 
z
" clip-path="url(#p0e4f4dea89)" style="fill: #4c72b0; stroke: #4c72b0; stroke-width: 2; stroke-linejoin: miter"/>
   </g>
   <g id="patch_6">
    <path d="M 41.467531 68343.517477 
L 43.290012 68343.517477 
L 43.290012 102.976694 
L 41.467531 102.976694 
z
" clip-path="url(#p0e4f4dea89)" style="fill: #4c72b0; stroke: #4c72b0; stroke-width: 2; stroke-linejoin: miter"/>
   </g>
   <g id="patch_7">
    <path d="M 43.290012 68343.517477 
L 45.112493 68343.517477 
L 45.112493 107.226716 
L 43.290012 107.226716 
z
" clip-path="url(#p0e4f4dea89)" style="fill: #4c72b0; stroke: #4c72b0; stroke-width: 2; stroke-linejoin: miter"/>
   </g>
   <g id="patch_8">
    <path d="M 45.112493 68343.517477 
L 46.934974 68343.517477 
L 46.934974 109.459797 
L 45.112493 109.459797 
z
" clip-path="url(#p0e4f4dea89)" style="fill: #4c72b0; stroke: #4c72b0; stroke-width: 2; stroke-linejoin: miter"/>
   </g>
   <g id="patch_9">
    <path d="M 46.934974 68343.517477 
L 48.757455 68343.517477 
L 48.757455 110.342676 
L 46.934974 110.342676 
z
" clip-path="url(#p0e4f4dea89)" style="fill: #4c72b0; stroke: #4c72b0; stroke-width: 2; stroke-linejoin: miter"/>
   </g>
   <g id="patch_10">
    <path d="M 48.757455 68343.517477 
L 50.579936 68343.517477 
L 50.579936 112.834615 
L 48.757455 112.834615 
z
" clip-path="url(#p0e4f4dea89)" style="fill: #4c72b0; stroke: #4c72b0; stroke-width: 2; stroke-linejoin: miter"/>
   </g>
   <g id="patch_11">
    <path d="M 50.579936 68343.517477 
L 52.402417 68343.517477 
L 52.402417 107.769378 
L 50.579936 107.769378 
z
" clip-path="url(#p0e4f4dea89)" style="fill: #4c72b0; stroke: #4c72b0; stroke-width: 2; stroke-linejoin: miter"/>
   </g>
   <g id="patch_12">
    <path d="M 52.402417 68343.517477 
L 54.224898 68343.517477 
L 54.224898 111.562407 
L 52.402417 111.562407 
z
" clip-path="url(#p0e4f4dea89)" style="fill: #4c72b0; stroke: #4c72b0; stroke-width: 2; stroke-linejoin: miter"/>
   </g>
   <g id="patch_13">
    <path d="M 54.224898 68343.517477 
L 56.047379 68343.517477 
L 56.047379 110.342676 
L 54.224898 110.342676 
z
" clip-path="url(#p0e4f4dea89)" style="fill: #4c72b0; stroke: #4c72b0; stroke-width: 2; stroke-linejoin: miter"/>
   </g>
   <g id="patch_14">
    <path d="M 56.047379 68343.517477 
L 57.86986 68343.517477 
L 57.86986 111.562407 
L 56.047379 111.562407 
z
" clip-path="url(#p0e4f4dea89)" style="fill: #4c72b0; stroke: #4c72b0; stroke-width: 2; stroke-linejoin: miter"/>
   </g>
   <g id="patch_15">
    <path d="M 57.86986 68343.517477 
L 59.692341 68343.517477 
L 59.692341 112.19167 
L 57.86986 112.19167 
z
" clip-path="url(#p0e4f4dea89)" style="fill: #4c72b0; stroke: #4c72b0; stroke-width: 2; stroke-linejoin: miter"/>
   </g>
   <g id="patch_16">
    <path d="M 59.692341 68343.517477 
L 61.514822 68343.517477 
L 61.514822 115.20182 
L 59.692341 115.20182 
z
" clip-path="url(#p0e4f4dea89)" style="fill: #4c72b0; stroke: #4c72b0; stroke-width: 2; stroke-linejoin: miter"/>
   </g>
   <g id="patch_17">
    <path d="M 61.514822 68343.517477 
L 63.337303 68343.517477 
L 63.337303 110.045445 
L 61.514822 110.045445 
z
" clip-path="url(#p0e4f4dea89)" style="fill: #4c72b0; stroke: #4c72b0; stroke-width: 2; stroke-linejoin: miter"/>
   </g>
   <g id="patch_18">
    <path d="M 63.337303 68343.517477 
L 65.159784 68343.517477 
L 65.159784 114.505922 
L 63.337303 114.505922 
z
" clip-path="url(#p0e4f4dea89)" style="fill: #4c72b0; stroke: #4c72b0; stroke-width: 2; stroke-linejoin: miter"/>
   </g>
   <g id="patch_19">
    <path d="M 65.159784 68343.517477 
L 66.982265 68343.517477 
L 66.982265 124.183006 
L 65.159784 124.183006 
z
" clip-path="url(#p0e4f4dea89)" style="fill: #4c72b0; stroke: #4c72b0; stroke-width: 2; stroke-linejoin: miter"/>
   </g>
   <g id="patch_20">
    <path d="M 66.982265 68343.517477 
L 68.804746 68343.517477 
L 68.804746 122.785536 
L 66.982265 122.785536 
z
" clip-path="url(#p0e4f4dea89)" style="fill: #4c72b0; stroke: #4c72b0; stroke-width: 2; stroke-linejoin: miter"/>
   </g>
   <g id="patch_21">
    <path d="M 68.804746 68343.517477 
L 70.627227 68343.517477 
L 70.627227 128.268701 
L 68.804746 128.268701 
z
" clip-path="url(#p0e4f4dea89)" style="fill: #4c72b0; stroke: #4c72b0; stroke-width: 2; stroke-linejoin: miter"/>
   </g>
   <g id="patch_22">
    <path d="M 70.627227 68343.517477 
L 72.449708 68343.517477 
L 72.449708 136.41381 
L 70.627227 136.41381 
z
" clip-path="url(#p0e4f4dea89)" style="fill: #4c72b0; stroke: #4c72b0; stroke-width: 2; stroke-linejoin: miter"/>
   </g>
   <g id="patch_23">
    <path d="M 72.449708 68343.517477 
L 74.272189 68343.517477 
L 74.272189 142.833335 
L 72.449708 142.833335 
z
" clip-path="url(#p0e4f4dea89)" style="fill: #4c72b0; stroke: #4c72b0; stroke-width: 2; stroke-linejoin: miter"/>
   </g>
   <g id="patch_24">
    <path d="M 74.272189 68343.517477 
L 76.09467 68343.517477 
L 76.09467 172.750695 
L 74.272189 172.750695 
z
" clip-path="url(#p0e4f4dea89)" style="fill: #4c72b0; stroke: #4c72b0; stroke-width: 2; stroke-linejoin: miter"/>
   </g>
   <g id="patch_25">
    <path d="M 76.09467 68343.517477 
L 77.917151 68343.517477 
L 77.917151 166.151387 
L 76.09467 166.151387 
z
" clip-path="url(#p0e4f4dea89)" style="fill: #4c72b0; stroke: #4c72b0; stroke-width: 2; stroke-linejoin: miter"/>
   </g>
   <g id="patch_26">
    <path d="M 77.917151 68343.517477 
L 79.739632 68343.517477 
L 79.739632 168.191801 
L 77.917151 168.191801 
z
" clip-path="url(#p0e4f4dea89)" style="fill: #4c72b0; stroke: #4c72b0; stroke-width: 2; stroke-linejoin: miter"/>
   </g>
   <g id="patch_27">
    <path d="M 79.739632 68343.517477 
L 81.562113 68343.517477 
L 81.562113 184.742031 
L 79.739632 184.742031 
z
" clip-path="url(#p0e4f4dea89)" style="fill: #4c72b0; stroke: #4c72b0; stroke-width: 2; stroke-linejoin: miter"/>
   </g>
   <g id="patch_28">
    <path d="M 81.562113 68343.517477 
L 83.384594 68343.517477 
L 83.384594 181.258683 
L 81.562113 181.258683 
z
" clip-path="url(#p0e4f4dea89)" style="fill: #4c72b0; stroke: #4c72b0; stroke-width: 2; stroke-linejoin: miter"/>
   </g>
   <g id="patch_29">
    <path d="M 83.384594 68343.517477 
L 85.207075 68343.517477 
L 85.207075 213.749342 
L 83.384594 213.749342 
z
" clip-path="url(#p0e4f4dea89)" style="fill: #4c72b0; stroke: #4c72b0; stroke-width: 2; stroke-linejoin: miter"/>
   </g>
   <g id="patch_30">
    <path d="M 85.207075 68343.517477 
L 87.029556 68343.517477 
L 87.029556 184.742031 
L 85.207075 184.742031 
z
" clip-path="url(#p0e4f4dea89)" style="fill: #4c72b0; stroke: #4c72b0; stroke-width: 2; stroke-linejoin: miter"/>
   </g>
   <g id="patch_31">
    <path d="M 87.029556 68343.517477 
L 88.852037 68343.517477 
L 88.852037 225.740677 
L 87.029556 225.740677 
z
" clip-path="url(#p0e4f4dea89)" style="fill: #4c72b0; stroke: #4c72b0; stroke-width: 2; stroke-linejoin: miter"/>
   </g>
   <g id="patch_32">
    <path d="M 88.852037 68343.517477 
L 90.674518 68343.517477 
L 90.674518 205.241354 
L 88.852037 205.241354 
z
" clip-path="url(#p0e4f4dea89)" style="fill: #4c72b0; stroke: #4c72b0; stroke-width: 2; stroke-linejoin: miter"/>
   </g>
   <g id="patch_33">
    <path d="M 90.674518 68343.517477 
L 92.496999 68343.517477 
L 92.496999 184.742031 
L 90.674518 184.742031 
z
" clip-path="url(#p0e4f4dea89)" style="fill: #4c72b0; stroke: #4c72b0; stroke-width: 2; stroke-linejoin: miter"/>
   </g>
   <g id="patch_34">
    <path d="M 92.496999 68343.517477 
L 94.31948 68343.517477 
L 94.31948 246.24 
L 92.496999 246.24 
z
" clip-path="url(#p0e4f4dea89)" style="fill: #4c72b0; stroke: #4c72b0; stroke-width: 2; stroke-linejoin: miter"/>
   </g>
   <g id="patch_35">
    <path d="M 94.31948 68343.517477 
L 96.141961 68343.517477 
L 96.141961 225.740677 
L 94.31948 225.740677 
z
" clip-path="url(#p0e4f4dea89)" style="fill: #4c72b0; stroke: #4c72b0; stroke-width: 2; stroke-linejoin: miter"/>
   </g>
   <g id="patch_36">
    <path d="M 96.141961 68343.517477 
L 97.964441 68343.517477 
L 97.964441 246.24 
L 96.141961 246.24 
z
" clip-path="url(#p0e4f4dea89)" style="fill: #4c72b0; stroke: #4c72b0; stroke-width: 2; stroke-linejoin: miter"/>
   </g>
   <g id="patch_37">
    <path d="M 97.964441 68343.517477 
L 99.786922 68343.517477 
L 99.786922 198.642046 
L 97.964441 198.642046 
z
" clip-path="url(#p0e4f4dea89)" style="fill: #4c72b0; stroke: #4c72b0; stroke-width: 2; stroke-linejoin: miter"/>
   </g>
   <g id="patch_38">
    <path d="M 99.786922 68343.517477 
L 101.609403 68343.517477 
L 101.609403 246.24 
L 99.786922 246.24 
z
" clip-path="url(#p0e4f4dea89)" style="fill: #4c72b0; stroke: #4c72b0; stroke-width: 2; stroke-linejoin: miter"/>
   </g>
   <g id="patch_39">
    <path d="M 101.609403 68343.517477 
L 103.431884 68343.517477 
L 103.431884 213.749342 
L 101.609403 213.749342 
z
" clip-path="url(#p0e4f4dea89)" style="fill: #4c72b0; stroke: #4c72b0; stroke-width: 2; stroke-linejoin: miter"/>
   </g>
   <g id="patch_40">
    <path d="M 103.431884 68343.517477 
L 105.254365 68343.517477 
L 105.254365 225.740677 
L 103.431884 225.740677 
z
" clip-path="url(#p0e4f4dea89)" style="fill: #4c72b0; stroke: #4c72b0; stroke-width: 2; stroke-linejoin: miter"/>
   </g>
   <g id="patch_41">
    <path d="M 105.254365 68343.517477 
L 107.076846 68343.517477 
L 107.076846 213.749342 
L 105.254365 213.749342 
z
" clip-path="url(#p0e4f4dea89)" style="fill: #4c72b0; stroke: #4c72b0; stroke-width: 2; stroke-linejoin: miter"/>
   </g>
   <g id="patch_42">
    <path d="M 107.076846 68343.517477 
L 108.899327 68343.517477 
L 108.899327 225.740677 
L 107.076846 225.740677 
z
" clip-path="url(#p0e4f4dea89)" style="fill: #4c72b0; stroke: #4c72b0; stroke-width: 2; stroke-linejoin: miter"/>
   </g>
   <g id="patch_43">
    <path d="M 108.899327 68343.517477 
L 110.721808 68343.517477 
L 110.721808 68343.517477 
L 108.899327 68343.517477 
z
" clip-path="url(#p0e4f4dea89)" style="fill: #4c72b0; stroke: #4c72b0; stroke-width: 2; stroke-linejoin: miter"/>
   </g>
   <g id="patch_44">
    <path d="M 110.721808 68343.517477 
L 112.544289 68343.517477 
L 112.544289 225.740677 
L 110.721808 225.740677 
z
" clip-path="url(#p0e4f4dea89)" style="fill: #4c72b0; stroke: #4c72b0; stroke-width: 2; stroke-linejoin: miter"/>
   </g>
   <g id="patch_45">
    <path d="M 112.544289 68343.517477 
L 114.36677 68343.517477 
L 114.36677 68343.517477 
L 112.544289 68343.517477 
z
" clip-path="url(#p0e4f4dea89)" style="fill: #4c72b0; stroke: #4c72b0; stroke-width: 2; stroke-linejoin: miter"/>
   </g>
   <g id="patch_46">
    <path d="M 114.36677 68343.517477 
L 116.189251 68343.517477 
L 116.189251 246.24 
L 114.36677 246.24 
z
" clip-path="url(#p0e4f4dea89)" style="fill: #4c72b0; stroke: #4c72b0; stroke-width: 2; stroke-linejoin: miter"/>
   </g>
   <g id="patch_47">
    <path d="M 116.189251 68343.517477 
L 118.011732 68343.517477 
L 118.011732 246.24 
L 116.189251 246.24 
z
" clip-path="url(#p0e4f4dea89)" style="fill: #4c72b0; stroke: #4c72b0; stroke-width: 2; stroke-linejoin: miter"/>
   </g>
   <g id="patch_48">
    <path d="M 118.011732 68343.517477 
L 119.834213 68343.517477 
L 119.834213 68343.517477 
L 118.011732 68343.517477 
z
" clip-path="url(#p0e4f4dea89)" style="fill: #4c72b0; stroke: #4c72b0; stroke-width: 2; stroke-linejoin: miter"/>
   </g>
   <g id="patch_49">
    <path d="M 119.834213 68343.517477 
L 121.656694 68343.517477 
L 121.656694 246.24 
L 119.834213 246.24 
z
" clip-path="url(#p0e4f4dea89)" style="fill: #4c72b0; stroke: #4c72b0; stroke-width: 2; stroke-linejoin: miter"/>
   </g>
   <g id="patch_50">
    <path d="M 121.656694 68343.517477 
L 123.479175 68343.517477 
L 123.479175 225.740677 
L 121.656694 225.740677 
z
" clip-path="url(#p0e4f4dea89)" style="fill: #4c72b0; stroke: #4c72b0; stroke-width: 2; stroke-linejoin: miter"/>
   </g>
   <g id="patch_51">
    <path d="M 123.479175 68343.517477 
L 125.301656 68343.517477 
L 125.301656 68343.517477 
L 123.479175 68343.517477 
z
" clip-path="url(#p0e4f4dea89)" style="fill: #4c72b0; stroke: #4c72b0; stroke-width: 2; stroke-linejoin: miter"/>
   </g>
   <g id="patch_52">
    <path d="M 125.301656 68343.517477 
L 127.124137 68343.517477 
L 127.124137 246.24 
L 125.301656 246.24 
z
" clip-path="url(#p0e4f4dea89)" style="fill: #4c72b0; stroke: #4c72b0; stroke-width: 2; stroke-linejoin: miter"/>
   </g>
   <g id="patch_53">
    <path d="M 127.124137 68343.517477 
L 128.946618 68343.517477 
L 128.946618 68343.517477 
L 127.124137 68343.517477 
z
" clip-path="url(#p0e4f4dea89)" style="fill: #4c72b0; stroke: #4c72b0; stroke-width: 2; stroke-linejoin: miter"/>
   </g>
   <g id="patch_54">
    <path d="M 128.946618 68343.517477 
L 130.769099 68343.517477 
L 130.769099 225.740677 
L 128.946618 225.740677 
z
" clip-path="url(#p0e4f4dea89)" style="fill: #4c72b0; stroke: #4c72b0; stroke-width: 2; stroke-linejoin: miter"/>
   </g>
   <g id="patch_55">
    <path d="M 130.769099 68343.517477 
L 132.59158 68343.517477 
L 132.59158 213.749342 
L 130.769099 213.749342 
z
" clip-path="url(#p0e4f4dea89)" style="fill: #4c72b0; stroke: #4c72b0; stroke-width: 2; stroke-linejoin: miter"/>
   </g>
   <g id="patch_56">
    <path d="M 132.59158 68343.517477 
L 134.414061 68343.517477 
L 134.414061 246.24 
L 132.59158 246.24 
z
" clip-path="url(#p0e4f4dea89)" style="fill: #4c72b0; stroke: #4c72b0; stroke-width: 2; stroke-linejoin: miter"/>
   </g>
   <g id="patch_57">
    <path d="M 134.414061 68343.517477 
L 136.236542 68343.517477 
L 136.236542 68343.517477 
L 134.414061 68343.517477 
z
" clip-path="url(#p0e4f4dea89)" style="fill: #4c72b0; stroke: #4c72b0; stroke-width: 2; stroke-linejoin: miter"/>
   </g>
   <g id="patch_58">
    <path d="M 136.236542 68343.517477 
L 138.059023 68343.517477 
L 138.059023 68343.517477 
L 136.236542 68343.517477 
z
" clip-path="url(#p0e4f4dea89)" style="fill: #4c72b0; stroke: #4c72b0; stroke-width: 2; stroke-linejoin: miter"/>
   </g>
   <g id="patch_59">
    <path d="M 138.059023 68343.517477 
L 139.881504 68343.517477 
L 139.881504 68343.517477 
L 138.059023 68343.517477 
z
" clip-path="url(#p0e4f4dea89)" style="fill: #4c72b0; stroke: #4c72b0; stroke-width: 2; stroke-linejoin: miter"/>
   </g>
   <g id="patch_60">
    <path d="M 139.881504 68343.517477 
L 141.703985 68343.517477 
L 141.703985 68343.517477 
L 139.881504 68343.517477 
z
" clip-path="url(#p0e4f4dea89)" style="fill: #4c72b0; stroke: #4c72b0; stroke-width: 2; stroke-linejoin: miter"/>
   </g>
   <g id="patch_61">
    <path d="M 141.703985 68343.517477 
L 143.526466 68343.517477 
L 143.526466 68343.517477 
L 141.703985 68343.517477 
z
" clip-path="url(#p0e4f4dea89)" style="fill: #4c72b0; stroke: #4c72b0; stroke-width: 2; stroke-linejoin: miter"/>
   </g>
   <g id="patch_62">
    <path d="M 143.526466 68343.517477 
L 145.348947 68343.517477 
L 145.348947 68343.517477 
L 143.526466 68343.517477 
z
" clip-path="url(#p0e4f4dea89)" style="fill: #4c72b0; stroke: #4c72b0; stroke-width: 2; stroke-linejoin: miter"/>
   </g>
   <g id="patch_63">
    <path d="M 145.348947 68343.517477 
L 147.171428 68343.517477 
L 147.171428 68343.517477 
L 145.348947 68343.517477 
z
" clip-path="url(#p0e4f4dea89)" style="fill: #4c72b0; stroke: #4c72b0; stroke-width: 2; stroke-linejoin: miter"/>
   </g>
   <g id="patch_64">
    <path d="M 147.171428 68343.517477 
L 148.993909 68343.517477 
L 148.993909 68343.517477 
L 147.171428 68343.517477 
z
" clip-path="url(#p0e4f4dea89)" style="fill: #4c72b0; stroke: #4c72b0; stroke-width: 2; stroke-linejoin: miter"/>
   </g>
   <g id="patch_65">
    <path d="M 148.993909 68343.517477 
L 150.81639 68343.517477 
L 150.81639 68343.517477 
L 148.993909 68343.517477 
z
" clip-path="url(#p0e4f4dea89)" style="fill: #4c72b0; stroke: #4c72b0; stroke-width: 2; stroke-linejoin: miter"/>
   </g>
   <g id="patch_66">
    <path d="M 150.81639 68343.517477 
L 152.638871 68343.517477 
L 152.638871 246.24 
L 150.81639 246.24 
z
" clip-path="url(#p0e4f4dea89)" style="fill: #4c72b0; stroke: #4c72b0; stroke-width: 2; stroke-linejoin: miter"/>
   </g>
   <g id="patch_67">
    <path d="M 152.638871 68343.517477 
L 154.461352 68343.517477 
L 154.461352 68343.517477 
L 152.638871 68343.517477 
z
" clip-path="url(#p0e4f4dea89)" style="fill: #4c72b0; stroke: #4c72b0; stroke-width: 2; stroke-linejoin: miter"/>
   </g>
   <g id="patch_68">
    <path d="M 154.461352 68343.517477 
L 156.283833 68343.517477 
L 156.283833 68343.517477 
L 154.461352 68343.517477 
z
" clip-path="url(#p0e4f4dea89)" style="fill: #4c72b0; stroke: #4c72b0; stroke-width: 2; stroke-linejoin: miter"/>
   </g>
   <g id="patch_69">
    <path d="M 156.283833 68343.517477 
L 158.106314 68343.517477 
L 158.106314 246.24 
L 156.283833 246.24 
z
" clip-path="url(#p0e4f4dea89)" style="fill: #4c72b0; stroke: #4c72b0; stroke-width: 2; stroke-linejoin: miter"/>
   </g>
   <g id="patch_70">
    <path d="M 158.106314 68343.517477 
L 159.928795 68343.517477 
L 159.928795 246.24 
L 158.106314 246.24 
z
" clip-path="url(#p0e4f4dea89)" style="fill: #4c72b0; stroke: #4c72b0; stroke-width: 2; stroke-linejoin: miter"/>
   </g>
   <g id="patch_71">
    <path d="M 159.928795 68343.517477 
L 161.751276 68343.517477 
L 161.751276 68343.517477 
L 159.928795 68343.517477 
z
" clip-path="url(#p0e4f4dea89)" style="fill: #4c72b0; stroke: #4c72b0; stroke-width: 2; stroke-linejoin: miter"/>
   </g>
   <g id="patch_72">
    <path d="M 161.751276 68343.517477 
L 163.573757 68343.517477 
L 163.573757 68343.517477 
L 161.751276 68343.517477 
z
" clip-path="url(#p0e4f4dea89)" style="fill: #4c72b0; stroke: #4c72b0; stroke-width: 2; stroke-linejoin: miter"/>
   </g>
   <g id="patch_73">
    <path d="M 163.573757 68343.517477 
L 165.396238 68343.517477 
L 165.396238 68343.517477 
L 163.573757 68343.517477 
z
" clip-path="url(#p0e4f4dea89)" style="fill: #4c72b0; stroke: #4c72b0; stroke-width: 2; stroke-linejoin: miter"/>
   </g>
   <g id="patch_74">
    <path d="M 165.396238 68343.517477 
L 167.218719 68343.517477 
L 167.218719 68343.517477 
L 165.396238 68343.517477 
z
" clip-path="url(#p0e4f4dea89)" style="fill: #4c72b0; stroke: #4c72b0; stroke-width: 2; stroke-linejoin: miter"/>
   </g>
   <g id="patch_75">
    <path d="M 167.218719 68343.517477 
L 169.0412 68343.517477 
L 169.0412 68343.517477 
L 167.218719 68343.517477 
z
" clip-path="url(#p0e4f4dea89)" style="fill: #4c72b0; stroke: #4c72b0; stroke-width: 2; stroke-linejoin: miter"/>
   </g>
   <g id="patch_76">
    <path d="M 169.0412 68343.517477 
L 170.863681 68343.517477 
L 170.863681 246.24 
L 169.0412 246.24 
z
" clip-path="url(#p0e4f4dea89)" style="fill: #4c72b0; stroke: #4c72b0; stroke-width: 2; stroke-linejoin: miter"/>
   </g>
   <g id="patch_77">
    <path d="M 170.863681 68343.517477 
L 172.686162 68343.517477 
L 172.686162 68343.517477 
L 170.863681 68343.517477 
z
" clip-path="url(#p0e4f4dea89)" style="fill: #4c72b0; stroke: #4c72b0; stroke-width: 2; stroke-linejoin: miter"/>
   </g>
   <g id="patch_78">
    <path d="M 172.686162 68343.517477 
L 174.508643 68343.517477 
L 174.508643 68343.517477 
L 172.686162 68343.517477 
z
" clip-path="url(#p0e4f4dea89)" style="fill: #4c72b0; stroke: #4c72b0; stroke-width: 2; stroke-linejoin: miter"/>
   </g>
   <g id="patch_79">
    <path d="M 174.508643 68343.517477 
L 176.331124 68343.517477 
L 176.331124 68343.517477 
L 174.508643 68343.517477 
z
" clip-path="url(#p0e4f4dea89)" style="fill: #4c72b0; stroke: #4c72b0; stroke-width: 2; stroke-linejoin: miter"/>
   </g>
   <g id="patch_80">
    <path d="M 176.331124 68343.517477 
L 178.153605 68343.517477 
L 178.153605 68343.517477 
L 176.331124 68343.517477 
z
" clip-path="url(#p0e4f4dea89)" style="fill: #4c72b0; stroke: #4c72b0; stroke-width: 2; stroke-linejoin: miter"/>
   </g>
   <g id="patch_81">
    <path d="M 178.153605 68343.517477 
L 179.976086 68343.517477 
L 179.976086 68343.517477 
L 178.153605 68343.517477 
z
" clip-path="url(#p0e4f4dea89)" style="fill: #4c72b0; stroke: #4c72b0; stroke-width: 2; stroke-linejoin: miter"/>
   </g>
   <g id="patch_82">
    <path d="M 179.976086 68343.517477 
L 181.798567 68343.517477 
L 181.798567 68343.517477 
L 179.976086 68343.517477 
z
" clip-path="url(#p0e4f4dea89)" style="fill: #4c72b0; stroke: #4c72b0; stroke-width: 2; stroke-linejoin: miter"/>
   </g>
   <g id="patch_83">
    <path d="M 181.798567 68343.517477 
L 183.621048 68343.517477 
L 183.621048 68343.517477 
L 181.798567 68343.517477 
z
" clip-path="url(#p0e4f4dea89)" style="fill: #4c72b0; stroke: #4c72b0; stroke-width: 2; stroke-linejoin: miter"/>
   </g>
   <g id="patch_84">
    <path d="M 183.621048 68343.517477 
L 185.443529 68343.517477 
L 185.443529 68343.517477 
L 183.621048 68343.517477 
z
" clip-path="url(#p0e4f4dea89)" style="fill: #4c72b0; stroke: #4c72b0; stroke-width: 2; stroke-linejoin: miter"/>
   </g>
   <g id="patch_85">
    <path d="M 185.443529 68343.517477 
L 187.26601 68343.517477 
L 187.26601 68343.517477 
L 185.443529 68343.517477 
z
" clip-path="url(#p0e4f4dea89)" style="fill: #4c72b0; stroke: #4c72b0; stroke-width: 2; stroke-linejoin: miter"/>
   </g>
   <g id="patch_86">
    <path d="M 187.26601 68343.517477 
L 189.088491 68343.517477 
L 189.088491 68343.517477 
L 187.26601 68343.517477 
z
" clip-path="url(#p0e4f4dea89)" style="fill: #4c72b0; stroke: #4c72b0; stroke-width: 2; stroke-linejoin: miter"/>
   </g>
   <g id="patch_87">
    <path d="M 189.088491 68343.517477 
L 190.910972 68343.517477 
L 190.910972 68343.517477 
L 189.088491 68343.517477 
z
" clip-path="url(#p0e4f4dea89)" style="fill: #4c72b0; stroke: #4c72b0; stroke-width: 2; stroke-linejoin: miter"/>
   </g>
   <g id="patch_88">
    <path d="M 190.910972 68343.517477 
L 192.733453 68343.517477 
L 192.733453 68343.517477 
L 190.910972 68343.517477 
z
" clip-path="url(#p0e4f4dea89)" style="fill: #4c72b0; stroke: #4c72b0; stroke-width: 2; stroke-linejoin: miter"/>
   </g>
   <g id="patch_89">
    <path d="M 192.733453 68343.517477 
L 194.555934 68343.517477 
L 194.555934 68343.517477 
L 192.733453 68343.517477 
z
" clip-path="url(#p0e4f4dea89)" style="fill: #4c72b0; stroke: #4c72b0; stroke-width: 2; stroke-linejoin: miter"/>
   </g>
   <g id="patch_90">
    <path d="M 194.555934 68343.517477 
L 196.378415 68343.517477 
L 196.378415 68343.517477 
L 194.555934 68343.517477 
z
" clip-path="url(#p0e4f4dea89)" style="fill: #4c72b0; stroke: #4c72b0; stroke-width: 2; stroke-linejoin: miter"/>
   </g>
   <g id="patch_91">
    <path d="M 196.378415 68343.517477 
L 198.200896 68343.517477 
L 198.200896 246.24 
L 196.378415 246.24 
z
" clip-path="url(#p0e4f4dea89)" style="fill: #4c72b0; stroke: #4c72b0; stroke-width: 2; stroke-linejoin: miter"/>
   </g>
   <g id="patch_92">
    <path d="M 198.200896 68343.517477 
L 200.023377 68343.517477 
L 200.023377 68343.517477 
L 198.200896 68343.517477 
z
" clip-path="url(#p0e4f4dea89)" style="fill: #4c72b0; stroke: #4c72b0; stroke-width: 2; stroke-linejoin: miter"/>
   </g>
   <g id="patch_93">
    <path d="M 200.023377 68343.517477 
L 201.845858 68343.517477 
L 201.845858 68343.517477 
L 200.023377 68343.517477 
z
" clip-path="url(#p0e4f4dea89)" style="fill: #4c72b0; stroke: #4c72b0; stroke-width: 2; stroke-linejoin: miter"/>
   </g>
   <g id="patch_94">
    <path d="M 201.845858 68343.517477 
L 203.668339 68343.517477 
L 203.668339 68343.517477 
L 201.845858 68343.517477 
z
" clip-path="url(#p0e4f4dea89)" style="fill: #4c72b0; stroke: #4c72b0; stroke-width: 2; stroke-linejoin: miter"/>
   </g>
   <g id="patch_95">
    <path d="M 203.668339 68343.517477 
L 205.49082 68343.517477 
L 205.49082 68343.517477 
L 203.668339 68343.517477 
z
" clip-path="url(#p0e4f4dea89)" style="fill: #4c72b0; stroke: #4c72b0; stroke-width: 2; stroke-linejoin: miter"/>
   </g>
   <g id="patch_96">
    <path d="M 205.49082 68343.517477 
L 207.313301 68343.517477 
L 207.313301 68343.517477 
L 205.49082 68343.517477 
z
" clip-path="url(#p0e4f4dea89)" style="fill: #4c72b0; stroke: #4c72b0; stroke-width: 2; stroke-linejoin: miter"/>
   </g>
   <g id="patch_97">
    <path d="M 207.313301 68343.517477 
L 209.135782 68343.517477 
L 209.135782 68343.517477 
L 207.313301 68343.517477 
z
" clip-path="url(#p0e4f4dea89)" style="fill: #4c72b0; stroke: #4c72b0; stroke-width: 2; stroke-linejoin: miter"/>
   </g>
   <g id="patch_98">
    <path d="M 209.135782 68343.517477 
L 210.958263 68343.517477 
L 210.958263 68343.517477 
L 209.135782 68343.517477 
z
" clip-path="url(#p0e4f4dea89)" style="fill: #4c72b0; stroke: #4c72b0; stroke-width: 2; stroke-linejoin: miter"/>
   </g>
   <g id="patch_99">
    <path d="M 210.958263 68343.517477 
L 212.780744 68343.517477 
L 212.780744 68343.517477 
L 210.958263 68343.517477 
z
" clip-path="url(#p0e4f4dea89)" style="fill: #4c72b0; stroke: #4c72b0; stroke-width: 2; stroke-linejoin: miter"/>
   </g>
   <g id="patch_100">
    <path d="M 212.780744 68343.517477 
L 214.603225 68343.517477 
L 214.603225 68343.517477 
L 212.780744 68343.517477 
z
" clip-path="url(#p0e4f4dea89)" style="fill: #4c72b0; stroke: #4c72b0; stroke-width: 2; stroke-linejoin: miter"/>
   </g>
   <g id="patch_101">
    <path d="M 214.603225 68343.517477 
L 216.425706 68343.517477 
L 216.425706 68343.517477 
L 214.603225 68343.517477 
z
" clip-path="url(#p0e4f4dea89)" style="fill: #4c72b0; stroke: #4c72b0; stroke-width: 2; stroke-linejoin: miter"/>
   </g>
   <g id="patch_102">
    <path d="M 216.425706 68343.517477 
L 218.248187 68343.517477 
L 218.248187 246.24 
L 216.425706 246.24 
z
" clip-path="url(#p0e4f4dea89)" style="fill: #4c72b0; stroke: #4c72b0; stroke-width: 2; stroke-linejoin: miter"/>
   </g>
   <g id="patch_103">
    <path d="M 36 256.32 
L 36 34.56 
" style="fill: none; stroke: #262626; stroke-width: 2.5; stroke-linejoin: miter; stroke-linecap: square"/>
   </g>
   <g id="patch_104">
    <path d="M 36 256.32 
L 259.2 256.32 
" style="fill: none; stroke: #262626; stroke-width: 2.5; stroke-linejoin: miter; stroke-linecap: square"/>
   </g>
  </g>
 </g>
 <defs>
  <clipPath id="p0e4f4dea89">
   <rect x="36" y="34.56" width="223.2" height="221.76"/>
  </clipPath>
 </defs>
</svg>
