<?xml version="1.0" encoding="utf-8" standalone="no"?>
<!DOCTYPE svg PUBLIC "-//W3C//DTD SVG 1.1//EN"
  "http://www.w3.org/Graphics/SVG/1.1/DTD/svg11.dtd">
<svg xmlns:xlink="http://www.w3.org/1999/xlink" width="288pt" height="288pt" viewBox="0 0 288 288" xmlns="http://www.w3.org/2000/svg" version="1.1">
 <metadata>
  <rdf:RDF xmlns:dc="http://purl.org/dc/elements/1.1/" xmlns:cc="http://creativecommons.org/ns#" xmlns:rdf="http://www.w3.org/1999/02/22-rdf-syntax-ns#">
   <cc:Work>
    <dc:type rdf:resource="http://purl.org/dc/dcmitype/StillImage"/>
    <dc:date>2023-10-13T13:30:49.632682</dc:date>
    <dc:format>image/svg+xml</dc:format>
    <dc:creator>
     <cc:Agent>
      <dc:title>Matplotlib v3.8.0, https://matplotlib.org/</dc:title>
     </cc:Agent>
    </dc:creator>
   </cc:Work>
  </rdf:RDF>
 </metadata>
 <defs>
  <style type="text/css">*{stroke-linejoin: round; stroke-linecap: butt}</style>
 </defs>
 <g id="figure_1">
  <g id="patch_1">
   <path d="M 0 288 
L 288 288 
L 288 0 
L 0 0 
z
" style="fill: #ffffff"/>
  </g>
  <g id="axes_1">
   <g id="patch_2">
    <path d="M 36 256.32 
L 259.2 256.32 
L 259.2 34.56 
L 36 34.56 
z
" style="fill: #ffffff"/>
   </g>
   <g id="matplotlib.axis_1">
    <g id="xtick_1">
     <g id="line2d_1">
      <defs>
       <path id="m417dd3d5e2" d="M 0 0 
L 0 12 
" style="stroke: #262626; stroke-width: 2.5"/>
      </defs>
      <g>
       <use xlink:href="#m417dd3d5e2" x="69.745502" y="256.32" style="fill: #262626; stroke: #262626; stroke-width: 2.5"/>
      </g>
     </g>
     <g id="text_1">
      <text style="fill: #262626; font: 22px 'Arial', 'DejaVu Sans', 'Liberation Sans', 'Bitstream Vera Sans', sans-serif; text-anchor: middle" x="69.745502" y="287.567187" transform="rotate(-0 69.745502 287.567187)">−25</text>
     </g>
    </g>
    <g id="xtick_2">
     <g id="line2d_2">
      <g>
       <use xlink:href="#m417dd3d5e2" x="145.077192" y="256.32" style="fill: #262626; stroke: #262626; stroke-width: 2.5"/>
      </g>
     </g>
     <g id="text_2">
      <text style="fill: #262626; font: 22px 'Arial', 'DejaVu Sans', 'Liberation Sans', 'Bitstream Vera Sans', sans-serif; text-anchor: middle" x="145.077192" y="287.567187" transform="rotate(-0 145.077192 287.567187)">−20</text>
     </g>
    </g>
    <g id="xtick_3">
     <g id="line2d_3">
      <g>
       <use xlink:href="#m417dd3d5e2" x="220.408881" y="256.32" style="fill: #262626; stroke: #262626; stroke-width: 2.5"/>
      </g>
     </g>
     <g id="text_3">
      <text style="fill: #262626; font: 22px 'Arial', 'DejaVu Sans', 'Liberation Sans', 'Bitstream Vera Sans', sans-serif; text-anchor: middle" x="220.408881" y="287.567187" transform="rotate(-0 220.408881 287.567187)">−15</text>
     </g>
    </g>
    <g id="text_4">
     <text style="fill: #262626; font: 24px 'Arial', 'DejaVu Sans', 'Liberation Sans', 'Bitstream Vera Sans', sans-serif; text-anchor: middle" x="147.6" y="313.118438" transform="rotate(-0 147.6 313.118438)">Power</text>
    </g>
   </g>
   <g id="matplotlib.axis_2">
    <g id="ytick_1">
     <g id="line2d_4">
      <defs>
       <path id="m59bec8f4c4" d="M 0 0 
L -12 0 
" style="stroke: #262626; stroke-width: 2.5"/>
      </defs>
      <g>
       <use xlink:href="#m59bec8f4c4" x="36" y="256.32" style="fill: #262626; stroke: #262626; stroke-width: 2.5"/>
      </g>
     </g>
     <g id="text_5">
      <text style="fill: #262626; font: 22px 'Arial', 'DejaVu Sans', 'Liberation Sans', 'Bitstream Vera Sans', sans-serif; text-anchor: end" x="20.5" y="264.193594" transform="rotate(-0 20.5 264.193594)">0</text>
     </g>
    </g>
    <g id="ytick_2">
     <g id="line2d_5">
      <g>
       <use xlink:href="#m59bec8f4c4" x="36" y="198.266124" style="fill: #262626; stroke: #262626; stroke-width: 2.5"/>
      </g>
     </g>
     <g id="text_6">
      <text style="fill: #262626; font: 22px 'Arial', 'DejaVu Sans', 'Liberation Sans', 'Bitstream Vera Sans', sans-serif; text-anchor: end" x="20.5" y="206.139718" transform="rotate(-0 20.5 206.139718)">500</text>
     </g>
    </g>
    <g id="ytick_3">
     <g id="line2d_6">
      <g>
       <use xlink:href="#m59bec8f4c4" x="36" y="140.212248" style="fill: #262626; stroke: #262626; stroke-width: 2.5"/>
      </g>
     </g>
     <g id="text_7">
      <text style="fill: #262626; font: 22px 'Arial', 'DejaVu Sans', 'Liberation Sans', 'Bitstream Vera Sans', sans-serif; text-anchor: end" x="20.5" y="148.085842" transform="rotate(-0 20.5 148.085842)">1000</text>
     </g>
    </g>
    <g id="ytick_4">
     <g id="line2d_7">
      <g>
       <use xlink:href="#m59bec8f4c4" x="36" y="82.158373" style="fill: #262626; stroke: #262626; stroke-width: 2.5"/>
      </g>
     </g>
     <g id="text_8">
      <text style="fill: #262626; font: 22px 'Arial', 'DejaVu Sans', 'Liberation Sans', 'Bitstream Vera Sans', sans-serif; text-anchor: end" x="20.5" y="90.031966" transform="rotate(-0 20.5 90.031966)">1500</text>
     </g>
    </g>
    <g id="text_9">
     <text style="fill: #262626; font: 24px 'Arial', 'DejaVu Sans', 'Liberation Sans', 'Bitstream Vera Sans', sans-serif; text-anchor: middle" x="-37.20625" y="145.44" transform="rotate(-90 -37.20625 145.44)">Count</text>
    </g>
   </g>
   <g id="patch_3">
    <path d="M 46.145455 256.32 
L 48.174545 256.32 
L 48.174545 255.971677 
L 46.145455 255.971677 
z
" clip-path="url(#p6e6cc354aa)" style="fill: #4c72b0; stroke: #4c72b0; stroke-width: 2; stroke-linejoin: miter"/>
   </g>
   <g id="patch_4">
    <path d="M 48.174545 256.32 
L 50.203636 256.32 
L 50.203636 256.087784 
L 48.174545 256.087784 
z
" clip-path="url(#p6e6cc354aa)" style="fill: #4c72b0; stroke: #4c72b0; stroke-width: 2; stroke-linejoin: miter"/>
   </g>
   <g id="patch_5">
    <path d="M 50.203636 256.32 
L 52.232727 256.32 
L 52.232727 255.739461 
L 50.203636 255.739461 
z
" clip-path="url(#p6e6cc354aa)" style="fill: #4c72b0; stroke: #4c72b0; stroke-width: 2; stroke-linejoin: miter"/>
   </g>
   <g id="patch_6">
    <path d="M 52.232727 256.32 
L 54.261818 256.32 
L 54.261818 255.507246 
L 52.232727 255.507246 
z
" clip-path="url(#p6e6cc354aa)" style="fill: #4c72b0; stroke: #4c72b0; stroke-width: 2; stroke-linejoin: miter"/>
   </g>
   <g id="patch_7">
    <path d="M 54.261818 256.32 
L 56.290909 256.32 
L 56.290909 255.158922 
L 54.261818 255.158922 
z
" clip-path="url(#p6e6cc354aa)" style="fill: #4c72b0; stroke: #4c72b0; stroke-width: 2; stroke-linejoin: miter"/>
   </g>
   <g id="patch_8">
    <path d="M 56.290909 256.32 
L 58.32 256.32 
L 58.32 255.739461 
L 56.290909 255.739461 
z
" clip-path="url(#p6e6cc354aa)" style="fill: #4c72b0; stroke: #4c72b0; stroke-width: 2; stroke-linejoin: miter"/>
   </g>
   <g id="patch_9">
    <path d="M 58.32 256.32 
L 60.349091 256.32 
L 60.349091 255.623353 
L 58.32 255.623353 
z
" clip-path="url(#p6e6cc354aa)" style="fill: #4c72b0; stroke: #4c72b0; stroke-width: 2; stroke-linejoin: miter"/>
   </g>
   <g id="patch_10">
    <path d="M 60.349091 256.32 
L 62.378182 256.32 
L 62.378182 255.623353 
L 60.349091 255.623353 
z
" clip-path="url(#p6e6cc354aa)" style="fill: #4c72b0; stroke: #4c72b0; stroke-width: 2; stroke-linejoin: miter"/>
   </g>
   <g id="patch_11">
    <path d="M 62.378182 256.32 
L 64.407273 256.32 
L 64.407273 255.855569 
L 62.378182 255.855569 
z
" clip-path="url(#p6e6cc354aa)" style="fill: #4c72b0; stroke: #4c72b0; stroke-width: 2; stroke-linejoin: miter"/>
   </g>
   <g id="patch_12">
    <path d="M 64.407273 256.32 
L 66.436364 256.32 
L 66.436364 255.855569 
L 64.407273 255.855569 
z
" clip-path="url(#p6e6cc354aa)" style="fill: #4c72b0; stroke: #4c72b0; stroke-width: 2; stroke-linejoin: miter"/>
   </g>
   <g id="patch_13">
    <path d="M 66.436364 256.32 
L 68.465455 256.32 
L 68.465455 255.971677 
L 66.436364 255.971677 
z
" clip-path="url(#p6e6cc354aa)" style="fill: #4c72b0; stroke: #4c72b0; stroke-width: 2; stroke-linejoin: miter"/>
   </g>
   <g id="patch_14">
    <path d="M 68.465455 256.32 
L 70.494545 256.32 
L 70.494545 255.971677 
L 68.465455 255.971677 
z
" clip-path="url(#p6e6cc354aa)" style="fill: #4c72b0; stroke: #4c72b0; stroke-width: 2; stroke-linejoin: miter"/>
   </g>
   <g id="patch_15">
    <path d="M 70.494545 256.32 
L 72.523636 256.32 
L 72.523636 255.855569 
L 70.494545 255.855569 
z
" clip-path="url(#p6e6cc354aa)" style="fill: #4c72b0; stroke: #4c72b0; stroke-width: 2; stroke-linejoin: miter"/>
   </g>
   <g id="patch_16">
    <path d="M 72.523636 256.32 
L 74.552727 256.32 
L 74.552727 255.623353 
L 72.523636 255.623353 
z
" clip-path="url(#p6e6cc354aa)" style="fill: #4c72b0; stroke: #4c72b0; stroke-width: 2; stroke-linejoin: miter"/>
   </g>
   <g id="patch_17">
    <path d="M 74.552727 256.32 
L 76.581818 256.32 
L 76.581818 256.087784 
L 74.552727 256.087784 
z
" clip-path="url(#p6e6cc354aa)" style="fill: #4c72b0; stroke: #4c72b0; stroke-width: 2; stroke-linejoin: miter"/>
   </g>
   <g id="patch_18">
    <path d="M 76.581818 256.32 
L 78.610909 256.32 
L 78.610909 256.203892 
L 76.581818 256.203892 
z
" clip-path="url(#p6e6cc354aa)" style="fill: #4c72b0; stroke: #4c72b0; stroke-width: 2; stroke-linejoin: miter"/>
   </g>
   <g id="patch_19">
    <path d="M 78.610909 256.32 
L 80.64 256.32 
L 80.64 256.32 
L 78.610909 256.32 
z
" clip-path="url(#p6e6cc354aa)" style="fill: #4c72b0; stroke: #4c72b0; stroke-width: 2; stroke-linejoin: miter"/>
   </g>
   <g id="patch_20">
    <path d="M 80.64 256.32 
L 82.669091 256.32 
L 82.669091 256.32 
L 80.64 256.32 
z
" clip-path="url(#p6e6cc354aa)" style="fill: #4c72b0; stroke: #4c72b0; stroke-width: 2; stroke-linejoin: miter"/>
   </g>
   <g id="patch_21">
    <path d="M 82.669091 256.32 
L 84.698182 256.32 
L 84.698182 256.32 
L 82.669091 256.32 
z
" clip-path="url(#p6e6cc354aa)" style="fill: #4c72b0; stroke: #4c72b0; stroke-width: 2; stroke-linejoin: miter"/>
   </g>
   <g id="patch_22">
    <path d="M 84.698182 256.32 
L 86.727273 256.32 
L 86.727273 256.203892 
L 84.698182 256.203892 
z
" clip-path="url(#p6e6cc354aa)" style="fill: #4c72b0; stroke: #4c72b0; stroke-width: 2; stroke-linejoin: miter"/>
   </g>
   <g id="patch_23">
    <path d="M 86.727273 256.32 
L 88.756364 256.32 
L 88.756364 256.32 
L 86.727273 256.32 
z
" clip-path="url(#p6e6cc354aa)" style="fill: #4c72b0; stroke: #4c72b0; stroke-width: 2; stroke-linejoin: miter"/>
   </g>
   <g id="patch_24">
    <path d="M 88.756364 256.32 
L 90.785455 256.32 
L 90.785455 256.203892 
L 88.756364 256.203892 
z
" clip-path="url(#p6e6cc354aa)" style="fill: #4c72b0; stroke: #4c72b0; stroke-width: 2; stroke-linejoin: miter"/>
   </g>
   <g id="patch_25">
    <path d="M 90.785455 256.32 
L 92.814545 256.32 
L 92.814545 256.32 
L 90.785455 256.32 
z
" clip-path="url(#p6e6cc354aa)" style="fill: #4c72b0; stroke: #4c72b0; stroke-width: 2; stroke-linejoin: miter"/>
   </g>
   <g id="patch_26">
    <path d="M 92.814545 256.32 
L 94.843636 256.32 
L 94.843636 256.32 
L 92.814545 256.32 
z
" clip-path="url(#p6e6cc354aa)" style="fill: #4c72b0; stroke: #4c72b0; stroke-width: 2; stroke-linejoin: miter"/>
   </g>
   <g id="patch_27">
    <path d="M 94.843636 256.32 
L 96.872727 256.32 
L 96.872727 256.32 
L 94.843636 256.32 
z
" clip-path="url(#p6e6cc354aa)" style="fill: #4c72b0; stroke: #4c72b0; stroke-width: 2; stroke-linejoin: miter"/>
   </g>
   <g id="patch_28">
    <path d="M 96.872727 256.32 
L 98.901818 256.32 
L 98.901818 255.971677 
L 96.872727 255.971677 
z
" clip-path="url(#p6e6cc354aa)" style="fill: #4c72b0; stroke: #4c72b0; stroke-width: 2; stroke-linejoin: miter"/>
   </g>
   <g id="patch_29">
    <path d="M 98.901818 256.32 
L 100.930909 256.32 
L 100.930909 256.32 
L 98.901818 256.32 
z
" clip-path="url(#p6e6cc354aa)" style="fill: #4c72b0; stroke: #4c72b0; stroke-width: 2; stroke-linejoin: miter"/>
   </g>
   <g id="patch_30">
    <path d="M 100.930909 256.32 
L 102.96 256.32 
L 102.96 255.971677 
L 100.930909 255.971677 
z
" clip-path="url(#p6e6cc354aa)" style="fill: #4c72b0; stroke: #4c72b0; stroke-width: 2; stroke-linejoin: miter"/>
   </g>
   <g id="patch_31">
    <path d="M 102.96 256.32 
L 104.989091 256.32 
L 104.989091 255.391138 
L 102.96 255.391138 
z
" clip-path="url(#p6e6cc354aa)" style="fill: #4c72b0; stroke: #4c72b0; stroke-width: 2; stroke-linejoin: miter"/>
   </g>
   <g id="patch_32">
    <path d="M 104.989091 256.32 
L 107.018182 256.32 
L 107.018182 254.694491 
L 104.989091 254.694491 
z
" clip-path="url(#p6e6cc354aa)" style="fill: #4c72b0; stroke: #4c72b0; stroke-width: 2; stroke-linejoin: miter"/>
   </g>
   <g id="patch_33">
    <path d="M 107.018182 256.32 
L 109.047273 256.32 
L 109.047273 254.346168 
L 107.018182 254.346168 
z
" clip-path="url(#p6e6cc354aa)" style="fill: #4c72b0; stroke: #4c72b0; stroke-width: 2; stroke-linejoin: miter"/>
   </g>
   <g id="patch_34">
    <path d="M 109.047273 256.32 
L 111.076364 256.32 
L 111.076364 252.024013 
L 109.047273 252.024013 
z
" clip-path="url(#p6e6cc354aa)" style="fill: #4c72b0; stroke: #4c72b0; stroke-width: 2; stroke-linejoin: miter"/>
   </g>
   <g id="patch_35">
    <path d="M 111.076364 256.32 
L 113.105455 256.32 
L 113.105455 248.07635 
L 111.076364 248.07635 
z
" clip-path="url(#p6e6cc354aa)" style="fill: #4c72b0; stroke: #4c72b0; stroke-width: 2; stroke-linejoin: miter"/>
   </g>
   <g id="patch_36">
    <path d="M 113.105455 256.32 
L 115.134545 256.32 
L 115.134545 242.967609 
L 113.105455 242.967609 
z
" clip-path="url(#p6e6cc354aa)" style="fill: #4c72b0; stroke: #4c72b0; stroke-width: 2; stroke-linejoin: miter"/>
   </g>
   <g id="patch_37">
    <path d="M 115.134545 256.32 
L 117.163636 256.32 
L 117.163636 234.143419 
L 115.134545 234.143419 
z
" clip-path="url(#p6e6cc354aa)" style="fill: #4c72b0; stroke: #4c72b0; stroke-width: 2; stroke-linejoin: miter"/>
   </g>
   <g id="patch_38">
    <path d="M 117.163636 256.32 
L 119.192727 256.32 
L 119.192727 227.525278 
L 117.163636 227.525278 
z
" clip-path="url(#p6e6cc354aa)" style="fill: #4c72b0; stroke: #4c72b0; stroke-width: 2; stroke-linejoin: miter"/>
   </g>
   <g id="patch_39">
    <path d="M 119.192727 256.32 
L 121.221818 256.32 
L 121.221818 200.936603 
L 119.192727 200.936603 
z
" clip-path="url(#p6e6cc354aa)" style="fill: #4c72b0; stroke: #4c72b0; stroke-width: 2; stroke-linejoin: miter"/>
   </g>
   <g id="patch_40">
    <path d="M 121.221818 256.32 
L 123.250909 256.32 
L 123.250909 174.928466 
L 121.221818 174.928466 
z
" clip-path="url(#p6e6cc354aa)" style="fill: #4c72b0; stroke: #4c72b0; stroke-width: 2; stroke-linejoin: miter"/>
   </g>
   <g id="patch_41">
    <path d="M 123.250909 256.32 
L 125.28 256.32 
L 125.28 148.107576 
L 123.250909 148.107576 
z
" clip-path="url(#p6e6cc354aa)" style="fill: #4c72b0; stroke: #4c72b0; stroke-width: 2; stroke-linejoin: miter"/>
   </g>
   <g id="patch_42">
    <path d="M 125.28 256.32 
L 127.309091 256.32 
L 127.309091 113.971897 
L 125.28 113.971897 
z
" clip-path="url(#p6e6cc354aa)" style="fill: #4c72b0; stroke: #4c72b0; stroke-width: 2; stroke-linejoin: miter"/>
   </g>
   <g id="patch_43">
    <path d="M 127.309091 256.32 
L 129.338182 256.32 
L 129.338182 90.866454 
L 127.309091 90.866454 
z
" clip-path="url(#p6e6cc354aa)" style="fill: #4c72b0; stroke: #4c72b0; stroke-width: 2; stroke-linejoin: miter"/>
   </g>
   <g id="patch_44">
    <path d="M 129.338182 256.32 
L 131.367273 256.32 
L 131.367273 57.543529 
L 129.338182 57.543529 
z
" clip-path="url(#p6e6cc354aa)" style="fill: #4c72b0; stroke: #4c72b0; stroke-width: 2; stroke-linejoin: miter"/>
   </g>
   <g id="patch_45">
    <path d="M 131.367273 256.32 
L 133.396364 256.32 
L 133.396364 45.12 
L 131.367273 45.12 
z
" clip-path="url(#p6e6cc354aa)" style="fill: #4c72b0; stroke: #4c72b0; stroke-width: 2; stroke-linejoin: miter"/>
   </g>
   <g id="patch_46">
    <path d="M 133.396364 256.32 
L 135.425455 256.32 
L 135.425455 59.865684 
L 133.396364 59.865684 
z
" clip-path="url(#p6e6cc354aa)" style="fill: #4c72b0; stroke: #4c72b0; stroke-width: 2; stroke-linejoin: miter"/>
   </g>
   <g id="patch_47">
    <path d="M 135.425455 256.32 
L 137.454545 256.32 
L 137.454545 81.577834 
L 135.425455 81.577834 
z
" clip-path="url(#p6e6cc354aa)" style="fill: #4c72b0; stroke: #4c72b0; stroke-width: 2; stroke-linejoin: miter"/>
   </g>
   <g id="patch_48">
    <path d="M 137.454545 256.32 
L 139.483636 256.32 
L 139.483636 117.106806 
L 137.454545 117.106806 
z
" clip-path="url(#p6e6cc354aa)" style="fill: #4c72b0; stroke: #4c72b0; stroke-width: 2; stroke-linejoin: miter"/>
   </g>
   <g id="patch_49">
    <path d="M 139.483636 256.32 
L 141.512727 256.32 
L 141.512727 138.122309 
L 139.483636 138.122309 
z
" clip-path="url(#p6e6cc354aa)" style="fill: #4c72b0; stroke: #4c72b0; stroke-width: 2; stroke-linejoin: miter"/>
   </g>
   <g id="patch_50">
    <path d="M 141.512727 256.32 
L 143.541818 256.32 
L 143.541818 159.25392 
L 141.512727 159.25392 
z
" clip-path="url(#p6e6cc354aa)" style="fill: #4c72b0; stroke: #4c72b0; stroke-width: 2; stroke-linejoin: miter"/>
   </g>
   <g id="patch_51">
    <path d="M 143.541818 256.32 
L 145.570909 256.32 
L 145.570909 178.87613 
L 143.541818 178.87613 
z
" clip-path="url(#p6e6cc354aa)" style="fill: #4c72b0; stroke: #4c72b0; stroke-width: 2; stroke-linejoin: miter"/>
   </g>
   <g id="patch_52">
    <path d="M 145.570909 256.32 
L 147.6 256.32 
L 147.6 191.996306 
L 145.570909 191.996306 
z
" clip-path="url(#p6e6cc354aa)" style="fill: #4c72b0; stroke: #4c72b0; stroke-width: 2; stroke-linejoin: miter"/>
   </g>
   <g id="patch_53">
    <path d="M 147.6 256.32 
L 149.629091 256.32 
L 149.629091 207.903068 
L 147.6 207.903068 
z
" clip-path="url(#p6e6cc354aa)" style="fill: #4c72b0; stroke: #4c72b0; stroke-width: 2; stroke-linejoin: miter"/>
   </g>
   <g id="patch_54">
    <path d="M 149.629091 256.32 
L 151.658182 256.32 
L 151.658182 216.262826 
L 149.629091 216.262826 
z
" clip-path="url(#p6e6cc354aa)" style="fill: #4c72b0; stroke: #4c72b0; stroke-width: 2; stroke-linejoin: miter"/>
   </g>
   <g id="patch_55">
    <path d="M 151.658182 256.32 
L 153.687273 256.32 
L 153.687273 224.274261 
L 151.658182 224.274261 
z
" clip-path="url(#p6e6cc354aa)" style="fill: #4c72b0; stroke: #4c72b0; stroke-width: 2; stroke-linejoin: miter"/>
   </g>
   <g id="patch_56">
    <path d="M 153.687273 256.32 
L 155.716364 256.32 
L 155.716364 225.899769 
L 153.687273 225.899769 
z
" clip-path="url(#p6e6cc354aa)" style="fill: #4c72b0; stroke: #4c72b0; stroke-width: 2; stroke-linejoin: miter"/>
   </g>
   <g id="patch_57">
    <path d="M 155.716364 256.32 
L 157.745455 256.32 
L 157.745455 233.09845 
L 155.716364 233.09845 
z
" clip-path="url(#p6e6cc354aa)" style="fill: #4c72b0; stroke: #4c72b0; stroke-width: 2; stroke-linejoin: miter"/>
   </g>
   <g id="patch_58">
    <path d="M 157.745455 256.32 
L 159.774545 256.32 
L 159.774545 239.252161 
L 157.745455 239.252161 
z
" clip-path="url(#p6e6cc354aa)" style="fill: #4c72b0; stroke: #4c72b0; stroke-width: 2; stroke-linejoin: miter"/>
   </g>
   <g id="patch_59">
    <path d="M 159.774545 256.32 
L 161.803636 256.32 
L 161.803636 240.993777 
L 159.774545 240.993777 
z
" clip-path="url(#p6e6cc354aa)" style="fill: #4c72b0; stroke: #4c72b0; stroke-width: 2; stroke-linejoin: miter"/>
   </g>
   <g id="patch_60">
    <path d="M 161.803636 256.32 
L 163.832727 256.32 
L 163.832727 245.057548 
L 161.803636 245.057548 
z
" clip-path="url(#p6e6cc354aa)" style="fill: #4c72b0; stroke: #4c72b0; stroke-width: 2; stroke-linejoin: miter"/>
   </g>
   <g id="patch_61">
    <path d="M 163.832727 256.32 
L 165.861818 256.32 
L 165.861818 248.889104 
L 163.832727 248.889104 
z
" clip-path="url(#p6e6cc354aa)" style="fill: #4c72b0; stroke: #4c72b0; stroke-width: 2; stroke-linejoin: miter"/>
   </g>
   <g id="patch_62">
    <path d="M 165.861818 256.32 
L 167.890909 256.32 
L 167.890909 250.63072 
L 165.861818 250.63072 
z
" clip-path="url(#p6e6cc354aa)" style="fill: #4c72b0; stroke: #4c72b0; stroke-width: 2; stroke-linejoin: miter"/>
   </g>
   <g id="patch_63">
    <path d="M 167.890909 256.32 
L 169.92 256.32 
L 169.92 249.701858 
L 167.890909 249.701858 
z
" clip-path="url(#p6e6cc354aa)" style="fill: #4c72b0; stroke: #4c72b0; stroke-width: 2; stroke-linejoin: miter"/>
   </g>
   <g id="patch_64">
    <path d="M 169.92 256.32 
L 171.949091 256.32 
L 171.949091 251.211259 
L 169.92 251.211259 
z
" clip-path="url(#p6e6cc354aa)" style="fill: #4c72b0; stroke: #4c72b0; stroke-width: 2; stroke-linejoin: miter"/>
   </g>
   <g id="patch_65">
    <path d="M 171.949091 256.32 
L 173.978182 256.32 
L 173.978182 252.256229 
L 171.949091 252.256229 
z
" clip-path="url(#p6e6cc354aa)" style="fill: #4c72b0; stroke: #4c72b0; stroke-width: 2; stroke-linejoin: miter"/>
   </g>
   <g id="patch_66">
    <path d="M 173.978182 256.32 
L 176.007273 256.32 
L 176.007273 252.836767 
L 173.978182 252.836767 
z
" clip-path="url(#p6e6cc354aa)" style="fill: #4c72b0; stroke: #4c72b0; stroke-width: 2; stroke-linejoin: miter"/>
   </g>
   <g id="patch_67">
    <path d="M 176.007273 256.32 
L 178.036364 256.32 
L 178.036364 252.952875 
L 176.007273 252.952875 
z
" clip-path="url(#p6e6cc354aa)" style="fill: #4c72b0; stroke: #4c72b0; stroke-width: 2; stroke-linejoin: miter"/>
   </g>
   <g id="patch_68">
    <path d="M 178.036364 256.32 
L 180.065455 256.32 
L 180.065455 253.185091 
L 178.036364 253.185091 
z
" clip-path="url(#p6e6cc354aa)" style="fill: #4c72b0; stroke: #4c72b0; stroke-width: 2; stroke-linejoin: miter"/>
   </g>
   <g id="patch_69">
    <path d="M 180.065455 256.32 
L 182.094545 256.32 
L 182.094545 252.836767 
L 180.065455 252.836767 
z
" clip-path="url(#p6e6cc354aa)" style="fill: #4c72b0; stroke: #4c72b0; stroke-width: 2; stroke-linejoin: miter"/>
   </g>
   <g id="patch_70">
    <path d="M 182.094545 256.32 
L 184.123636 256.32 
L 184.123636 254.23006 
L 182.094545 254.23006 
z
" clip-path="url(#p6e6cc354aa)" style="fill: #4c72b0; stroke: #4c72b0; stroke-width: 2; stroke-linejoin: miter"/>
   </g>
   <g id="patch_71">
    <path d="M 184.123636 256.32 
L 186.152727 256.32 
L 186.152727 254.578384 
L 184.123636 254.578384 
z
" clip-path="url(#p6e6cc354aa)" style="fill: #4c72b0; stroke: #4c72b0; stroke-width: 2; stroke-linejoin: miter"/>
   </g>
   <g id="patch_72">
    <path d="M 186.152727 256.32 
L 188.181818 256.32 
L 188.181818 254.810599 
L 186.152727 254.810599 
z
" clip-path="url(#p6e6cc354aa)" style="fill: #4c72b0; stroke: #4c72b0; stroke-width: 2; stroke-linejoin: miter"/>
   </g>
   <g id="patch_73">
    <path d="M 188.181818 256.32 
L 190.210909 256.32 
L 190.210909 255.623353 
L 188.181818 255.623353 
z
" clip-path="url(#p6e6cc354aa)" style="fill: #4c72b0; stroke: #4c72b0; stroke-width: 2; stroke-linejoin: miter"/>
   </g>
   <g id="patch_74">
    <path d="M 190.210909 256.32 
L 192.24 256.32 
L 192.24 255.623353 
L 190.210909 255.623353 
z
" clip-path="url(#p6e6cc354aa)" style="fill: #4c72b0; stroke: #4c72b0; stroke-width: 2; stroke-linejoin: miter"/>
   </g>
   <g id="patch_75">
    <path d="M 192.24 256.32 
L 194.269091 256.32 
L 194.269091 255.971677 
L 192.24 255.971677 
z
" clip-path="url(#p6e6cc354aa)" style="fill: #4c72b0; stroke: #4c72b0; stroke-width: 2; stroke-linejoin: miter"/>
   </g>
   <g id="patch_76">
    <path d="M 194.269091 256.32 
L 196.298182 256.32 
L 196.298182 255.971677 
L 194.269091 255.971677 
z
" clip-path="url(#p6e6cc354aa)" style="fill: #4c72b0; stroke: #4c72b0; stroke-width: 2; stroke-linejoin: miter"/>
   </g>
   <g id="patch_77">
    <path d="M 196.298182 256.32 
L 198.327273 256.32 
L 198.327273 256.203892 
L 196.298182 256.203892 
z
" clip-path="url(#p6e6cc354aa)" style="fill: #4c72b0; stroke: #4c72b0; stroke-width: 2; stroke-linejoin: miter"/>
   </g>
   <g id="patch_78">
    <path d="M 198.327273 256.32 
L 200.356364 256.32 
L 200.356364 256.32 
L 198.327273 256.32 
z
" clip-path="url(#p6e6cc354aa)" style="fill: #4c72b0; stroke: #4c72b0; stroke-width: 2; stroke-linejoin: miter"/>
   </g>
   <g id="patch_79">
    <path d="M 200.356364 256.32 
L 202.385455 256.32 
L 202.385455 256.32 
L 200.356364 256.32 
z
" clip-path="url(#p6e6cc354aa)" style="fill: #4c72b0; stroke: #4c72b0; stroke-width: 2; stroke-linejoin: miter"/>
   </g>
   <g id="patch_80">
    <path d="M 202.385455 256.32 
L 204.414545 256.32 
L 204.414545 256.32 
L 202.385455 256.32 
z
" clip-path="url(#p6e6cc354aa)" style="fill: #4c72b0; stroke: #4c72b0; stroke-width: 2; stroke-linejoin: miter"/>
   </g>
   <g id="patch_81">
    <path d="M 204.414545 256.32 
L 206.443636 256.32 
L 206.443636 256.32 
L 204.414545 256.32 
z
" clip-path="url(#p6e6cc354aa)" style="fill: #4c72b0; stroke: #4c72b0; stroke-width: 2; stroke-linejoin: miter"/>
   </g>
   <g id="patch_82">
    <path d="M 206.443636 256.32 
L 208.472727 256.32 
L 208.472727 256.32 
L 206.443636 256.32 
z
" clip-path="url(#p6e6cc354aa)" style="fill: #4c72b0; stroke: #4c72b0; stroke-width: 2; stroke-linejoin: miter"/>
   </g>
   <g id="patch_83">
    <path d="M 208.472727 256.32 
L 210.501818 256.32 
L 210.501818 256.32 
L 208.472727 256.32 
z
" clip-path="url(#p6e6cc354aa)" style="fill: #4c72b0; stroke: #4c72b0; stroke-width: 2; stroke-linejoin: miter"/>
   </g>
   <g id="patch_84">
    <path d="M 210.501818 256.32 
L 212.530909 256.32 
L 212.530909 256.32 
L 210.501818 256.32 
z
" clip-path="url(#p6e6cc354aa)" style="fill: #4c72b0; stroke: #4c72b0; stroke-width: 2; stroke-linejoin: miter"/>
   </g>
   <g id="patch_85">
    <path d="M 212.530909 256.32 
L 214.56 256.32 
L 214.56 256.203892 
L 212.530909 256.203892 
z
" clip-path="url(#p6e6cc354aa)" style="fill: #4c72b0; stroke: #4c72b0; stroke-width: 2; stroke-linejoin: miter"/>
   </g>
   <g id="patch_86">
    <path d="M 214.56 256.32 
L 216.589091 256.32 
L 216.589091 256.32 
L 214.56 256.32 
z
" clip-path="url(#p6e6cc354aa)" style="fill: #4c72b0; stroke: #4c72b0; stroke-width: 2; stroke-linejoin: miter"/>
   </g>
   <g id="patch_87">
    <path d="M 216.589091 256.32 
L 218.618182 256.32 
L 218.618182 256.32 
L 216.589091 256.32 
z
" clip-path="url(#p6e6cc354aa)" style="fill: #4c72b0; stroke: #4c72b0; stroke-width: 2; stroke-linejoin: miter"/>
   </g>
   <g id="patch_88">
    <path d="M 218.618182 256.32 
L 220.647273 256.32 
L 220.647273 256.32 
L 218.618182 256.32 
z
" clip-path="url(#p6e6cc354aa)" style="fill: #4c72b0; stroke: #4c72b0; stroke-width: 2; stroke-linejoin: miter"/>
   </g>
   <g id="patch_89">
    <path d="M 220.647273 256.32 
L 222.676364 256.32 
L 222.676364 256.32 
L 220.647273 256.32 
z
" clip-path="url(#p6e6cc354aa)" style="fill: #4c72b0; stroke: #4c72b0; stroke-width: 2; stroke-linejoin: miter"/>
   </g>
   <g id="patch_90">
    <path d="M 222.676364 256.32 
L 224.705455 256.32 
L 224.705455 256.32 
L 222.676364 256.32 
z
" clip-path="url(#p6e6cc354aa)" style="fill: #4c72b0; stroke: #4c72b0; stroke-width: 2; stroke-linejoin: miter"/>
   </g>
   <g id="patch_91">
    <path d="M 224.705455 256.32 
L 226.734545 256.32 
L 226.734545 256.32 
L 224.705455 256.32 
z
" clip-path="url(#p6e6cc354aa)" style="fill: #4c72b0; stroke: #4c72b0; stroke-width: 2; stroke-linejoin: miter"/>
   </g>
   <g id="patch_92">
    <path d="M 226.734545 256.32 
L 228.763636 256.32 
L 228.763636 256.32 
L 226.734545 256.32 
z
" clip-path="url(#p6e6cc354aa)" style="fill: #4c72b0; stroke: #4c72b0; stroke-width: 2; stroke-linejoin: miter"/>
   </g>
   <g id="patch_93">
    <path d="M 228.763636 256.32 
L 230.792727 256.32 
L 230.792727 256.32 
L 228.763636 256.32 
z
" clip-path="url(#p6e6cc354aa)" style="fill: #4c72b0; stroke: #4c72b0; stroke-width: 2; stroke-linejoin: miter"/>
   </g>
   <g id="patch_94">
    <path d="M 230.792727 256.32 
L 232.821818 256.32 
L 232.821818 256.32 
L 230.792727 256.32 
z
" clip-path="url(#p6e6cc354aa)" style="fill: #4c72b0; stroke: #4c72b0; stroke-width: 2; stroke-linejoin: miter"/>
   </g>
   <g id="patch_95">
    <path d="M 232.821818 256.32 
L 234.850909 256.32 
L 234.850909 256.32 
L 232.821818 256.32 
z
" clip-path="url(#p6e6cc354aa)" style="fill: #4c72b0; stroke: #4c72b0; stroke-width: 2; stroke-linejoin: miter"/>
   </g>
   <g id="patch_96">
    <path d="M 234.850909 256.32 
L 236.88 256.32 
L 236.88 256.32 
L 234.850909 256.32 
z
" clip-path="url(#p6e6cc354aa)" style="fill: #4c72b0; stroke: #4c72b0; stroke-width: 2; stroke-linejoin: miter"/>
   </g>
   <g id="patch_97">
    <path d="M 236.88 256.32 
L 238.909091 256.32 
L 238.909091 256.32 
L 236.88 256.32 
z
" clip-path="url(#p6e6cc354aa)" style="fill: #4c72b0; stroke: #4c72b0; stroke-width: 2; stroke-linejoin: miter"/>
   </g>
   <g id="patch_98">
    <path d="M 238.909091 256.32 
L 240.938182 256.32 
L 240.938182 256.32 
L 238.909091 256.32 
z
" clip-path="url(#p6e6cc354aa)" style="fill: #4c72b0; stroke: #4c72b0; stroke-width: 2; stroke-linejoin: miter"/>
   </g>
   <g id="patch_99">
    <path d="M 240.938182 256.32 
L 242.967273 256.32 
L 242.967273 256.32 
L 240.938182 256.32 
z
" clip-path="url(#p6e6cc354aa)" style="fill: #4c72b0; stroke: #4c72b0; stroke-width: 2; stroke-linejoin: miter"/>
   </g>
   <g id="patch_100">
    <path d="M 242.967273 256.32 
L 244.996364 256.32 
L 244.996364 256.32 
L 242.967273 256.32 
z
" clip-path="url(#p6e6cc354aa)" style="fill: #4c72b0; stroke: #4c72b0; stroke-width: 2; stroke-linejoin: miter"/>
   </g>
   <g id="patch_101">
    <path d="M 244.996364 256.32 
L 247.025455 256.32 
L 247.025455 256.32 
L 244.996364 256.32 
z
" clip-path="url(#p6e6cc354aa)" style="fill: #4c72b0; stroke: #4c72b0; stroke-width: 2; stroke-linejoin: miter"/>
   </g>
   <g id="patch_102">
    <path d="M 247.025455 256.32 
L 249.054545 256.32 
L 249.054545 256.203892 
L 247.025455 256.203892 
z
" clip-path="url(#p6e6cc354aa)" style="fill: #4c72b0; stroke: #4c72b0; stroke-width: 2; stroke-linejoin: miter"/>
   </g>
   <g id="patch_103">
    <path d="M 36 256.32 
L 36 34.56 
" style="fill: none; stroke: #262626; stroke-width: 2.5; stroke-linejoin: miter; stroke-linecap: square"/>
   </g>
   <g id="patch_104">
    <path d="M 36 256.32 
L 259.2 256.32 
" style="fill: none; stroke: #262626; stroke-width: 2.5; stroke-linejoin: miter; stroke-linecap: square"/>
   </g>
  </g>
 </g>
 <defs>
  <clipPath id="p6e6cc354aa">
   <rect x="36" y="34.56" width="223.2" height="221.76"/>
  </clipPath>
 </defs>
</svg>
