<?xml version="1.0" encoding="utf-8" standalone="no"?>
<!DOCTYPE svg PUBLIC "-//W3C//DTD SVG 1.1//EN"
  "http://www.w3.org/Graphics/SVG/1.1/DTD/svg11.dtd">
<svg xmlns:xlink="http://www.w3.org/1999/xlink" width="288pt" height="288pt" viewBox="0 0 288 288" xmlns="http://www.w3.org/2000/svg" version="1.1">
 <metadata>
  <rdf:RDF xmlns:dc="http://purl.org/dc/elements/1.1/" xmlns:cc="http://creativecommons.org/ns#" xmlns:rdf="http://www.w3.org/1999/02/22-rdf-syntax-ns#">
   <cc:Work>
    <dc:type rdf:resource="http://purl.org/dc/dcmitype/StillImage"/>
    <dc:date>2023-11-20T22:11:32.086660</dc:date>
    <dc:format>image/svg+xml</dc:format>
    <dc:creator>
     <cc:Agent>
      <dc:title>Matplotlib v3.7.2, https://matplotlib.org/</dc:title>
     </cc:Agent>
    </dc:creator>
   </cc:Work>
  </rdf:RDF>
 </metadata>
 <defs>
  <style type="text/css">*{stroke-linejoin: round; stroke-linecap: butt}</style>
 </defs>
 <g id="figure_1">
  <g id="patch_1">
   <path d="M 0 288 
L 288 288 
L 288 0 
L 0 0 
z
" style="fill: #ffffff"/>
  </g>
  <g id="axes_1">
   <g id="patch_2">
    <path d="M 36 256.32 
L 259.2 256.32 
L 259.2 34.56 
L 36 34.56 
z
" style="fill: #ffffff"/>
   </g>
   <g id="matplotlib.axis_1">
    <g id="xtick_1">
     <g id="line2d_1">
      <defs>
       <path id="m850070f10b" d="M 0 0 
L 0 12 
" style="stroke: #262626; stroke-width: 2.5"/>
      </defs>
      <g>
       <use xlink:href="#m850070f10b" x="93.25304" y="256.32" style="fill: #262626; stroke: #262626; stroke-width: 2.5"/>
      </g>
     </g>
     <g id="text_1">
      <!-- $\mathdefault{10^{0}}$ -->
      <g style="fill: #262626" transform="translate(73.89304 288.536563)">
       <text>
        <tspan style="font: 22px 'DejaVu Sans'" x="0 13.99707" y="-0.1484375">10</tspan>
        <tspan style="font: 15.4px 'DejaVu Sans'" x="28.204687" y="-8.5703125">0</tspan>
       </text>
      </g>
     </g>
    </g>
    <g id="xtick_2">
     <g id="line2d_2">
      <g>
       <use xlink:href="#m850070f10b" x="171.497046" y="256.32" style="fill: #262626; stroke: #262626; stroke-width: 2.5"/>
      </g>
     </g>
     <g id="text_2">
      <!-- $\mathdefault{10^{1}}$ -->
      <g style="fill: #262626" transform="translate(152.137046 288.536563)">
       <text>
        <tspan style="font: 22px 'DejaVu Sans'" x="0 13.99707" y="-0.35625000000000284">10</tspan>
        <tspan style="font: 15.4px 'DejaVu Sans'" x="28.204687" y="-8.778125000000003">1</tspan>
       </text>
      </g>
     </g>
    </g>
    <g id="xtick_3">
     <g id="line2d_3">
      <g>
       <use xlink:href="#m850070f10b" x="249.741052" y="256.32" style="fill: #262626; stroke: #262626; stroke-width: 2.5"/>
      </g>
     </g>
     <g id="text_3">
      <!-- $\mathdefault{10^{2}}$ -->
      <g style="fill: #262626" transform="translate(230.381052 288.536563)">
       <text>
        <tspan style="font: 22px 'DejaVu Sans'" x="0 13.99707" y="-0.1484375">10</tspan>
        <tspan style="font: 15.4px 'DejaVu Sans'" x="28.204687" y="-8.5703125">2</tspan>
       </text>
      </g>
     </g>
    </g>
    <g id="xtick_4">
     <g id="line2d_4">
      <defs>
       <path id="m68ae5f4ac8" d="M 0 0 
L 0 8 
" style="stroke: #262626; stroke-width: 2"/>
      </defs>
      <g>
       <use xlink:href="#m68ae5f4ac8" x="38.562827" y="256.32" style="fill: #262626; stroke: #262626; stroke-width: 2"/>
      </g>
     </g>
    </g>
    <g id="xtick_5">
     <g id="line2d_5">
      <g>
       <use xlink:href="#m68ae5f4ac8" x="52.340912" y="256.32" style="fill: #262626; stroke: #262626; stroke-width: 2"/>
      </g>
     </g>
    </g>
    <g id="xtick_6">
     <g id="line2d_6">
      <g>
       <use xlink:href="#m68ae5f4ac8" x="62.11662" y="256.32" style="fill: #262626; stroke: #262626; stroke-width: 2"/>
      </g>
     </g>
    </g>
    <g id="xtick_7">
     <g id="line2d_7">
      <g>
       <use xlink:href="#m68ae5f4ac8" x="69.699247" y="256.32" style="fill: #262626; stroke: #262626; stroke-width: 2"/>
      </g>
     </g>
    </g>
    <g id="xtick_8">
     <g id="line2d_8">
      <g>
       <use xlink:href="#m68ae5f4ac8" x="75.894705" y="256.32" style="fill: #262626; stroke: #262626; stroke-width: 2"/>
      </g>
     </g>
    </g>
    <g id="xtick_9">
     <g id="line2d_9">
      <g>
       <use xlink:href="#m68ae5f4ac8" x="81.13289" y="256.32" style="fill: #262626; stroke: #262626; stroke-width: 2"/>
      </g>
     </g>
    </g>
    <g id="xtick_10">
     <g id="line2d_10">
      <g>
       <use xlink:href="#m68ae5f4ac8" x="85.670413" y="256.32" style="fill: #262626; stroke: #262626; stroke-width: 2"/>
      </g>
     </g>
    </g>
    <g id="xtick_11">
     <g id="line2d_11">
      <g>
       <use xlink:href="#m68ae5f4ac8" x="89.672791" y="256.32" style="fill: #262626; stroke: #262626; stroke-width: 2"/>
      </g>
     </g>
    </g>
    <g id="xtick_12">
     <g id="line2d_12">
      <g>
       <use xlink:href="#m68ae5f4ac8" x="116.806833" y="256.32" style="fill: #262626; stroke: #262626; stroke-width: 2"/>
      </g>
     </g>
    </g>
    <g id="xtick_13">
     <g id="line2d_13">
      <g>
       <use xlink:href="#m68ae5f4ac8" x="130.584919" y="256.32" style="fill: #262626; stroke: #262626; stroke-width: 2"/>
      </g>
     </g>
    </g>
    <g id="xtick_14">
     <g id="line2d_14">
      <g>
       <use xlink:href="#m68ae5f4ac8" x="140.360626" y="256.32" style="fill: #262626; stroke: #262626; stroke-width: 2"/>
      </g>
     </g>
    </g>
    <g id="xtick_15">
     <g id="line2d_15">
      <g>
       <use xlink:href="#m68ae5f4ac8" x="147.943253" y="256.32" style="fill: #262626; stroke: #262626; stroke-width: 2"/>
      </g>
     </g>
    </g>
    <g id="xtick_16">
     <g id="line2d_16">
      <g>
       <use xlink:href="#m68ae5f4ac8" x="154.138711" y="256.32" style="fill: #262626; stroke: #262626; stroke-width: 2"/>
      </g>
     </g>
    </g>
    <g id="xtick_17">
     <g id="line2d_17">
      <g>
       <use xlink:href="#m68ae5f4ac8" x="159.376896" y="256.32" style="fill: #262626; stroke: #262626; stroke-width: 2"/>
      </g>
     </g>
    </g>
    <g id="xtick_18">
     <g id="line2d_18">
      <g>
       <use xlink:href="#m68ae5f4ac8" x="163.914419" y="256.32" style="fill: #262626; stroke: #262626; stroke-width: 2"/>
      </g>
     </g>
    </g>
    <g id="xtick_19">
     <g id="line2d_19">
      <g>
       <use xlink:href="#m68ae5f4ac8" x="167.916797" y="256.32" style="fill: #262626; stroke: #262626; stroke-width: 2"/>
      </g>
     </g>
    </g>
    <g id="xtick_20">
     <g id="line2d_20">
      <g>
       <use xlink:href="#m68ae5f4ac8" x="195.050839" y="256.32" style="fill: #262626; stroke: #262626; stroke-width: 2"/>
      </g>
     </g>
    </g>
    <g id="xtick_21">
     <g id="line2d_21">
      <g>
       <use xlink:href="#m68ae5f4ac8" x="208.828925" y="256.32" style="fill: #262626; stroke: #262626; stroke-width: 2"/>
      </g>
     </g>
    </g>
    <g id="xtick_22">
     <g id="line2d_22">
      <g>
       <use xlink:href="#m68ae5f4ac8" x="218.604632" y="256.32" style="fill: #262626; stroke: #262626; stroke-width: 2"/>
      </g>
     </g>
    </g>
    <g id="xtick_23">
     <g id="line2d_23">
      <g>
       <use xlink:href="#m68ae5f4ac8" x="226.18726" y="256.32" style="fill: #262626; stroke: #262626; stroke-width: 2"/>
      </g>
     </g>
    </g>
    <g id="xtick_24">
     <g id="line2d_24">
      <g>
       <use xlink:href="#m68ae5f4ac8" x="232.382718" y="256.32" style="fill: #262626; stroke: #262626; stroke-width: 2"/>
      </g>
     </g>
    </g>
    <g id="xtick_25">
     <g id="line2d_25">
      <g>
       <use xlink:href="#m68ae5f4ac8" x="237.620903" y="256.32" style="fill: #262626; stroke: #262626; stroke-width: 2"/>
      </g>
     </g>
    </g>
    <g id="xtick_26">
     <g id="line2d_26">
      <g>
       <use xlink:href="#m68ae5f4ac8" x="242.158425" y="256.32" style="fill: #262626; stroke: #262626; stroke-width: 2"/>
      </g>
     </g>
    </g>
    <g id="xtick_27">
     <g id="line2d_27">
      <g>
       <use xlink:href="#m68ae5f4ac8" x="246.160803" y="256.32" style="fill: #262626; stroke: #262626; stroke-width: 2"/>
      </g>
     </g>
    </g>
    <g id="text_4">
     <text style="fill: #262626; font: 24px 'Arial', 'DejaVu Sans', 'Liberation Sans', 'Bitstream Vera Sans', sans-serif; text-anchor: middle" x="147.6" y="315.348125" transform="rotate(-0 147.6 315.348125)">Frequency</text>
    </g>
   </g>
   <g id="matplotlib.axis_2">
    <g id="ytick_1">
     <g id="line2d_28">
      <defs>
       <path id="mc7ae2533eb" d="M 0 0 
L -12 0 
" style="stroke: #262626; stroke-width: 2.5"/>
      </defs>
      <g>
       <use xlink:href="#mc7ae2533eb" x="36" y="192.244388" style="fill: #262626; stroke: #262626; stroke-width: 2.5"/>
      </g>
     </g>
     <g id="text_5">
      <!-- $\mathdefault{10^{-2}}$ -->
      <g style="fill: #262626" transform="translate(-31.2 200.602669)">
       <text>
        <tspan style="font: 22px 'DejaVu Sans'" x="0 13.99707" y="-0.1484375">10</tspan>
        <tspan style="font: 15.4px 'DejaVu Sans'" x="28.204687 41.108203" y="-8.5703125">−2</tspan>
       </text>
      </g>
     </g>
    </g>
    <g id="ytick_2">
     <g id="line2d_29">
      <g>
       <use xlink:href="#mc7ae2533eb" x="36" y="99.658862" style="fill: #262626; stroke: #262626; stroke-width: 2.5"/>
      </g>
     </g>
     <g id="text_6">
      <!-- $\mathdefault{10^{0}}$ -->
      <g style="fill: #262626" transform="translate(-18.22 108.017143)">
       <text>
        <tspan style="font: 22px 'DejaVu Sans'" x="0 13.99707" y="-0.1484375">10</tspan>
        <tspan style="font: 15.4px 'DejaVu Sans'" x="28.204687" y="-8.5703125">0</tspan>
       </text>
      </g>
     </g>
    </g>
    <g id="text_7">
     <text style="fill: #262626; font: 24px 'Arial', 'DejaVu Sans', 'Liberation Sans', 'Bitstream Vera Sans', sans-serif; text-anchor: middle" x="-40.19125" y="145.44" transform="rotate(-90 -40.19125 145.44)">Dissimilarity</text>
    </g>
   </g>
   <g id="PolyCollection_1">
    <defs>
     <path id="m6425a50e95" d="M 46.145455 -241.7565 
L 46.145455 -234.339837 
L 69.699247 -226.292105 
L 83.477333 -211.29481 
L 93.25304 -202.125311 
L 100.835668 -193.247603 
L 107.031126 -185.566147 
L 112.269311 -180.724618 
L 116.806833 -176.786741 
L 120.809211 -170.429085 
L 124.389461 -165.573279 
L 127.62819 -162.110757 
L 130.584919 -159.571771 
L 133.304845 -157.071237 
L 135.823104 -156.200726 
L 138.167546 -154.463236 
L 140.360626 -152.807313 
L 142.420707 -151.651784 
L 144.363004 -150.73133 
L 146.200259 -150.254106 
L 147.943253 -150.172794 
L 149.601189 -149.477882 
L 151.181983 -149.592048 
L 152.692496 -149.971341 
L 154.138711 -150.65287 
L 155.525881 -152.353804 
L 156.858638 -154.391602 
L 158.14109 -155.407514 
L 159.376896 -158.475225 
L 160.569332 -162.388923 
L 161.721339 -167.180722 
L 162.835568 -172.677029 
L 163.914419 -178.298681 
L 164.960069 -180.131136 
L 165.9745 -180.207381 
L 166.959524 -180.510033 
L 167.916797 -181.599554 
L 168.84784 -181.553272 
L 169.754052 -181.835338 
L 170.636723 -183.266398 
L 171.497046 -182.505282 
L 172.336125 -178.049414 
L 173.154982 -174.0447 
L 173.95457 -170.189638 
L 174.735776 -168.274661 
L 175.499425 -167.435137 
L 176.246289 -165.717868 
L 176.97709 -164.852822 
L 177.692504 -162.391585 
L 178.393167 -159.907833 
L 179.079674 -158.520933 
L 179.752586 -158.078864 
L 180.412431 -157.743753 
L 181.059706 -157.21853 
L 181.694882 -156.655948 
L 182.318403 -155.649646 
L 182.930689 -154.978466 
L 183.532138 -155.890608 
L 184.123125 -155.781847 
L 184.70401 -155.753337 
L 185.275132 -154.709139 
L 185.836813 -155.758962 
L 186.389361 -155.720533 
L 186.933068 -155.46202 
L 187.468211 -155.398147 
L 187.995058 -154.930592 
L 188.513861 -154.132854 
L 189.024863 -154.216456 
L 189.528293 -153.138769 
L 190.024374 -151.13869 
L 190.513317 -149.743322 
L 190.995324 -148.622302 
L 191.47059 -148.106958 
L 191.9393 -146.393293 
L 192.401633 -145.237218 
L 192.85776 -143.915781 
L 193.307845 -142.793768 
L 193.752046 -141.238406 
L 194.190516 -140.199216 
L 194.6234 -139.307681 
L 195.050839 -137.538469 
L 195.472968 -136.368155 
L 195.889917 -135.44051 
L 196.301813 -134.246179 
L 196.708775 -133.183813 
L 197.110921 -131.740257 
L 197.508363 -130.497866 
L 197.901211 -130.252493 
L 198.289569 -128.853289 
L 198.673538 -128.312309 
L 199.053217 -127.452371 
L 199.428701 -126.030932 
L 199.800081 -125.597918 
L 200.167446 -124.44504 
L 200.530882 -123.084861 
L 200.890472 -121.746901 
L 201.246297 -120.796609 
L 201.598434 -119.869136 
L 201.94696 -118.555583 
L 202.291947 -117.196259 
L 202.633467 -117.018007 
L 202.971588 -114.930331 
L 203.306379 -114.090036 
L 203.637903 -112.425303 
L 203.966223 -111.703661 
L 204.291402 -111.14229 
L 204.613499 -110.48659 
L 204.932571 -107.695406 
L 205.248675 -106.775222 
L 205.561866 -105.308087 
L 205.872196 -104.15706 
L 206.179718 -102.638884 
L 206.484482 -101.233206 
L 206.786537 -100.521439 
L 207.08593 -99.187434 
L 207.382709 -98.038189 
L 207.676918 -96.957355 
L 207.968602 -96.256022 
L 208.257803 -94.937017 
L 208.544564 -93.841663 
L 208.828925 -92.830894 
L 209.110926 -91.675216 
L 209.390606 -90.405684 
L 209.668003 -89.897487 
L 209.943154 -88.811691 
L 210.216094 -88.174192 
L 210.48686 -87.153249 
L 210.755486 -86.127676 
L 211.022004 -85.477975 
L 211.286449 -84.412157 
L 211.548851 -84.329485 
L 211.809243 -83.781188 
L 212.067654 -83.065407 
L 212.324115 -82.097091 
L 212.578655 -81.582149 
L 212.831303 -81.345936 
L 213.082086 -80.018187 
L 213.331032 -79.491049 
L 213.578167 -78.32148 
L 213.823518 -78.414321 
L 214.06711 -77.405729 
L 214.308968 -76.938359 
L 214.549117 -76.851747 
L 214.787581 -76.256094 
L 215.024383 -76.2546 
L 215.259546 -75.78027 
L 215.493093 -74.575472 
L 215.725045 -74.839588 
L 215.955425 -73.507683 
L 216.184254 -72.770592 
L 216.411552 -72.967354 
L 216.63734 -73.021891 
L 216.861638 -73.366044 
L 217.084464 -71.809167 
L 217.305839 -72.021355 
L 217.525781 -71.651589 
L 217.744309 -71.277541 
L 217.96144 -71.185062 
L 218.177193 -70.126268 
L 218.391585 -70.034127 
L 218.604632 -69.652613 
L 218.816352 -69.238958 
L 219.026761 -69.561584 
L 219.235875 -69.184038 
L 219.44371 -68.686143 
L 219.650282 -68.805106 
L 219.855605 -68.881211 
L 220.059696 -68.257726 
L 220.262568 -68.069968 
L 220.464236 -67.599926 
L 220.664714 -67.228578 
L 220.864016 -66.806417 
L 221.062156 -66.438092 
L 221.259148 -65.962962 
L 221.455004 -65.714915 
L 221.649737 -65.900377 
L 221.843361 -64.75674 
L 222.035889 -64.961619 
L 222.227331 -65.253937 
L 222.417701 -64.927251 
L 222.60701 -64.728001 
L 222.795271 -64.303549 
L 222.982494 -64.878488 
L 223.168691 -64.264491 
L 223.353874 -64.122385 
L 223.538053 -63.246265 
L 223.721239 -63.260786 
L 223.903443 -63.396113 
L 224.084675 -63.781136 
L 224.264946 -63.313453 
L 224.444265 -63.349631 
L 224.622643 -62.664168 
L 224.80009 -62.587765 
L 224.976615 -61.993445 
L 225.152227 -61.655578 
L 225.326937 -61.443799 
L 225.500753 -61.303038 
L 225.673684 -62.263329 
L 225.84574 -62.71931 
L 226.016929 -116.581578 
L 226.18726 -158.757905 
L 226.356741 -99.730321 
L 226.525381 -61.123972 
L 226.693189 -60.420499 
L 226.860172 -58.89185 
L 227.026338 -59.175595 
L 227.191696 -59.498876 
L 227.356252 -59.489957 
L 227.520016 -58.505606 
L 227.682995 -57.375647 
L 227.845195 -57.499935 
L 228.006625 -58.162247 
L 228.167292 -58.372827 
L 228.327202 -57.374174 
L 228.486364 -57.24166 
L 228.644784 -56.404725 
L 228.802468 -56.105682 
L 228.959424 -56.229152 
L 229.115659 -56.506413 
L 229.271178 -56.648633 
L 229.425989 -56.35371 
L 229.580098 -56.002605 
L 229.733511 -56.038983 
L 229.886235 -55.230588 
L 230.038275 -55.15506 
L 230.189638 -54.948204 
L 230.34033 -54.626241 
L 230.490356 -54.461578 
L 230.639723 -54.266509 
L 230.788436 -54.664887 
L 230.936502 -53.718365 
L 231.083925 -53.85299 
L 231.230711 -54.101881 
L 231.376866 -53.988514 
L 231.522395 -53.701779 
L 231.667303 -53.652547 
L 231.811596 -53.540693 
L 231.955279 -52.441964 
L 232.098357 -52.853428 
L 232.240834 -56.869874 
L 232.382718 -62.420613 
L 232.524011 -53.722552 
L 232.664719 -52.317196 
L 232.804846 -52.402377 
L 232.944399 -52.480126 
L 233.08338 -52.124425 
L 233.221796 -51.646539 
L 233.35965 -51.393383 
L 233.496947 -51.266039 
L 233.633691 -51.225825 
L 233.769887 -50.977603 
L 233.90554 -51.703971 
L 234.040653 -51.568354 
L 234.175231 -51.027455 
L 234.309279 -51.39704 
L 234.442799 -51.146936 
L 234.575797 -51.549021 
L 234.708277 -50.597151 
L 234.840242 -50.296307 
L 234.971696 -50.06538 
L 235.102644 -49.701956 
L 235.233089 -49.764666 
L 235.363036 -50.174293 
L 235.492487 -50.807048 
L 235.621447 -50.341026 
L 235.74992 -50.159495 
L 235.877908 -50.277376 
L 236.005417 -49.506019 
L 236.132448 -49.786385 
L 236.259007 -50.03015 
L 236.385096 -49.371997 
L 236.510719 -49.241029 
L 236.635879 -49.235617 
L 236.76058 -48.787495 
L 236.884825 -48.562445 
L 237.008617 -48.572552 
L 237.13196 -48.414529 
L 237.254857 -48.135821 
L 237.377311 -48.805132 
L 237.499325 -48.408217 
L 237.620903 -48.59861 
L 237.742047 -48.211022 
L 237.862761 -48.125816 
L 237.983047 -48.472133 
L 238.10291 -48.341888 
L 238.222351 -48.324163 
L 238.341373 -48.061629 
L 238.459981 -47.870974 
L 238.578175 -47.957482 
L 238.69596 -47.53848 
L 238.813339 -47.81276 
L 238.930313 -48.293819 
L 239.046885 -47.984365 
L 239.16306 -47.305553 
L 239.278838 -46.700521 
L 239.394223 -46.708236 
L 239.509218 -47.505883 
L 239.623825 -46.817355 
L 239.738047 -47.019617 
L 239.851886 -47.002147 
L 239.965345 -46.8207 
L 240.078427 -47.083839 
L 240.191133 -47.240422 
L 240.303467 -46.497266 
L 240.41543 -46.596632 
L 240.527026 -47.016113 
L 240.638257 -45.917981 
L 240.749125 -45.808945 
L 240.859632 -46.137396 
L 240.969781 -46.72156 
L 241.079574 -46.07881 
L 241.189014 -45.847416 
L 241.298102 -45.6286 
L 241.406841 -45.292837 
L 241.515233 -45.948177 
L 241.623281 -45.366345 
L 241.730986 -45.263887 
L 241.838351 -45.747937 
L 241.945377 -46.116282 
L 242.052068 -45.600166 
L 242.158425 -44.709949 
L 242.26445 -44.99989 
L 242.370145 -44.955094 
L 242.475512 -44.679558 
L 242.580554 -44.705228 
L 242.685272 -44.574612 
L 242.789668 -45.043735 
L 242.893744 -44.679523 
L 242.997503 -45.082309 
L 243.100946 -45.235927 
L 243.204075 -44.790971 
L 243.306892 -44.454564 
L 243.409398 -44.607438 
L 243.511597 -44.906204 
L 243.613489 -45.473162 
L 243.715076 -45.206494 
L 243.81636 -44.45669 
L 243.917344 -44.41991 
L 244.018028 -44.169829 
L 244.118415 -44.428836 
L 244.218506 -44.35661 
L 244.318304 -43.753598 
L 244.417809 -44.378327 
L 244.517023 -44.611914 
L 244.615949 -43.572299 
L 244.714587 -43.939325 
L 244.81294 -44.19773 
L 244.91101 -43.683561 
L 245.008796 -43.956142 
L 245.106303 -44.042015 
L 245.20353 -43.880595 
L 245.30048 -43.76421 
L 245.397154 -43.741517 
L 245.493554 -44.121654 
L 245.589681 -43.507663 
L 245.685537 -44.206071 
L 245.781124 -43.342129 
L 245.876442 -43.244273 
L 245.971494 -43.152345 
L 246.06628 -43.661242 
L 246.160803 -43.492441 
L 246.255064 -43.062964 
L 246.349064 -43.546797 
L 246.442804 -43.265943 
L 246.536287 -42.607562 
L 246.629513 -42.601154 
L 246.722484 -42.674143 
L 246.815202 -43.250526 
L 246.907667 -42.906267 
L 246.999881 -42.700815 
L 247.091846 -42.99674 
L 247.183562 -43.569096 
L 247.275032 -43.051032 
L 247.366256 -43.050959 
L 247.457236 -42.534404 
L 247.547973 -42.378741 
L 247.638468 -42.136389 
L 247.728723 -42.694821 
L 247.818739 -42.254886 
L 247.908517 -42.235392 
L 247.998058 -42.269369 
L 248.087364 -42.018208 
L 248.176436 -41.937293 
L 248.265275 -42.10874 
L 248.353883 -41.885172 
L 248.44226 -42.129423 
L 248.530407 -42.298499 
L 248.618327 -42.277574 
L 248.70602 -42.157116 
L 248.793487 -41.76 
L 248.88073 -42.436656 
L 248.967749 -43.038493 
L 249.054545 -42.490342 
L 249.054545 -49.622243 
L 249.054545 -49.622243 
L 248.967749 -49.622439 
L 248.88073 -48.671562 
L 248.793487 -48.482558 
L 248.70602 -49.835612 
L 248.618327 -49.104547 
L 248.530407 -49.585309 
L 248.44226 -49.420727 
L 248.353883 -49.058776 
L 248.265275 -49.442774 
L 248.176436 -49.272647 
L 248.087364 -49.908436 
L 247.998058 -49.836324 
L 247.908517 -50.215195 
L 247.818739 -50.432796 
L 247.728723 -50.97257 
L 247.638468 -49.279295 
L 247.547973 -49.974073 
L 247.457236 -50.546134 
L 247.366256 -50.237195 
L 247.275032 -50.339634 
L 247.183562 -50.453584 
L 247.091846 -50.594733 
L 246.999881 -50.566986 
L 246.907667 -50.325747 
L 246.815202 -50.773925 
L 246.722484 -49.625337 
L 246.629513 -50.351526 
L 246.536287 -50.421983 
L 246.442804 -51.024366 
L 246.349064 -50.742613 
L 246.255064 -50.227787 
L 246.160803 -50.841678 
L 246.06628 -50.601433 
L 245.971494 -50.490873 
L 245.876442 -50.744469 
L 245.781124 -50.42963 
L 245.685537 -51.161624 
L 245.589681 -51.264959 
L 245.493554 -52.098078 
L 245.397154 -51.340937 
L 245.30048 -51.244258 
L 245.20353 -51.373575 
L 245.106303 -51.624289 
L 245.008796 -51.501967 
L 244.91101 -52.038745 
L 244.81294 -52.286386 
L 244.714587 -51.77684 
L 244.615949 -51.730539 
L 244.517023 -52.030921 
L 244.417809 -51.890326 
L 244.318304 -51.858551 
L 244.218506 -51.620651 
L 244.118415 -52.040146 
L 244.018028 -52.270764 
L 243.917344 -52.748898 
L 243.81636 -52.012067 
L 243.715076 -53.057127 
L 243.613489 -53.574873 
L 243.511597 -53.097077 
L 243.409398 -52.33938 
L 243.306892 -52.608798 
L 243.204075 -53.318181 
L 243.100946 -53.09483 
L 242.997503 -53.136246 
L 242.893744 -53.10204 
L 242.789668 -53.331275 
L 242.685272 -52.241593 
L 242.580554 -52.916067 
L 242.475512 -53.531011 
L 242.370145 -53.306414 
L 242.26445 -53.296442 
L 242.158425 -52.920215 
L 242.052068 -53.432673 
L 241.945377 -55.191387 
L 241.838351 -53.742681 
L 241.730986 -53.621833 
L 241.623281 -53.781231 
L 241.515233 -54.565554 
L 241.406841 -54.487136 
L 241.298102 -54.34787 
L 241.189014 -54.261834 
L 241.079574 -55.60118 
L 240.969781 -55.287784 
L 240.859632 -54.714915 
L 240.749125 -54.421562 
L 240.638257 -55.141162 
L 240.527026 -55.185346 
L 240.41543 -54.64155 
L 240.303467 -55.022766 
L 240.191133 -55.187677 
L 240.078427 -55.707606 
L 239.965345 -54.861479 
L 239.851886 -55.719174 
L 239.738047 -55.66475 
L 239.623825 -55.400415 
L 239.509218 -55.763175 
L 239.394223 -55.49915 
L 239.278838 -55.233542 
L 239.16306 -56.112128 
L 239.046885 -56.270945 
L 238.930313 -56.846431 
L 238.813339 -56.241848 
L 238.69596 -55.832147 
L 238.578175 -56.67221 
L 238.459981 -56.992858 
L 238.341373 -57.037748 
L 238.222351 -56.98649 
L 238.10291 -56.702629 
L 237.983047 -56.640702 
L 237.862761 -56.206369 
L 237.742047 -57.597248 
L 237.620903 -57.843508 
L 237.499325 -57.105878 
L 237.377311 -57.279116 
L 237.254857 -56.9003 
L 237.13196 -57.193163 
L 237.008617 -58.158302 
L 236.884825 -57.524418 
L 236.76058 -57.183573 
L 236.635879 -57.443293 
L 236.510719 -57.924628 
L 236.385096 -57.997669 
L 236.259007 -58.154772 
L 236.132448 -58.668743 
L 236.005417 -58.330303 
L 235.877908 -58.552602 
L 235.74992 -58.82507 
L 235.621447 -58.946587 
L 235.492487 -59.068937 
L 235.363036 -58.950592 
L 235.233089 -57.986824 
L 235.102644 -58.947271 
L 234.971696 -59.298816 
L 234.840242 -58.803928 
L 234.708277 -58.570469 
L 234.575797 -59.792425 
L 234.442799 -60.035344 
L 234.309279 -59.778612 
L 234.175231 -59.436109 
L 234.040653 -60.015292 
L 233.90554 -59.263381 
L 233.769887 -59.318209 
L 233.633691 -61.013964 
L 233.496947 -60.658337 
L 233.35965 -60.423083 
L 233.221796 -60.034634 
L 233.08338 -60.403452 
L 232.944399 -60.633424 
L 232.804846 -61.646054 
L 232.664719 -61.708929 
L 232.524011 -62.986753 
L 232.382718 -69.946724 
L 232.240834 -65.760562 
L 232.098357 -62.612653 
L 231.955279 -61.517809 
L 231.811596 -61.97178 
L 231.667303 -62.625339 
L 231.522395 -63.023949 
L 231.376866 -63.093127 
L 231.230711 -62.588535 
L 231.083925 -62.121675 
L 230.936502 -62.068935 
L 230.788436 -62.430407 
L 230.639723 -63.025588 
L 230.490356 -63.03981 
L 230.34033 -63.989384 
L 230.189638 -63.524739 
L 230.038275 -63.290886 
L 229.886235 -63.848631 
L 229.733511 -64.252907 
L 229.580098 -64.18616 
L 229.425989 -64.662295 
L 229.271178 -64.69025 
L 229.115659 -64.976337 
L 228.959424 -64.979954 
L 228.802468 -65.359489 
L 228.644784 -65.381754 
L 228.486364 -65.13319 
L 228.327202 -65.719356 
L 228.167292 -65.610999 
L 228.006625 -66.34186 
L 227.845195 -66.11482 
L 227.682995 -65.504724 
L 227.520016 -66.408933 
L 227.356252 -67.30415 
L 227.191696 -67.482741 
L 227.026338 -66.850521 
L 226.860172 -66.799636 
L 226.693189 -68.532385 
L 226.525381 -69.772641 
L 226.356741 -110.634964 
L 226.18726 -168.645854 
L 226.016929 -125.580124 
L 225.84574 -70.612 
L 225.673684 -70.050485 
L 225.500753 -69.608199 
L 225.326937 -69.67057 
L 225.152227 -70.019817 
L 224.976615 -69.79592 
L 224.80009 -70.24069 
L 224.622643 -69.744476 
L 224.444265 -70.599688 
L 224.264946 -71.307815 
L 224.084675 -70.825139 
L 223.903443 -71.781238 
L 223.721239 -71.447193 
L 223.538053 -70.647807 
L 223.353874 -71.330124 
L 223.168691 -72.073567 
L 222.982494 -71.952028 
L 222.795271 -72.029968 
L 222.60701 -72.542238 
L 222.417701 -72.45179 
L 222.227331 -72.010231 
L 222.035889 -72.641326 
L 221.843361 -73.191766 
L 221.649737 -73.46415 
L 221.455004 -73.174258 
L 221.259148 -73.126714 
L 221.062156 -73.587182 
L 220.864016 -73.401634 
L 220.664714 -73.688618 
L 220.464236 -74.435388 
L 220.262568 -75.325511 
L 220.059696 -76.249109 
L 219.855605 -75.763047 
L 219.650282 -75.745588 
L 219.44371 -75.512728 
L 219.235875 -76.242218 
L 219.026761 -75.913416 
L 218.816352 -75.7027 
L 218.604632 -76.231164 
L 218.391585 -76.955241 
L 218.177193 -77.509605 
L 217.96144 -77.342572 
L 217.744309 -77.679083 
L 217.525781 -77.969285 
L 217.305839 -79.479434 
L 217.084464 -79.013516 
L 216.861638 -79.91665 
L 216.63734 -79.252796 
L 216.411552 -79.531075 
L 216.184254 -79.848824 
L 215.955425 -80.563282 
L 215.725045 -81.152578 
L 215.493093 -81.259424 
L 215.259546 -83.076485 
L 215.024383 -82.559861 
L 214.787581 -82.207139 
L 214.549117 -83.643105 
L 214.308968 -83.852865 
L 214.06711 -83.467438 
L 213.823518 -84.91818 
L 213.578167 -85.1597 
L 213.331032 -85.876697 
L 213.082086 -85.995449 
L 212.831303 -87.135998 
L 212.578655 -87.77054 
L 212.324115 -88.415141 
L 212.067654 -89.079856 
L 211.809243 -89.551812 
L 211.548851 -90.170766 
L 211.286449 -90.802502 
L 211.022004 -91.191132 
L 210.755486 -91.960138 
L 210.48686 -92.675835 
L 210.216094 -93.547029 
L 209.943154 -93.917211 
L 209.668003 -96.135352 
L 209.390606 -96.607193 
L 209.110926 -97.53616 
L 208.828925 -98.949509 
L 208.544564 -99.891767 
L 208.257803 -100.820751 
L 207.968602 -101.775323 
L 207.676918 -103.054028 
L 207.382709 -103.916146 
L 207.08593 -104.874774 
L 206.786537 -106.15567 
L 206.484482 -106.940354 
L 206.179718 -107.708776 
L 205.872196 -109.234569 
L 205.561866 -110.40617 
L 205.248675 -111.632487 
L 204.932571 -112.996917 
L 204.613499 -115.509829 
L 204.291402 -116.539873 
L 203.966223 -117.839091 
L 203.637903 -119.018965 
L 203.306379 -120.420868 
L 202.971588 -121.532843 
L 202.633467 -123.50935 
L 202.291947 -125.527468 
L 201.94696 -128.117958 
L 201.598434 -128.180041 
L 201.246297 -131.491715 
L 200.890472 -132.868076 
L 200.530882 -133.546519 
L 200.167446 -134.008006 
L 199.800081 -134.606552 
L 199.428701 -136.239759 
L 199.053217 -137.135662 
L 198.673538 -137.635936 
L 198.289569 -137.846534 
L 197.901211 -138.29884 
L 197.508363 -137.933571 
L 197.110921 -138.658729 
L 196.708775 -139.748195 
L 196.301813 -140.532871 
L 195.889917 -141.612325 
L 195.472968 -142.74612 
L 195.050839 -143.47695 
L 194.6234 -145.134929 
L 194.190516 -146.322754 
L 193.752046 -146.842235 
L 193.307845 -148.974967 
L 192.85776 -150.420999 
L 192.401633 -151.33727 
L 191.9393 -152.112576 
L 191.47059 -154.141044 
L 190.995324 -155.215516 
L 190.513317 -156.557017 
L 190.024374 -157.523088 
L 189.528293 -159.230078 
L 189.024863 -160.141977 
L 188.513861 -160.564975 
L 187.995058 -160.52639 
L 187.468211 -161.381433 
L 186.933068 -161.442108 
L 186.389361 -161.919406 
L 185.836813 -161.52381 
L 185.275132 -160.732065 
L 184.70401 -160.893133 
L 184.123125 -162.099599 
L 183.532138 -162.117577 
L 182.930689 -161.199943 
L 182.318403 -161.712763 
L 181.694882 -163.577419 
L 181.059706 -163.871088 
L 180.412431 -164.16445 
L 179.752586 -163.97848 
L 179.079674 -164.266737 
L 178.393167 -165.963997 
L 177.692504 -168.562739 
L 176.97709 -171.63268 
L 176.246289 -173.195285 
L 175.499425 -176.139616 
L 174.735776 -180.714442 
L 173.95457 -180.455313 
L 173.154982 -184.583452 
L 172.336125 -184.105099 
L 171.497046 -187.701003 
L 170.636723 -188.478011 
L 169.754052 -188.538092 
L 168.84784 -190.278832 
L 167.916797 -193.167035 
L 166.959524 -192.859686 
L 165.9745 -194.223909 
L 164.960069 -197.854389 
L 163.914419 -197.871547 
L 162.835568 -191.956547 
L 161.721339 -185.480204 
L 160.569332 -178.81882 
L 159.376896 -173.175194 
L 158.14109 -167.533872 
L 156.858638 -165.578199 
L 155.525881 -161.436165 
L 154.138711 -158.517545 
L 152.692496 -158.112395 
L 151.181983 -157.318715 
L 149.601189 -156.781013 
L 147.943253 -157.829202 
L 146.200259 -158.19825 
L 144.363004 -158.47159 
L 142.420707 -158.838208 
L 140.360626 -162.122358 
L 138.167546 -162.651634 
L 135.823104 -163.62067 
L 133.304845 -164.225127 
L 130.584919 -167.272773 
L 127.62819 -170.147075 
L 124.389461 -177.590598 
L 120.809211 -179.983938 
L 116.806833 -183.69529 
L 112.269311 -188.161604 
L 107.031126 -193.924422 
L 100.835668 -201.520278 
L 93.25304 -209.76794 
L 83.477333 -219.045119 
L 69.699247 -233.505905 
L 46.145455 -241.7565 
z
" style="stroke: #1f77b4; stroke-opacity: 0.2; stroke-width: 2"/>
    </defs>
    <g clip-path="url(#pbfb3921811)">
     <use xlink:href="#m6425a50e95" x="0" y="288" style="fill: #1f77b4; fill-opacity: 0.2; stroke: #1f77b4; stroke-opacity: 0.2; stroke-width: 2"/>
    </g>
   </g>
   <g id="PolyCollection_2">
    <defs>
     <path id="m2911278749" d="M 46.145455 -243.36 
L 46.145455 -237.519025 
L 69.699247 -230.128119 
L 83.477333 -216.315658 
L 93.25304 -206.638728 
L 100.835668 -198.389687 
L 107.031126 -190.688954 
L 112.269311 -185.139631 
L 116.806833 -180.083572 
L 120.809211 -174.45183 
L 124.389461 -170.059264 
L 127.62819 -166.065776 
L 130.584919 -163.639065 
L 133.304845 -161.023477 
L 135.823104 -160.261888 
L 138.167546 -158.278779 
L 140.360626 -157.283643 
L 142.420707 -155.718855 
L 144.363004 -155.418688 
L 146.200259 -154.926217 
L 147.943253 -155.086708 
L 149.601189 -155.269302 
L 151.181983 -156.827652 
L 152.692496 -159.992967 
L 154.138711 -164.977694 
L 155.525881 -172.573571 
L 156.858638 -179.263962 
L 158.14109 -179.164949 
L 159.376896 -178.99646 
L 160.569332 -181.615609 
L 161.721339 -185.572194 
L 162.835568 -188.709431 
L 163.914419 -192.00944 
L 164.960069 -190.460292 
L 165.9745 -187.605248 
L 166.959524 -186.354522 
L 167.916797 -187.397163 
L 168.84784 -185.872136 
L 169.754052 -184.020443 
L 170.636723 -183.437133 
L 171.497046 -182.053825 
L 172.336125 -178.669683 
L 173.154982 -175.466209 
L 173.95457 -173.307224 
L 174.735776 -172.059053 
L 175.499425 -169.982413 
L 176.246289 -167.983689 
L 176.97709 -166.493426 
L 177.692504 -163.908771 
L 178.393167 -161.674066 
L 179.079674 -160.412988 
L 179.752586 -159.784548 
L 180.412431 -159.585957 
L 181.059706 -158.836924 
L 181.694882 -158.500348 
L 182.318403 -156.908519 
L 182.930689 -156.54319 
L 183.532138 -157.254071 
L 184.123125 -157.337952 
L 184.70401 -156.384596 
L 185.275132 -155.968927 
L 185.836813 -156.677417 
L 186.389361 -156.665314 
L 186.933068 -156.340478 
L 187.468211 -156.182662 
L 187.995058 -155.703651 
L 188.513861 -154.956311 
L 189.024863 -154.907268 
L 189.528293 -153.663158 
L 190.024374 -151.630547 
L 190.513317 -151.064698 
L 190.995324 -149.84403 
L 191.47059 -149.079595 
L 191.9393 -147.295171 
L 192.401633 -146.194297 
L 192.85776 -145.195618 
L 193.307845 -144.161008 
L 193.752046 -142.495302 
L 194.190516 -141.332333 
L 194.6234 -140.427683 
L 195.050839 -138.670962 
L 195.472968 -137.825914 
L 195.889917 -136.662986 
L 196.301813 -135.248665 
L 196.708775 -134.664387 
L 197.110921 -133.63609 
L 197.508363 -132.667741 
L 197.901211 -132.447473 
L 198.289569 -131.206312 
L 198.673538 -130.624033 
L 199.053217 -129.747105 
L 199.428701 -128.515563 
L 199.800081 -127.716753 
L 200.167446 -126.685215 
L 200.530882 -125.677711 
L 200.890472 -124.443113 
L 201.246297 -124.024067 
L 201.598434 -122.218344 
L 201.94696 -121.434633 
L 202.291947 -119.683216 
L 202.633467 -118.99294 
L 202.971588 -117.1009 
L 203.306379 -116.122914 
L 203.637903 -114.468735 
L 203.966223 -113.760727 
L 204.291402 -112.986862 
L 204.613499 -111.951588 
L 204.932571 -109.84699 
L 205.248675 -108.430491 
L 205.561866 -107.191774 
L 205.872196 -105.968716 
L 206.179718 -104.625451 
L 206.484482 -103.234722 
L 206.786537 -102.384066 
L 207.08593 -101.418423 
L 207.382709 -100.399155 
L 207.676918 -99.140042 
L 207.968602 -98.071221 
L 208.257803 -97.018781 
L 208.544564 -96.244364 
L 208.828925 -95.181151 
L 209.110926 -93.599598 
L 209.390606 -92.627727 
L 209.668003 -91.887191 
L 209.943154 -90.825772 
L 210.216094 -90.162089 
L 210.48686 -89.243087 
L 210.755486 -88.208383 
L 211.022004 -87.481703 
L 211.286449 -86.685908 
L 211.548851 -86.606252 
L 211.809243 -85.974271 
L 212.067654 -85.438929 
L 212.324115 -84.506649 
L 212.578655 -83.704079 
L 212.831303 -83.155139 
L 213.082086 -81.583729 
L 213.331032 -81.406595 
L 213.578167 -80.258652 
L 213.823518 -80.236668 
L 214.06711 -79.214551 
L 214.308968 -78.824708 
L 214.549117 -78.778683 
L 214.787581 -78.191743 
L 215.024383 -77.697423 
L 215.259546 -77.47576 
L 215.493093 -76.72126 
L 215.725045 -76.438515 
L 215.955425 -75.284495 
L 216.184254 -74.772202 
L 216.411552 -74.670106 
L 216.63734 -74.352063 
L 216.861638 -74.850199 
L 217.084464 -73.665614 
L 217.305839 -73.52652 
L 217.525781 -73.149515 
L 217.744309 -73.026958 
L 217.96144 -72.886317 
L 218.177193 -72.265152 
L 218.391585 -71.592484 
L 218.604632 -71.249118 
L 218.816352 -70.736678 
L 219.026761 -71.155912 
L 219.235875 -70.844338 
L 219.44371 -70.097314 
L 219.650282 -70.191425 
L 219.855605 -70.40812 
L 220.059696 -69.939292 
L 220.262568 -69.612232 
L 220.464236 -69.309257 
L 220.664714 -68.789876 
L 220.864016 -68.334865 
L 221.062156 -68.009417 
L 221.259148 -67.521837 
L 221.455004 -67.498272 
L 221.649737 -67.521726 
L 221.843361 -66.744003 
L 222.035889 -66.735984 
L 222.227331 -66.95135 
L 222.417701 -66.513966 
L 222.60701 -66.099034 
L 222.795271 -66.286359 
L 222.982494 -66.591346 
L 223.168691 -66.002847 
L 223.353874 -65.706442 
L 223.538053 -65.171349 
L 223.721239 -65.217347 
L 223.903443 -65.502087 
L 224.084675 -65.31267 
L 224.264946 -64.819406 
L 224.444265 -64.734142 
L 224.622643 -64.205485 
L 224.80009 -64.28316 
L 224.976615 -63.775149 
L 225.152227 -63.382871 
L 225.326937 -63.044663 
L 225.500753 -63.319998 
L 225.673684 -63.751804 
L 225.84574 -64.309545 
L 226.016929 -117.145514 
L 226.18726 -158.668857 
L 226.356741 -100.814528 
L 226.525381 -63.254304 
L 226.693189 -62.1311 
L 226.860172 -60.967291 
L 227.026338 -60.81105 
L 227.191696 -60.913886 
L 227.356252 -61.192132 
L 227.520016 -60.321115 
L 227.682995 -59.31278 
L 227.845195 -59.560457 
L 228.006625 -59.846162 
L 228.167292 -59.803555 
L 228.327202 -59.221053 
L 228.486364 -58.386361 
L 228.644784 -58.226183 
L 228.802468 -58.210304 
L 228.959424 -58.028532 
L 229.115659 -58.078539 
L 229.271178 -58.38247 
L 229.425989 -57.826662 
L 229.580098 -57.714128 
L 229.733511 -57.156635 
L 229.886235 -56.804317 
L 230.038275 -56.611884 
L 230.189638 -56.65529 
L 230.34033 -56.391726 
L 230.490356 -55.961084 
L 230.639723 -55.82898 
L 230.788436 -55.706743 
L 230.936502 -55.402427 
L 231.083925 -55.609586 
L 231.230711 -55.402438 
L 231.376866 -55.456179 
L 231.522395 -55.064812 
L 231.667303 -55.239765 
L 231.811596 -54.958436 
L 231.955279 -54.413379 
L 232.098357 -54.391163 
L 232.240834 -56.885851 
L 232.382718 -60.849989 
L 232.524011 -54.92756 
L 232.664719 -53.803776 
L 232.804846 -54.21243 
L 232.944399 -53.765914 
L 233.08338 -53.50201 
L 233.221796 -53.019802 
L 233.35965 -52.480683 
L 233.496947 -53.155409 
L 233.633691 -52.786139 
L 233.769887 -52.339287 
L 233.90554 -52.54182 
L 234.040653 -52.572857 
L 234.175231 -52.128451 
L 234.309279 -52.492831 
L 234.442799 -52.264481 
L 234.575797 -52.105671 
L 234.708277 -51.62951 
L 234.840242 -51.499587 
L 234.971696 -51.657515 
L 235.102644 -51.468938 
L 235.233089 -51.149658 
L 235.363036 -51.388353 
L 235.492487 -51.961044 
L 235.621447 -51.237819 
L 235.74992 -51.264916 
L 235.877908 -51.271069 
L 236.005417 -50.984558 
L 236.132448 -51.114784 
L 236.259007 -51.262803 
L 236.385096 -50.832674 
L 236.510719 -50.438985 
L 236.635879 -50.114383 
L 236.76058 -50.06249 
L 236.884825 -50.216163 
L 237.008617 -50.149716 
L 237.13196 -49.761353 
L 237.254857 -49.441319 
L 237.377311 -49.877223 
L 237.499325 -49.671983 
L 237.620903 -49.945056 
L 237.742047 -49.318273 
L 237.862761 -49.299664 
L 237.983047 -49.895141 
L 238.10291 -49.415016 
L 238.222351 -49.371599 
L 238.341373 -49.371829 
L 238.459981 -49.006708 
L 238.578175 -49.115686 
L 238.69596 -48.706495 
L 238.813339 -49.232929 
L 238.930313 -49.37015 
L 239.046885 -48.908312 
L 239.16306 -48.296797 
L 239.278838 -48.314705 
L 239.394223 -48.06181 
L 239.509218 -48.567845 
L 239.623825 -48.403567 
L 239.738047 -48.07073 
L 239.851886 -48.18954 
L 239.965345 -47.707907 
L 240.078427 -48.263478 
L 240.191133 -48.056332 
L 240.303467 -47.525129 
L 240.41543 -47.582684 
L 240.527026 -47.899619 
L 240.638257 -47.363041 
L 240.749125 -47.274543 
L 240.859632 -47.331178 
L 240.969781 -48.134669 
L 241.079574 -47.602028 
L 241.189014 -47.191105 
L 241.298102 -47.240188 
L 241.406841 -46.834821 
L 241.515233 -47.187165 
L 241.623281 -46.726709 
L 241.730986 -46.325197 
L 241.838351 -46.664324 
L 241.945377 -47.483054 
L 242.052068 -46.782122 
L 242.158425 -46.060683 
L 242.26445 -46.263229 
L 242.370145 -46.50532 
L 242.475512 -46.264734 
L 242.580554 -45.69014 
L 242.685272 -45.761503 
L 242.789668 -46.170227 
L 242.893744 -46.015111 
L 242.997503 -46.510506 
L 243.100946 -46.097554 
L 243.204075 -46.117377 
L 243.306892 -45.839089 
L 243.409398 -45.840547 
L 243.511597 -46.00476 
L 243.613489 -46.683727 
L 243.715076 -46.058511 
L 243.81636 -45.52928 
L 243.917344 -45.555896 
L 244.018028 -45.543133 
L 244.118415 -45.688457 
L 244.218506 -45.353798 
L 244.318304 -45.440724 
L 244.417809 -45.511104 
L 244.517023 -45.496954 
L 244.615949 -44.640992 
L 244.714587 -44.873931 
L 244.81294 -45.295108 
L 244.91101 -45.045678 
L 245.008796 -45.125942 
L 245.106303 -44.898585 
L 245.20353 -44.939357 
L 245.30048 -44.861882 
L 245.397154 -44.931912 
L 245.493554 -45.149343 
L 245.589681 -44.942315 
L 245.685537 -45.105219 
L 245.781124 -44.42337 
L 245.876442 -43.921334 
L 245.971494 -44.353592 
L 246.06628 -44.243777 
L 246.160803 -44.18835 
L 246.255064 -44.149111 
L 246.349064 -44.998691 
L 246.442804 -44.278373 
L 246.536287 -43.826248 
L 246.629513 -43.683074 
L 246.722484 -43.637218 
L 246.815202 -44.249512 
L 246.907667 -43.626369 
L 246.999881 -43.656142 
L 247.091846 -43.852841 
L 247.183562 -44.160796 
L 247.275032 -44.108109 
L 247.366256 -43.997117 
L 247.457236 -43.91226 
L 247.547973 -43.480598 
L 247.638468 -43.195508 
L 247.728723 -43.697156 
L 247.818739 -43.642788 
L 247.908517 -43.459281 
L 247.998058 -43.344677 
L 248.087364 -43.400012 
L 248.176436 -43.081728 
L 248.265275 -43.156704 
L 248.353883 -43.233056 
L 248.44226 -43.024137 
L 248.530407 -43.29935 
L 248.618327 -43.024729 
L 248.70602 -43.322239 
L 248.793487 -42.456313 
L 248.88073 -42.986567 
L 248.967749 -43.329802 
L 249.054545 -43.202765 
L 249.054545 -48.935952 
L 249.054545 -48.935952 
L 248.967749 -49.301253 
L 248.88073 -48.814703 
L 248.793487 -48.840766 
L 248.70602 -49.326735 
L 248.618327 -48.981472 
L 248.530407 -49.120764 
L 248.44226 -48.921906 
L 248.353883 -48.988684 
L 248.265275 -49.042672 
L 248.176436 -48.576074 
L 248.087364 -49.360836 
L 247.998058 -49.296401 
L 247.908517 -49.570968 
L 247.818739 -49.323917 
L 247.728723 -49.660553 
L 247.638468 -49.160188 
L 247.547973 -49.647722 
L 247.457236 -49.843559 
L 247.366256 -50.300671 
L 247.275032 -50.073332 
L 247.183562 -50.015945 
L 247.091846 -49.885041 
L 246.999881 -49.64182 
L 246.907667 -50.162327 
L 246.815202 -50.085957 
L 246.722484 -49.686366 
L 246.629513 -49.664158 
L 246.536287 -50.004406 
L 246.442804 -50.183817 
L 246.349064 -50.614234 
L 246.255064 -49.802202 
L 246.160803 -49.906745 
L 246.06628 -49.989153 
L 245.971494 -50.425847 
L 245.876442 -50.253814 
L 245.781124 -50.056678 
L 245.685537 -51.00067 
L 245.589681 -50.916957 
L 245.493554 -51.178451 
L 245.397154 -50.96087 
L 245.30048 -50.948726 
L 245.20353 -50.999304 
L 245.106303 -51.106259 
L 245.008796 -50.963421 
L 244.91101 -51.011114 
L 244.81294 -51.300655 
L 244.714587 -51.17056 
L 244.615949 -51.173563 
L 244.517023 -51.229034 
L 244.417809 -51.464064 
L 244.318304 -51.091703 
L 244.218506 -51.020168 
L 244.118415 -51.524881 
L 244.018028 -51.723021 
L 243.917344 -51.675141 
L 243.81636 -51.435638 
L 243.715076 -52.474936 
L 243.613489 -52.964563 
L 243.511597 -52.286503 
L 243.409398 -52.081212 
L 243.306892 -52.290066 
L 243.204075 -52.28908 
L 243.100946 -52.840586 
L 242.997503 -52.551139 
L 242.893744 -52.423594 
L 242.789668 -52.376339 
L 242.685272 -51.824693 
L 242.580554 -51.939295 
L 242.475512 -52.59782 
L 242.370145 -52.978036 
L 242.26445 -52.633877 
L 242.158425 -52.533253 
L 242.052068 -52.93034 
L 241.945377 -53.758931 
L 241.838351 -53.132301 
L 241.730986 -52.270253 
L 241.623281 -52.441872 
L 241.515233 -53.352983 
L 241.406841 -53.107699 
L 241.298102 -53.36 
L 241.189014 -53.401436 
L 241.079574 -53.764812 
L 240.969781 -54.15336 
L 240.859632 -53.420941 
L 240.749125 -53.754822 
L 240.638257 -53.79116 
L 240.527026 -54.123148 
L 240.41543 -53.610077 
L 240.303467 -53.779187 
L 240.191133 -54.226034 
L 240.078427 -54.537819 
L 239.965345 -53.798085 
L 239.851886 -54.19758 
L 239.738047 -54.211074 
L 239.623825 -54.563572 
L 239.509218 -55.056703 
L 239.394223 -54.646365 
L 239.278838 -54.569591 
L 239.16306 -54.863786 
L 239.046885 -55.423186 
L 238.930313 -55.371568 
L 238.813339 -55.309785 
L 238.69596 -54.851815 
L 238.578175 -55.563747 
L 238.459981 -55.657561 
L 238.341373 -56.208588 
L 238.222351 -55.726647 
L 238.10291 -55.55312 
L 237.983047 -55.699108 
L 237.862761 -55.434893 
L 237.742047 -56.102971 
L 237.620903 -56.811844 
L 237.499325 -56.035945 
L 237.377311 -56.248636 
L 237.254857 -55.882538 
L 237.13196 -56.583543 
L 237.008617 -56.831654 
L 236.884825 -56.672929 
L 236.76058 -56.718928 
L 236.635879 -56.217521 
L 236.510719 -56.736926 
L 236.385096 -56.99682 
L 236.259007 -57.475494 
L 236.132448 -57.426997 
L 236.005417 -57.424659 
L 235.877908 -57.435762 
L 235.74992 -57.838927 
L 235.621447 -57.858393 
L 235.492487 -57.872732 
L 235.363036 -57.705507 
L 235.233089 -57.279856 
L 235.102644 -58.059544 
L 234.971696 -57.994749 
L 234.840242 -57.98018 
L 234.708277 -57.607135 
L 234.575797 -58.42351 
L 234.442799 -58.734812 
L 234.309279 -58.766251 
L 234.175231 -58.639554 
L 234.040653 -58.977122 
L 233.90554 -58.666228 
L 233.769887 -58.707831 
L 233.633691 -59.653825 
L 233.496947 -59.461027 
L 233.35965 -59.397221 
L 233.221796 -59.426962 
L 233.08338 -59.309035 
L 232.944399 -60.141103 
L 232.804846 -60.66421 
L 232.664719 -60.363065 
L 232.524011 -61.607594 
L 232.382718 -69.600229 
L 232.240834 -63.823914 
L 232.098357 -61.056261 
L 231.955279 -60.488057 
L 231.811596 -60.920134 
L 231.667303 -61.376509 
L 231.522395 -61.485055 
L 231.376866 -61.416315 
L 231.230711 -61.722416 
L 231.083925 -61.44719 
L 230.936502 -61.469461 
L 230.788436 -61.707674 
L 230.639723 -61.542353 
L 230.490356 -62.011807 
L 230.34033 -62.981576 
L 230.189638 -63.152419 
L 230.038275 -62.912123 
L 229.886235 -62.700443 
L 229.733511 -63.344417 
L 229.580098 -63.504191 
L 229.425989 -64.113147 
L 229.271178 -64.089972 
L 229.115659 -64.080094 
L 228.959424 -64.106566 
L 228.802468 -64.59148 
L 228.644784 -64.677362 
L 228.486364 -64.473963 
L 228.327202 -65.29799 
L 228.167292 -65.387168 
L 228.006625 -65.711615 
L 227.845195 -65.74025 
L 227.682995 -65.327073 
L 227.520016 -66.2748 
L 227.356252 -66.987785 
L 227.191696 -66.854021 
L 227.026338 -66.79636 
L 226.860172 -66.800869 
L 226.693189 -67.860586 
L 226.525381 -69.218847 
L 226.356741 -108.896506 
L 226.18726 -166.724639 
L 226.016929 -124.829881 
L 225.84574 -70.43788 
L 225.673684 -70.019367 
L 225.500753 -69.212075 
L 225.326937 -69.284379 
L 225.152227 -69.488038 
L 224.976615 -69.402071 
L 224.80009 -69.814324 
L 224.622643 -69.712921 
L 224.444265 -70.231724 
L 224.264946 -70.389484 
L 224.084675 -71.094911 
L 223.903443 -71.154757 
L 223.721239 -70.853882 
L 223.538053 -70.518915 
L 223.353874 -71.218593 
L 223.168691 -71.556809 
L 222.982494 -72.024062 
L 222.795271 -72.024342 
L 222.60701 -72.182981 
L 222.417701 -72.302153 
L 222.227331 -72.326506 
L 222.035889 -72.494073 
L 221.843361 -72.876829 
L 221.649737 -73.629949 
L 221.455004 -73.143042 
L 221.259148 -73.298603 
L 221.062156 -73.57171 
L 220.864016 -73.969787 
L 220.664714 -74.307705 
L 220.464236 -74.602967 
L 220.262568 -75.500128 
L 220.059696 -75.592538 
L 219.855605 -76.235736 
L 219.650282 -75.962552 
L 219.44371 -75.681315 
L 219.235875 -76.364935 
L 219.026761 -76.532891 
L 218.816352 -75.833738 
L 218.604632 -76.370529 
L 218.391585 -76.997453 
L 218.177193 -77.615132 
L 217.96144 -78.018903 
L 217.744309 -78.321514 
L 217.525781 -78.745774 
L 217.305839 -79.00872 
L 217.084464 -78.962692 
L 216.861638 -80.261295 
L 216.63734 -79.722423 
L 216.411552 -79.979006 
L 216.184254 -80.083778 
L 215.955425 -80.522186 
L 215.725045 -81.493433 
L 215.493093 -81.993519 
L 215.259546 -83.001713 
L 215.024383 -83.493338 
L 214.787581 -83.270209 
L 214.549117 -83.964782 
L 214.308968 -84.255054 
L 214.06711 -84.485292 
L 213.823518 -85.322611 
L 213.578167 -85.419742 
L 213.331032 -86.533392 
L 213.082086 -86.819822 
L 212.831303 -87.806492 
L 212.578655 -88.852671 
L 212.324115 -89.530323 
L 212.067654 -90.457673 
L 211.809243 -91.023825 
L 211.548851 -91.70611 
L 211.286449 -92.113789 
L 211.022004 -92.628875 
L 210.755486 -93.507182 
L 210.48686 -94.466422 
L 210.216094 -95.050988 
L 209.943154 -95.74708 
L 209.668003 -97.153527 
L 209.390606 -97.747039 
L 209.110926 -98.801915 
L 208.828925 -100.363543 
L 208.544564 -101.321078 
L 208.257803 -102.169033 
L 207.968602 -103.424303 
L 207.676918 -104.335549 
L 207.382709 -105.228003 
L 207.08593 -106.366877 
L 206.786537 -107.194752 
L 206.484482 -107.878926 
L 206.179718 -109.390787 
L 205.872196 -110.537997 
L 205.561866 -111.803805 
L 205.248675 -113.061806 
L 204.932571 -114.358139 
L 204.613499 -116.88523 
L 204.291402 -117.947082 
L 203.966223 -118.948706 
L 203.637903 -119.783786 
L 203.306379 -121.137017 
L 202.971588 -122.368635 
L 202.633467 -124.63144 
L 202.291947 -125.540139 
L 201.94696 -127.606333 
L 201.598434 -128.270136 
L 201.246297 -130.552095 
L 200.890472 -131.275248 
L 200.530882 -132.599457 
L 200.167446 -133.248092 
L 199.800081 -134.047354 
L 199.428701 -135.276775 
L 199.053217 -136.63426 
L 198.673538 -137.015647 
L 198.289569 -137.439118 
L 197.901211 -138.301033 
L 197.508363 -138.322702 
L 197.110921 -139.086138 
L 196.708775 -140.248488 
L 196.301813 -141.229921 
L 195.889917 -142.406671 
L 195.472968 -143.334421 
L 195.050839 -143.714652 
L 194.6234 -145.610086 
L 194.190516 -146.701825 
L 193.752046 -147.913905 
L 193.307845 -150.150278 
L 192.85776 -150.961749 
L 192.401633 -151.931636 
L 191.9393 -153.562138 
L 191.47059 -155.474334 
L 190.995324 -156.231668 
L 190.513317 -157.477821 
L 190.024374 -158.308145 
L 189.528293 -159.927585 
L 189.024863 -161.403933 
L 188.513861 -161.742556 
L 187.995058 -161.789857 
L 187.468211 -162.036627 
L 186.933068 -161.873569 
L 186.389361 -162.797986 
L 185.836813 -162.080287 
L 185.275132 -161.282726 
L 184.70401 -161.554504 
L 184.123125 -162.478664 
L 183.532138 -161.903059 
L 182.930689 -161.154489 
L 182.318403 -161.900731 
L 181.694882 -163.481834 
L 181.059706 -163.940262 
L 180.412431 -164.537858 
L 179.752586 -164.826695 
L 179.079674 -165.942523 
L 178.393167 -167.115579 
L 177.692504 -169.90755 
L 176.97709 -172.88427 
L 176.246289 -174.120676 
L 175.499425 -175.811208 
L 174.735776 -178.60735 
L 173.95457 -178.931287 
L 173.154982 -182.188783 
L 172.336125 -185.515665 
L 171.497046 -191.273305 
L 170.636723 -191.636231 
L 169.754052 -190.729485 
L 168.84784 -192.363328 
L 167.916797 -193.227756 
L 166.959524 -193.058754 
L 165.9745 -194.819053 
L 164.960069 -197.874918 
L 163.914419 -199.511001 
L 162.835568 -197.331167 
L 161.721339 -194.919154 
L 160.569332 -191.585816 
L 159.376896 -190.154313 
L 158.14109 -191.955694 
L 156.858638 -191.726291 
L 155.525881 -184.811297 
L 154.138711 -174.252803 
L 152.692496 -166.611819 
L 151.181983 -162.341328 
L 149.601189 -160.459183 
L 147.943253 -160.710463 
L 146.200259 -161.089091 
L 144.363004 -161.636465 
L 142.420707 -161.268309 
L 140.360626 -163.22132 
L 138.167546 -163.984088 
L 135.823104 -165.738006 
L 133.304845 -166.989242 
L 130.584919 -169.424483 
L 127.62819 -172.43347 
L 124.389461 -178.077396 
L 120.809211 -181.172518 
L 116.806833 -186.353671 
L 112.269311 -191.331029 
L 107.031126 -196.784422 
L 100.835668 -204.204775 
L 93.25304 -212.763534 
L 83.477333 -221.56178 
L 69.699247 -235.63163 
L 46.145455 -243.36 
z
" style="stroke: #ff7f0e; stroke-opacity: 0.2; stroke-width: 2"/>
    </defs>
    <g clip-path="url(#pbfb3921811)">
     <use xlink:href="#m2911278749" x="0" y="288" style="fill: #ff7f0e; fill-opacity: 0.2; stroke: #ff7f0e; stroke-opacity: 0.2; stroke-width: 2"/>
    </g>
   </g>
   <g id="line2d_30">
    <path d="M 46.145455 50.162882 
L 69.699247 58.214484 
L 83.477333 73.083804 
L 93.25304 82.4558 
L 100.835668 91.003108 
L 107.031126 98.534746 
L 116.806833 108.053067 
L 120.809211 113.40815 
L 124.389461 116.83256 
L 127.62819 122.349811 
L 133.304845 127.472128 
L 135.823104 128.431755 
L 138.167546 129.951704 
L 140.360626 130.881223 
L 142.420707 132.851753 
L 144.363004 133.487159 
L 146.200259 133.883013 
L 147.943253 134.080828 
L 149.601189 134.88053 
L 151.181983 134.692108 
L 152.692496 134.122382 
L 154.138711 133.396749 
L 155.525881 131.122788 
L 156.858638 128.109457 
L 158.14109 126.180901 
L 159.376896 122.394851 
L 160.569332 117.169509 
L 162.835568 105.926411 
L 163.914419 99.371667 
L 164.960069 98.992305 
L 165.9745 101.003653 
L 166.959524 101.716836 
L 167.916797 100.952899 
L 168.84784 102.072315 
L 169.754052 102.809026 
L 170.636723 102.020545 
L 171.497046 102.792145 
L 172.336125 106.688236 
L 173.154982 109.200483 
L 173.95457 112.662768 
L 174.735776 114.026906 
L 176.246289 118.686941 
L 176.97709 119.935647 
L 178.393167 125.095251 
L 179.079674 126.533652 
L 179.752586 126.983429 
L 180.412431 127.052441 
L 181.059706 127.662021 
L 181.694882 128.022673 
L 182.318403 129.421887 
L 182.930689 129.975539 
L 183.532138 129.107804 
L 184.123125 128.971854 
L 185.275132 130.350703 
L 185.836813 129.292005 
L 186.389361 129.123474 
L 186.933068 129.591113 
L 187.468211 129.742326 
L 187.995058 130.268042 
L 189.024863 130.782505 
L 189.528293 131.942264 
L 190.024374 133.826517 
L 190.513317 134.847047 
L 190.995324 136.187183 
L 191.47059 136.993184 
L 191.9393 138.760245 
L 192.85776 140.86456 
L 193.307845 142.15459 
L 193.752046 144.055122 
L 194.6234 145.822094 
L 195.050839 147.722537 
L 195.472968 148.495607 
L 197.508363 153.802304 
L 197.901211 153.711296 
L 198.289569 154.664439 
L 199.053217 155.896339 
L 199.428701 157.437269 
L 200.167446 158.997744 
L 200.530882 159.862626 
L 201.246297 161.85221 
L 201.598434 163.92775 
L 201.94696 164.918107 
L 202.291947 166.860159 
L 202.633467 167.711901 
L 202.971588 169.672086 
L 203.306379 170.791892 
L 203.637903 172.328358 
L 203.966223 173.05846 
L 204.291402 174.216416 
L 204.613499 174.946462 
L 204.932571 177.610445 
L 205.872196 181.268285 
L 206.484482 183.99669 
L 206.786537 184.728873 
L 208.257803 190.062386 
L 208.828925 192.058227 
L 209.390606 194.584717 
L 209.668003 195.174728 
L 209.943154 196.568321 
L 210.755486 198.961433 
L 211.286449 200.635871 
L 211.548851 200.725255 
L 212.831303 203.819854 
L 213.082086 205.236272 
L 213.331032 205.582845 
L 213.578167 206.634222 
L 213.823518 206.627153 
L 214.06711 207.645969 
L 214.549117 208.023471 
L 214.787581 208.820183 
L 215.024383 208.752869 
L 215.259546 208.843417 
L 215.493093 210.019303 
L 215.725045 210.314679 
L 216.184254 211.912971 
L 216.63734 212.12872 
L 216.861638 211.626813 
L 217.084464 212.748591 
L 217.305839 212.619577 
L 217.744309 213.596374 
L 217.96144 213.725868 
L 218.391585 214.637159 
L 218.816352 215.637931 
L 219.026761 215.338715 
L 219.44371 216.174219 
L 219.855605 215.709143 
L 220.864016 218.039596 
L 221.062156 218.154398 
L 221.259148 218.791786 
L 221.455004 218.85949 
L 221.649737 218.415035 
L 221.843361 219.232553 
L 222.035889 219.492515 
L 222.227331 219.444592 
L 222.795271 219.858273 
L 222.982494 219.553375 
L 223.538053 221.196638 
L 223.721239 221.01879 
L 223.903443 220.635318 
L 224.084675 220.804269 
L 224.264946 221.234781 
L 224.444265 221.258288 
L 224.622643 221.870316 
L 224.80009 221.892761 
L 224.976615 222.275245 
L 225.152227 222.225459 
L 225.500753 222.814552 
L 225.84574 221.674275 
L 226.18726 124.398142 
L 226.525381 222.674569 
L 226.860172 225.290917 
L 227.026338 225.215832 
L 227.356252 224.717614 
L 227.682995 226.594589 
L 227.845195 226.379657 
L 228.006625 225.952282 
L 228.167292 226.159423 
L 228.802468 227.610342 
L 228.959424 227.702142 
L 229.271178 227.423758 
L 229.580098 228.09546 
L 229.733511 228.153583 
L 229.886235 228.871258 
L 230.038275 228.947814 
L 230.189638 228.843777 
L 230.34033 228.900582 
L 230.639723 229.7465 
L 230.788436 229.527152 
L 230.936502 230.389078 
L 231.083925 230.254145 
L 231.376866 229.810076 
L 231.667303 229.98926 
L 231.955279 231.022215 
L 232.098357 230.685764 
L 232.382718 221.721747 
L 232.524011 230.073791 
L 232.664719 231.087934 
L 232.944399 231.47698 
L 233.221796 232.198063 
L 233.35965 232.354751 
L 233.633691 232.162604 
L 233.769887 232.93569 
L 234.040653 232.562008 
L 234.175231 232.987257 
L 234.442799 232.61347 
L 234.575797 232.68187 
L 234.708277 233.542901 
L 235.102644 233.756509 
L 235.233089 234.238614 
L 235.492487 233.304615 
L 235.621447 233.632389 
L 235.74992 233.629301 
L 235.877908 233.7946 
L 236.005417 234.257836 
L 236.259007 233.977232 
L 236.635879 235.004937 
L 236.76058 235.02525 
L 237.008617 234.804281 
L 237.254857 235.603268 
L 237.377311 235.011905 
L 237.499325 235.461924 
L 237.620903 235.106475 
L 237.862761 235.941792 
L 237.983047 235.453818 
L 238.10291 235.682413 
L 238.341373 235.534638 
L 238.69596 236.445774 
L 238.930313 235.886276 
L 239.394223 237.045941 
L 239.509218 236.491991 
L 239.623825 237.016484 
L 239.851886 236.908128 
L 239.965345 237.431767 
L 240.078427 236.740238 
L 240.191133 236.952179 
L 240.303467 237.582281 
L 240.41543 237.549199 
L 240.527026 237.057659 
L 240.749125 237.888387 
L 240.859632 237.811289 
L 240.969781 237.190341 
L 241.079574 237.26665 
L 241.298102 238.239314 
L 241.406841 238.166716 
L 241.515233 237.920534 
L 241.730986 238.793501 
L 241.945377 237.574977 
L 242.158425 239.2885 
L 242.370145 238.884087 
L 242.475512 239.044085 
L 242.685272 239.745493 
L 242.893744 239.054238 
L 243.100946 238.814649 
L 243.409398 239.542659 
L 243.613489 238.550493 
L 243.81636 239.78004 
L 243.917344 239.648229 
L 244.018028 239.655259 
L 244.318304 240.259224 
L 244.517023 239.863367 
L 244.615949 240.399106 
L 244.81294 240.018961 
L 244.91101 240.345945 
L 245.008796 240.247233 
L 245.20353 240.415838 
L 245.30048 240.502008 
L 245.397154 240.420869 
L 245.493554 240.095131 
L 245.876442 241.113192 
L 245.971494 241.212473 
L 246.160803 241.07379 
L 246.255064 241.332357 
L 246.349064 240.757843 
L 246.722484 241.748935 
L 246.815202 240.999798 
L 246.999881 241.499091 
L 247.183562 241.166001 
L 247.457236 241.56457 
L 247.638468 242.295809 
L 247.728723 241.442448 
L 247.908517 241.913279 
L 247.998058 241.969713 
L 248.176436 242.544354 
L 248.265275 242.322142 
L 248.44226 242.384007 
L 248.530407 242.176523 
L 248.618327 242.411692 
L 248.70602 242.232957 
L 248.793487 242.851916 
L 248.967749 241.902045 
L 249.054545 242.129752 
" clip-path="url(#pbfb3921811)" style="fill: none; stroke: #1f77b4; stroke-width: 3; stroke-linecap: round"/>
   </g>
   <g id="line2d_31">
    <path d="M 46.145455 47.671757 
L 69.699247 55.060936 
L 83.477333 69.095559 
L 93.25304 78.272861 
L 100.835668 86.735301 
L 107.031126 94.091634 
L 116.806833 104.472687 
L 120.809211 110.164291 
L 124.389461 114.235249 
L 127.62819 118.780664 
L 133.304845 124.002343 
L 135.823104 125.10973 
L 138.167546 126.739564 
L 140.360626 127.80275 
L 142.420707 129.538993 
L 144.363004 129.730349 
L 146.200259 130.141759 
L 149.601189 130.248634 
L 151.181983 128.314388 
L 152.692496 124.756298 
L 154.138711 118.302451 
L 155.525881 109.235202 
L 156.858638 102.436085 
L 158.14109 102.24764 
L 159.376896 103.007399 
L 160.569332 101.19644 
L 161.721339 97.993949 
L 162.835568 94.552256 
L 163.914419 92.027308 
L 164.960069 93.798779 
L 165.9745 96.754056 
L 166.959524 98.321393 
L 167.916797 97.782654 
L 168.84784 98.879132 
L 169.754052 100.47671 
L 170.636723 100.64442 
L 171.497046 101.869309 
L 172.336125 106.170317 
L 173.95457 112.006234 
L 174.735776 112.849097 
L 176.246289 117.07496 
L 176.97709 118.479237 
L 178.393167 123.683848 
L 179.079674 124.889152 
L 179.752586 125.666049 
L 180.412431 125.943377 
L 181.694882 127.090013 
L 182.318403 128.534377 
L 182.930689 129.157408 
L 183.532138 128.348757 
L 184.123125 128.218775 
L 184.70401 128.957523 
L 185.275132 129.475877 
L 185.836813 128.549982 
L 186.389361 128.312631 
L 186.933068 128.776444 
L 187.468211 128.937294 
L 187.995058 129.375705 
L 188.513861 129.555331 
L 189.024863 129.927096 
L 189.528293 131.135093 
L 190.024374 132.812648 
L 190.513317 133.71776 
L 190.995324 135.031649 
L 191.47059 135.766144 
L 191.9393 137.599088 
L 193.307845 140.957228 
L 193.752046 142.876847 
L 194.6234 144.863653 
L 195.050839 146.667796 
L 195.472968 147.390838 
L 197.508363 152.539835 
L 197.901211 152.618781 
L 198.289569 153.671358 
L 198.673538 154.125596 
L 199.053217 154.826638 
L 199.428701 156.333714 
L 200.530882 158.912704 
L 201.246297 160.82046 
L 201.598434 162.746287 
L 201.94696 163.720458 
L 202.291947 165.485343 
L 202.633467 166.437987 
L 203.306379 169.452873 
L 203.637903 170.861278 
L 204.613499 173.515268 
L 204.932571 175.971339 
L 207.08593 184.176018 
L 208.828925 190.262328 
L 209.390606 192.722785 
L 209.668003 193.363659 
L 210.216094 195.41362 
L 210.755486 196.956468 
L 211.286449 198.532344 
L 211.548851 198.749135 
L 212.324115 200.988575 
L 213.578167 205.180912 
L 213.823518 205.173484 
L 214.06711 206.068635 
L 214.308968 206.524702 
L 214.549117 206.648224 
L 214.787581 207.236353 
L 215.024383 207.277684 
L 215.259546 207.743356 
L 215.493093 208.653011 
L 215.725045 209.064999 
L 215.955425 210.031385 
L 216.184254 210.503773 
L 216.63734 210.882116 
L 216.861638 210.521953 
L 217.084464 211.719451 
L 217.305839 211.540841 
L 217.525781 212.108164 
L 217.96144 212.445008 
L 218.816352 214.501367 
L 219.026761 214.268453 
L 219.44371 214.955505 
L 219.855605 214.748611 
L 221.259148 217.603613 
L 221.455004 217.723645 
L 221.649737 217.443227 
L 221.843361 218.191534 
L 222.035889 218.413 
L 222.417701 218.475374 
L 222.60701 218.869967 
L 222.982494 218.757101 
L 223.538053 220.064757 
L 223.721239 220.005704 
L 223.903443 219.716574 
L 224.084675 219.876007 
L 224.264946 220.414662 
L 224.444265 220.546068 
L 224.622643 220.975346 
L 224.80009 220.869682 
L 224.976615 221.440425 
L 225.500753 221.766791 
L 225.84574 220.574117 
L 226.18726 125.114886 
L 226.525381 221.642994 
L 226.860172 224.204329 
L 227.026338 224.256212 
L 227.356252 223.905143 
L 227.682995 225.723583 
L 228.006625 225.079388 
L 228.959424 227.029506 
L 229.271178 226.86954 
L 229.733511 227.627555 
L 229.886235 228.266326 
L 230.038275 228.308808 
L 230.189638 228.075029 
L 230.34033 228.249696 
L 230.639723 229.231573 
L 230.788436 229.146375 
L 230.936502 229.788103 
L 231.230711 229.302973 
L 231.376866 229.535841 
L 231.667303 229.58807 
L 231.955279 230.48224 
L 232.098357 230.275637 
L 232.382718 223.007903 
L 232.524011 229.96628 
L 232.664719 230.76186 
L 232.804846 230.584322 
L 232.944399 230.916099 
L 233.08338 231.605258 
L 233.221796 231.688021 
L 233.35965 231.988867 
L 233.496947 231.797953 
L 233.633691 231.90377 
L 233.769887 232.549228 
L 234.040653 232.155313 
L 234.175231 232.509451 
L 234.309279 232.295168 
L 234.575797 232.743344 
L 234.708277 233.275533 
L 235.102644 233.266403 
L 235.233089 233.772837 
L 235.492487 233.155369 
L 235.74992 233.455189 
L 236.132448 233.899658 
L 236.259007 233.70236 
L 236.635879 234.858111 
L 236.884825 234.550467 
L 237.008617 234.62589 
L 237.254857 235.273575 
L 237.377311 234.724768 
L 237.499325 235.087047 
L 237.620903 234.666012 
L 237.862761 235.671253 
L 237.983047 235.303119 
L 238.10291 235.656031 
L 238.341373 235.142059 
L 238.69596 236.240485 
L 238.930313 235.732979 
L 239.278838 236.516334 
L 239.394223 236.595372 
L 239.509218 236.259509 
L 239.738047 236.659823 
L 239.851886 236.710474 
L 239.965345 237.300712 
L 240.078427 236.708552 
L 240.191133 236.734425 
L 240.41543 237.258268 
L 240.527026 236.984845 
L 240.749125 237.576717 
L 240.859632 237.516849 
L 240.969781 236.932606 
L 241.406841 237.957492 
L 241.515233 237.766242 
L 241.730986 238.702553 
L 241.945377 237.473892 
L 242.158425 238.673217 
L 242.370145 238.339833 
L 242.475512 238.538762 
L 242.685272 239.216268 
L 242.789668 238.691362 
L 242.893744 238.729166 
L 243.100946 238.490619 
L 243.409398 239.149338 
L 243.613489 238.200579 
L 243.81636 239.405063 
L 243.917344 239.356334 
L 244.018028 239.285977 
L 244.118415 239.445741 
L 244.318304 239.82649 
L 244.417809 239.494718 
L 244.517023 239.608789 
L 244.615949 240.025646 
L 244.81294 239.66782 
L 244.91101 239.982862 
L 245.008796 239.854894 
L 245.106303 240.060852 
L 245.493554 239.866787 
L 245.685537 240.074273 
L 245.876442 240.809666 
L 245.971494 240.730841 
L 246.255064 240.961232 
L 246.349064 240.253283 
L 246.629513 241.28352 
L 246.722484 241.241768 
L 246.815202 240.887468 
L 246.999881 241.233315 
L 247.275032 240.969283 
L 247.366256 240.895127 
L 247.638468 241.801101 
L 247.728723 241.280839 
L 247.908517 241.556424 
L 248.087364 241.732718 
L 248.176436 242.138343 
L 248.353883 241.825736 
L 248.44226 241.963746 
L 248.530407 241.728732 
L 248.793487 242.336236 
L 248.88073 242.179813 
L 248.967749 241.699277 
L 249.054545 241.800011 
" clip-path="url(#pbfb3921811)" style="fill: none; stroke: #ff7f0e; stroke-width: 3; stroke-linecap: round"/>
   </g>
   <g id="line2d_32"/>
   <g id="line2d_33"/>
   <g id="patch_3">
    <path d="M 36 256.32 
L 36 34.56 
" style="fill: none; stroke: #262626; stroke-width: 2.5; stroke-linejoin: miter; stroke-linecap: square"/>
   </g>
   <g id="patch_4">
    <path d="M 259.2 256.32 
L 259.2 34.56 
" style="fill: none; stroke: #262626; stroke-width: 2.5; stroke-linejoin: miter; stroke-linecap: square"/>
   </g>
   <g id="patch_5">
    <path d="M 36 256.32 
L 259.2 256.32 
" style="fill: none; stroke: #262626; stroke-width: 2.5; stroke-linejoin: miter; stroke-linecap: square"/>
   </g>
   <g id="patch_6">
    <path d="M 36 34.56 
L 259.2 34.56 
" style="fill: none; stroke: #262626; stroke-width: 2.5; stroke-linejoin: miter; stroke-linecap: square"/>
   </g>
   <g id="legend_1">
    <g id="patch_7">
     <path d="M 51.4 245.32 
L 177.037187 245.32 
Q 181.437187 245.32 181.437187 240.92 
L 181.437187 144.30875 
Q 181.437187 139.90875 177.037187 139.90875 
L 51.4 139.90875 
Q 47 139.90875 47 144.30875 
L 47 240.92 
Q 47 245.32 51.4 245.32 
z
" style="fill: #ffffff; opacity: 0.8; stroke: #cccccc; stroke-width: 2; stroke-linejoin: miter"/>
    </g>
    <g id="text_8">
     <text style="fill: #262626; font: 24px 'Arial', 'DejaVu Sans', 'Liberation Sans', 'Bitstream Vera Sans', sans-serif; text-anchor: start" x="69.076094" y="166.945" transform="rotate(-0 69.076094 166.945)">tinnitus</text>
    </g>
    <g id="line2d_34">
     <path d="M 55.8 191.952813 
L 77.8 191.952813 
L 99.8 191.952813 
" style="fill: none; stroke: #1f77b4; stroke-width: 3; stroke-linecap: round"/>
    </g>
    <g id="text_9">
     <text style="fill: #262626; font: 22px 'Arial', 'DejaVu Sans', 'Liberation Sans', 'Bitstream Vera Sans', sans-serif; text-anchor: start" x="117.4" y="199.652813" transform="rotate(-0 117.4 199.652813)">False</text>
    </g>
    <g id="line2d_35">
     <path d="M 55.8 224.244688 
L 77.8 224.244688 
L 99.8 224.244688 
" style="fill: none; stroke: #ff7f0e; stroke-width: 3; stroke-linecap: round"/>
    </g>
    <g id="text_10">
     <text style="fill: #262626; font: 22px 'Arial', 'DejaVu Sans', 'Liberation Sans', 'Bitstream Vera Sans', sans-serif; text-anchor: start" x="117.4" y="231.944688" transform="rotate(-0 117.4 231.944688)">True</text>
    </g>
   </g>
  </g>
 </g>
 <defs>
  <clipPath id="pbfb3921811">
   <rect x="36" y="34.56" width="223.2" height="221.76"/>
  </clipPath>
 </defs>
</svg>
