<?xml version="1.0" encoding="utf-8" standalone="no"?>
<!DOCTYPE svg PUBLIC "-//W3C//DTD SVG 1.1//EN"
  "http://www.w3.org/Graphics/SVG/1.1/DTD/svg11.dtd">
<svg xmlns:xlink="http://www.w3.org/1999/xlink" width="360pt" height="360pt" viewBox="0 0 360 360" xmlns="http://www.w3.org/2000/svg" version="1.1">
 <metadata>
  <rdf:RDF xmlns:dc="http://purl.org/dc/elements/1.1/" xmlns:cc="http://creativecommons.org/ns#" xmlns:rdf="http://www.w3.org/1999/02/22-rdf-syntax-ns#">
   <cc:Work>
    <dc:type rdf:resource="http://purl.org/dc/dcmitype/StillImage"/>
    <dc:date>2023-11-06T16:47:30.948980</dc:date>
    <dc:format>image/svg+xml</dc:format>
    <dc:creator>
     <cc:Agent>
      <dc:title>Matplotlib v3.7.2, https://matplotlib.org/</dc:title>
     </cc:Agent>
    </dc:creator>
   </cc:Work>
  </rdf:RDF>
 </metadata>
 <defs>
  <style type="text/css">*{stroke-linejoin: round; stroke-linecap: butt}</style>
 </defs>
 <g id="figure_1">
  <g id="patch_1">
   <path d="M 0 360 
L 360 360 
L 360 0 
L 0 0 
z
" style="fill: #ffffff"/>
  </g>
  <g id="axes_1">
   <g id="patch_2">
    <path d="M 45 320.4 
L 324 320.4 
L 324 43.2 
L 45 43.2 
z
" style="fill: #ffffff"/>
   </g>
   <g id="matplotlib.axis_1">
    <g id="xtick_1">
     <g id="line2d_1">
      <defs>
       <path id="m1124b9aad1" d="M 0 0 
L 0 12 
" style="stroke: #262626; stroke-width: 2.5"/>
      </defs>
      <g>
       <use xlink:href="#m1124b9aad1" x="116.392275" y="320.4" style="fill: #262626; stroke: #262626; stroke-width: 2.5"/>
      </g>
     </g>
     <g id="text_1">
      <!-- $\mathdefault{10^{0}}$ -->
      <g style="fill: #262626" transform="translate(97.032275 352.616562)">
       <text>
        <tspan style="font: 22px 'DejaVu Sans'" x="0 13.99707" y="-0.1484375">10</tspan>
        <tspan style="font: 15.4px 'DejaVu Sans'" x="28.204687" y="-8.5703125">0</tspan>
       </text>
      </g>
     </g>
    </g>
    <g id="xtick_2">
     <g id="line2d_2">
      <g>
       <use xlink:href="#m1124b9aad1" x="213.908233" y="320.4" style="fill: #262626; stroke: #262626; stroke-width: 2.5"/>
      </g>
     </g>
     <g id="text_2">
      <!-- $\mathdefault{10^{1}}$ -->
      <g style="fill: #262626" transform="translate(194.548233 352.616562)">
       <text>
        <tspan style="font: 22px 'DejaVu Sans'" x="0 13.99707" y="-0.35625000000000284">10</tspan>
        <tspan style="font: 15.4px 'DejaVu Sans'" x="28.204687" y="-8.778125000000003">1</tspan>
       </text>
      </g>
     </g>
    </g>
    <g id="xtick_3">
     <g id="line2d_3">
      <g>
       <use xlink:href="#m1124b9aad1" x="311.424191" y="320.4" style="fill: #262626; stroke: #262626; stroke-width: 2.5"/>
      </g>
     </g>
     <g id="text_3">
      <!-- $\mathdefault{10^{2}}$ -->
      <g style="fill: #262626" transform="translate(292.064191 352.616562)">
       <text>
        <tspan style="font: 22px 'DejaVu Sans'" x="0 13.99707" y="-0.1484375">10</tspan>
        <tspan style="font: 15.4px 'DejaVu Sans'" x="28.204687" y="-8.5703125">2</tspan>
       </text>
      </g>
     </g>
    </g>
    <g id="xtick_4">
     <g id="line2d_4">
      <defs>
       <path id="m0309901a7d" d="M 0 0 
L 0 8 
" style="stroke: #262626; stroke-width: 2"/>
      </defs>
      <g>
       <use xlink:href="#m0309901a7d" x="48.231545" y="320.4" style="fill: #262626; stroke: #262626; stroke-width: 2"/>
      </g>
     </g>
    </g>
    <g id="xtick_5">
     <g id="line2d_5">
      <g>
       <use xlink:href="#m0309901a7d" x="65.403253" y="320.4" style="fill: #262626; stroke: #262626; stroke-width: 2"/>
      </g>
     </g>
    </g>
    <g id="xtick_6">
     <g id="line2d_6">
      <g>
       <use xlink:href="#m0309901a7d" x="77.586774" y="320.4" style="fill: #262626; stroke: #262626; stroke-width: 2"/>
      </g>
     </g>
    </g>
    <g id="xtick_7">
     <g id="line2d_7">
      <g>
       <use xlink:href="#m0309901a7d" x="87.037047" y="320.4" style="fill: #262626; stroke: #262626; stroke-width: 2"/>
      </g>
     </g>
    </g>
    <g id="xtick_8">
     <g id="line2d_8">
      <g>
       <use xlink:href="#m0309901a7d" x="94.758482" y="320.4" style="fill: #262626; stroke: #262626; stroke-width: 2"/>
      </g>
     </g>
    </g>
    <g id="xtick_9">
     <g id="line2d_9">
      <g>
       <use xlink:href="#m0309901a7d" x="101.286862" y="320.4" style="fill: #262626; stroke: #262626; stroke-width: 2"/>
      </g>
     </g>
    </g>
    <g id="xtick_10">
     <g id="line2d_10">
      <g>
       <use xlink:href="#m0309901a7d" x="106.942002" y="320.4" style="fill: #262626; stroke: #262626; stroke-width: 2"/>
      </g>
     </g>
    </g>
    <g id="xtick_11">
     <g id="line2d_11">
      <g>
       <use xlink:href="#m0309901a7d" x="111.930189" y="320.4" style="fill: #262626; stroke: #262626; stroke-width: 2"/>
      </g>
     </g>
    </g>
    <g id="xtick_12">
     <g id="line2d_12">
      <g>
       <use xlink:href="#m0309901a7d" x="145.747503" y="320.4" style="fill: #262626; stroke: #262626; stroke-width: 2"/>
      </g>
     </g>
    </g>
    <g id="xtick_13">
     <g id="line2d_13">
      <g>
       <use xlink:href="#m0309901a7d" x="162.919211" y="320.4" style="fill: #262626; stroke: #262626; stroke-width: 2"/>
      </g>
     </g>
    </g>
    <g id="xtick_14">
     <g id="line2d_14">
      <g>
       <use xlink:href="#m0309901a7d" x="175.102732" y="320.4" style="fill: #262626; stroke: #262626; stroke-width: 2"/>
      </g>
     </g>
    </g>
    <g id="xtick_15">
     <g id="line2d_15">
      <g>
       <use xlink:href="#m0309901a7d" x="184.553005" y="320.4" style="fill: #262626; stroke: #262626; stroke-width: 2"/>
      </g>
     </g>
    </g>
    <g id="xtick_16">
     <g id="line2d_16">
      <g>
       <use xlink:href="#m0309901a7d" x="192.27444" y="320.4" style="fill: #262626; stroke: #262626; stroke-width: 2"/>
      </g>
     </g>
    </g>
    <g id="xtick_17">
     <g id="line2d_17">
      <g>
       <use xlink:href="#m0309901a7d" x="198.80282" y="320.4" style="fill: #262626; stroke: #262626; stroke-width: 2"/>
      </g>
     </g>
    </g>
    <g id="xtick_18">
     <g id="line2d_18">
      <g>
       <use xlink:href="#m0309901a7d" x="204.45796" y="320.4" style="fill: #262626; stroke: #262626; stroke-width: 2"/>
      </g>
     </g>
    </g>
    <g id="xtick_19">
     <g id="line2d_19">
      <g>
       <use xlink:href="#m0309901a7d" x="209.446147" y="320.4" style="fill: #262626; stroke: #262626; stroke-width: 2"/>
      </g>
     </g>
    </g>
    <g id="xtick_20">
     <g id="line2d_20">
      <g>
       <use xlink:href="#m0309901a7d" x="243.263461" y="320.4" style="fill: #262626; stroke: #262626; stroke-width: 2"/>
      </g>
     </g>
    </g>
    <g id="xtick_21">
     <g id="line2d_21">
      <g>
       <use xlink:href="#m0309901a7d" x="260.435169" y="320.4" style="fill: #262626; stroke: #262626; stroke-width: 2"/>
      </g>
     </g>
    </g>
    <g id="xtick_22">
     <g id="line2d_22">
      <g>
       <use xlink:href="#m0309901a7d" x="272.61869" y="320.4" style="fill: #262626; stroke: #262626; stroke-width: 2"/>
      </g>
     </g>
    </g>
    <g id="xtick_23">
     <g id="line2d_23">
      <g>
       <use xlink:href="#m0309901a7d" x="282.068963" y="320.4" style="fill: #262626; stroke: #262626; stroke-width: 2"/>
      </g>
     </g>
    </g>
    <g id="xtick_24">
     <g id="line2d_24">
      <g>
       <use xlink:href="#m0309901a7d" x="289.790398" y="320.4" style="fill: #262626; stroke: #262626; stroke-width: 2"/>
      </g>
     </g>
    </g>
    <g id="xtick_25">
     <g id="line2d_25">
      <g>
       <use xlink:href="#m0309901a7d" x="296.318778" y="320.4" style="fill: #262626; stroke: #262626; stroke-width: 2"/>
      </g>
     </g>
    </g>
    <g id="xtick_26">
     <g id="line2d_26">
      <g>
       <use xlink:href="#m0309901a7d" x="301.973918" y="320.4" style="fill: #262626; stroke: #262626; stroke-width: 2"/>
      </g>
     </g>
    </g>
    <g id="xtick_27">
     <g id="line2d_27">
      <g>
       <use xlink:href="#m0309901a7d" x="306.962105" y="320.4" style="fill: #262626; stroke: #262626; stroke-width: 2"/>
      </g>
     </g>
    </g>
    <g id="text_4">
     <text style="fill: #262626; font: 24px 'Arial', 'DejaVu Sans', 'Liberation Sans', 'Bitstream Vera Sans', sans-serif; text-anchor: middle" x="184.5" y="379.428125" transform="rotate(-0 184.5 379.428125)">Frequency (Hz)</text>
    </g>
   </g>
   <g id="matplotlib.axis_2">
    <g id="ytick_1">
     <g id="line2d_28">
      <defs>
       <path id="mc5e4a14dbf" d="M 0 0 
L -12 0 
" style="stroke: #262626; stroke-width: 2.5"/>
      </defs>
      <g>
       <use xlink:href="#mc5e4a14dbf" x="45" y="256.43947" style="fill: #262626; stroke: #262626; stroke-width: 2.5"/>
      </g>
     </g>
     <g id="text_5">
      <!-- $\mathdefault{10^{2}}$ -->
      <g style="fill: #262626" transform="translate(-9.22 264.797751)">
       <text>
        <tspan style="font: 22px 'DejaVu Sans'" x="0 13.99707" y="-0.1484375">10</tspan>
        <tspan style="font: 15.4px 'DejaVu Sans'" x="28.204687" y="-8.5703125">2</tspan>
       </text>
      </g>
     </g>
    </g>
    <g id="ytick_2">
     <g id="line2d_29">
      <g>
       <use xlink:href="#mc5e4a14dbf" x="45" y="141.353972" style="fill: #262626; stroke: #262626; stroke-width: 2.5"/>
      </g>
     </g>
     <g id="text_6">
      <!-- $\mathdefault{10^{3}}$ -->
      <g style="fill: #262626" transform="translate(-9.22 149.712253)">
       <text>
        <tspan style="font: 22px 'DejaVu Sans'" x="0 13.99707" y="-0.1484375">10</tspan>
        <tspan style="font: 15.4px 'DejaVu Sans'" x="28.204687" y="-8.5703125">3</tspan>
       </text>
      </g>
     </g>
    </g>
    <g id="ytick_3">
     <g id="line2d_30">
      <defs>
       <path id="m6e9ca87e67" d="M 0 0 
L -8 0 
" style="stroke: #262626; stroke-width: 2"/>
      </defs>
      <g>
       <use xlink:href="#m6e9ca87e67" x="45" y="316.615231" style="fill: #262626; stroke: #262626; stroke-width: 2"/>
      </g>
     </g>
    </g>
    <g id="ytick_4">
     <g id="line2d_31">
      <g>
       <use xlink:href="#m6e9ca87e67" x="45" y="302.236594" style="fill: #262626; stroke: #262626; stroke-width: 2"/>
      </g>
     </g>
    </g>
    <g id="ytick_5">
     <g id="line2d_32">
      <g>
       <use xlink:href="#m6e9ca87e67" x="45" y="291.083657" style="fill: #262626; stroke: #262626; stroke-width: 2"/>
      </g>
     </g>
    </g>
    <g id="ytick_6">
     <g id="line2d_33">
      <g>
       <use xlink:href="#m6e9ca87e67" x="45" y="281.971044" style="fill: #262626; stroke: #262626; stroke-width: 2"/>
      </g>
     </g>
    </g>
    <g id="ytick_7">
     <g id="line2d_34">
      <g>
       <use xlink:href="#m6e9ca87e67" x="45" y="274.266439" style="fill: #262626; stroke: #262626; stroke-width: 2"/>
      </g>
     </g>
    </g>
    <g id="ytick_8">
     <g id="line2d_35">
      <g>
       <use xlink:href="#m6e9ca87e67" x="45" y="267.592407" style="fill: #262626; stroke: #262626; stroke-width: 2"/>
      </g>
     </g>
    </g>
    <g id="ytick_9">
     <g id="line2d_36">
      <g>
       <use xlink:href="#m6e9ca87e67" x="45" y="261.705494" style="fill: #262626; stroke: #262626; stroke-width: 2"/>
      </g>
     </g>
    </g>
    <g id="ytick_10">
     <g id="line2d_37">
      <g>
       <use xlink:href="#m6e9ca87e67" x="45" y="221.795283" style="fill: #262626; stroke: #262626; stroke-width: 2"/>
      </g>
     </g>
    </g>
    <g id="ytick_11">
     <g id="line2d_38">
      <g>
       <use xlink:href="#m6e9ca87e67" x="45" y="201.529733" style="fill: #262626; stroke: #262626; stroke-width: 2"/>
      </g>
     </g>
    </g>
    <g id="ytick_12">
     <g id="line2d_39">
      <g>
       <use xlink:href="#m6e9ca87e67" x="45" y="187.151096" style="fill: #262626; stroke: #262626; stroke-width: 2"/>
      </g>
     </g>
    </g>
    <g id="ytick_13">
     <g id="line2d_40">
      <g>
       <use xlink:href="#m6e9ca87e67" x="45" y="175.998159" style="fill: #262626; stroke: #262626; stroke-width: 2"/>
      </g>
     </g>
    </g>
    <g id="ytick_14">
     <g id="line2d_41">
      <g>
       <use xlink:href="#m6e9ca87e67" x="45" y="166.885546" style="fill: #262626; stroke: #262626; stroke-width: 2"/>
      </g>
     </g>
    </g>
    <g id="ytick_15">
     <g id="line2d_42">
      <g>
       <use xlink:href="#m6e9ca87e67" x="45" y="159.180941" style="fill: #262626; stroke: #262626; stroke-width: 2"/>
      </g>
     </g>
    </g>
    <g id="ytick_16">
     <g id="line2d_43">
      <g>
       <use xlink:href="#m6e9ca87e67" x="45" y="152.506909" style="fill: #262626; stroke: #262626; stroke-width: 2"/>
      </g>
     </g>
    </g>
    <g id="ytick_17">
     <g id="line2d_44">
      <g>
       <use xlink:href="#m6e9ca87e67" x="45" y="146.619995" style="fill: #262626; stroke: #262626; stroke-width: 2"/>
      </g>
     </g>
    </g>
    <g id="ytick_18">
     <g id="line2d_45">
      <g>
       <use xlink:href="#m6e9ca87e67" x="45" y="106.709785" style="fill: #262626; stroke: #262626; stroke-width: 2"/>
      </g>
     </g>
    </g>
    <g id="ytick_19">
     <g id="line2d_46">
      <g>
       <use xlink:href="#m6e9ca87e67" x="45" y="86.444234" style="fill: #262626; stroke: #262626; stroke-width: 2"/>
      </g>
     </g>
    </g>
    <g id="ytick_20">
     <g id="line2d_47">
      <g>
       <use xlink:href="#m6e9ca87e67" x="45" y="72.065598" style="fill: #262626; stroke: #262626; stroke-width: 2"/>
      </g>
     </g>
    </g>
    <g id="ytick_21">
     <g id="line2d_48">
      <g>
       <use xlink:href="#m6e9ca87e67" x="45" y="60.91266" style="fill: #262626; stroke: #262626; stroke-width: 2"/>
      </g>
     </g>
    </g>
    <g id="ytick_22">
     <g id="line2d_49">
      <g>
       <use xlink:href="#m6e9ca87e67" x="45" y="51.800047" style="fill: #262626; stroke: #262626; stroke-width: 2"/>
      </g>
     </g>
    </g>
    <g id="ytick_23">
     <g id="line2d_50">
      <g>
       <use xlink:href="#m6e9ca87e67" x="45" y="44.095443" style="fill: #262626; stroke: #262626; stroke-width: 2"/>
      </g>
     </g>
    </g>
    <g id="text_7">
     <text style="fill: #262626; font: 24px 'Arial', 'DejaVu Sans', 'Liberation Sans', 'Bitstream Vera Sans', sans-serif; text-anchor: middle" x="-18.21125" y="181.8" transform="rotate(-90 -18.21125 181.8)">Power (a.u.)</text>
    </g>
   </g>
   <g id="PolyCollection_1">
    <path d="M -97399.565718 92.902672 
L -97399.565718 105.799691 
L 57.681818 71.740619 
L 87.037047 76.672596 
L 104.208754 87.936415 
L 116.392275 88.745753 
L 125.842548 103.193301 
L 133.563983 117.365343 
L 140.092363 127.154717 
L 145.747503 135.436782 
L 150.735691 142.223643 
L 155.197776 147.004168 
L 159.234224 150.364622 
L 162.919211 154.668237 
L 166.309071 156.99687 
L 169.447592 159.890344 
L 172.369484 161.314813 
L 175.102732 162.32118 
L 177.670224 164.399174 
L 180.090919 165.11071 
L 182.380701 165.556888 
L 184.553005 165.383943 
L 186.619299 165.921516 
L 188.589452 165.030807 
L 190.472013 164.922334 
L 192.27444 164.693125 
L 194.003277 163.433221 
L 195.6643 162.93937 
L 197.262627 161.118741 
L 198.80282 158.669664 
L 200.28896 156.461264 
L 201.724712 153.930191 
L 203.113382 150.826633 
L 204.45796 147.568375 
L 205.76116 146.8404 
L 207.025452 144.993821 
L 208.253093 143.372094 
L 209.446147 143.168493 
L 210.606512 143.178746 
L 211.735929 142.936043 
L 212.836008 143.333111 
L 213.908233 145.162352 
L 214.953981 145.551648 
L 215.974528 148.046539 
L 216.971059 148.946204 
L 217.94468 152.727158 
L 218.89642 154.014721 
L 219.827241 157.33419 
L 220.738043 159.156736 
L 221.629668 161.024629 
L 222.502908 163.335187 
L 223.358506 165.606492 
L 224.19716 167.049828 
L 225.019528 168.628124 
L 225.826231 170.064197 
L 226.617855 170.784079 
L 227.394953 172.293467 
L 228.158048 172.464458 
L 228.907637 173.646549 
L 229.644188 173.584464 
L 230.368149 174.12204 
L 231.079941 174.649546 
L 231.779967 174.622265 
L 232.468611 175.781033 
L 233.146236 176.26804 
L 233.813189 175.667917 
L 234.469801 176.440949 
L 235.116388 177.116389 
L 235.753252 177.76032 
L 236.38068 178.725023 
L 236.998949 178.98195 
L 237.608321 180.989157 
L 238.20905 182.535366 
L 238.801376 184.393388 
L 239.385532 184.779333 
L 239.96174 186.96949 
L 240.530214 187.076494 
L 241.091157 188.637945 
L 241.644768 190.211734 
L 242.191236 191.383637 
L 242.730742 192.848458 
L 243.263461 194.23267 
L 243.789563 195.43828 
L 244.309209 196.560507 
L 244.822557 198.124774 
L 245.329756 198.411186 
L 245.830953 200.145431 
L 246.326288 201.601519 
L 246.815896 202.531033 
L 247.299909 203.703148 
L 247.778452 204.680839 
L 248.251649 206.010603 
L 248.719616 207.342742 
L 249.182469 207.486982 
L 249.640319 208.809155 
L 250.093271 210.08689 
L 250.54143 211.30207 
L 250.984896 212.60996 
L 251.423767 214.277165 
L 251.858137 215.07783 
L 252.288096 216.430358 
L 252.713734 217.659573 
L 253.135137 218.918932 
L 253.552388 220.538715 
L 253.965568 222.163331 
L 254.374757 222.768288 
L 254.780029 223.769867 
L 255.18146 224.850775 
L 255.579121 226.633685 
L 255.973084 227.822991 
L 256.363415 229.132224 
L 256.750182 230.245805 
L 257.133448 231.661926 
L 257.513277 233.571479 
L 257.889729 233.832509 
L 258.262865 235.101814 
L 258.632742 236.713097 
L 258.999417 238.036311 
L 259.362944 239.200613 
L 259.723377 240.740161 
L 260.080768 241.827987 
L 260.435169 243.425939 
L 260.786629 243.467307 
L 261.135196 244.796633 
L 261.480917 246.951582 
L 261.823839 247.288791 
L 262.164007 248.753592 
L 262.501464 249.596933 
L 262.836253 251.241998 
L 263.168417 251.580681 
L 263.497996 252.105996 
L 263.825029 252.94497 
L 264.149557 254.160001 
L 264.471617 255.287127 
L 264.791246 255.99312 
L 265.10848 256.931402 
L 265.423356 257.456522 
L 265.735909 257.932494 
L 266.046171 259.481563 
L 266.354177 260.109804 
L 266.659959 260.653294 
L 266.96355 260.867914 
L 267.264979 262.56193 
L 267.564278 262.038206 
L 267.861477 263.129765 
L 268.156604 263.801576 
L 268.449689 264.348898 
L 268.74076 265.005997 
L 269.029844 265.796947 
L 269.316968 266.212302 
L 269.602159 266.629268 
L 269.885442 267.377398 
L 270.166843 268.039346 
L 270.446386 268.830288 
L 270.724096 269.027678 
L 270.999997 269.869828 
L 271.274112 270.135372 
L 271.546464 270.326213 
L 271.817076 270.599472 
L 272.08597 270.986412 
L 272.353168 271.033028 
L 272.61869 271.961952 
L 272.882558 273.211588 
L 273.144792 272.789647 
L 273.405412 272.969439 
L 273.664438 273.288113 
L 273.921889 274.381517 
L 274.177785 274.683031 
L 274.432144 273.974887 
L 274.684985 274.773761 
L 274.936324 274.750974 
L 275.186182 275.275749 
L 275.434573 275.578163 
L 275.681516 276.034792 
L 275.927028 276.300946 
L 276.171125 276.377574 
L 276.413822 276.087719 
L 276.655137 277.544413 
L 276.895085 277.473313 
L 277.133681 277.41577 
L 277.37094 278.052794 
L 277.606877 278.169461 
L 277.841507 278.081855 
L 278.074845 279.106368 
L 278.306904 278.541186 
L 278.537698 279.073591 
L 278.767241 279.488875 
L 278.995547 280.005839 
L 279.222629 279.571041 
L 279.448499 280.020085 
L 279.673172 280.086592 
L 279.896659 280.810346 
L 280.118972 280.870356 
L 280.340125 279.819533 
L 280.560129 281.069655 
L 280.778996 281.214111 
L 280.996737 279.817898 
L 281.213365 272.51692 
L 281.42889 255.992603 
L 281.643324 255.576781 
L 281.856678 254.957314 
L 282.068963 255.166596 
L 282.280188 255.509992 
L 282.490365 255.614013 
L 282.699505 257.00668 
L 282.907617 279.892425 
L 283.114711 283.054691 
L 283.320797 283.234233 
L 283.525885 283.62989 
L 283.729985 284.466313 
L 283.933106 284.909741 
L 284.135257 283.953772 
L 284.336448 284.863243 
L 284.536688 284.982268 
L 284.735986 284.460781 
L 284.93435 285.146886 
L 285.131789 286.170023 
L 285.328312 285.87504 
L 285.523927 285.346788 
L 285.718643 286.191841 
L 285.912468 286.218358 
L 286.10541 286.78564 
L 286.297477 287.739736 
L 286.488676 287.275624 
L 286.679017 288.054096 
L 286.868505 287.573743 
L 287.05715 288.025076 
L 287.244958 288.07213 
L 287.431937 287.449681 
L 287.618094 288.595993 
L 287.803436 288.297256 
L 287.987971 288.71955 
L 288.171705 288.405944 
L 288.354645 288.582598 
L 288.536799 289.152287 
L 288.718172 289.769042 
L 288.898772 289.017194 
L 289.078605 289.215626 
L 289.257678 289.251262 
L 289.435997 289.498524 
L 289.613568 289.907343 
L 289.790398 289.850747 
L 289.966492 290.12336 
L 290.141857 290.157707 
L 290.316499 290.226822 
L 290.490424 290.792846 
L 290.663638 290.869596 
L 290.836146 291.325439 
L 291.007954 291.102722 
L 291.179068 291.547781 
L 291.349493 291.946878 
L 291.519235 292.167704 
L 291.6883 291.591991 
L 291.856692 291.822212 
L 292.024418 291.811024 
L 292.191482 292.16282 
L 292.357889 292.018623 
L 292.523645 292.497823 
L 292.688755 292.507428 
L 292.853224 293.147113 
L 293.017057 292.711863 
L 293.180258 292.13863 
L 293.342832 292.6073 
L 293.504785 292.61875 
L 293.666121 293.067846 
L 293.826845 292.889773 
L 293.986961 292.957651 
L 294.146474 292.883783 
L 294.305388 293.240949 
L 294.463709 294.183225 
L 294.621439 293.481173 
L 294.778585 294.277262 
L 294.935149 293.787482 
L 295.091137 293.770417 
L 295.246553 293.716117 
L 295.4014 294.263028 
L 295.555683 293.823548 
L 295.709406 294.332474 
L 295.862573 294.710714 
L 296.015188 294.040696 
L 296.167255 294.95428 
L 296.318778 295.095848 
L 296.469761 294.682959 
L 296.620207 294.932505 
L 296.770121 295.49789 
L 296.919506 295.047581 
L 297.068366 294.84437 
L 297.216705 295.450738 
L 297.364526 295.357842 
L 297.511833 296.033145 
L 297.658629 295.554255 
L 297.804918 295.330645 
L 297.950703 295.214805 
L 298.095989 295.893844 
L 298.240777 295.778308 
L 298.385073 295.730307 
L 298.528878 295.389157 
L 298.672197 295.460266 
L 298.815032 295.376182 
L 298.957387 295.498317 
L 299.099266 295.781872 
L 299.24067 295.812306 
L 299.381604 295.631433 
L 299.522071 296.157022 
L 299.662073 296.293608 
L 299.801614 296.318673 
L 299.940697 296.203734 
L 300.079324 296.322962 
L 300.2175 297.00507 
L 300.355225 296.747808 
L 300.492505 296.852511 
L 300.62934 296.982397 
L 300.765736 296.104367 
L 300.901693 296.744946 
L 301.037215 297.143685 
L 301.172305 297.306871 
L 301.306965 297.574403 
L 301.441199 297.91218 
L 301.575008 297.159654 
L 301.708396 297.026354 
L 301.841365 297.910399 
L 301.973918 297.703383 
L 302.106058 297.443064 
L 302.237786 298.259526 
L 302.369106 298.048526 
L 302.50002 297.601756 
L 302.63053 297.702835 
L 302.76064 297.510591 
L 302.890351 297.833134 
L 303.019666 298.141902 
L 303.148588 298.53803 
L 303.277118 298.476654 
L 303.405259 297.551102 
L 303.533014 298.113309 
L 303.660384 297.688751 
L 303.787373 297.962215 
L 303.913982 297.542883 
L 304.040213 298.481224 
L 304.166069 298.53963 
L 304.291553 297.783353 
L 304.416666 298.413496 
L 304.54141 298.638476 
L 304.665788 298.657263 
L 304.789801 298.108387 
L 304.913453 298.269526 
L 305.036745 298.777706 
L 305.159678 298.509042 
L 305.282256 298.544608 
L 305.404481 298.364273 
L 305.526353 298.011016 
L 305.647876 298.503045 
L 305.769051 297.959135 
L 305.88988 298.367036 
L 306.010366 298.048336 
L 306.130509 298.615 
L 306.250313 298.962953 
L 306.369779 299.242903 
L 306.488909 299.259581 
L 306.607705 299.725661 
L 306.726168 299.455196 
L 306.844301 299.200204 
L 306.962105 299.433306 
L 307.079583 299.552413 
L 307.196736 300.181885 
L 307.313565 299.095327 
L 307.430073 299.534166 
L 307.546262 299.624806 
L 307.662132 299.478867 
L 307.777686 298.584367 
L 307.892926 299.705521 
L 308.007853 298.788899 
L 308.12247 299.907525 
L 308.236776 299.507877 
L 308.350776 299.398401 
L 308.464469 299.955987 
L 308.577857 300.064933 
L 308.690943 300.201341 
L 308.803728 300.368294 
L 308.916213 299.994553 
L 309.0284 299.760455 
L 309.140291 300.28904 
L 309.251887 299.955641 
L 309.36319 300.299032 
L 309.474201 300.208327 
L 309.584921 300.501266 
L 309.695353 300.561813 
L 309.805498 300.30392 
L 309.915357 299.783597 
L 310.024932 300.040686 
L 310.134224 299.935911 
L 310.243235 300.892098 
L 310.351966 300.063745 
L 310.460418 299.866451 
L 310.568593 300.909914 
L 310.676493 299.893784 
L 310.784119 300.679454 
L 310.891471 300.017146 
L 310.998553 298.48507 
L 311.105364 296.396441 
L 311.211907 295.786367 
L 311.318182 296.968125 
L 311.318182 280.224626 
L 311.318182 280.224626 
L 311.211907 280.616098 
L 311.105364 280.143643 
L 310.998553 283.966799 
L 310.891471 285.181391 
L 310.784119 285.263807 
L 310.676493 285.022845 
L 310.568593 285.241252 
L 310.460418 285.232782 
L 310.351966 284.953892 
L 310.243235 285.459656 
L 310.134224 285.179921 
L 310.024932 285.160153 
L 309.915357 285.504994 
L 309.805498 285.763079 
L 309.695353 285.58075 
L 309.584921 285.298066 
L 309.474201 284.918063 
L 309.36319 284.549555 
L 309.251887 284.905192 
L 309.140291 285.240238 
L 309.0284 284.674848 
L 308.916213 285.317907 
L 308.803728 285.006068 
L 308.690943 285.577693 
L 308.577857 284.782177 
L 308.464469 284.384604 
L 308.350776 284.44313 
L 308.236776 284.166595 
L 308.12247 284.680541 
L 308.007853 283.409333 
L 307.892926 283.692199 
L 307.777686 283.73797 
L 307.662132 284.005714 
L 307.546262 283.831964 
L 307.430073 283.769767 
L 307.313565 283.937224 
L 307.196736 284.47894 
L 307.079583 284.105685 
L 306.962105 284.15612 
L 306.844301 284.451996 
L 306.726168 283.941159 
L 306.607705 284.339594 
L 306.488909 283.384353 
L 306.369779 284.122694 
L 306.250313 283.552272 
L 306.130509 283.505207 
L 306.010366 283.20535 
L 305.88988 283.300411 
L 305.769051 283.2052 
L 305.647876 283.399402 
L 305.526353 283.761951 
L 305.404481 283.784667 
L 305.282256 283.083037 
L 305.159678 283.894737 
L 305.036745 283.731737 
L 304.913453 283.428345 
L 304.789801 283.512505 
L 304.665788 283.560438 
L 304.54141 283.526525 
L 304.416666 283.777138 
L 304.291553 283.887827 
L 304.166069 283.506997 
L 304.040213 283.300991 
L 303.913982 283.058598 
L 303.787373 283.206716 
L 303.660384 283.404756 
L 303.533014 283.096065 
L 303.405259 282.966792 
L 303.277118 283.44852 
L 303.148588 282.921189 
L 303.019666 282.871615 
L 302.890351 282.056919 
L 302.76064 282.576933 
L 302.63053 282.464636 
L 302.50002 282.6995 
L 302.369106 282.795204 
L 302.237786 282.149748 
L 302.106058 282.386013 
L 301.973918 281.791779 
L 301.841365 281.904469 
L 301.708396 281.981822 
L 301.575008 281.579733 
L 301.441199 282.015855 
L 301.306965 281.627101 
L 301.172305 280.687612 
L 301.037215 281.360963 
L 300.901693 281.194072 
L 300.765736 280.851706 
L 300.62934 280.290664 
L 300.492505 280.966616 
L 300.355225 280.940364 
L 300.2175 280.648777 
L 300.079324 280.672343 
L 299.940697 280.81096 
L 299.801614 280.63142 
L 299.662073 280.556565 
L 299.522071 280.620066 
L 299.381604 279.684312 
L 299.24067 279.58716 
L 299.099266 279.893341 
L 298.957387 280.074474 
L 298.815032 279.555436 
L 298.672197 280.363487 
L 298.528878 279.592836 
L 298.385073 280.137049 
L 298.240777 280.399768 
L 298.095989 280.399263 
L 297.950703 279.877556 
L 297.804918 280.304205 
L 297.658629 279.900711 
L 297.511833 279.504293 
L 297.364526 279.540521 
L 297.216705 279.685522 
L 297.068366 280.063291 
L 296.919506 279.268475 
L 296.770121 279.581401 
L 296.620207 279.99848 
L 296.469761 279.529397 
L 296.318778 278.800027 
L 296.167255 278.81358 
L 296.015188 278.936486 
L 295.862573 278.988276 
L 295.709406 278.509902 
L 295.555683 279.16162 
L 295.4014 278.492814 
L 295.246553 278.367633 
L 295.091137 278.302657 
L 294.935149 278.507008 
L 294.778585 277.98048 
L 294.621439 278.225921 
L 294.463709 278.632417 
L 294.305388 278.105718 
L 294.146474 277.898709 
L 293.986961 277.451008 
L 293.826845 277.900101 
L 293.666121 277.286793 
L 293.504785 277.450462 
L 293.342832 277.398258 
L 293.180258 277.46533 
L 293.017057 277.857476 
L 292.853224 276.801686 
L 292.688755 277.775832 
L 292.523645 276.833249 
L 292.357889 276.723852 
L 292.191482 276.032359 
L 292.024418 276.471707 
L 291.856692 276.413401 
L 291.6883 276.007491 
L 291.519235 276.041915 
L 291.349493 276.130108 
L 291.179068 275.975415 
L 291.007954 275.698321 
L 290.836146 276.417642 
L 290.663638 275.593774 
L 290.490424 275.069794 
L 290.316499 274.833737 
L 290.141857 275.25089 
L 289.966492 274.511089 
L 289.790398 274.03978 
L 289.613568 274.46521 
L 289.435997 273.626297 
L 289.257678 273.724913 
L 289.078605 273.332818 
L 288.898772 273.06472 
L 288.718172 273.806997 
L 288.536799 273.432567 
L 288.354645 272.982705 
L 288.171705 273.143495 
L 287.987971 273.314783 
L 287.803436 272.902104 
L 287.618094 272.922202 
L 287.431937 272.849684 
L 287.244958 272.863629 
L 287.05715 272.460346 
L 286.868505 272.773136 
L 286.679017 272.487273 
L 286.488676 272.543631 
L 286.297477 272.168869 
L 286.10541 271.473912 
L 285.912468 270.909745 
L 285.718643 271.235417 
L 285.523927 270.734332 
L 285.328312 269.930057 
L 285.131789 270.178414 
L 284.93435 269.949318 
L 284.735986 269.545801 
L 284.536688 269.52561 
L 284.336448 268.93381 
L 284.135257 268.671763 
L 283.933106 268.805665 
L 283.729985 269.318426 
L 283.525885 268.937736 
L 283.320797 268.373877 
L 283.114711 267.120732 
L 282.907617 264.252951 
L 282.699505 242.385427 
L 282.490365 240.369941 
L 282.280188 240.519161 
L 282.068963 240.456264 
L 281.856678 240.488861 
L 281.643324 240.641199 
L 281.42889 241.784293 
L 281.213365 258.155607 
L 280.996737 265.543778 
L 280.778996 266.032913 
L 280.560129 266.039535 
L 280.340125 265.377597 
L 280.118972 266.058928 
L 279.896659 265.752046 
L 279.673172 265.334669 
L 279.448499 264.600942 
L 279.222629 265.09985 
L 278.995547 264.488425 
L 278.767241 264.772622 
L 278.537698 263.846823 
L 278.306904 264.112614 
L 278.074845 263.961356 
L 277.841507 263.137048 
L 277.606877 263.048064 
L 277.37094 262.913954 
L 277.133681 262.550464 
L 276.895085 262.899266 
L 276.655137 262.218727 
L 276.413822 262.127446 
L 276.171125 261.170618 
L 275.927028 261.745141 
L 275.681516 261.538804 
L 275.434573 260.779568 
L 275.186182 260.64914 
L 274.936324 260.244165 
L 274.684985 260.3843 
L 274.432144 259.442775 
L 274.177785 259.353811 
L 273.921889 259.336897 
L 273.664438 258.515052 
L 273.405412 258.28723 
L 273.144792 258.358634 
L 272.882558 257.513201 
L 272.61869 257.085617 
L 272.353168 256.254891 
L 272.08597 255.954374 
L 271.817076 256.294332 
L 271.546464 255.296039 
L 271.274112 255.10714 
L 270.999997 254.618151 
L 270.724096 254.545361 
L 270.446386 254.132201 
L 270.166843 253.502953 
L 269.885442 252.971394 
L 269.602159 252.097605 
L 269.316968 252.47077 
L 269.029844 251.737325 
L 268.74076 250.710077 
L 268.449689 250.23206 
L 268.156604 249.969495 
L 267.861477 249.218909 
L 267.564278 248.705299 
L 267.264979 247.817756 
L 266.96355 247.778191 
L 266.659959 246.199661 
L 266.354177 245.789893 
L 266.046171 244.715187 
L 265.735909 244.076012 
L 265.423356 243.412338 
L 265.10848 242.899946 
L 264.791246 242.042827 
L 264.471617 240.711717 
L 264.149557 240.548513 
L 263.825029 239.108377 
L 263.497996 238.8485 
L 263.168417 238.342543 
L 262.836253 237.545156 
L 262.501464 235.77304 
L 262.164007 235.199869 
L 261.823839 233.909831 
L 261.480917 232.611118 
L 261.135196 231.414549 
L 260.786629 230.310013 
L 260.435169 229.159009 
L 260.080768 227.976234 
L 259.723377 226.714476 
L 259.362944 225.869034 
L 258.999417 224.311455 
L 258.632742 223.375342 
L 258.262865 222.348377 
L 257.889729 220.898284 
L 257.513277 219.893999 
L 257.133448 218.216344 
L 256.750182 217.581359 
L 256.363415 215.917565 
L 255.973084 215.036632 
L 255.579121 213.948124 
L 255.18146 211.904128 
L 254.780029 210.863871 
L 254.374757 208.841197 
L 253.965568 207.603476 
L 253.552388 206.373265 
L 253.135137 204.925186 
L 252.713734 203.857033 
L 252.288096 202.580112 
L 251.858137 200.933903 
L 251.423767 199.482187 
L 250.984896 198.104282 
L 250.54143 197.006161 
L 250.093271 195.658039 
L 249.640319 194.339817 
L 249.182469 192.816352 
L 248.719616 191.845158 
L 248.251649 190.533074 
L 247.778452 190.171198 
L 247.299909 188.615621 
L 246.815896 187.058344 
L 246.326288 186.526766 
L 245.830953 185.116301 
L 245.329756 183.884299 
L 244.822557 183.278085 
L 244.309209 181.991549 
L 243.789563 180.565392 
L 243.263461 179.073103 
L 242.730742 178.025395 
L 242.191236 176.477512 
L 241.644768 175.034208 
L 241.091157 173.637246 
L 240.530214 173.164655 
L 239.96174 171.411943 
L 239.385532 170.905896 
L 238.801376 169.516967 
L 238.20905 168.123603 
L 237.608321 166.337986 
L 236.998949 164.997051 
L 236.38068 163.720838 
L 235.753252 163.080255 
L 235.116388 162.951905 
L 234.469801 161.581984 
L 233.813189 161.561909 
L 233.146236 161.084259 
L 232.468611 160.538942 
L 231.779967 159.882008 
L 231.079941 159.45168 
L 230.368149 159.472558 
L 229.644188 159.253778 
L 228.907637 158.814405 
L 228.158048 157.997366 
L 227.394953 157.574129 
L 226.617855 156.815474 
L 225.826231 156.178883 
L 225.019528 154.524094 
L 224.19716 153.397889 
L 223.358506 151.982308 
L 222.502908 149.520128 
L 221.629668 147.174234 
L 220.738043 144.269606 
L 219.827241 141.180339 
L 218.89642 138.500625 
L 217.94468 136.55737 
L 216.971059 133.674096 
L 215.974528 133.26538 
L 214.953981 131.588392 
L 213.908233 130.292788 
L 212.836008 128.151635 
L 211.735929 127.089922 
L 210.606512 126.131475 
L 209.446147 125.731826 
L 208.253093 125.205775 
L 207.025452 124.063805 
L 205.76116 125.270008 
L 204.45796 125.916376 
L 203.113382 128.09129 
L 201.724712 127.628104 
L 200.28896 131.313899 
L 198.80282 133.887429 
L 197.262627 137.303337 
L 195.6643 140.903777 
L 194.003277 143.107762 
L 192.27444 145.389011 
L 190.472013 148.203486 
L 188.589452 149.128646 
L 186.619299 150.668768 
L 184.553005 151.651756 
L 182.380701 151.839613 
L 180.090919 151.037523 
L 177.670224 150.151449 
L 175.102732 148.940085 
L 172.369484 147.864394 
L 169.447592 145.860814 
L 166.309071 142.854683 
L 162.919211 139.831203 
L 159.234224 136.984653 
L 155.197776 132.434559 
L 150.735691 127.628931 
L 145.747503 121.565877 
L 140.092363 112.284028 
L 133.563983 103.362106 
L 125.842548 90.555647 
L 116.392275 75.498778 
L 104.208754 74.43811 
L 87.037047 63.329055 
L 57.681818 59.458817 
L -97399.565718 92.902672 
z
" clip-path="url(#pe097ff7547)" style="fill: #4c72b0; fill-opacity: 0.2; stroke: #4c72b0; stroke-opacity: 0.2; stroke-width: 2"/>
   </g>
   <g id="PolyCollection_2">
    <path d="M -97399.565718 89.33406 
L -97399.565718 106.17332 
L 57.681818 72.767269 
L 87.037047 76.389178 
L 104.208754 87.473717 
L 116.392275 87.659493 
L 125.842548 102.397878 
L 133.563983 115.581008 
L 140.092363 124.850503 
L 145.747503 133.265887 
L 150.735691 139.652067 
L 155.197776 145.721324 
L 159.234224 150.110118 
L 162.919211 154.109466 
L 166.309071 156.193075 
L 169.447592 158.756499 
L 172.369484 160.714995 
L 175.102732 163.127028 
L 177.670224 164.565758 
L 180.090919 165.453022 
L 182.380701 166.766311 
L 184.553005 167.346954 
L 186.619299 167.870612 
L 188.589452 168.509065 
L 190.472013 168.831679 
L 192.27444 168.795425 
L 194.003277 167.970636 
L 195.6643 167.32172 
L 197.262627 166.43276 
L 198.80282 164.516428 
L 200.28896 162.459768 
L 201.724712 160.87185 
L 203.113382 158.211766 
L 204.45796 155.815909 
L 205.76116 153.966282 
L 207.025452 149.699666 
L 208.253093 149.321263 
L 209.446147 147.299483 
L 210.606512 146.166664 
L 211.735929 145.883084 
L 212.836008 145.752818 
L 213.908233 144.899763 
L 214.953981 145.551521 
L 215.974528 148.351499 
L 216.971059 150.12901 
L 217.94468 151.804427 
L 218.89642 154.544583 
L 219.827241 156.525595 
L 220.738043 159.133173 
L 221.629668 160.919065 
L 222.502908 162.949759 
L 223.358506 163.889231 
L 224.19716 166.148515 
L 225.019528 167.370126 
L 225.826231 168.099816 
L 226.617855 169.460854 
L 227.394953 170.67527 
L 228.158048 170.722335 
L 228.907637 171.301658 
L 229.644188 172.118154 
L 230.368149 172.978548 
L 231.079941 173.08079 
L 231.779967 173.13208 
L 232.468611 172.57265 
L 233.146236 173.06404 
L 233.813189 172.785026 
L 234.469801 172.900365 
L 235.116388 174.883895 
L 235.753252 174.175127 
L 236.38068 174.978677 
L 236.998949 176.273063 
L 237.608321 177.019968 
L 238.20905 178.316883 
L 238.801376 180.477199 
L 239.385532 181.065231 
L 239.96174 182.645827 
L 240.530214 183.955164 
L 241.091157 185.809868 
L 241.644768 186.238156 
L 242.191236 187.739809 
L 242.730742 188.856989 
L 243.263461 191.035543 
L 243.789563 191.065266 
L 244.309209 192.914871 
L 244.822557 195.496897 
L 245.329756 195.859445 
L 245.830953 197.02252 
L 246.326288 199.662858 
L 246.815896 199.895702 
L 247.299909 201.794717 
L 247.778452 203.095188 
L 248.251649 204.632269 
L 248.719616 205.041378 
L 249.182469 207.026056 
L 249.640319 208.712801 
L 250.093271 210.092342 
L 250.54143 210.928229 
L 250.984896 211.683929 
L 251.423767 213.825607 
L 251.858137 215.22436 
L 252.288096 216.445277 
L 252.713734 218.216771 
L 253.135137 218.422714 
L 253.552388 219.917011 
L 253.965568 221.902898 
L 254.374757 223.011722 
L 254.780029 224.757538 
L 255.18146 225.194595 
L 255.579121 227.44868 
L 255.973084 228.839708 
L 256.363415 230.567234 
L 256.750182 231.776765 
L 257.133448 233.318179 
L 257.513277 234.220481 
L 257.889729 235.929082 
L 258.262865 236.501049 
L 258.632742 237.56256 
L 258.999417 239.073534 
L 259.362944 240.199753 
L 259.723377 240.973035 
L 260.080768 241.944446 
L 260.435169 243.601364 
L 260.786629 244.336455 
L 261.135196 245.789056 
L 261.480917 247.55201 
L 261.823839 247.89416 
L 262.164007 249.023865 
L 262.501464 250.051583 
L 262.836253 251.058112 
L 263.168417 251.858413 
L 263.497996 253.152538 
L 263.825029 254.200296 
L 264.149557 255.138303 
L 264.471617 255.401761 
L 264.791246 256.630028 
L 265.10848 257.044172 
L 265.423356 258.34385 
L 265.735909 259.962332 
L 266.046171 259.648837 
L 266.354177 260.285885 
L 266.659959 261.993686 
L 266.96355 261.896915 
L 267.264979 263.289197 
L 267.564278 265.016082 
L 267.861477 263.698762 
L 268.156604 265.319197 
L 268.449689 265.626012 
L 268.74076 266.367194 
L 269.029844 267.399273 
L 269.316968 267.330312 
L 269.602159 268.072585 
L 269.885442 268.407828 
L 270.166843 270.39686 
L 270.446386 269.493304 
L 270.724096 270.52304 
L 270.999997 270.229354 
L 271.274112 271.017127 
L 271.546464 271.529555 
L 271.817076 272.41025 
L 272.08597 273.300489 
L 272.353168 273.913964 
L 272.61869 273.098063 
L 272.882558 274.10461 
L 273.144792 274.723566 
L 273.405412 274.02229 
L 273.664438 274.65872 
L 273.921889 274.943405 
L 274.177785 275.594801 
L 274.432144 276.258176 
L 274.684985 276.989553 
L 274.936324 276.796787 
L 275.186182 277.202993 
L 275.434573 277.484135 
L 275.681516 278.009109 
L 275.927028 278.371479 
L 276.171125 277.641566 
L 276.413822 278.535496 
L 276.655137 278.858379 
L 276.895085 280.147992 
L 277.133681 279.848107 
L 277.37094 279.961772 
L 277.606877 279.882383 
L 277.841507 280.179228 
L 278.074845 280.789477 
L 278.306904 281.121073 
L 278.537698 281.267726 
L 278.767241 281.64748 
L 278.995547 282.414592 
L 279.222629 281.585516 
L 279.448499 282.143537 
L 279.673172 282.033629 
L 279.896659 282.150429 
L 280.118972 282.981137 
L 280.340125 282.614074 
L 280.560129 282.369697 
L 280.778996 283.488781 
L 280.996737 282.32633 
L 281.213365 277.302243 
L 281.42889 263.627326 
L 281.643324 263.696397 
L 281.856678 262.519263 
L 282.068963 262.88886 
L 282.280188 263.848875 
L 282.490365 264.404611 
L 282.699505 265.184314 
L 282.907617 282.383802 
L 283.114711 285.063476 
L 283.320797 286.425606 
L 283.525885 286.423672 
L 283.729985 286.53868 
L 283.933106 287.369034 
L 284.135257 287.678912 
L 284.336448 288.034777 
L 284.536688 287.995566 
L 284.735986 288.711844 
L 284.93435 289.512081 
L 285.131789 288.657557 
L 285.328312 288.765293 
L 285.523927 289.254749 
L 285.718643 289.859538 
L 285.912468 289.924352 
L 286.10541 290.0673 
L 286.297477 290.600174 
L 286.488676 290.192126 
L 286.679017 291.346452 
L 286.868505 291.023045 
L 287.05715 291.050525 
L 287.244958 291.665613 
L 287.431937 291.433259 
L 287.618094 291.539482 
L 287.803436 291.708406 
L 287.987971 291.98135 
L 288.171705 291.928793 
L 288.354645 292.778586 
L 288.536799 293.219149 
L 288.718172 292.588908 
L 288.898772 294.37133 
L 289.078605 294.0128 
L 289.257678 293.233577 
L 289.435997 293.761788 
L 289.613568 293.578729 
L 289.790398 294.235546 
L 289.966492 294.081087 
L 290.141857 294.082462 
L 290.316499 294.957076 
L 290.490424 294.451892 
L 290.663638 295.008592 
L 290.836146 295.923806 
L 291.007954 294.859694 
L 291.179068 295.425731 
L 291.349493 295.477424 
L 291.519235 296.225558 
L 291.6883 295.715254 
L 291.856692 295.806199 
L 292.024418 295.784311 
L 292.191482 296.27829 
L 292.357889 296.807633 
L 292.523645 296.892551 
L 292.688755 296.693317 
L 292.853224 297.098868 
L 293.017057 298.005183 
L 293.180258 298.061753 
L 293.342832 296.995058 
L 293.504785 297.424303 
L 293.666121 297.074834 
L 293.826845 298.205633 
L 293.986961 297.515511 
L 294.146474 297.692637 
L 294.305388 298.255676 
L 294.463709 297.958929 
L 294.621439 298.715345 
L 294.778585 298.740626 
L 294.935149 298.605337 
L 295.091137 298.672446 
L 295.246553 298.457771 
L 295.4014 298.59368 
L 295.555683 299.036404 
L 295.709406 299.314205 
L 295.862573 299.613761 
L 296.015188 298.983093 
L 296.167255 298.895143 
L 296.318778 299.733964 
L 296.469761 300.388164 
L 296.620207 298.866524 
L 296.770121 299.004958 
L 296.919506 300.12939 
L 297.068366 299.976131 
L 297.216705 299.603692 
L 297.364526 300.886192 
L 297.511833 300.13212 
L 297.658629 300.070935 
L 297.804918 300.787322 
L 297.950703 301.334637 
L 298.095989 300.803404 
L 298.240777 300.324445 
L 298.385073 301.226436 
L 298.528878 301.327384 
L 298.672197 301.009184 
L 298.815032 301.130199 
L 298.957387 301.628935 
L 299.099266 300.774752 
L 299.24067 301.514574 
L 299.381604 301.70294 
L 299.522071 302.0341 
L 299.662073 301.797364 
L 299.801614 302.846671 
L 299.940697 302.035236 
L 300.079324 301.091086 
L 300.2175 301.68988 
L 300.355225 302.780606 
L 300.492505 302.00554 
L 300.62934 302.528859 
L 300.765736 302.908176 
L 300.901693 302.511745 
L 301.037215 302.322287 
L 301.172305 303.090462 
L 301.306965 303.320347 
L 301.441199 302.68608 
L 301.575008 302.979294 
L 301.708396 303.630472 
L 301.841365 303.138993 
L 301.973918 303.569634 
L 302.106058 302.686042 
L 302.237786 303.82566 
L 302.369106 304.165329 
L 302.50002 303.026235 
L 302.63053 303.013843 
L 302.76064 303.614786 
L 302.890351 303.3296 
L 303.019666 303.38948 
L 303.148588 303.592017 
L 303.277118 303.288345 
L 303.405259 303.840436 
L 303.533014 303.565985 
L 303.660384 303.6041 
L 303.787373 302.703614 
L 303.913982 304.454273 
L 304.040213 304.343164 
L 304.166069 304.451707 
L 304.291553 304.279226 
L 304.416666 304.735351 
L 304.54141 304.308564 
L 304.665788 304.510845 
L 304.789801 304.474041 
L 304.913453 303.888115 
L 305.036745 305.143565 
L 305.159678 305.139336 
L 305.282256 305.018185 
L 305.404481 304.68336 
L 305.526353 305.397627 
L 305.647876 303.997407 
L 305.769051 305.466895 
L 305.88988 304.960692 
L 306.010366 304.749191 
L 306.130509 304.9947 
L 306.250313 304.123068 
L 306.369779 304.829626 
L 306.488909 304.93819 
L 306.607705 305.582216 
L 306.726168 305.612399 
L 306.844301 304.818102 
L 306.962105 305.935152 
L 307.079583 305.614599 
L 307.196736 306.117928 
L 307.313565 305.677388 
L 307.430073 305.664997 
L 307.546262 306.569183 
L 307.662132 306.153982 
L 307.777686 305.971244 
L 307.892926 305.136218 
L 308.007853 305.683082 
L 308.12247 306.18977 
L 308.236776 306.515616 
L 308.350776 306.1408 
L 308.464469 306.123913 
L 308.577857 306.290681 
L 308.690943 306.290155 
L 308.803728 306.590195 
L 308.916213 306.014025 
L 309.0284 305.494457 
L 309.140291 305.916949 
L 309.251887 306.279677 
L 309.36319 306.580354 
L 309.474201 306.801627 
L 309.584921 306.69809 
L 309.695353 307.270323 
L 309.805498 307.637471 
L 309.915357 306.583523 
L 310.024932 306.680571 
L 310.134224 307.275273 
L 310.243235 306.95311 
L 310.351966 306.452063 
L 310.460418 307.8 
L 310.568593 307.094758 
L 310.676493 306.48132 
L 310.784119 307.303109 
L 310.891471 307.00718 
L 310.998553 306.512496 
L 311.105364 304.979245 
L 311.211907 304.7173 
L 311.318182 304.724272 
L 311.318182 287.420359 
L 311.318182 287.420359 
L 311.211907 287.56143 
L 311.105364 288.120244 
L 310.998553 288.95271 
L 310.891471 289.601025 
L 310.784119 290.080395 
L 310.676493 289.371109 
L 310.568593 289.469878 
L 310.460418 289.310632 
L 310.351966 289.055179 
L 310.243235 288.930655 
L 310.134224 289.162081 
L 310.024932 288.81195 
L 309.915357 288.506476 
L 309.805498 289.201552 
L 309.695353 289.29837 
L 309.584921 288.990801 
L 309.474201 288.949196 
L 309.36319 289.410502 
L 309.251887 289.125222 
L 309.140291 288.677872 
L 309.0284 288.787888 
L 308.916213 288.801436 
L 308.803728 288.49909 
L 308.690943 288.016646 
L 308.577857 287.99574 
L 308.464469 288.63609 
L 308.350776 288.082443 
L 308.236776 288.439581 
L 308.12247 288.742256 
L 308.007853 288.403367 
L 307.892926 288.330539 
L 307.777686 288.366994 
L 307.662132 288.368021 
L 307.546262 287.95332 
L 307.430073 288.159078 
L 307.313565 288.119669 
L 307.196736 288.018864 
L 307.079583 287.605031 
L 306.962105 287.34674 
L 306.844301 287.425993 
L 306.726168 287.950341 
L 306.607705 287.594064 
L 306.488909 287.004774 
L 306.369779 287.442294 
L 306.250313 287.16228 
L 306.130509 287.1145 
L 306.010366 286.539239 
L 305.88988 287.158841 
L 305.769051 286.730661 
L 305.647876 287.022515 
L 305.526353 286.987848 
L 305.404481 287.104178 
L 305.282256 287.130552 
L 305.159678 286.586166 
L 305.036745 286.883737 
L 304.913453 286.746635 
L 304.789801 286.758533 
L 304.665788 286.592928 
L 304.54141 286.811794 
L 304.416666 286.905194 
L 304.291553 286.624017 
L 304.166069 286.686872 
L 304.040213 285.69675 
L 303.913982 286.0234 
L 303.787373 286.513666 
L 303.660384 286.237803 
L 303.533014 285.480174 
L 303.405259 285.777092 
L 303.277118 285.72826 
L 303.148588 285.833969 
L 303.019666 285.806712 
L 302.890351 286.031239 
L 302.76064 285.789174 
L 302.63053 285.711412 
L 302.50002 285.393557 
L 302.369106 285.181676 
L 302.237786 285.493887 
L 302.106058 285.382456 
L 301.973918 285.17432 
L 301.841365 285.128901 
L 301.708396 285.243537 
L 301.575008 285.566453 
L 301.441199 285.532596 
L 301.306965 285.186934 
L 301.172305 285.842 
L 301.037215 285.488934 
L 300.901693 284.885827 
L 300.765736 284.402254 
L 300.62934 284.786314 
L 300.492505 284.141973 
L 300.355225 284.413885 
L 300.2175 284.252847 
L 300.079324 284.451634 
L 299.940697 284.348154 
L 299.801614 284.247493 
L 299.662073 283.313831 
L 299.522071 283.87429 
L 299.381604 284.322621 
L 299.24067 283.90189 
L 299.099266 283.434425 
L 298.957387 283.510105 
L 298.815032 284.186314 
L 298.672197 283.615053 
L 298.528878 283.389413 
L 298.385073 283.567334 
L 298.240777 282.767967 
L 298.095989 282.904021 
L 297.950703 282.920081 
L 297.804918 283.172582 
L 297.658629 282.499521 
L 297.511833 282.358071 
L 297.364526 281.717909 
L 297.216705 282.121159 
L 297.068366 282.646825 
L 296.919506 281.904471 
L 296.770121 281.642955 
L 296.620207 281.764202 
L 296.469761 281.921479 
L 296.318778 281.599328 
L 296.167255 281.693976 
L 296.015188 281.170367 
L 295.862573 281.385033 
L 295.709406 281.134237 
L 295.555683 280.822576 
L 295.4014 280.716474 
L 295.246553 280.864398 
L 295.091137 280.622795 
L 294.935149 280.554836 
L 294.778585 280.2975 
L 294.621439 280.5997 
L 294.463709 279.953116 
L 294.305388 280.082495 
L 294.146474 280.099734 
L 293.986961 279.816564 
L 293.826845 279.324966 
L 293.666121 279.555388 
L 293.504785 278.641645 
L 293.342832 279.424056 
L 293.180258 279.002946 
L 293.017057 279.454142 
L 292.853224 278.876854 
L 292.688755 278.996418 
L 292.523645 279.091497 
L 292.357889 278.914595 
L 292.191482 278.671363 
L 292.024418 277.613614 
L 291.856692 277.941164 
L 291.6883 277.186205 
L 291.519235 277.851595 
L 291.349493 277.805159 
L 291.179068 277.490568 
L 291.007954 277.860683 
L 290.836146 277.042346 
L 290.663638 277.232477 
L 290.490424 276.656663 
L 290.316499 275.895232 
L 290.141857 276.375882 
L 289.966492 275.570949 
L 289.790398 275.755679 
L 289.613568 276.015293 
L 289.435997 274.93857 
L 289.257678 275.024226 
L 289.078605 274.73576 
L 288.898772 275.9136 
L 288.718172 275.226523 
L 288.536799 274.835747 
L 288.354645 274.799312 
L 288.171705 274.248866 
L 287.987971 274.164467 
L 287.803436 273.700791 
L 287.618094 273.530427 
L 287.431937 273.870841 
L 287.244958 273.797285 
L 287.05715 272.999231 
L 286.868505 273.392088 
L 286.679017 272.314446 
L 286.488676 272.43201 
L 286.297477 272.50474 
L 286.10541 272.065449 
L 285.912468 272.210631 
L 285.718643 270.911189 
L 285.523927 271.603242 
L 285.328312 270.95709 
L 285.131789 270.320227 
L 284.93435 270.447193 
L 284.735986 270.257309 
L 284.536688 270.36462 
L 284.336448 269.455752 
L 284.135257 269.948869 
L 283.933106 269.512735 
L 283.729985 268.657771 
L 283.525885 268.644434 
L 283.320797 268.479493 
L 283.114711 267.250349 
L 282.907617 264.262327 
L 282.699505 245.987792 
L 282.490365 244.365304 
L 282.280188 244.732238 
L 282.068963 244.092773 
L 281.856678 243.618948 
L 281.643324 244.759384 
L 281.42889 245.14455 
L 281.213365 258.994804 
L 280.996737 263.996098 
L 280.778996 264.162271 
L 280.560129 264.167019 
L 280.340125 264.288903 
L 280.118972 264.338537 
L 279.896659 263.827445 
L 279.673172 263.784548 
L 279.448499 263.627512 
L 279.222629 264.299456 
L 278.995547 263.531094 
L 278.767241 262.974201 
L 278.537698 263.286397 
L 278.306904 262.892018 
L 278.074845 262.120854 
L 277.841507 261.642018 
L 277.606877 261.822292 
L 277.37094 261.871348 
L 277.133681 261.655597 
L 276.895085 261.146006 
L 276.655137 260.949141 
L 276.413822 260.09693 
L 276.171125 260.276526 
L 275.927028 260.341216 
L 275.681516 259.949714 
L 275.434573 259.291072 
L 275.186182 258.754774 
L 274.936324 258.923066 
L 274.684985 258.346006 
L 274.432144 258.414041 
L 274.177785 257.520382 
L 273.921889 257.733266 
L 273.664438 256.642731 
L 273.405412 256.56948 
L 273.144792 256.604422 
L 272.882558 255.617677 
L 272.61869 254.770899 
L 272.353168 254.840155 
L 272.08597 254.573739 
L 271.817076 254.270888 
L 271.546464 253.957567 
L 271.274112 253.855246 
L 270.999997 252.95827 
L 270.724096 252.224147 
L 270.446386 251.420648 
L 270.166843 251.74714 
L 269.885442 250.498398 
L 269.602159 250.632542 
L 269.316968 249.507433 
L 269.029844 249.581897 
L 268.74076 248.980158 
L 268.449689 248.630293 
L 268.156604 247.083096 
L 267.861477 246.850427 
L 267.564278 245.784176 
L 267.264979 244.798267 
L 266.96355 244.533875 
L 266.659959 243.676061 
L 266.354177 243.090533 
L 266.046171 242.29825 
L 265.735909 241.417844 
L 265.423356 240.17383 
L 265.10848 239.117444 
L 264.791246 238.569643 
L 264.471617 238.031139 
L 264.149557 237.095705 
L 263.825029 236.216066 
L 263.497996 235.571073 
L 263.168417 234.533267 
L 262.836253 233.827296 
L 262.501464 232.789536 
L 262.164007 231.720155 
L 261.823839 230.994562 
L 261.480917 230.126949 
L 261.135196 228.246849 
L 260.786629 227.613799 
L 260.435169 226.519071 
L 260.080768 225.169072 
L 259.723377 223.753211 
L 259.362944 223.264295 
L 258.999417 221.935332 
L 258.632742 221.092 
L 258.262865 219.680467 
L 257.889729 217.875143 
L 257.513277 217.51612 
L 257.133448 216.081901 
L 256.750182 215.388165 
L 256.363415 213.02745 
L 255.973084 211.976351 
L 255.579121 211.03924 
L 255.18146 209.453812 
L 254.780029 208.017868 
L 254.374757 206.792134 
L 253.965568 205.299957 
L 253.552388 203.533739 
L 253.135137 202.811573 
L 252.713734 201.24094 
L 252.288096 200.341521 
L 251.858137 198.386325 
L 251.423767 196.587582 
L 250.984896 195.429314 
L 250.54143 194.363351 
L 250.093271 193.065491 
L 249.640319 191.411202 
L 249.182469 190.09734 
L 248.719616 189.016944 
L 248.251649 187.769588 
L 247.778452 186.598987 
L 247.299909 184.737152 
L 246.815896 183.698123 
L 246.326288 182.066708 
L 245.830953 180.832579 
L 245.329756 178.89777 
L 244.822557 178.327773 
L 244.309209 176.51893 
L 243.789563 175.806707 
L 243.263461 173.296407 
L 242.730742 171.989281 
L 242.191236 170.594432 
L 241.644768 168.832304 
L 241.091157 168.049376 
L 240.530214 166.067111 
L 239.96174 165.436212 
L 239.385532 163.974597 
L 238.801376 162.837401 
L 238.20905 161.61401 
L 237.608321 159.44318 
L 236.998949 158.16842 
L 236.38068 157.451124 
L 235.753252 155.824215 
L 235.116388 155.365142 
L 234.469801 154.55808 
L 233.813189 154.707181 
L 233.146236 154.848326 
L 232.468611 155.165588 
L 231.779967 155.108382 
L 231.079941 154.383344 
L 230.368149 154.749051 
L 229.644188 154.207159 
L 228.907637 153.862275 
L 228.158048 153.645802 
L 227.394953 153.004942 
L 226.617855 152.100332 
L 225.826231 151.775459 
L 225.019528 150.908126 
L 224.19716 149.080961 
L 223.358506 147.648325 
L 222.502908 145.292784 
L 221.629668 143.258654 
L 220.738043 140.157215 
L 219.827241 138.476678 
L 218.89642 135.966858 
L 217.94468 133.696183 
L 216.971059 131.599874 
L 215.974528 130.23773 
L 214.953981 128.043937 
L 213.908233 126.492731 
L 212.836008 126.717134 
L 211.735929 126.249637 
L 210.606512 126.25765 
L 209.446147 126.673521 
L 208.253093 128.198837 
L 207.025452 129.676937 
L 205.76116 131.432382 
L 204.45796 134.950305 
L 203.113382 137.60947 
L 201.724712 140.875126 
L 200.28896 143.779698 
L 198.80282 147.241651 
L 197.262627 149.459794 
L 195.6643 151.43068 
L 194.003277 152.511395 
L 192.27444 153.160232 
L 190.472013 153.007226 
L 188.589452 152.150109 
L 186.619299 152.274679 
L 184.553005 151.305825 
L 182.380701 150.23271 
L 180.090919 148.958132 
L 177.670224 147.286116 
L 175.102732 146.225139 
L 172.369484 143.957102 
L 169.447592 142.510244 
L 166.309071 139.562273 
L 162.919211 136.186543 
L 159.234224 132.109363 
L 155.197776 127.36559 
L 150.735691 122.04801 
L 145.747503 115.251568 
L 140.092363 106.959368 
L 133.563983 96.816111 
L 125.842548 85.295433 
L 116.392275 70.884853 
L 104.208754 70.348071 
L 87.037047 60.40717 
L 57.681818 55.8 
L -97399.565718 89.33406 
z
" clip-path="url(#pe097ff7547)" style="fill: #dd8452; fill-opacity: 0.2; stroke: #dd8452; stroke-opacity: 0.2; stroke-width: 2"/>
   </g>
   <g id="line2d_51">
    <path d="M -1 65.642871 
L 57.681818 65.622715 
L 87.037047 69.882785 
L 104.208754 80.824667 
L 116.392275 81.87405 
L 125.842548 96.74459 
L 133.563983 109.879001 
L 140.092363 119.885876 
L 145.747503 128.044884 
L 150.735691 134.520562 
L 155.197776 139.555928 
L 159.234224 143.678561 
L 162.919211 147.096772 
L 166.309071 149.90775 
L 169.447592 152.216442 
L 172.369484 154.140359 
L 175.102732 155.537992 
L 177.670224 156.648661 
L 180.090919 157.448358 
L 182.380701 157.984417 
L 184.553005 158.150419 
L 186.619299 157.916815 
L 188.589452 157.12957 
L 190.472013 156.129663 
L 192.27444 154.852611 
L 194.003277 153.361346 
L 195.6643 151.411577 
L 197.262627 149.122407 
L 198.80282 146.555538 
L 200.28896 143.556719 
L 203.113382 138.989491 
L 205.76116 135.406581 
L 207.025452 134.161467 
L 208.253093 133.604744 
L 209.446147 133.737397 
L 210.606512 134.158474 
L 212.836008 135.373353 
L 213.908233 136.577828 
L 214.953981 138.109342 
L 216.971059 141.798665 
L 218.89642 146.29382 
L 223.358506 158.205216 
L 224.19716 160.042465 
L 225.019528 161.447561 
L 225.826231 162.581782 
L 228.158048 164.903667 
L 229.644188 165.995259 
L 233.146236 168.033255 
L 233.813189 168.257242 
L 234.469801 168.802148 
L 235.753252 170.336224 
L 236.998949 172.234811 
L 237.608321 173.406587 
L 238.801376 176.161952 
L 240.530214 179.856416 
L 243.789563 187.575694 
L 245.329756 191.226534 
L 250.54143 203.750004 
L 252.713734 210.23828 
L 261.135196 238.121953 
L 263.168417 244.411217 
L 266.96355 254.117702 
L 267.564278 255.434139 
L 268.156604 256.348336 
L 270.999997 261.853445 
L 274.432144 266.702015 
L 275.186182 267.740021 
L 275.927028 268.753675 
L 276.895085 269.621498 
L 277.133681 269.730145 
L 278.074845 270.863533 
L 280.340125 272.910547 
L 280.778996 272.870993 
L 280.996737 272.488465 
L 281.213365 265.656851 
L 281.42889 248.591026 
L 281.643324 247.647737 
L 281.856678 247.428134 
L 282.068963 247.453147 
L 282.280188 247.633563 
L 282.490365 248.113839 
L 282.699505 249.123924 
L 282.907617 271.789991 
L 283.114711 274.970366 
L 283.525885 275.97999 
L 283.933106 276.44667 
L 285.718643 278.247756 
L 286.868505 279.781397 
L 287.431937 280.25426 
L 288.171705 280.38624 
L 288.898772 280.938036 
L 289.257678 280.99699 
L 289.613568 281.554165 
L 290.141857 282.134729 
L 290.316499 282.350736 
L 290.663638 283.004903 
L 291.179068 283.392116 
L 291.519235 283.599508 
L 291.856692 283.843615 
L 292.523645 284.373183 
L 292.688755 284.578755 
L 293.180258 284.717045 
L 293.504785 284.810453 
L 293.826845 284.892239 
L 294.146474 285.202633 
L 294.463709 285.585227 
L 295.709406 286.167761 
L 296.167255 286.639366 
L 296.770121 286.895039 
L 296.919506 286.914369 
L 297.364526 287.23868 
L 297.804918 287.534121 
L 298.385073 287.60319 
L 299.662073 287.918081 
L 299.940697 288.2517 
L 300.2175 288.242419 
L 300.492505 288.598875 
L 300.901693 288.532776 
L 302.369106 289.818066 
L 302.76064 289.91653 
L 303.405259 290.340104 
L 303.660384 290.372286 
L 303.913982 290.471271 
L 304.166069 290.510042 
L 304.416666 290.515697 
L 304.789801 290.668716 
L 305.159678 290.751579 
L 306.010366 290.57484 
L 306.607705 291.518115 
L 306.844301 291.612954 
L 307.196736 291.423714 
L 307.313565 291.411467 
L 307.546262 291.157671 
L 307.777686 291.293451 
L 308.007853 291.346335 
L 308.690943 292.207106 
L 308.916213 292.260782 
L 309.36319 292.382158 
L 309.474201 292.32315 
L 309.695353 292.563927 
L 310.024932 292.371659 
L 310.134224 292.258704 
L 310.351966 292.350676 
L 310.784119 292.457435 
L 310.891471 292.563329 
L 311.211907 287.699211 
L 311.318182 287.606006 
L 311.318182 287.606006 
" clip-path="url(#pe097ff7547)" style="fill: none; stroke: #4c72b0; stroke-width: 3; stroke-linecap: round"/>
   </g>
   <g id="line2d_52">
    <path d="M -1 63.616119 
L 57.681818 63.595865 
L 87.037047 67.756452 
L 104.208754 78.393287 
L 116.392275 79.101025 
L 125.842548 93.135397 
L 133.563983 105.78112 
L 140.092363 115.333231 
L 145.747503 123.279629 
L 150.735691 129.991791 
L 155.197776 135.418619 
L 162.919211 144.008056 
L 166.309071 147.294194 
L 169.447592 150.013036 
L 175.102732 153.964561 
L 180.090919 156.817441 
L 184.553005 158.74074 
L 186.619299 159.451955 
L 188.589452 159.945199 
L 190.472013 160.187509 
L 192.27444 160.190623 
L 194.003277 159.702398 
L 195.6643 158.829617 
L 197.262627 157.411266 
L 198.80282 155.320457 
L 200.28896 152.760594 
L 207.025452 139.707585 
L 208.253093 137.788232 
L 209.446147 136.475372 
L 210.606512 135.518053 
L 211.735929 135.002968 
L 212.836008 134.9431 
L 213.908233 135.402283 
L 214.953981 136.358084 
L 215.974528 137.814213 
L 216.971059 139.743364 
L 217.94468 141.885838 
L 222.502908 153.536612 
L 224.19716 156.922298 
L 225.019528 158.29658 
L 225.826231 159.363494 
L 227.394953 160.985476 
L 228.907637 162.152025 
L 229.644188 162.628098 
L 231.079941 163.1241 
L 232.468611 163.451977 
L 233.813189 163.243009 
L 234.469801 163.557331 
L 235.753252 164.794138 
L 236.38068 165.63477 
L 236.998949 166.65143 
L 237.608321 167.873637 
L 238.20905 169.633286 
L 241.091157 176.05168 
L 244.822557 185.860301 
L 251.423767 204.873713 
L 255.973084 219.790582 
L 258.262865 227.637481 
L 263.168417 242.705706 
L 265.735909 249.503509 
L 266.659959 252.263891 
L 269.316968 258.145328 
L 270.724096 260.833491 
L 271.274112 261.67604 
L 271.817076 262.648446 
L 274.432144 266.435521 
L 275.681516 268.306722 
L 278.767241 271.751184 
L 280.340125 272.95845 
L 280.560129 273.035955 
L 280.996737 272.741121 
L 281.213365 267.55578 
L 281.42889 254.155405 
L 281.643324 253.243196 
L 281.856678 253.010311 
L 282.068963 253.08637 
L 282.280188 253.381968 
L 282.490365 253.907045 
L 282.699505 255.042279 
L 282.907617 272.834138 
L 283.114711 275.682994 
L 283.525885 277.058844 
L 283.933106 277.827991 
L 287.987971 282.723939 
L 289.078605 283.837783 
L 289.257678 283.689487 
L 290.316499 284.592079 
L 290.490424 285.238319 
L 291.179068 286.002685 
L 291.349493 286.015102 
L 292.357889 286.887302 
L 292.688755 287.359049 
L 293.017057 287.599651 
L 293.342832 287.680619 
L 296.919506 290.360561 
L 297.216705 290.519637 
L 298.528878 291.653857 
L 300.492505 292.802769 
L 301.172305 293.541617 
L 301.441199 293.639185 
L 302.63053 293.91906 
L 302.890351 294.033581 
L 303.913982 294.399971 
L 304.416666 294.91512 
L 304.665788 295.005893 
L 305.036745 295.098524 
L 305.159678 295.106507 
L 305.404481 295.209979 
L 305.88988 295.38029 
L 306.130509 295.351748 
L 306.369779 295.546483 
L 306.488909 295.548958 
L 306.844301 295.891183 
L 307.079583 296.140948 
L 307.430073 296.426699 
L 307.662132 296.493765 
L 307.892926 296.553581 
L 308.236776 296.567018 
L 308.350776 296.572793 
L 308.577857 296.716656 
L 309.474201 297.331679 
L 309.805498 297.458915 
L 309.915357 297.367119 
L 310.134224 297.438637 
L 310.243235 297.383096 
L 310.460418 297.462992 
L 310.568593 297.445248 
L 310.784119 297.548508 
L 310.891471 297.516513 
L 311.318182 295.689906 
L 311.318182 295.689906 
" clip-path="url(#pe097ff7547)" style="fill: none; stroke: #dd8452; stroke-width: 3; stroke-linecap: round"/>
   </g>
   <g id="line2d_53"/>
   <g id="line2d_54"/>
   <g id="patch_3">
    <path d="M 45 320.4 
L 45 43.2 
" style="fill: none; stroke: #262626; stroke-width: 2.5; stroke-linejoin: miter; stroke-linecap: square"/>
   </g>
   <g id="patch_4">
    <path d="M 45 320.4 
L 324 320.4 
" style="fill: none; stroke: #262626; stroke-width: 2.5; stroke-linejoin: miter; stroke-linecap: square"/>
   </g>
   <g id="legend_1">
    <g id="patch_5">
     <path d="M 60.4 309.4 
L 186.037187 309.4 
Q 190.437187 309.4 190.437187 305 
L 190.437187 208.38875 
Q 190.437187 203.98875 186.037187 203.98875 
L 60.4 203.98875 
Q 56 203.98875 56 208.38875 
L 56 305 
Q 56 309.4 60.4 309.4 
z
" style="fill: #ffffff; opacity: 0.8; stroke: #cccccc; stroke-width: 2; stroke-linejoin: miter"/>
    </g>
    <g id="text_8">
     <text style="fill: #262626; font: 24px 'Arial', 'DejaVu Sans', 'Liberation Sans', 'Bitstream Vera Sans', sans-serif; text-anchor: start" x="78.076094" y="231.025" transform="rotate(-0 78.076094 231.025)">tinnitus</text>
    </g>
    <g id="line2d_55">
     <path d="M 64.8 256.032813 
L 86.8 256.032813 
L 108.8 256.032813 
" style="fill: none; stroke: #4c72b0; stroke-width: 3; stroke-linecap: round"/>
    </g>
    <g id="text_9">
     <text style="fill: #262626; font: 22px 'Arial', 'DejaVu Sans', 'Liberation Sans', 'Bitstream Vera Sans', sans-serif; text-anchor: start" x="126.4" y="263.732813" transform="rotate(-0 126.4 263.732813)">False</text>
    </g>
    <g id="line2d_56">
     <path d="M 64.8 288.324688 
L 86.8 288.324688 
L 108.8 288.324688 
" style="fill: none; stroke: #dd8452; stroke-width: 3; stroke-linecap: round"/>
    </g>
    <g id="text_10">
     <text style="fill: #262626; font: 22px 'Arial', 'DejaVu Sans', 'Liberation Sans', 'Bitstream Vera Sans', sans-serif; text-anchor: start" x="126.4" y="296.024688" transform="rotate(-0 126.4 296.024688)">True</text>
    </g>
   </g>
  </g>
 </g>
 <defs>
  <clipPath id="pe097ff7547">
   <rect x="45" y="43.2" width="279" height="277.2"/>
  </clipPath>
 </defs>
</svg>
